<?xml version="1.0" encoding="us-ascii" standalone="no"?><svg xmlns="http://www.w3.org/2000/svg" xmlns:xlink="http://www.w3.org/1999/xlink" contentStyleType="text/css" height="1053.6px" preserveAspectRatio="none" style="width:536px;height:1053px;background:#FFFFFF;" version="1.1" viewBox="0 0 536 1053" width="536.4px" zoomAndPan="magnify"><defs/><g><!--cluster LockNLoad--><g id="cluster_LockNLoad"><rect fill="none" height="1045.8" rx="1.5" ry="1.5" style="stroke:#181818;stroke-width:0.6;" width="479.4" x="53.4" y="4.2"/><text fill="#000000" font-family="sans-serif" font-size="8.4" font-weight="bold" lengthAdjust="spacing" textLength="46.2" x="270" y="14.4645">LockNLoad</text></g><g id="elem_UC01"><ellipse cx="293.2068" cy="232.9414" fill="#F1F1F1" rx="118.0068" ry="25.0414" style="stroke:#181818;stroke-width:0.3;"/><text fill="#000000" font-family="sans-serif" font-size="8.4" lengthAdjust="spacing" textLength="218.4" x="184.0068" y="235.2195">UC01: As a client, I want to reset my password if I forget it.</text></g><g id="elem_UC02"><ellipse cx="293.0503" cy="325.2501" fill="#F1F1F1" rx="225.5503" ry="46.5501" style="stroke:#181818;stroke-width:0.3;"/><text fill="#000000" font-family="sans-serif" font-size="8.4" lengthAdjust="spacing" textLength="436.8" x="74.6503" y="327.5282">UC02: As a client, I want to upload necessary documents to verify my identity during the license application process.</text></g><g id="elem_UC03"><ellipse cx="293.0557" cy="421.1911" fill="#F1F1F1" rx="135.2557" ry="28.4911" style="stroke:#181818;stroke-width:0.3;"/><text fill="#000000" font-family="sans-serif" font-size="8.4" lengthAdjust="spacing" textLength="253.8" x="166.1557" y="423.4693">UC03: As a client, I want to see the status of my license application.</text></g><g id="elem_UC04"><ellipse cx="293.0294" cy="1011.5259" fill="#F1F1F1" rx="136.4294" ry="28.7259" style="stroke:#181818;stroke-width:0.3;"/><text fill="#000000" font-family="sans-serif" font-size="8.4" lengthAdjust="spacing" textLength="256.2" x="164.9294" y="1013.804">UC04: As ERCA, I want to approve/deny a users license application.</text></g><g id="elem_UC05"><ellipse cx="293.0526" cy="517.1905" fill="#F1F1F1" rx="225.2526" ry="46.4905" style="stroke:#181818;stroke-width:0.3;"/><text fill="#000000" font-family="sans-serif" font-size="8.4" lengthAdjust="spacing" textLength="436.2" x="74.9526" y="519.4686">UC05: As a client, I want to filter the weapons catalog based on different criteria such as type, price, and availability.</text></g><g id="elem_UC06"><ellipse cx="293.2446" cy="607.7089" fill="#F1F1F1" rx="107.8446" ry="23.0089" style="stroke:#181818;stroke-width:0.3;"/><text fill="#000000" font-family="sans-serif" font-size="8.4" lengthAdjust="spacing" textLength="197.4" x="194.5446" y="609.9871">UC06: As a client, I want to see the weapons catalog</text></g><g id="elem_UC07"><ellipse cx="293.198" cy="677.2996" fill="#F1F1F1" rx="118.298" ry="25.0996" style="stroke:#181818;stroke-width:0.3;"/><text fill="#000000" font-family="sans-serif" font-size="8.4" lengthAdjust="spacing" textLength="219" x="183.698" y="679.5777">UC07: As a client, I want to add items to my shopping cart.</text></g><g id="elem_UC08"><ellipse cx="293.0946" cy="744.7189" fill="#F1F1F1" rx="96.8946" ry="20.8189" style="stroke:#181818;stroke-width:0.3;"/><text fill="#000000" font-family="sans-serif" font-size="8.4" lengthAdjust="spacing" textLength="174.6" x="205.7946" y="746.997">UC08: As a client, I want to complete an order.</text></g><g id="elem_UC09"><ellipse cx="293.2164" cy="816.0833" fill="#F1F1F1" rx="141.7164" ry="29.7833" style="stroke:#181818;stroke-width:0.3;"/><text fill="#000000" font-family="sans-serif" font-size="8.4" lengthAdjust="spacing" textLength="267" x="159.7164" y="818.3614">UC09: As a client, I want to view a history of all my previous purchases.</text></g><g id="elem_UC10"><ellipse cx="293.04" cy="66.648" fill="#F1F1F1" rx="194.04" ry="40.248" style="stroke:#181818;stroke-width:0.3;"/><text fill="#000000" font-family="sans-serif" font-size="8.4" lengthAdjust="spacing" textLength="373.2" x="106.44" y="68.9261">UC10: As a client, I want to edit my profile information such as delivery address and contact details.</text></g><g id="elem_UC11"><ellipse cx="292.9593" cy="157.1719" fill="#F1F1F1" rx="139.6593" ry="29.3719" style="stroke:#181818;stroke-width:0.3;"/><text fill="#000000" font-family="sans-serif" font-size="8.4" lengthAdjust="spacing" textLength="262.8" x="161.5593" y="159.45">UC11: As a client, I want to be able to delete my account if necessary.</text></g><g id="elem_UC12"><ellipse cx="293.0157" cy="914.4431" fill="#F1F1F1" rx="230.0157" ry="47.4431" style="stroke:#181818;stroke-width:0.3;"/><text fill="#000000" font-family="sans-serif" font-size="8.4" lengthAdjust="spacing" textLength="445.8" x="70.1157" y="916.7213">UC12: As an administrator, I want to have the ability to add a new weapon to the catalog of weapons available for sale.</text></g><!--entity CLI--><g id="elem_CLI"><ellipse cx="15.3" cy="450.6" fill="#F1F1F1" rx="4.8" ry="4.8" style="stroke:#181818;stroke-width:0.3;"/><path d="M15.3,455.4 L15.3,471.6 M7.5,460.2 L23.1,460.2 M15.3,471.6 L7.5,480.6 M15.3,471.6 L23.1,480.6 " fill="none" style="stroke:#181818;stroke-width:0.3;"/><text fill="#000000" font-family="sans-serif" font-size="8.4" lengthAdjust="spacing" textLength="21.6" x="4.5" y="490.5645">Client</text></g><!--entity ADM--><g id="elem_ADM"><ellipse cx="15.3" cy="895.8" fill="#F1F1F1" rx="4.8" ry="4.8" style="stroke:#181818;stroke-width:0.3;"/><path d="M15.3,900.6 L15.3,916.8 M7.5,905.4 L23.1,905.4 M15.3,916.8 L7.5,925.8 M15.3,916.8 L23.1,925.8 " fill="none" style="stroke:#181818;stroke-width:0.3;"/><text fill="#000000" font-family="sans-serif" font-size="8.4" lengthAdjust="spacing" textLength="23.4" x="3.6" y="935.7645">Admin</text></g><!--entity ERC--><g id="elem_ERC"><ellipse cx="15.3" cy="993" fill="#F1F1F1" rx="4.8" ry="4.8" style="stroke:#181818;stroke-width:0.3;"/><path d="M15.3,997.8 L15.3,1014 M7.5,1002.6 L23.1,1002.6 M15.3,1014 L7.5,1023 M15.3,1014 L23.1,1023 " fill="none" style="stroke:#181818;stroke-width:0.3;"/><text fill="#000000" font-family="sans-serif" font-size="8.4" lengthAdjust="spacing" textLength="22.8" x="3.9" y="1032.9645">ERCA</text></g><!--link CLI to UC01--><g id="link_CLI_UC01"><path d="M16.368,445.44 C17.832,397.674 23.862,292.518 48.6,268.2 C84.528,232.878 139.008,222.564 187.368,221.718 " fill="none" id="CLI-UC01" style="stroke:#181818;stroke-width:0.6;"/></g><!--link CLI to UC02--><g id="link_CLI_UC02"><path d="M18.648,445.41 C22.2,425.652 30.288,398.274 48.6,382.2 C64.164,368.538 82.38,357.984 101.718,349.86 " fill="none" id="CLI-UC02" style="stroke:#181818;stroke-width:0.6;"/></g><!--link CLI to UC03--><g id="link_CLI_UC03"><path d="M26.136,466.068 C32.55,464.19 41.004,461.85 48.6,460.2 C90.978,451.008 137.934,442.992 179.238,436.662 " fill="none" id="CLI-UC03" style="stroke:#181818;stroke-width:0.6;"/></g><!--link ERC to UC04--><g id="link_ERC_UC04"><path d="M26.742,1011.6 C49.164,1011.6 103.02,1011.6 156.432,1011.6 " fill="none" id="ERC-UC04" style="stroke:#181818;stroke-width:0.6;"/></g><!--link CLI to UC05--><g id="link_CLI_UC05"><path d="M26.238,470.994 C43.35,473.964 79.728,480.276 120.252,487.308 " fill="none" id="CLI-UC05" style="stroke:#181818;stroke-width:0.6;"/></g><!--link CLI to UC06--><g id="link_CLI_UC06"><path d="M16.326,492.96 C18.132,517.242 24.93,554.142 48.6,574.2 C88.548,608.046 146.112,617.196 195.288,617.532 " fill="none" id="CLI-UC06" style="stroke:#181818;stroke-width:0.6;"/></g><!--link CLI to UC07--><g id="link_CLI_UC07"><path d="M17.1,492.978 C19.752,535.326 27.63,621.276 48.6,641.4 C84.306,675.666 137.514,686.328 185.13,687.708 " fill="none" id="CLI-UC07" style="stroke:#181818;stroke-width:0.6;"/></g><!--link CLI to UC08--><g id="link_CLI_UC08"><path d="M15.576,493.086 C15.36,548.298 18.066,682.386 48.6,712.8 C91.254,755.292 160.914,760.626 214.89,756.84 " fill="none" id="CLI-UC08" style="stroke:#181818;stroke-width:0.6;"/></g><!--link CLI to UC09--><g id="link_CLI_UC09"><path d="M16.806,493.116 C19.638,561.684 29.28,755.346 48.6,775.8 C76.152,804.972 116.112,818.196 155.742,823.23 " fill="none" id="CLI-UC09" style="stroke:#181818;stroke-width:0.6;"/></g><!--link CLI to UC10--><g id="link_CLI_UC10"><path d="M16.5,445.32 C18.6,370.074 26.748,141.426 48.6,117 C64.494,99.234 84.846,86.784 107.01,78.18 " fill="none" id="CLI-UC10" style="stroke:#181818;stroke-width:0.6;"/></g><!--link CLI to UC11--><g id="link_CLI_UC11"><path d="M17.154,445.32 C20.682,382.314 31.572,215.19 48.6,197.4 C76.68,168.066 117.324,154.926 157.41,150.012 " fill="none" id="CLI-UC11" style="stroke:#181818;stroke-width:0.6;"/></g><!--link ADM to UC12--><g id="link_ADM_UC12"><path d="M27.084,914.4 C35.376,914.4 47.814,914.4 62.868,914.4 " fill="none" id="ADM-UC12" style="stroke:#181818;stroke-width:0.6;"/></g><!--SRC=[XLJBRjim4BphAnQvz9B4iVDmaflXzX0WxQ50Fs1DhIoY52cGb0sXwBztA5ko55Ij3yPWASuEPcVvgOon3g-BHMtOngOojyfLYoR8ZMByvPhtdglCI14fEl9wNqRAjHSLjRDPnYewJrTReyN6A-90s_Utlhh9AssxukRprxxuvVjsqzK0iYnBJ6ptHkZTgP_VtXtdlr26WYI0hdvixvQlj0d4fBecr_H6HsZjv4YGI5LBDOTmT3udNU2uS7wFkewtNQD4CI5SpH8sjO40ig8a1FOjvKur5JuAwVGWNXTjwgTpr7J4UUErtLCiXOnMOj61wngGapzKUvUO1XshYOxxMHr1fECCaMCJo1MfwLyQ3CJt4-A7ZZWvFIR5FUyEie3s5brnmOT_aZvCI1zdrHRQHF6TuADmxMmWCB5nUzhXTavm8jT58HuNINcDhpLJQ5IPEiMsbcjO1INNn3OdFh0slDC63WzY7YTYdlvhtGSbFStJX6OzIyCvmXIbwWOFyqFfwZgDMh6_v6ezONkUPSDIrKOYRBQ4c8eV69ud32-p30SjHnoKEc2BsfG8DgQBlfU3TWX9tNXLWkYIjfSnz_9kbbjoVTeYxp1A8MsnGTKfmVsGSZ4Q-M-JCLYxq0rAEHknrZYCcDZGU7atQJo_lpiOiaD3GF0dVw22bN8Dph7AmnuEp9D5NfuNsK8KNXfOundkZ3kKV3Z5uHodVhGCxkCv8wcMFkap2s_xy9oJ28bmX08R6PIiijzPXiUERcvEBym5hqRuFiCQdl73gFuumayZl1xXvn5-kM3OUy7B36_h6Q-ozFi3]--></g></svg>