<?xml version="1.0" encoding="us-ascii" standalone="no"?><svg xmlns="http://www.w3.org/2000/svg" xmlns:xlink="http://www.w3.org/1999/xlink" contentStyleType="text/css" height="660px" preserveAspectRatio="none" style="width:2026px;height:660px;background:#FAFDFF;" version="1.1" viewBox="0 0 2026 660" width="2026px" zoomAndPan="magnify"><defs/><g><rect fill="#FAFDFF" height="660" style="stroke:none;stroke-width:1.0;" width="2026" x="0" y="0"/><text fill="#000000" font-family="sans-serif" font-size="14" font-weight="bold" lengthAdjust="spacing" textLength="313" x="855.75" y="30.1074">US 03 - View the status of license application</text><rect fill="#C2F0FF" height="435.2012" style="stroke:#1E90FF;stroke-width:1.0;" width="10" x="23.5" y="133.2422"/><rect fill="#C2F0FF" height="402.9102" style="stroke:#1E90FF;stroke-width:1.0;" width="10" x="218.5" y="156.5332"/><rect fill="#C2F0FF" height="340.3281" style="stroke:#1E90FF;stroke-width:1.0;" width="10" x="436" y="187.8242"/><rect fill="#C2F0FF" height="61.291" style="stroke:#1E90FF;stroke-width:1.0;" width="10" x="659.5" y="342.9883"/><rect fill="#C2F0FF" height="277.7461" style="stroke:#1E90FF;stroke-width:1.0;" width="10" x="996.5" y="219.1152"/><rect fill="#C2F0FF" height="30" style="stroke:#1E90FF;stroke-width:1.0;" width="10" x="1199" y="374.2793"/><rect fill="#C2F0FF" height="61.291" style="stroke:#1E90FF;stroke-width:1.0;" width="10" x="1412.5" y="250.4063"/><rect fill="#C2F0FF" height="30" style="stroke:#1E90FF;stroke-width:1.0;" width="10" x="1722.5" y="281.6973"/><rect fill="#C2F0FF" height="30" style="stroke:#1E90FF;stroke-width:1.0;" width="10" x="1925.5" y="435.5703"/><line style="stroke:#1E90FF;stroke-width:0.5;stroke-dasharray:5.0,5.0;" x1="28" x2="28" y1="123.2422" y2="577.4434"/><line style="stroke:#1E90FF;stroke-width:0.5;stroke-dasharray:5.0,5.0;" x1="223" x2="223" y1="123.2422" y2="577.4434"/><line style="stroke:#1E90FF;stroke-width:0.5;stroke-dasharray:5.0,5.0;" x1="441" x2="441" y1="123.2422" y2="577.4434"/><line style="stroke:#1E90FF;stroke-width:0.5;stroke-dasharray:5.0,5.0;" x1="664" x2="664" y1="123.2422" y2="577.4434"/><line style="stroke:#1E90FF;stroke-width:0.5;stroke-dasharray:5.0,5.0;" x1="1001" x2="1001" y1="123.2422" y2="577.4434"/><line style="stroke:#1E90FF;stroke-width:0.5;stroke-dasharray:5.0,5.0;" x1="1204" x2="1204" y1="123.2422" y2="577.4434"/><line style="stroke:#1E90FF;stroke-width:0.5;stroke-dasharray:5.0,5.0;" x1="1417" x2="1417" y1="123.2422" y2="577.4434"/><line style="stroke:#1E90FF;stroke-width:0.5;stroke-dasharray:5.0,5.0;" x1="1727.5" x2="1727.5" y1="123.2422" y2="577.4434"/><line style="stroke:#1E90FF;stroke-width:0.5;stroke-dasharray:5.0,5.0;" x1="1930.5" x2="1930.5" y1="123.2422" y2="577.4434"/><text fill="#000000" font-family="sans-serif" font-size="14" font-weight="bold" lengthAdjust="spacing" textLength="41" x="5" y="119.7285">Client</text><ellipse cx="28.5" cy="53.1211" fill="#C2F0FF" rx="8" ry="8" style="stroke:#1E90FF;stroke-width:0.5;"/><path d="M28.5,61.1211 L28.5,88.1211 M15.5,69.1211 L41.5,69.1211 M28.5,88.1211 L15.5,103.1211 M28.5,88.1211 L41.5,103.1211 " fill="none" style="stroke:#1E90FF;stroke-width:0.5;"/><text fill="#000000" font-family="sans-serif" font-size="14" font-weight="bold" lengthAdjust="spacing" textLength="41" x="5" y="591.5508">Client</text><ellipse cx="28.5" cy="603.5645" fill="#C2F0FF" rx="8" ry="8" style="stroke:#1E90FF;stroke-width:0.5;"/><path d="M28.5,611.5645 L28.5,638.5645 M15.5,619.5645 L41.5,619.5645 M28.5,638.5645 L15.5,653.5645 M28.5,638.5645 L41.5,653.5645 " fill="none" style="stroke:#1E90FF;stroke-width:0.5;"/><rect fill="#FFFFFF" height="32.6211" rx="2.5" ry="2.5" style="stroke:#1E90FF;stroke-width:0.5;" width="193" x="127" y="89.6211"/><text fill="#000000" font-family="sans-serif" font-size="14" font-weight="bold" lengthAdjust="spacing" textLength="179" x="134" y="111.7285">:LicenseApplicationRoute</text><rect fill="#FFFFFF" height="32.6211" rx="2.5" ry="2.5" style="stroke:#1E90FF;stroke-width:0.5;" width="193" x="127" y="576.4434"/><text fill="#000000" font-family="sans-serif" font-size="14" font-weight="bold" lengthAdjust="spacing" textLength="179" x="134" y="598.5508">:LicenseApplicationRoute</text><rect fill="#FFFFFF" height="32.6211" rx="2.5" ry="2.5" style="stroke:#1E90FF;stroke-width:0.5;" width="222" x="330" y="89.6211"/><text fill="#000000" font-family="sans-serif" font-size="14" font-weight="bold" lengthAdjust="spacing" textLength="208" x="337" y="111.7285">:LicenseApplicationController</text><rect fill="#FFFFFF" height="32.6211" rx="2.5" ry="2.5" style="stroke:#1E90FF;stroke-width:0.5;" width="222" x="330" y="576.4434"/><text fill="#000000" font-family="sans-serif" font-size="14" font-weight="bold" lengthAdjust="spacing" textLength="208" x="337" y="598.5508">:LicenseApplicationController</text><rect fill="#FFFFFF" height="32.6211" rx="2.5" ry="2.5" style="stroke:#1E90FF;stroke-width:0.5;" width="205" x="562" y="89.6211"/><text fill="#000000" font-family="sans-serif" font-size="14" font-weight="bold" lengthAdjust="spacing" textLength="191" x="569" y="111.7285">:LicenseApplicationMapper</text><rect fill="#FFFFFF" height="32.6211" rx="2.5" ry="2.5" style="stroke:#1E90FF;stroke-width:0.5;" width="205" x="562" y="576.4434"/><text fill="#000000" font-family="sans-serif" font-size="14" font-weight="bold" lengthAdjust="spacing" textLength="191" x="569" y="598.5508">:LicenseApplicationMapper</text><rect fill="#FFFFFF" height="32.6211" rx="2.5" ry="2.5" style="stroke:#1E90FF;stroke-width:0.5;" width="205" x="899" y="89.6211"/><text fill="#000000" font-family="sans-serif" font-size="14" font-weight="bold" lengthAdjust="spacing" textLength="191" x="906" y="111.7285">:LicenseApplicationService</text><rect fill="#FFFFFF" height="32.6211" rx="2.5" ry="2.5" style="stroke:#1E90FF;stroke-width:0.5;" width="205" x="899" y="576.4434"/><text fill="#000000" font-family="sans-serif" font-size="14" font-weight="bold" lengthAdjust="spacing" textLength="191" x="906" y="598.5508">:LicenseApplicationService</text><rect fill="#FFFFFF" height="51.2422" rx="2.5" ry="2.5" style="stroke:#1E90FF;stroke-width:0.5;" width="180" x="1114" y="71"/><text fill="#000000" font-family="sans-serif" font-size="14" font-weight="bold" lengthAdjust="spacing" textLength="158" x="1125" y="93.1074">licenseApplicationDTO</text><text fill="#000000" font-family="sans-serif" font-size="14" font-weight="bold" lengthAdjust="spacing" textLength="166" x="1121" y="111.7285">:LicenseApplicationDTO</text><rect fill="#FFFFFF" height="51.2422" rx="2.5" ry="2.5" style="stroke:#1E90FF;stroke-width:0.5;" width="180" x="1114" y="576.4434"/><text fill="#000000" font-family="sans-serif" font-size="14" font-weight="bold" lengthAdjust="spacing" textLength="158" x="1125" y="598.5508">licenseApplicationDTO</text><text fill="#000000" font-family="sans-serif" font-size="14" font-weight="bold" lengthAdjust="spacing" textLength="166" x="1121" y="617.1719">:LicenseApplicationDTO</text><rect fill="#FFFFFF" height="32.6211" rx="2.5" ry="2.5" style="stroke:#1E90FF;stroke-width:0.5;" width="227" x="1304" y="89.6211"/><text fill="#000000" font-family="sans-serif" font-size="14" font-weight="bold" lengthAdjust="spacing" textLength="213" x="1311" y="111.7285">:LicenseApplicationRepository</text><rect fill="#FFFFFF" height="32.6211" rx="2.5" ry="2.5" style="stroke:#1E90FF;stroke-width:0.5;" width="227" x="1304" y="576.4434"/><text fill="#000000" font-family="sans-serif" font-size="14" font-weight="bold" lengthAdjust="spacing" textLength="213" x="1311" y="598.5508">:LicenseApplicationRepository</text><rect fill="#FFFFFF" height="32.6211" rx="2.5" ry="2.5" style="stroke:#1E90FF;stroke-width:0.5;" width="206" x="1624.5" y="89.6211"/><text fill="#000000" font-family="sans-serif" font-size="14" font-weight="bold" lengthAdjust="spacing" textLength="192" x="1631.5" y="111.7285">:LicenseApplicationSchema</text><rect fill="#FFFFFF" height="32.6211" rx="2.5" ry="2.5" style="stroke:#1E90FF;stroke-width:0.5;" width="206" x="1624.5" y="576.4434"/><text fill="#000000" font-family="sans-serif" font-size="14" font-weight="bold" lengthAdjust="spacing" textLength="192" x="1631.5" y="598.5508">:LicenseApplicationSchema</text><rect fill="#FFFFFF" height="51.2422" rx="2.5" ry="2.5" style="stroke:#1E90FF;stroke-width:0.5;" width="180" x="1840.5" y="71"/><text fill="#000000" font-family="sans-serif" font-size="14" font-weight="bold" lengthAdjust="spacing" textLength="158" x="1851.5" y="93.1074">licenseApplicationDTO</text><text fill="#000000" font-family="sans-serif" font-size="14" font-weight="bold" lengthAdjust="spacing" textLength="166" x="1847.5" y="111.7285">:LicenseApplicationDTO</text><rect fill="#FFFFFF" height="51.2422" rx="2.5" ry="2.5" style="stroke:#1E90FF;stroke-width:0.5;" width="180" x="1840.5" y="576.4434"/><text fill="#000000" font-family="sans-serif" font-size="14" font-weight="bold" lengthAdjust="spacing" textLength="158" x="1851.5" y="598.5508">licenseApplicationDTO</text><text fill="#000000" font-family="sans-serif" font-size="14" font-weight="bold" lengthAdjust="spacing" textLength="166" x="1847.5" y="617.1719">:LicenseApplicationDTO</text><rect fill="#C2F0FF" height="435.2012" style="stroke:#1E90FF;stroke-width:1.0;" width="10" x="23.5" y="133.2422"/><rect fill="#C2F0FF" height="402.9102" style="stroke:#1E90FF;stroke-width:1.0;" width="10" x="218.5" y="156.5332"/><rect fill="#C2F0FF" height="340.3281" style="stroke:#1E90FF;stroke-width:1.0;" width="10" x="436" y="187.8242"/><rect fill="#C2F0FF" height="61.291" style="stroke:#1E90FF;stroke-width:1.0;" width="10" x="659.5" y="342.9883"/><rect fill="#C2F0FF" height="277.7461" style="stroke:#1E90FF;stroke-width:1.0;" width="10" x="996.5" y="219.1152"/><rect fill="#C2F0FF" height="30" style="stroke:#1E90FF;stroke-width:1.0;" width="10" x="1199" y="374.2793"/><rect fill="#C2F0FF" height="61.291" style="stroke:#1E90FF;stroke-width:1.0;" width="10" x="1412.5" y="250.4063"/><rect fill="#C2F0FF" height="30" style="stroke:#1E90FF;stroke-width:1.0;" width="10" x="1722.5" y="281.6973"/><rect fill="#C2F0FF" height="30" style="stroke:#1E90FF;stroke-width:1.0;" width="10" x="1925.5" y="435.5703"/><polygon fill="#1E90FF" points="206.5,152.5332,216.5,156.5332,206.5,160.5332,210.5,156.5332" style="stroke:#1E90FF;stroke-width:1.0;"/><line style="stroke:#1E90FF;stroke-width:1.0;" x1="33.5" x2="212.5" y1="156.5332" y2="156.5332"/><text fill="#000000" font-family="sans-serif" font-size="13" font-weight="bold" lengthAdjust="spacing" textLength="7" x="66" y="151.2705">1</text><text fill="#000000" font-family="sans-serif" font-size="13" lengthAdjust="spacing" textLength="109" x="77" y="151.2705">HTTP request (get)</text><polygon fill="#1E90FF" points="424,183.8242,434,187.8242,424,191.8242,428,187.8242" style="stroke:#1E90FF;stroke-width:1.0;"/><line style="stroke:#1E90FF;stroke-width:1.0;" x1="228.5" x2="430" y1="187.8242" y2="187.8242"/><text fill="#000000" font-family="sans-serif" font-size="13" font-weight="bold" lengthAdjust="spacing" textLength="7" x="275.25" y="182.5615">2</text><text fill="#000000" font-family="sans-serif" font-size="13" lengthAdjust="spacing" textLength="103" x="286.25" y="182.5615">get(req, res, next)</text><polygon fill="#1E90FF" points="984.5,215.1152,994.5,219.1152,984.5,223.1152,988.5,219.1152" style="stroke:#1E90FF;stroke-width:1.0;"/><line style="stroke:#1E90FF;stroke-width:1.0;" x1="446" x2="990.5" y1="219.1152" y2="219.1152"/><text fill="#000000" font-family="sans-serif" font-size="13" font-weight="bold" lengthAdjust="spacing" textLength="7" x="570.75" y="213.8525">3</text><text fill="#000000" font-family="sans-serif" font-size="13" lengthAdjust="spacing" textLength="290" x="581.75" y="213.8525">getLicenseApplicationStatus(licenseApplicationID)</text><polygon fill="#1E90FF" points="1400.5,246.4063,1410.5,250.4063,1400.5,254.4063,1404.5,250.4063" style="stroke:#1E90FF;stroke-width:1.0;"/><line style="stroke:#1E90FF;stroke-width:1.0;" x1="1006.5" x2="1406.5" y1="250.4063" y2="250.4063"/><text fill="#000000" font-family="sans-serif" font-size="13" font-weight="bold" lengthAdjust="spacing" textLength="7" x="1033" y="245.1436">4</text><text fill="#000000" font-family="sans-serif" font-size="13" lengthAdjust="spacing" textLength="342" x="1044" y="245.1436">status = getLicenseApplicationStatus(licenseApplicationID)</text><polygon fill="#1E90FF" points="1710.5,277.6973,1720.5,281.6973,1710.5,285.6973,1714.5,281.6973" style="stroke:#1E90FF;stroke-width:1.0;"/><line style="stroke:#1E90FF;stroke-width:1.0;" x1="1422.5" x2="1716.5" y1="281.6973" y2="281.6973"/><text fill="#000000" font-family="sans-serif" font-size="13" font-weight="bold" lengthAdjust="spacing" textLength="7" x="1432" y="276.4346">5</text><text fill="#000000" font-family="sans-serif" font-size="13" lengthAdjust="spacing" textLength="270" x="1443" y="276.4346">licenseApplication = find(licenseApplicationID))</text><polygon fill="#1E90FF" points="680.5,338.9883,670.5,342.9883,680.5,346.9883,676.5,342.9883" style="stroke:#1E90FF;stroke-width:1.0;"/><line style="stroke:#1E90FF;stroke-width:1.0;" x1="674.5" x2="995.5" y1="342.9883" y2="342.9883"/><text fill="#000000" font-family="sans-serif" font-size="13" font-weight="bold" lengthAdjust="spacing" textLength="7" x="679" y="337.7256">6</text><text fill="#000000" font-family="sans-serif" font-size="13" lengthAdjust="spacing" textLength="297" x="690" y="337.7256">licenseApplicationDTO = toDTO(licenseApplication)</text><polygon fill="#1E90FF" points="1187,370.2793,1197,374.2793,1187,378.2793,1191,374.2793" style="stroke:#1E90FF;stroke-width:1.0;"/><line style="stroke:#1E90FF;stroke-width:1.0;" x1="669.5" x2="1193" y1="374.2793" y2="374.2793"/><text fill="#000000" font-family="sans-serif" font-size="13" font-weight="bold" lengthAdjust="spacing" textLength="7" x="906.75" y="369.0166">7</text><text fill="#000000" font-family="sans-serif" font-size="13" lengthAdjust="spacing" textLength="44" x="917.75" y="369.0166">create()</text><polygon fill="#1E90FF" points="1913.5,431.5703,1923.5,435.5703,1913.5,439.5703,1917.5,435.5703" style="stroke:#1E90FF;stroke-width:1.0;"/><line style="stroke:#1E90FF;stroke-width:1.0;" x1="1006.5" x2="1919.5" y1="435.5703" y2="435.5703"/><text fill="#000000" font-family="sans-serif" font-size="13" font-weight="bold" lengthAdjust="spacing" textLength="7" x="1380.5" y="430.3076">8</text><text fill="#000000" font-family="sans-serif" font-size="13" lengthAdjust="spacing" textLength="160" x="1391.5" y="430.3076">add(licenseApplicationDTO)</text><polygon fill="#1E90FF" points="457,492.8613,447,496.8613,457,500.8613,453,496.8613" style="stroke:#1E90FF;stroke-width:1.0;"/><line style="stroke:#1E90FF;stroke-width:1.0;" x1="451" x2="1000.5" y1="496.8613" y2="496.8613"/><text fill="#000000" font-family="sans-serif" font-size="13" font-weight="bold" lengthAdjust="spacing" textLength="7" x="652.75" y="491.5986">9</text><text fill="#000000" font-family="sans-serif" font-size="13" lengthAdjust="spacing" textLength="131" x="663.75" y="491.5986">licenseApplicationDTO</text><polygon fill="#1E90FF" points="239.5,524.1523,229.5,528.1523,239.5,532.1523,235.5,528.1523" style="stroke:#1E90FF;stroke-width:1.0;"/><line style="stroke:#1E90FF;stroke-width:1.0;" x1="233.5" x2="440" y1="528.1523" y2="528.1523"/><text fill="#000000" font-family="sans-serif" font-size="13" font-weight="bold" lengthAdjust="spacing" textLength="14" x="260.25" y="522.8896">10</text><text fill="#000000" font-family="sans-serif" font-size="13" lengthAdjust="spacing" textLength="131" x="278.25" y="522.8896">licenseApplicationDTO</text><polygon fill="#1E90FF" points="44.5,555.4434,34.5,559.4434,44.5,563.4434,40.5,559.4434" style="stroke:#1E90FF;stroke-width:1.0;"/><line style="stroke:#1E90FF;stroke-width:1.0;" x1="38.5" x2="222.5" y1="559.4434" y2="559.4434"/><text fill="#000000" font-family="sans-serif" font-size="13" font-weight="bold" lengthAdjust="spacing" textLength="14" x="48" y="554.1807">11</text><text fill="#000000" font-family="sans-serif" font-size="13" lengthAdjust="spacing" textLength="143" x="66" y="554.1807">licenseApplicationStatus</text><!--SRC=[nLHHQzim47xNhn3DGpDeMEd6664hE7BM1Pp5sDdsCYYgVKv57SkJv7PbxB_lB2T4RjnWs4ZruCI-x_lkkzD9fwFOFEOmEl8YX5T65jNw1XGX-auK9LTyJNt8U9MR9VmoNYvMnHeAGnDyj64JdjojbAoAbCbSAZh8U9PccGl1fn69A3aA_2OKrrEIzps-dbnTiqMmY1g0L2ae9xY8_6cq0VnnnJNyhA18OACSY0m2KO0huCjq1MgILz26F3KHXi6CUSlPuWknG2ynKXr2xK3TsJfh7Noogo4h9HywJHxm7-xQUIZl5UOiNS3W_Ft5kxSNJl10QTZZqz5Ic9UOHrEdfLzZUlw6ZkWt0G_Kt0BLXfjAKvdHNE0SQg2yBF4lDq8MjLsx5VgrqnzzbEDJfwKd7sukMIxmV9nGhgb7tAclW-EWSUtjJ4UoCc3XBEg3Px8mIkOvg8R4-f3csAKjOTw748EwnuyD8zvZv7i4VxduKNHhOQZHyNlr0qgf1NRpSTEKQTZBS78BQxxno_wFuG0TsvdIMYR2XlGnh-J4Y7jk0EU8U7HqYRqOqy_BPKXLVTzfGuShCAzsE1mWmYABP6EAiI42pn2jpsY1LxWBPGXb5XfJY-regJrhm_tMpNnNAIOeOTrDGvJQdD2F_wHPRxhLimOPokupC4KcYhHRgsMGaHIUVQrJaMq9yyvCE0-Op4ZyxSZcffeJbAY5V1HA5E37eHltMwdRRyYDaHfOBa-x2aC3ZbhG5cYcTLi9UwwITY-sGn3rGRFjU7bTw6Phsxt5m_CYY_m5]--></g></svg>