<?xml version="1.0" encoding="us-ascii" standalone="no"?><svg xmlns="http://www.w3.org/2000/svg" xmlns:xlink="http://www.w3.org/1999/xlink" contentStyleType="text/css" height="414px" preserveAspectRatio="none" style="width:792px;height:414px;background:#FAFDFF;" version="1.1" viewBox="0 0 792 414" width="792px" zoomAndPan="magnify"><defs/><g><rect fill="#FAFDFF" height="414" style="stroke:none;stroke-width:1.0;" width="792" x="0" y="0"/><text fill="#000000" font-family="sans-serif" font-size="14" font-weight="bold" lengthAdjust="spacing" textLength="313" x="238.5" y="30.1074">US 03 - View the status of license application</text><rect fill="#C2F0FF" height="188.7461" style="stroke:#1E90FF;stroke-width:1.0;" width="10" x="23.5" y="133.2422"/><rect fill="#C2F0FF" height="156.4551" style="stroke:#1E90FF;stroke-width:1.0;" width="10" x="342.5" y="156.5332"/><rect fill="#C2F0FF" height="93.873" style="stroke:#1E90FF;stroke-width:1.0;" width="10" x="551.5" y="187.8242"/><rect fill="#C2F0FF" height="31.291" style="stroke:#1E90FF;stroke-width:1.0;" width="10" x="743.5" y="219.1152"/><line style="stroke:#1E90FF;stroke-width:0.5;stroke-dasharray:5.0,5.0;" x1="28" x2="28" y1="123.2422" y2="330.9883"/><line style="stroke:#1E90FF;stroke-width:0.5;stroke-dasharray:5.0,5.0;" x1="347.5" x2="347.5" y1="123.2422" y2="330.9883"/><line style="stroke:#1E90FF;stroke-width:0.5;stroke-dasharray:5.0,5.0;" x1="556" x2="556" y1="123.2422" y2="330.9883"/><line style="stroke:#1E90FF;stroke-width:0.5;stroke-dasharray:5.0,5.0;" x1="748" x2="748" y1="123.2422" y2="330.9883"/><text fill="#000000" font-family="sans-serif" font-size="14" font-weight="bold" lengthAdjust="spacing" textLength="41" x="5" y="119.7285">Client</text><ellipse cx="28.5" cy="53.1211" fill="#C2F0FF" rx="8" ry="8" style="stroke:#1E90FF;stroke-width:0.5;"/><path d="M28.5,61.1211 L28.5,88.1211 M15.5,69.1211 L41.5,69.1211 M28.5,88.1211 L15.5,103.1211 M28.5,88.1211 L41.5,103.1211 " fill="none" style="stroke:#1E90FF;stroke-width:0.5;"/><text fill="#000000" font-family="sans-serif" font-size="14" font-weight="bold" lengthAdjust="spacing" textLength="41" x="5" y="345.0957">Client</text><ellipse cx="28.5" cy="357.1094" fill="#C2F0FF" rx="8" ry="8" style="stroke:#1E90FF;stroke-width:0.5;"/><path d="M28.5,365.1094 L28.5,392.1094 M15.5,373.1094 L41.5,373.1094 M28.5,392.1094 L15.5,407.1094 M28.5,392.1094 L41.5,407.1094 " fill="none" style="stroke:#1E90FF;stroke-width:0.5;"/><rect fill="#FFFFFF" height="32.6211" rx="2.5" ry="2.5" style="stroke:#1E90FF;stroke-width:0.5;" width="148" x="273.5" y="89.6211"/><text fill="#000000" font-family="sans-serif" font-size="14" font-weight="bold" lengthAdjust="spacing" textLength="134" x="280.5" y="111.7285">LicenseStatusPage</text><rect fill="#FFFFFF" height="32.6211" rx="2.5" ry="2.5" style="stroke:#1E90FF;stroke-width:0.5;" width="148" x="273.5" y="329.9883"/><text fill="#000000" font-family="sans-serif" font-size="14" font-weight="bold" lengthAdjust="spacing" textLength="134" x="280.5" y="352.0957">LicenseStatusPage</text><rect fill="#FFFFFF" height="32.6211" rx="2.5" ry="2.5" style="stroke:#1E90FF;stroke-width:0.5;" width="167" x="473" y="89.6211"/><text fill="#000000" font-family="sans-serif" font-size="14" font-weight="bold" lengthAdjust="spacing" textLength="153" x="480" y="111.7285">LicenseStatusService</text><rect fill="#FFFFFF" height="32.6211" rx="2.5" ry="2.5" style="stroke:#1E90FF;stroke-width:0.5;" width="167" x="473" y="329.9883"/><text fill="#000000" font-family="sans-serif" font-size="14" font-weight="bold" lengthAdjust="spacing" textLength="153" x="480" y="352.0957">LicenseStatusService</text><rect fill="#FFFFFF" height="32.6211" rx="2.5" ry="2.5" style="stroke:#1E90FF;stroke-width:0.5;" width="75" x="711" y="89.6211"/><text fill="#000000" font-family="sans-serif" font-size="14" font-weight="bold" lengthAdjust="spacing" textLength="61" x="718" y="111.7285">BackEnd</text><rect fill="#FFFFFF" height="32.6211" rx="2.5" ry="2.5" style="stroke:#1E90FF;stroke-width:0.5;" width="75" x="711" y="329.9883"/><text fill="#000000" font-family="sans-serif" font-size="14" font-weight="bold" lengthAdjust="spacing" textLength="61" x="718" y="352.0957">BackEnd</text><rect fill="#C2F0FF" height="188.7461" style="stroke:#1E90FF;stroke-width:1.0;" width="10" x="23.5" y="133.2422"/><rect fill="#C2F0FF" height="156.4551" style="stroke:#1E90FF;stroke-width:1.0;" width="10" x="342.5" y="156.5332"/><rect fill="#C2F0FF" height="93.873" style="stroke:#1E90FF;stroke-width:1.0;" width="10" x="551.5" y="187.8242"/><rect fill="#C2F0FF" height="31.291" style="stroke:#1E90FF;stroke-width:1.0;" width="10" x="743.5" y="219.1152"/><polygon fill="#1E90FF" points="330.5,152.5332,340.5,156.5332,330.5,160.5332,334.5,156.5332" style="stroke:#1E90FF;stroke-width:1.0;"/><line style="stroke:#1E90FF;stroke-width:1.0;" x1="33.5" x2="336.5" y1="156.5332" y2="156.5332"/><text fill="#000000" font-family="sans-serif" font-size="13" font-weight="bold" lengthAdjust="spacing" textLength="7" x="43" y="151.2705">1</text><text fill="#000000" font-family="sans-serif" font-size="13" lengthAdjust="spacing" textLength="279" x="54" y="151.2705">Asks to see the status of the license application</text><polygon fill="#1E90FF" points="539.5,183.8242,549.5,187.8242,539.5,191.8242,543.5,187.8242" style="stroke:#1E90FF;stroke-width:1.0;"/><line style="stroke:#1E90FF;stroke-width:1.0;" x1="352.5" x2="545.5" y1="187.8242" y2="187.8242"/><text fill="#000000" font-family="sans-serif" font-size="13" font-weight="bold" lengthAdjust="spacing" textLength="7" x="362" y="182.5615">2</text><text fill="#000000" font-family="sans-serif" font-size="13" lengthAdjust="spacing" textLength="169" x="373" y="182.5615">getStatus(licenseApplication)</text><polygon fill="#1E90FF" points="731.5,215.1152,741.5,219.1152,731.5,223.1152,735.5,219.1152" style="stroke:#1E90FF;stroke-width:1.0;"/><line style="stroke:#1E90FF;stroke-width:1.0;" x1="561.5" x2="737.5" y1="219.1152" y2="219.1152"/><text fill="#000000" font-family="sans-serif" font-size="13" font-weight="bold" lengthAdjust="spacing" textLength="7" x="588.5" y="213.8525">3</text><text fill="#000000" font-family="sans-serif" font-size="13" lengthAdjust="spacing" textLength="117" x="599.5" y="213.8525">HTTP request (GET)</text><polygon fill="#1E90FF" points="572.5,246.4063,562.5,250.4063,572.5,254.4063,568.5,250.4063" style="stroke:#1E90FF;stroke-width:1.0;"/><line style="stroke:#1E90FF;stroke-width:1.0;stroke-dasharray:2.0,2.0;" x1="566.5" x2="747.5" y1="250.4063" y2="250.4063"/><text fill="#000000" font-family="sans-serif" font-size="13" font-weight="bold" lengthAdjust="spacing" textLength="7" x="576" y="245.1436">4</text><text fill="#000000" font-family="sans-serif" font-size="13" lengthAdjust="spacing" textLength="147" x="587" y="245.1436">license application status</text><polygon fill="#1E90FF" points="363.5,277.6973,353.5,281.6973,363.5,285.6973,359.5,281.6973" style="stroke:#1E90FF;stroke-width:1.0;"/><line style="stroke:#1E90FF;stroke-width:1.0;stroke-dasharray:2.0,2.0;" x1="357.5" x2="555.5" y1="281.6973" y2="281.6973"/><text fill="#000000" font-family="sans-serif" font-size="13" font-weight="bold" lengthAdjust="spacing" textLength="7" x="375.5" y="276.4346">5</text><text fill="#000000" font-family="sans-serif" font-size="13" lengthAdjust="spacing" textLength="147" x="386.5" y="276.4346">license application status</text><polygon fill="#1E90FF" points="44.5,308.9883,34.5,312.9883,44.5,316.9883,40.5,312.9883" style="stroke:#1E90FF;stroke-width:1.0;"/><line style="stroke:#1E90FF;stroke-width:1.0;" x1="38.5" x2="346.5" y1="312.9883" y2="312.9883"/><text fill="#000000" font-family="sans-serif" font-size="13" font-weight="bold" lengthAdjust="spacing" textLength="7" x="61" y="307.7256">6</text><text fill="#000000" font-family="sans-serif" font-size="13" lengthAdjust="spacing" textLength="248" x="72" y="307.7256">Shows the status of the license application</text><!--SRC=[nLHHQzim47xNhpYQXtOFPgKROvXHi1KlAvZ5s5xxM5Jxx8euLYR9pSReVz_P3ekQcT2dz1w4XRxlxhllP9rxcVtTe7VYO4nqLhNT-W4rOsObsutGOWrph4JNs1n_sQ2HTRl6ra91oqjOA8fLhLNNbbmrIiEi4bLPLIw4LYiBkH6Ku0y3YaDIS9VTXujxleoNwGXGkaJj72xJUPJk0CzkSeC_EsmBt6MEPOMnRD5DC5TbZJfiEdm9EHIH9F4D3_ARvNSs08F2AdqCjGTDLvliTVPrY96ijTfEYZoYFzdRUQpkWcfkNC3iylFLfuzNpk6HriXZTkxbqhx5XRHzMVYHmUK7yE1MuXRi8uAnmdO6L0MDf8je4CHcGv_2IjNsSeTPcFUEGUOKSfdewyBPbuThtaZwGyv060YOU-_xmtXKdGrj9AB60SVJuy0CzHFjHop_3ziFCMhBuJYCs32sm1XLoC4MSyftfB3oILYarba0tZMrvaDWLWQielyK3uROxwO6-IyDEKF1qo4Lzw56ErfoiQC5UzOxXyQ9n7jI6FdmBSyJqFqZOInSBABSGP9VOGJUa1xyAJ4xkQn4bzIhuaGZQQzbaQYnaS27x55jpIlDS5EaDDet2VON]--></g></svg>