<?xml version="1.0" encoding="us-ascii" standalone="no"?><svg xmlns="http://www.w3.org/2000/svg" xmlns:xlink="http://www.w3.org/1999/xlink" contentStyleType="text/css" height="643px" preserveAspectRatio="none" style="width:1572px;height:643px;background:#FAFDFF;" version="1.1" viewBox="0 0 1572 643" width="1572px" zoomAndPan="magnify"><defs/><g><rect fill="#FAFDFF" height="643" style="stroke:none;stroke-width:1.0;" width="1572" x="0" y="0"/><text fill="#000000" font-family="sans-serif" font-size="14" font-weight="bold" lengthAdjust="spacing" textLength="700" x="435.25" y="30.1074">US 10 - As a client, I want to edit my profile information such as delivery address and contact details.</text><rect fill="#C2F0FF" height="418.2012" style="stroke:#1E90FF;stroke-width:1.0;" width="10" x="23.5" y="133.2422"/><rect fill="#C2F0FF" height="385.9102" style="stroke:#1E90FF;stroke-width:1.0;" width="10" x="180.5" y="156.5332"/><rect fill="#C2F0FF" height="323.3281" style="stroke:#1E90FF;stroke-width:1.0;" width="10" x="341" y="187.8242"/><rect fill="#C2F0FF" height="61.291" style="stroke:#1E90FF;stroke-width:1.0;" width="10" x="507.5" y="387.2793"/><rect fill="#C2F0FF" height="260.7461" style="stroke:#1E90FF;stroke-width:1.0;" width="10" x="792.5" y="219.1152"/><rect fill="#C2F0FF" height="30" style="stroke:#1E90FF;stroke-width:1.0;" width="10" x="1221.5" y="418.5703"/><rect fill="#C2F0FF" height="61.291" style="stroke:#1E90FF;stroke-width:1.0;" width="10" x="1370" y="294.6973"/><rect fill="#C2F0FF" height="30" style="stroke:#1E90FF;stroke-width:1.0;" width="10" x="1504.5" y="325.9883"/><line style="stroke:#1E90FF;stroke-width:0.5;stroke-dasharray:5.0,5.0;" x1="28" x2="28" y1="123.2422" y2="560.4434"/><line style="stroke:#1E90FF;stroke-width:0.5;stroke-dasharray:5.0,5.0;" x1="185.5" x2="185.5" y1="123.2422" y2="560.4434"/><line style="stroke:#1E90FF;stroke-width:0.5;stroke-dasharray:5.0,5.0;" x1="345.5" x2="345.5" y1="123.2422" y2="560.4434"/><line style="stroke:#1E90FF;stroke-width:0.5;stroke-dasharray:5.0,5.0;" x1="512.5" x2="512.5" y1="123.2422" y2="560.4434"/><line style="stroke:#1E90FF;stroke-width:0.5;stroke-dasharray:5.0,5.0;" x1="797.5" x2="797.5" y1="123.2422" y2="560.4434"/><line style="stroke:#1E90FF;stroke-width:0.5;stroke-dasharray:5.0,5.0;" x1="1226.5" x2="1226.5" y1="123.2422" y2="560.4434"/><line style="stroke:#1E90FF;stroke-width:0.5;stroke-dasharray:5.0,5.0;" x1="1374.5" x2="1374.5" y1="123.2422" y2="560.4434"/><line style="stroke:#1E90FF;stroke-width:0.5;stroke-dasharray:5.0,5.0;" x1="1509.5" x2="1509.5" y1="123.2422" y2="560.4434"/><text fill="#000000" font-family="sans-serif" font-size="14" font-weight="bold" lengthAdjust="spacing" textLength="41" x="5" y="119.7285">Client</text><ellipse cx="28.5" cy="53.1211" fill="#C2F0FF" rx="8" ry="8" style="stroke:#1E90FF;stroke-width:0.5;"/><path d="M28.5,61.1211 L28.5,88.1211 M15.5,69.1211 L41.5,69.1211 M28.5,88.1211 L15.5,103.1211 M28.5,88.1211 L41.5,103.1211 " fill="none" style="stroke:#1E90FF;stroke-width:0.5;"/><text fill="#000000" font-family="sans-serif" font-size="14" font-weight="bold" lengthAdjust="spacing" textLength="41" x="5" y="574.5508">Client</text><ellipse cx="28.5" cy="586.5645" fill="#C2F0FF" rx="8" ry="8" style="stroke:#1E90FF;stroke-width:0.5;"/><path d="M28.5,594.5645 L28.5,621.5645 M15.5,602.5645 L41.5,602.5645 M28.5,621.5645 L15.5,636.5645 M28.5,621.5645 L41.5,636.5645 " fill="none" style="stroke:#1E90FF;stroke-width:0.5;"/><rect fill="#FFFFFF" height="32.6211" rx="2.5" ry="2.5" style="stroke:#1E90FF;stroke-width:0.5;" width="136" x="117.5" y="89.6211"/><text fill="#000000" font-family="sans-serif" font-size="14" font-weight="bold" lengthAdjust="spacing" textLength="122" x="124.5" y="111.7285">:DashboardRoute</text><rect fill="#FFFFFF" height="32.6211" rx="2.5" ry="2.5" style="stroke:#1E90FF;stroke-width:0.5;" width="136" x="117.5" y="559.4434"/><text fill="#000000" font-family="sans-serif" font-size="14" font-weight="bold" lengthAdjust="spacing" textLength="122" x="124.5" y="581.5508">:DashboardRoute</text><rect fill="#FFFFFF" height="32.6211" rx="2.5" ry="2.5" style="stroke:#1E90FF;stroke-width:0.5;" width="165" x="263.5" y="89.6211"/><text fill="#000000" font-family="sans-serif" font-size="14" font-weight="bold" lengthAdjust="spacing" textLength="151" x="270.5" y="111.7285">:DashboardController</text><rect fill="#FFFFFF" height="32.6211" rx="2.5" ry="2.5" style="stroke:#1E90FF;stroke-width:0.5;" width="165" x="263.5" y="559.4434"/><text fill="#000000" font-family="sans-serif" font-size="14" font-weight="bold" lengthAdjust="spacing" textLength="151" x="270.5" y="581.5508">:DashboardController</text><rect fill="#FFFFFF" height="32.6211" rx="2.5" ry="2.5" style="stroke:#1E90FF;stroke-width:0.5;" width="148" x="438.5" y="89.6211"/><text fill="#000000" font-family="sans-serif" font-size="14" font-weight="bold" lengthAdjust="spacing" textLength="134" x="445.5" y="111.7285">:DashboardMapper</text><rect fill="#FFFFFF" height="32.6211" rx="2.5" ry="2.5" style="stroke:#1E90FF;stroke-width:0.5;" width="148" x="438.5" y="559.4434"/><text fill="#000000" font-family="sans-serif" font-size="14" font-weight="bold" lengthAdjust="spacing" textLength="134" x="445.5" y="581.5508">:DashboardMapper</text><rect fill="#FFFFFF" height="32.6211" rx="2.5" ry="2.5" style="stroke:#1E90FF;stroke-width:0.5;" width="148" x="723.5" y="89.6211"/><text fill="#000000" font-family="sans-serif" font-size="14" font-weight="bold" lengthAdjust="spacing" textLength="134" x="730.5" y="111.7285">:DashboardService</text><rect fill="#FFFFFF" height="32.6211" rx="2.5" ry="2.5" style="stroke:#1E90FF;stroke-width:0.5;" width="148" x="723.5" y="559.4434"/><text fill="#000000" font-family="sans-serif" font-size="14" font-weight="bold" lengthAdjust="spacing" textLength="134" x="730.5" y="581.5508">:DashboardService</text><rect fill="#FFFFFF" height="51.2422" rx="2.5" ry="2.5" style="stroke:#1E90FF;stroke-width:0.5;" width="142" x="1155.5" y="71"/><text fill="#000000" font-family="sans-serif" font-size="14" font-weight="bold" lengthAdjust="spacing" textLength="128" x="1162.5" y="93.1074">updatedClientDTO</text><text fill="#000000" font-family="sans-serif" font-size="14" font-weight="bold" lengthAdjust="spacing" textLength="74" x="1189.5" y="111.7285">:ClientDTO</text><rect fill="#FFFFFF" height="51.2422" rx="2.5" ry="2.5" style="stroke:#1E90FF;stroke-width:0.5;" width="142" x="1155.5" y="559.4434"/><text fill="#000000" font-family="sans-serif" font-size="14" font-weight="bold" lengthAdjust="spacing" textLength="128" x="1162.5" y="581.5508">updatedClientDTO</text><text fill="#000000" font-family="sans-serif" font-size="14" font-weight="bold" lengthAdjust="spacing" textLength="74" x="1189.5" y="600.1719">:ClientDTO</text><rect fill="#FFFFFF" height="32.6211" rx="2.5" ry="2.5" style="stroke:#1E90FF;stroke-width:0.5;" width="135" x="1307.5" y="89.6211"/><text fill="#000000" font-family="sans-serif" font-size="14" font-weight="bold" lengthAdjust="spacing" textLength="121" x="1314.5" y="111.7285">:ClientRepository</text><rect fill="#FFFFFF" height="32.6211" rx="2.5" ry="2.5" style="stroke:#1E90FF;stroke-width:0.5;" width="135" x="1307.5" y="559.4434"/><text fill="#000000" font-family="sans-serif" font-size="14" font-weight="bold" lengthAdjust="spacing" textLength="121" x="1314.5" y="581.5508">:ClientRepository</text><rect fill="#FFFFFF" height="32.6211" rx="2.5" ry="2.5" style="stroke:#1E90FF;stroke-width:0.5;" width="114" x="1452.5" y="89.6211"/><text fill="#000000" font-family="sans-serif" font-size="14" font-weight="bold" lengthAdjust="spacing" textLength="100" x="1459.5" y="111.7285">:ClientSchema</text><rect fill="#FFFFFF" height="32.6211" rx="2.5" ry="2.5" style="stroke:#1E90FF;stroke-width:0.5;" width="114" x="1452.5" y="559.4434"/><text fill="#000000" font-family="sans-serif" font-size="14" font-weight="bold" lengthAdjust="spacing" textLength="100" x="1459.5" y="581.5508">:ClientSchema</text><rect fill="#C2F0FF" height="418.2012" style="stroke:#1E90FF;stroke-width:1.0;" width="10" x="23.5" y="133.2422"/><rect fill="#C2F0FF" height="385.9102" style="stroke:#1E90FF;stroke-width:1.0;" width="10" x="180.5" y="156.5332"/><rect fill="#C2F0FF" height="323.3281" style="stroke:#1E90FF;stroke-width:1.0;" width="10" x="341" y="187.8242"/><rect fill="#C2F0FF" height="61.291" style="stroke:#1E90FF;stroke-width:1.0;" width="10" x="507.5" y="387.2793"/><rect fill="#C2F0FF" height="260.7461" style="stroke:#1E90FF;stroke-width:1.0;" width="10" x="792.5" y="219.1152"/><rect fill="#C2F0FF" height="30" style="stroke:#1E90FF;stroke-width:1.0;" width="10" x="1221.5" y="418.5703"/><rect fill="#C2F0FF" height="61.291" style="stroke:#1E90FF;stroke-width:1.0;" width="10" x="1370" y="294.6973"/><rect fill="#C2F0FF" height="30" style="stroke:#1E90FF;stroke-width:1.0;" width="10" x="1504.5" y="325.9883"/><polygon fill="#1E90FF" points="168.5,152.5332,178.5,156.5332,168.5,160.5332,172.5,156.5332" style="stroke:#1E90FF;stroke-width:1.0;"/><line style="stroke:#1E90FF;stroke-width:1.0;" x1="33.5" x2="174.5" y1="156.5332" y2="156.5332"/><text fill="#000000" font-family="sans-serif" font-size="13" font-weight="bold" lengthAdjust="spacing" textLength="7" x="47" y="151.2705">1</text><text fill="#000000" font-family="sans-serif" font-size="13" lengthAdjust="spacing" textLength="109" x="58" y="151.2705">HTTP request (put)</text><polygon fill="#1E90FF" points="329,183.8242,339,187.8242,329,191.8242,333,187.8242" style="stroke:#1E90FF;stroke-width:1.0;"/><line style="stroke:#1E90FF;stroke-width:1.0;" x1="190.5" x2="335" y1="187.8242" y2="187.8242"/><text fill="#000000" font-family="sans-serif" font-size="13" font-weight="bold" lengthAdjust="spacing" textLength="7" x="208.75" y="182.5615">2</text><text fill="#000000" font-family="sans-serif" font-size="13" lengthAdjust="spacing" textLength="103" x="219.75" y="182.5615">put(req, res, next)</text><polygon fill="#1E90FF" points="780.5,215.1152,790.5,219.1152,780.5,223.1152,784.5,219.1152" style="stroke:#1E90FF;stroke-width:1.0;"/><line style="stroke:#1E90FF;stroke-width:1.0;" x1="351" x2="786.5" y1="219.1152" y2="219.1152"/><text fill="#000000" font-family="sans-serif" font-size="13" font-weight="bold" lengthAdjust="spacing" textLength="7" x="368.25" y="213.8525">3</text><text fill="#000000" font-family="sans-serif" font-size="13" lengthAdjust="spacing" textLength="396" x="379.25" y="213.8525">updateClient(name,email,password,birthDate,phoneNumber,address)</text><line style="stroke:#1E90FF;stroke-width:1.0;" x1="802.5" x2="844.5" y1="250.4063" y2="250.4063"/><line style="stroke:#1E90FF;stroke-width:1.0;" x1="844.5" x2="844.5" y1="250.4063" y2="263.4063"/><line style="stroke:#1E90FF;stroke-width:1.0;" x1="803.5" x2="844.5" y1="263.4063" y2="263.4063"/><polygon fill="#1E90FF" points="813.5,259.4063,803.5,263.4063,813.5,267.4063,809.5,263.4063" style="stroke:#1E90FF;stroke-width:1.0;"/><text fill="#000000" font-family="sans-serif" font-size="13" font-weight="bold" lengthAdjust="spacing" textLength="7" x="809.5" y="245.1436">4</text><text fill="#000000" font-family="sans-serif" font-size="13" lengthAdjust="spacing" textLength="394" x="820.5" y="245.1436">verifyFormat(name,email,password,birthDate,phoneNumber,address)</text><polygon fill="#1E90FF" points="1358,290.6973,1368,294.6973,1358,298.6973,1362,294.6973" style="stroke:#1E90FF;stroke-width:1.0;"/><line style="stroke:#1E90FF;stroke-width:1.0;" x1="802.5" x2="1364" y1="294.6973" y2="294.6973"/><text fill="#000000" font-family="sans-serif" font-size="13" font-weight="bold" lengthAdjust="spacing" textLength="7" x="835.25" y="289.4346">5</text><text fill="#000000" font-family="sans-serif" font-size="13" lengthAdjust="spacing" textLength="491" x="846.25" y="289.4346">updatedClient = updateClient(name,email,password,birthDate,phoneNumber,address)</text><polygon fill="#1E90FF" points="1492.5,321.9883,1502.5,325.9883,1492.5,329.9883,1496.5,325.9883" style="stroke:#1E90FF;stroke-width:1.0;"/><line style="stroke:#1E90FF;stroke-width:1.0;" x1="1380" x2="1498.5" y1="325.9883" y2="325.9883"/><text fill="#000000" font-family="sans-serif" font-size="13" font-weight="bold" lengthAdjust="spacing" textLength="7" x="1419.75" y="320.7256">6</text><text fill="#000000" font-family="sans-serif" font-size="13" lengthAdjust="spacing" textLength="34" x="1430.75" y="320.7256">save()</text><polygon fill="#1E90FF" points="528.5,383.2793,518.5,387.2793,528.5,391.2793,524.5,387.2793" style="stroke:#1E90FF;stroke-width:1.0;"/><line style="stroke:#1E90FF;stroke-width:1.0;" x1="522.5" x2="791.5" y1="387.2793" y2="387.2793"/><text fill="#000000" font-family="sans-serif" font-size="13" font-weight="bold" lengthAdjust="spacing" textLength="7" x="527" y="382.0166">7</text><text fill="#000000" font-family="sans-serif" font-size="13" lengthAdjust="spacing" textLength="245" x="538" y="382.0166">updatedClientDTO = toDTO(updatedClient)</text><polygon fill="#1E90FF" points="1209.5,414.5703,1219.5,418.5703,1209.5,422.5703,1213.5,418.5703" style="stroke:#1E90FF;stroke-width:1.0;"/><line style="stroke:#1E90FF;stroke-width:1.0;" x1="517.5" x2="1215.5" y1="418.5703" y2="418.5703"/><text fill="#000000" font-family="sans-serif" font-size="13" font-weight="bold" lengthAdjust="spacing" textLength="7" x="842" y="413.3076">8</text><text fill="#000000" font-family="sans-serif" font-size="13" lengthAdjust="spacing" textLength="44" x="853" y="413.3076">create()</text><polygon fill="#1E90FF" points="362,475.8613,352,479.8613,362,483.8613,358,479.8613" style="stroke:#1E90FF;stroke-width:1.0;"/><line style="stroke:#1E90FF;stroke-width:1.0;" x1="356" x2="796.5" y1="479.8613" y2="479.8613"/><text fill="#000000" font-family="sans-serif" font-size="13" font-weight="bold" lengthAdjust="spacing" textLength="7" x="516.25" y="474.5986">9</text><text fill="#000000" font-family="sans-serif" font-size="13" lengthAdjust="spacing" textLength="105" x="527.25" y="474.5986">updatedClientDTO</text><polygon fill="#1E90FF" points="201.5,507.1523,191.5,511.1523,201.5,515.1523,197.5,511.1523" style="stroke:#1E90FF;stroke-width:1.0;"/><line style="stroke:#1E90FF;stroke-width:1.0;" x1="195.5" x2="345" y1="511.1523" y2="511.1523"/><text fill="#000000" font-family="sans-serif" font-size="13" font-weight="bold" lengthAdjust="spacing" textLength="14" x="206.75" y="505.8896">10</text><text fill="#000000" font-family="sans-serif" font-size="13" lengthAdjust="spacing" textLength="105" x="224.75" y="505.8896">updatedClientDTO</text><polygon fill="#1E90FF" points="44.5,538.4434,34.5,542.4434,44.5,546.4434,40.5,542.4434" style="stroke:#1E90FF;stroke-width:1.0;"/><line style="stroke:#1E90FF;stroke-width:1.0;" x1="38.5" x2="184.5" y1="542.4434" y2="542.4434"/><text fill="#000000" font-family="sans-serif" font-size="13" font-weight="bold" lengthAdjust="spacing" textLength="14" x="48" y="537.1807">11</text><text fill="#000000" font-family="sans-serif" font-size="13" lengthAdjust="spacing" textLength="105" x="66" y="537.1807">updatedClientDTO</text><!--SRC=[nPHTQzim58RlzIiExKKpSBQkZ372Ld3bjYiaJR0pTZCeYYmtehRaINAoCFRVT_oHncvJ5yPeTU6Ww3ddlET3EXf6RfEAuGilGbZXj2goXJ24s3kfScPO1e58M96wkVZb_5JUgame1nm_NUoCyRjRemiLKvrg0uS9I-8aQIFuTPBBdA63tmHmFJJolqStPvStT3gUXZMWJInCwt0Q1kTX0_nfExVYPo4K5utdiKp4M2hHTX3e-5QOixGGNUIXYDbiV4Nz-TNqcbIWpvqsVTGEsXzjRww75zMgZOtHwxqYU_JFTkNiYtk9CVCsS7ZywUJZXvFMOKzgMEEZuLowrvX7LuQ5Rn6yFuOX-1OOy5JYv7bm1UjoYfm64Ki7sGPoenE9k5I9DXbpKYkm1Ly2in2BLAw4sG2BOoCiEb8nSAqSumuF7PEfVLicMZNHlcjLrhx8nIl3mi7dnIcjyZieHVkaVL_Amr70x7AXcOb3NJXHKJJimIYcQ7IQ2bEpj8UTi3pVSfCUBX9c9NaJF7e45ddCd8ZhF8Bvz8SghU-tjLdms7zDX2BNLc8nDarovxEdq8WlHSOQ6PHKtRDMSrcrthxaiycTN67Is37Ym_0KPO_Wwtm-0rE-ITR182_Scns7FICqh4Ww0ZmR8EWXRJrG-CosKSoCqWgDO0HrTUi231JBX8SraAcNCslNUCMzXJHk6I3ZvKkjn7NrcdlDsBVzHWGTRjtYtP39vgAwD__Yjd65tRhNs4m0VFcFcijfg89KkYd6icmb1fsqA8d5azlI0TcgdJpKYkE9Sft6tq7de1rWGj2mD0_Gd1k1VtO419s0tTra5vpk2TvLlcrx-0n8jxFaFmE6U4DUPP6_]--></g></svg>