<?xml version="1.0" encoding="us-ascii" standalone="no"?><svg xmlns="http://www.w3.org/2000/svg" xmlns:xlink="http://www.w3.org/1999/xlink" contentStyleType="text/css" height="755px" preserveAspectRatio="none" style="width:2642px;height:755px;background:#FAFDFF;" version="1.1" viewBox="0 0 2642 755" width="2642px" zoomAndPan="magnify"><defs/><g><rect fill="#FAFDFF" height="755" style="stroke:none;stroke-width:1.0;" width="2642" x="0" y="0"/><text fill="#000000" font-family="sans-serif" font-size="14" font-weight="bold" lengthAdjust="spacing" textLength="175" x="1232.5" y="30.1074">US 02 - Apply to a license</text><rect fill="#C2F0FF" height="529.6855" style="stroke:#1E90FF;stroke-width:1.0;" width="10" x="23.5" y="133.2422"/><rect fill="#C2F0FF" height="497.3945" style="stroke:#1E90FF;stroke-width:1.0;" width="10" x="206.5" y="156.5332"/><rect fill="#C2F0FF" height="434.8125" style="stroke:#1E90FF;stroke-width:1.0;" width="10" x="424" y="187.8242"/><rect fill="#C2F0FF" height="31.291" style="stroke:#1E90FF;stroke-width:1.0;" width="10" x="1161" y="219.1152"/><rect fill="#C2F0FF" height="61.291" style="stroke:#1E90FF;stroke-width:1.0;" width="10" x="1161" y="498.7637"/><rect fill="#C2F0FF" height="278.6973" style="stroke:#1E90FF;stroke-width:1.0;" width="10" x="1632" y="312.6484"/><rect fill="#C2F0FF" height="30" style="stroke:#1E90FF;stroke-width:1.0;" width="10" x="2088" y="530.0547"/><rect fill="#C2F0FF" height="61.291" style="stroke:#1E90FF;stroke-width:1.0;" width="10" x="2301.5" y="406.1816"/><rect fill="#C2F0FF" height="30" style="stroke:#1E90FF;stroke-width:1.0;" width="10" x="2528" y="437.4727"/><line style="stroke:#1E90FF;stroke-width:0.5;stroke-dasharray:5.0,5.0;" x1="28" x2="28" y1="123.2422" y2="671.9277"/><line style="stroke:#1E90FF;stroke-width:0.5;stroke-dasharray:5.0,5.0;" x1="211" x2="211" y1="123.2422" y2="671.9277"/><line style="stroke:#1E90FF;stroke-width:0.5;stroke-dasharray:5.0,5.0;" x1="429" x2="429" y1="123.2422" y2="671.9277"/><line style="stroke:#1E90FF;stroke-width:0.5;stroke-dasharray:5.0,5.0;" x1="1165.5" x2="1165.5" y1="123.2422" y2="671.9277"/><line style="stroke:#1E90FF;stroke-width:0.5;stroke-dasharray:5.0,5.0;" x1="1636.5" x2="1636.5" y1="123.2422" y2="671.9277"/><line style="stroke:#1E90FF;stroke-width:0.5;stroke-dasharray:5.0,5.0;" x1="1917" x2="1917" y1="361.7695" y2="671.9277"/><line style="stroke:#1E90FF;stroke-width:0.5;stroke-dasharray:5.0,5.0;" x1="2093" x2="2093" y1="268.2363" y2="671.9277"/><line style="stroke:#1E90FF;stroke-width:0.5;stroke-dasharray:5.0,5.0;" x1="2306" x2="2306" y1="123.2422" y2="671.9277"/><line style="stroke:#1E90FF;stroke-width:0.5;stroke-dasharray:5.0,5.0;" x1="2533" x2="2533" y1="123.2422" y2="671.9277"/><text fill="#000000" font-family="sans-serif" font-size="14" font-weight="bold" lengthAdjust="spacing" textLength="41" x="5" y="119.7285">Client</text><ellipse cx="28.5" cy="53.1211" fill="#C2F0FF" rx="8" ry="8" style="stroke:#1E90FF;stroke-width:0.5;"/><path d="M28.5,61.1211 L28.5,88.1211 M15.5,69.1211 L41.5,69.1211 M28.5,88.1211 L15.5,103.1211 M28.5,88.1211 L41.5,103.1211 " fill="none" style="stroke:#1E90FF;stroke-width:0.5;"/><text fill="#000000" font-family="sans-serif" font-size="14" font-weight="bold" lengthAdjust="spacing" textLength="41" x="5" y="686.0352">Client</text><ellipse cx="28.5" cy="698.0488" fill="#C2F0FF" rx="8" ry="8" style="stroke:#1E90FF;stroke-width:0.5;"/><path d="M28.5,706.0488 L28.5,733.0488 M15.5,714.0488 L41.5,714.0488 M28.5,733.0488 L15.5,748.0488 M28.5,733.0488 L41.5,748.0488 " fill="none" style="stroke:#1E90FF;stroke-width:0.5;"/><rect fill="#1E90FF" height="32.6211" rx="2.5" ry="2.5" style="stroke:#1E90FF;stroke-width:0.5;" width="193" x="115" y="89.6211"/><text fill="#FFFFFF" font-family="sans-serif" font-size="14" font-weight="bold" lengthAdjust="spacing" textLength="179" x="122" y="111.7285">:LicenseApplicationRoute</text><rect fill="#1E90FF" height="32.6211" rx="2.5" ry="2.5" style="stroke:#1E90FF;stroke-width:0.5;" width="193" x="115" y="670.9277"/><text fill="#FFFFFF" font-family="sans-serif" font-size="14" font-weight="bold" lengthAdjust="spacing" textLength="179" x="122" y="693.0352">:LicenseApplicationRoute</text><rect fill="#1E90FF" height="32.6211" rx="2.5" ry="2.5" style="stroke:#1E90FF;stroke-width:0.5;" width="222" x="318" y="89.6211"/><text fill="#FFFFFF" font-family="sans-serif" font-size="14" font-weight="bold" lengthAdjust="spacing" textLength="208" x="325" y="111.7285">:LicenseApplicationController</text><rect fill="#1E90FF" height="32.6211" rx="2.5" ry="2.5" style="stroke:#1E90FF;stroke-width:0.5;" width="222" x="318" y="670.9277"/><text fill="#FFFFFF" font-family="sans-serif" font-size="14" font-weight="bold" lengthAdjust="spacing" textLength="208" x="325" y="693.0352">:LicenseApplicationController</text><rect fill="#1E90FF" height="32.6211" rx="2.5" ry="2.5" style="stroke:#1E90FF;stroke-width:0.5;" width="205" x="1063.5" y="89.6211"/><text fill="#FFFFFF" font-family="sans-serif" font-size="14" font-weight="bold" lengthAdjust="spacing" textLength="191" x="1070.5" y="111.7285">:LicenseApplicationMapper</text><rect fill="#1E90FF" height="32.6211" rx="2.5" ry="2.5" style="stroke:#1E90FF;stroke-width:0.5;" width="205" x="1063.5" y="670.9277"/><text fill="#FFFFFF" font-family="sans-serif" font-size="14" font-weight="bold" lengthAdjust="spacing" textLength="191" x="1070.5" y="693.0352">:LicenseApplicationMapper</text><rect fill="#1E90FF" height="32.6211" rx="2.5" ry="2.5" style="stroke:#1E90FF;stroke-width:0.5;" width="205" x="1534.5" y="89.6211"/><text fill="#FFFFFF" font-family="sans-serif" font-size="14" font-weight="bold" lengthAdjust="spacing" textLength="191" x="1541.5" y="111.7285">:LicenseApplicationService</text><rect fill="#1E90FF" height="32.6211" rx="2.5" ry="2.5" style="stroke:#1E90FF;stroke-width:0.5;" width="205" x="1534.5" y="670.9277"/><text fill="#FFFFFF" font-family="sans-serif" font-size="14" font-weight="bold" lengthAdjust="spacing" textLength="191" x="1541.5" y="693.0352">:LicenseApplicationService</text><rect fill="#1E90FF" height="51.2422" rx="2.5" ry="2.5" style="stroke:#1E90FF;stroke-width:0.5;" width="151" x="1842" y="670.9277"/><text fill="#FFFFFF" font-family="sans-serif" font-size="14" font-weight="bold" lengthAdjust="spacing" textLength="129" x="1853" y="693.0352">licenseApplication</text><text fill="#FFFFFF" font-family="sans-serif" font-size="14" font-weight="bold" lengthAdjust="spacing" textLength="137" x="1849" y="711.6563">:LicenseApplication</text><rect fill="#1E90FF" height="51.2422" rx="2.5" ry="2.5" style="stroke:#1E90FF;stroke-width:0.5;" width="180" x="2003" y="670.9277"/><text fill="#FFFFFF" font-family="sans-serif" font-size="14" font-weight="bold" lengthAdjust="spacing" textLength="158" x="2014" y="693.0352">licenseApplicationDTO</text><text fill="#FFFFFF" font-family="sans-serif" font-size="14" font-weight="bold" lengthAdjust="spacing" textLength="166" x="2010" y="711.6563">:LicenseApplicationDTO</text><rect fill="#1E90FF" height="32.6211" rx="2.5" ry="2.5" style="stroke:#1E90FF;stroke-width:0.5;" width="227" x="2193" y="89.6211"/><text fill="#FFFFFF" font-family="sans-serif" font-size="14" font-weight="bold" lengthAdjust="spacing" textLength="213" x="2200" y="111.7285">:LicenseApplicationRepository</text><rect fill="#1E90FF" height="32.6211" rx="2.5" ry="2.5" style="stroke:#1E90FF;stroke-width:0.5;" width="227" x="2193" y="670.9277"/><text fill="#FFFFFF" font-family="sans-serif" font-size="14" font-weight="bold" lengthAdjust="spacing" textLength="213" x="2200" y="693.0352">:LicenseApplicationRepository</text><rect fill="#1E90FF" height="32.6211" rx="2.5" ry="2.5" style="stroke:#1E90FF;stroke-width:0.5;" width="206" x="2430" y="89.6211"/><text fill="#FFFFFF" font-family="sans-serif" font-size="14" font-weight="bold" lengthAdjust="spacing" textLength="192" x="2437" y="111.7285">:LicenseApplicationSchema</text><rect fill="#1E90FF" height="32.6211" rx="2.5" ry="2.5" style="stroke:#1E90FF;stroke-width:0.5;" width="206" x="2430" y="670.9277"/><text fill="#FFFFFF" font-family="sans-serif" font-size="14" font-weight="bold" lengthAdjust="spacing" textLength="192" x="2437" y="693.0352">:LicenseApplicationSchema</text><rect fill="#C2F0FF" height="529.6855" style="stroke:#1E90FF;stroke-width:1.0;" width="10" x="23.5" y="133.2422"/><rect fill="#C2F0FF" height="497.3945" style="stroke:#1E90FF;stroke-width:1.0;" width="10" x="206.5" y="156.5332"/><rect fill="#C2F0FF" height="434.8125" style="stroke:#1E90FF;stroke-width:1.0;" width="10" x="424" y="187.8242"/><rect fill="#C2F0FF" height="31.291" style="stroke:#1E90FF;stroke-width:1.0;" width="10" x="1161" y="219.1152"/><rect fill="#C2F0FF" height="61.291" style="stroke:#1E90FF;stroke-width:1.0;" width="10" x="1161" y="498.7637"/><rect fill="#C2F0FF" height="278.6973" style="stroke:#1E90FF;stroke-width:1.0;" width="10" x="1632" y="312.6484"/><rect fill="#C2F0FF" height="30" style="stroke:#1E90FF;stroke-width:1.0;" width="10" x="2088" y="530.0547"/><rect fill="#C2F0FF" height="61.291" style="stroke:#1E90FF;stroke-width:1.0;" width="10" x="2301.5" y="406.1816"/><rect fill="#C2F0FF" height="30" style="stroke:#1E90FF;stroke-width:1.0;" width="10" x="2528" y="437.4727"/><polygon fill="#1E90FF" points="194.5,152.5332,204.5,156.5332,194.5,160.5332,198.5,156.5332" style="stroke:#1E90FF;stroke-width:1.0;"/><line style="stroke:#1E90FF;stroke-width:1.0;" x1="33.5" x2="200.5" y1="156.5332" y2="156.5332"/><text fill="#000000" font-family="sans-serif" font-size="13" font-weight="bold" lengthAdjust="spacing" textLength="7" x="56.5" y="151.2705">1</text><text fill="#000000" font-family="sans-serif" font-size="13" lengthAdjust="spacing" textLength="116" x="67.5" y="151.2705">HTTP request (post)</text><polygon fill="#1E90FF" points="412,183.8242,422,187.8242,412,191.8242,416,187.8242" style="stroke:#1E90FF;stroke-width:1.0;"/><line style="stroke:#1E90FF;stroke-width:1.0;" x1="216.5" x2="418" y1="187.8242" y2="187.8242"/><text fill="#000000" font-family="sans-serif" font-size="13" font-weight="bold" lengthAdjust="spacing" textLength="7" x="254.25" y="182.5615">2</text><text fill="#000000" font-family="sans-serif" font-size="13" lengthAdjust="spacing" textLength="121" x="265.25" y="182.5615">create(req, res, next)</text><polygon fill="#1E90FF" points="1149,215.1152,1159,219.1152,1149,223.1152,1153,219.1152" style="stroke:#1E90FF;stroke-width:1.0;"/><line style="stroke:#1E90FF;stroke-width:1.0;" x1="434" x2="1155" y1="219.1152" y2="219.1152"/><text fill="#000000" font-family="sans-serif" font-size="13" font-weight="bold" lengthAdjust="spacing" textLength="7" x="443.5" y="213.8525">3</text><text fill="#000000" font-family="sans-serif" font-size="13" lengthAdjust="spacing" textLength="697" x="454.5" y="213.8525">licenseApplicationDTO = createLicenseApplicationDTO(name, birthdate, address, email, medicalCertificate, documentID)</text><polygon fill="#1E90FF" points="1991,246.4063,2001,250.4063,1991,254.4063,1995,250.4063" style="stroke:#1E90FF;stroke-width:1.0;"/><line style="stroke:#1E90FF;stroke-width:1.0;" x1="1166" x2="1997" y1="250.4063" y2="250.4063"/><text fill="#000000" font-family="sans-serif" font-size="13" font-weight="bold" lengthAdjust="spacing" textLength="7" x="1557" y="245.1436">4</text><text fill="#000000" font-family="sans-serif" font-size="13" lengthAdjust="spacing" textLength="44" x="1568" y="245.1436">create()</text><rect fill="#1E90FF" height="51.2422" rx="2.5" ry="2.5" style="stroke:#1E90FF;stroke-width:0.5;" width="180" x="2003" y="227.1152"/><text fill="#FFFFFF" font-family="sans-serif" font-size="14" font-weight="bold" lengthAdjust="spacing" textLength="158" x="2014" y="249.2227">licenseApplicationDTO</text><text fill="#FFFFFF" font-family="sans-serif" font-size="14" font-weight="bold" lengthAdjust="spacing" textLength="166" x="2010" y="267.8438">:LicenseApplicationDTO</text><polygon fill="#1E90FF" points="1620,308.6484,1630,312.6484,1620,316.6484,1624,312.6484" style="stroke:#1E90FF;stroke-width:1.0;"/><line style="stroke:#1E90FF;stroke-width:1.0;" x1="434" x2="1626" y1="312.6484" y2="312.6484"/><text fill="#000000" font-family="sans-serif" font-size="13" font-weight="bold" lengthAdjust="spacing" textLength="7" x="885.5" y="307.3857">5</text><text fill="#000000" font-family="sans-serif" font-size="13" lengthAdjust="spacing" textLength="284" x="896.5" y="307.3857">createLicenseApplication(licenceApplicationDTO)</text><polygon fill="#1E90FF" points="1830,339.9395,1840,343.9395,1830,347.9395,1834,343.9395" style="stroke:#1E90FF;stroke-width:1.0;"/><line style="stroke:#1E90FF;stroke-width:1.0;" x1="1642" x2="1836" y1="343.9395" y2="343.9395"/><text fill="#000000" font-family="sans-serif" font-size="13" font-weight="bold" lengthAdjust="spacing" textLength="7" x="1654" y="338.6768">6</text><text fill="#000000" font-family="sans-serif" font-size="13" lengthAdjust="spacing" textLength="165" x="1665" y="338.6768">licenseApplication = create()</text><rect fill="#1E90FF" height="51.2422" rx="2.5" ry="2.5" style="stroke:#1E90FF;stroke-width:0.5;" width="151" x="1842" y="320.6484"/><text fill="#FFFFFF" font-family="sans-serif" font-size="14" font-weight="bold" lengthAdjust="spacing" textLength="129" x="1853" y="342.7559">licenseApplication</text><text fill="#FFFFFF" font-family="sans-serif" font-size="14" font-weight="bold" lengthAdjust="spacing" textLength="137" x="1849" y="361.377">:LicenseApplication</text><polygon fill="#1E90FF" points="2289.5,402.1816,2299.5,406.1816,2289.5,410.1816,2293.5,406.1816" style="stroke:#1E90FF;stroke-width:1.0;"/><line style="stroke:#1E90FF;stroke-width:1.0;" x1="1642" x2="2295.5" y1="406.1816" y2="406.1816"/><text fill="#000000" font-family="sans-serif" font-size="13" font-weight="bold" lengthAdjust="spacing" textLength="7" x="1896.75" y="400.9189">7</text><text fill="#000000" font-family="sans-serif" font-size="13" lengthAdjust="spacing" textLength="139" x="1907.75" y="400.9189">save(licenseApplication)</text><polygon fill="#1E90FF" points="2516,433.4727,2526,437.4727,2516,441.4727,2520,437.4727" style="stroke:#1E90FF;stroke-width:1.0;"/><line style="stroke:#1E90FF;stroke-width:1.0;" x1="2311.5" x2="2522" y1="437.4727" y2="437.4727"/><text fill="#000000" font-family="sans-serif" font-size="13" font-weight="bold" lengthAdjust="spacing" textLength="7" x="2344.75" y="432.21">8</text><text fill="#000000" font-family="sans-serif" font-size="13" lengthAdjust="spacing" textLength="139" x="2355.75" y="432.21">save(licenceApplication)</text><polygon fill="#1E90FF" points="1182,494.7637,1172,498.7637,1182,502.7637,1178,498.7637" style="stroke:#1E90FF;stroke-width:1.0;"/><line style="stroke:#1E90FF;stroke-width:1.0;" x1="1176" x2="1631" y1="498.7637" y2="498.7637"/><text fill="#000000" font-family="sans-serif" font-size="13" font-weight="bold" lengthAdjust="spacing" textLength="7" x="1180.5" y="493.501">9</text><text fill="#000000" font-family="sans-serif" font-size="13" lengthAdjust="spacing" textLength="431" x="1191.5" y="493.501">licenceApplicationDTO = createLicenceApplicationDTO(licenceApplication)</text><polygon fill="#1E90FF" points="2076,526.0547,2086,530.0547,2076,534.0547,2080,530.0547" style="stroke:#1E90FF;stroke-width:1.0;"/><line style="stroke:#1E90FF;stroke-width:1.0;" x1="1171" x2="2082" y1="530.0547" y2="530.0547"/><text fill="#000000" font-family="sans-serif" font-size="13" font-weight="bold" lengthAdjust="spacing" textLength="14" x="1598.5" y="524.792">10</text><text fill="#000000" font-family="sans-serif" font-size="13" lengthAdjust="spacing" textLength="44" x="1616.5" y="524.792">create()</text><polygon fill="#1E90FF" points="445,587.3457,435,591.3457,445,595.3457,441,591.3457" style="stroke:#1E90FF;stroke-width:1.0;"/><line style="stroke:#1E90FF;stroke-width:1.0;" x1="439" x2="1636" y1="591.3457" y2="591.3457"/><text fill="#000000" font-family="sans-serif" font-size="13" font-weight="bold" lengthAdjust="spacing" textLength="14" x="961" y="586.083">11</text><text fill="#000000" font-family="sans-serif" font-size="13" lengthAdjust="spacing" textLength="131" x="979" y="586.083">licenceApplicationDTO</text><polygon fill="#1E90FF" points="227.5,618.6367,217.5,622.6367,227.5,626.6367,223.5,622.6367" style="stroke:#1E90FF;stroke-width:1.0;"/><line style="stroke:#1E90FF;stroke-width:1.0;" x1="221.5" x2="428" y1="622.6367" y2="622.6367"/><text fill="#000000" font-family="sans-serif" font-size="13" font-weight="bold" lengthAdjust="spacing" textLength="14" x="248.25" y="617.374">12</text><text fill="#000000" font-family="sans-serif" font-size="13" lengthAdjust="spacing" textLength="131" x="266.25" y="617.374">licenceApplicationDTO</text><polygon fill="#1E90FF" points="44.5,649.9277,34.5,653.9277,44.5,657.9277,40.5,653.9277" style="stroke:#1E90FF;stroke-width:1.0;"/><line style="stroke:#1E90FF;stroke-width:1.0;" x1="38.5" x2="210.5" y1="653.9277" y2="653.9277"/><text fill="#000000" font-family="sans-serif" font-size="13" font-weight="bold" lengthAdjust="spacing" textLength="14" x="48" y="648.665">13</text><text fill="#000000" font-family="sans-serif" font-size="13" lengthAdjust="spacing" textLength="131" x="66" y="648.665">licenceApplicationDTO</text><!--SRC=[xLLDJnin4BtxLupWG429Yb1LLL6Bj7XBYvIKA4bllHYl5omSUsjxQL7L_zvPRo3ERXBs57ge3v6oyzwRDn-oZmOp_wZ4OC-745Pweyl5ZR24k7kf2sRP0bAHirBvkVZb4oLlzK9e3nn_rc4NZD_VMbFgZ1fbB1pcBC_oF8OuyQCKcWluJG3FIEPY9BMuC3OJjcQb9hiLzaALOXtI44ycaz4LJUPNrrz902RS6xiBjG9jpXO0hHekmwd9rfgV6qtkKfmmwoMN1TE-ATvGYP2NHlksWLXgHyRFcAA80OUdxy_UlJsBWZlQz2UUbpR-_wp-wLaT3URIlyPLuQkqy6q6fsSmWAGer2Du0moKnAl1YSfQ6A5x4_N2xUKMgzB2mOURSweaNbC7m1maf5ZP2C7Xg7PQUPUSUMdqr9HU1FXqsWLFSVRMA2Li857QXJHcHV5467SXp8Hzm8yrOzPYg1RXkzuiL2jq44ZdrziqC5JBf9qQAWhZ98xZiIPDFqqwLSpln88j2wOax99pXiiGTVjy4RcN3mnlmOIG10Rdk1X3-3AVJy1MRvdpqCCA_V4AY9j3fjCAIkaGk1NuiOVWFZ9S7pI-eX4QLuPG6j3Z8MoS17nSgcmSHa-pXUZ3ZRJ-BaDG7rYMOIPCXIsKgWyBaI5SKO5jpoiYOZB3o-ePlqfZBsD2ny5AUd82pzwFIIRMCBNTsJEYxQiN2k4Dgt6g6K61IYPaQjVzN3IcNo9nTn3gs8FejV6nThLa0HriqZKItqR2DOlBRFmDahMDyPDVldDEpUWBwLUjZnk_YgThTjBcI6fhT9krzTAM4wms-MKqVThcf0CQT_zey2g7_0K0]--></g></svg>