<?xml version="1.0" encoding="us-ascii" standalone="no"?><svg xmlns="http://www.w3.org/2000/svg" xmlns:xlink="http://www.w3.org/1999/xlink" contentStyleType="text/css" height="417px" preserveAspectRatio="none" style="width:131px;height:417px;background:#FFFFFF;" version="1.1" viewBox="0 0 131 417" width="131px" zoomAndPan="magnify"><defs/><g><!--cluster Weapons--><g id="cluster_Weapons"><path d="M8.5,224.0137 L74.5,224.0137 A3.75,3.75 0 0 1 77,226.5137 L84,248.6348 L121.5,248.6348 A2.5,2.5 0 0 1 124,251.1348 L124,407.5137 A2.5,2.5 0 0 1 121.5,410.0137 L8.5,410.0137 A2.5,2.5 0 0 1 6,407.5137 L6,226.5137 A2.5,2.5 0 0 1 8.5,224.0137 " fill="none" style="stroke:#000000;stroke-width:1.5;"/><line style="stroke:#000000;stroke-width:1.5;" x1="6" x2="84" y1="248.6348" y2="248.6348"/><text fill="#000000" font-family="sans-serif" font-size="14" font-weight="bold" lengthAdjust="spacing" textLength="65" x="10" y="241.1211">Weapons</text></g><!--cluster Users--><g id="cluster_Users"><path d="M12.5,6.0137 L54.5,6.0137 A3.75,3.75 0 0 1 57,8.5137 L64,30.6348 L117.5,30.6348 A2.5,2.5 0 0 1 120,33.1348 L120,170.5137 A2.5,2.5 0 0 1 117.5,173.0137 L12.5,173.0137 A2.5,2.5 0 0 1 10,170.5137 L10,8.5137 A2.5,2.5 0 0 1 12.5,6.0137 " fill="none" style="stroke:#000000;stroke-width:1.5;"/><line style="stroke:#000000;stroke-width:1.5;" x1="10" x2="64" y1="30.6348" y2="30.6348"/><text fill="#000000" font-family="sans-serif" font-size="14" font-weight="bold" lengthAdjust="spacing" textLength="41" x="14" y="23.1211">Users</text></g><!--class Weapon--><g id="elem_Weapon"><rect codeLine="6" fill="#F1F1F1" height="133.1055" id="Weapon" rx="2.5" ry="2.5" style="stroke:#181818;stroke-width:0.5;" width="86" x="22" y="261.0137"/><ellipse cx="37.45" cy="277.0137" fill="#ADD1B2" rx="11" ry="11" style="stroke:#181818;stroke-width:1.0;"/><path d="M40.2156,272.8887 Q40.3719,272.6699 40.5594,272.5605 Q40.7469,272.4512 40.9656,272.4512 Q41.3406,272.4512 41.575,272.7168 Q41.8094,272.9668 41.8094,273.5762 L41.8094,275.0293 Q41.8094,275.6387 41.575,275.9043 Q41.3406,276.1699 40.9656,276.1699 Q40.6219,276.1699 40.4188,275.9668 Q40.2156,275.7793 40.1063,275.2637 Q40.0594,274.9043 39.8719,274.7168 Q39.5438,274.3418 38.9344,274.123 Q38.325,273.9043 37.7,273.9043 Q36.9344,273.9043 36.2938,274.2324 Q35.6688,274.5605 35.1688,275.3105 Q34.6844,276.0605 34.6844,277.0918 L34.6844,278.1855 Q34.6844,279.4199 35.575,280.248 Q36.4656,281.0605 38.0594,281.0605 Q38.9969,281.0605 39.6531,280.8105 Q40.0438,280.6543 40.4656,280.2168 Q40.7313,279.9512 40.8719,279.873 Q41.0281,279.7949 41.2313,279.7949 Q41.5594,279.7949 41.8094,280.0605 Q42.075,280.3105 42.075,280.6543 Q42.075,280.998 41.7313,281.4043 Q41.2313,281.9824 40.4344,282.3105 Q39.3563,282.7637 38.0594,282.7637 Q36.5438,282.7637 35.3406,282.1387 Q34.3563,281.6387 33.6688,280.5762 Q32.9813,279.498 32.9813,278.2168 L32.9813,277.0605 Q32.9813,275.7324 33.5906,274.5918 Q34.2156,273.4355 35.3094,272.8262 Q36.4031,272.2012 37.6375,272.2012 Q38.3719,272.2012 39.0125,272.373 Q39.6688,272.5293 40.2156,272.8887 Z " fill="#000000"/><text fill="#000000" font-family="sans-serif" font-size="14" lengthAdjust="spacing" textLength="53" x="51.55" y="282.8105">Weapon</text><line style="stroke:#181818;stroke-width:0.5;" x1="23" x2="107" y1="293.0137" y2="293.0137"/><text fill="#000000" font-family="sans-serif" font-size="14" lengthAdjust="spacing" textLength="67" x="28" y="312.1211">-weaponID</text><text fill="#000000" font-family="sans-serif" font-size="14" lengthAdjust="spacing" textLength="40" x="28" y="330.7422">-name</text><text fill="#000000" font-family="sans-serif" font-size="14" lengthAdjust="spacing" textLength="36" x="28" y="349.3633">-price</text><text fill="#000000" font-family="sans-serif" font-size="14" lengthAdjust="spacing" textLength="74" x="28" y="367.9844">-description</text><text fill="#000000" font-family="sans-serif" font-size="14" lengthAdjust="spacing" textLength="43" x="28" y="386.6055">-image</text></g><!--class Admin--><g id="elem_Admin"><rect codeLine="16" fill="#F1F1F1" height="114.4844" id="Admin" rx="2.5" ry="2.5" style="stroke:#181818;stroke-width:0.5;" width="77" x="26.5" y="43.0137"/><ellipse cx="44.2" cy="59.0137" fill="#ADD1B2" rx="11" ry="11" style="stroke:#181818;stroke-width:1.0;"/><path d="M46.9656,54.8887 Q47.1219,54.6699 47.3094,54.5605 Q47.4969,54.4512 47.7156,54.4512 Q48.0906,54.4512 48.325,54.7168 Q48.5594,54.9668 48.5594,55.5762 L48.5594,57.0293 Q48.5594,57.6387 48.325,57.9043 Q48.0906,58.1699 47.7156,58.1699 Q47.3719,58.1699 47.1688,57.9668 Q46.9656,57.7793 46.8563,57.2637 Q46.8094,56.9043 46.6219,56.7168 Q46.2938,56.3418 45.6844,56.123 Q45.075,55.9043 44.45,55.9043 Q43.6844,55.9043 43.0438,56.2324 Q42.4188,56.5605 41.9188,57.3105 Q41.4344,58.0605 41.4344,59.0918 L41.4344,60.1855 Q41.4344,61.4199 42.325,62.248 Q43.2156,63.0605 44.8094,63.0605 Q45.7469,63.0605 46.4031,62.8105 Q46.7938,62.6543 47.2156,62.2168 Q47.4813,61.9512 47.6219,61.873 Q47.7781,61.7949 47.9813,61.7949 Q48.3094,61.7949 48.5594,62.0605 Q48.825,62.3105 48.825,62.6543 Q48.825,62.998 48.4813,63.4043 Q47.9813,63.9824 47.1844,64.3105 Q46.1063,64.7637 44.8094,64.7637 Q43.2938,64.7637 42.0906,64.1387 Q41.1063,63.6387 40.4188,62.5762 Q39.7313,61.498 39.7313,60.2168 L39.7313,59.0605 Q39.7313,57.7324 40.3406,56.5918 Q40.9656,55.4355 42.0594,54.8262 Q43.1531,54.2012 44.3875,54.2012 Q45.1219,54.2012 45.7625,54.373 Q46.4188,54.5293 46.9656,54.8887 Z " fill="#000000"/><text fill="#000000" font-family="sans-serif" font-size="14" lengthAdjust="spacing" textLength="39" x="58.8" y="64.8105">Admin</text><line style="stroke:#181818;stroke-width:0.5;" x1="27.5" x2="102.5" y1="75.0137" y2="75.0137"/><text fill="#000000" font-family="sans-serif" font-size="14" lengthAdjust="spacing" textLength="56" x="32.5" y="94.1211">-adminID</text><text fill="#000000" font-family="sans-serif" font-size="14" lengthAdjust="spacing" textLength="40" x="32.5" y="112.7422">-name</text><text fill="#000000" font-family="sans-serif" font-size="14" lengthAdjust="spacing" textLength="38" x="32.5" y="131.3633">-email</text><text fill="#000000" font-family="sans-serif" font-size="14" lengthAdjust="spacing" textLength="65" x="32.5" y="149.9844">-password</text></g><!--link Admin to Weapon--><g id="link_Admin_Weapon"><path codeLine="24" d="M65,157.0437 C65,188.4837 65,221.8737 65,254.7637 " fill="none" id="Admin-to-Weapon" style="stroke:#181818;stroke-width:1.0;"/><polygon fill="#181818" points="65,260.7637,69,251.7637,65,255.7637,61,251.7637,65,260.7637" style="stroke:#181818;stroke-width:1.0;"/><polygon fill="#000000" points="70,203.6592,72.9389,194.6141,67.0611,194.6141,70,203.6592" style="stroke:#000000;stroke-width:1.0;"/><text fill="#000000" font-family="sans-serif" font-size="13" lengthAdjust="spacing" textLength="28" x="79" y="204.042">adds</text><text fill="#000000" font-family="sans-serif" font-size="13" lengthAdjust="spacing" textLength="7" x="57.5516" y="179.4556">1</text><text fill="#000000" font-family="sans-serif" font-size="13" lengthAdjust="spacing" textLength="5" x="59.7266" y="249.5717">*</text></g><!--SRC=[HOuz2y9038Rt_8hGHH3Ewjf145oSHPpZNR31tWUNAuBYV_TQHSdmvWqF3rdqfIJjsZOD5CheXvMDlhK3gHedTCtaeHV7wBdqqIdeJKAYUiOPsfMIvJ8MFjWOZl9WN0CaiZUwCfwPKWpwX1dzrYUO-xmSzc02UGQJijWQZjLcIKLY02E-6k1LvwSxAUUVREUyJ2wQygzYJp9KOqNkCRkFO6QnsJHepBPPDjzFi4DoJd4BRm00]--></g></svg>