<?xml version="1.0" encoding="us-ascii" standalone="no"?><svg xmlns="http://www.w3.org/2000/svg" xmlns:xlink="http://www.w3.org/1999/xlink" contentStyleType="text/css" height="414px" preserveAspectRatio="none" style="width:655px;height:414px;background:#FAFDFF;" version="1.1" viewBox="0 0 655 414" width="655px" zoomAndPan="magnify"><defs/><g><rect fill="#FAFDFF" height="414" style="stroke:none;stroke-width:1.0;" width="655" x="0" y="0"/><text fill="#000000" font-family="sans-serif" font-size="14" font-weight="bold" lengthAdjust="spacing" textLength="249" x="202" y="30.1074">US 12 - Add New Weapon to Catalog</text><rect fill="#C2F0FF" height="188.7461" style="stroke:#1E90FF;stroke-width:1.0;" width="10" x="24.5" y="133.2422"/><rect fill="#C2F0FF" height="156.4551" style="stroke:#1E90FF;stroke-width:1.0;" width="10" x="250.5" y="156.5332"/><rect fill="#C2F0FF" height="93.873" style="stroke:#1E90FF;stroke-width:1.0;" width="10" x="428.5" y="187.8242"/><rect fill="#C2F0FF" height="31.291" style="stroke:#1E90FF;stroke-width:1.0;" width="10" x="606.5" y="219.1152"/><line style="stroke:#1E90FF;stroke-width:0.5;stroke-dasharray:5.0,5.0;" x1="29" x2="29" y1="123.2422" y2="330.9883"/><line style="stroke:#1E90FF;stroke-width:0.5;stroke-dasharray:5.0,5.0;" x1="255" x2="255" y1="123.2422" y2="330.9883"/><line style="stroke:#1E90FF;stroke-width:0.5;stroke-dasharray:5.0,5.0;" x1="433" x2="433" y1="123.2422" y2="330.9883"/><line style="stroke:#1E90FF;stroke-width:0.5;stroke-dasharray:5.0,5.0;" x1="611" x2="611" y1="123.2422" y2="330.9883"/><text fill="#000000" font-family="sans-serif" font-size="14" font-weight="bold" lengthAdjust="spacing" textLength="43" x="5" y="119.7285">Admin</text><ellipse cx="29.5" cy="53.1211" fill="#C2F0FF" rx="8" ry="8" style="stroke:#1E90FF;stroke-width:0.5;"/><path d="M29.5,61.1211 L29.5,88.1211 M16.5,69.1211 L42.5,69.1211 M29.5,88.1211 L16.5,103.1211 M29.5,88.1211 L42.5,103.1211 " fill="none" style="stroke:#1E90FF;stroke-width:0.5;"/><text fill="#000000" font-family="sans-serif" font-size="14" font-weight="bold" lengthAdjust="spacing" textLength="43" x="5" y="345.0957">Admin</text><ellipse cx="29.5" cy="357.1094" fill="#C2F0FF" rx="8" ry="8" style="stroke:#1E90FF;stroke-width:0.5;"/><path d="M29.5,365.1094 L29.5,392.1094 M16.5,373.1094 L42.5,373.1094 M29.5,392.1094 L16.5,407.1094 M29.5,392.1094 L42.5,407.1094 " fill="none" style="stroke:#1E90FF;stroke-width:0.5;"/><rect fill="#FFFFFF" height="32.6211" rx="2.5" ry="2.5" style="stroke:#1E90FF;stroke-width:0.5;" width="137" x="187" y="89.6211"/><text fill="#000000" font-family="sans-serif" font-size="14" font-weight="bold" lengthAdjust="spacing" textLength="123" x="194" y="111.7285">NewWeaponForm</text><rect fill="#FFFFFF" height="32.6211" rx="2.5" ry="2.5" style="stroke:#1E90FF;stroke-width:0.5;" width="137" x="187" y="329.9883"/><text fill="#000000" font-family="sans-serif" font-size="14" font-weight="bold" lengthAdjust="spacing" textLength="123" x="194" y="352.0957">NewWeaponForm</text><rect fill="#FFFFFF" height="32.6211" rx="2.5" ry="2.5" style="stroke:#1E90FF;stroke-width:0.5;" width="125" x="371" y="89.6211"/><text fill="#000000" font-family="sans-serif" font-size="14" font-weight="bold" lengthAdjust="spacing" textLength="111" x="378" y="111.7285">WeaponService</text><rect fill="#FFFFFF" height="32.6211" rx="2.5" ry="2.5" style="stroke:#1E90FF;stroke-width:0.5;" width="125" x="371" y="329.9883"/><text fill="#000000" font-family="sans-serif" font-size="14" font-weight="bold" lengthAdjust="spacing" textLength="111" x="378" y="352.0957">WeaponService</text><rect fill="#FFFFFF" height="32.6211" rx="2.5" ry="2.5" style="stroke:#1E90FF;stroke-width:0.5;" width="75" x="574" y="89.6211"/><text fill="#000000" font-family="sans-serif" font-size="14" font-weight="bold" lengthAdjust="spacing" textLength="61" x="581" y="111.7285">Backend</text><rect fill="#FFFFFF" height="32.6211" rx="2.5" ry="2.5" style="stroke:#1E90FF;stroke-width:0.5;" width="75" x="574" y="329.9883"/><text fill="#000000" font-family="sans-serif" font-size="14" font-weight="bold" lengthAdjust="spacing" textLength="61" x="581" y="352.0957">Backend</text><rect fill="#C2F0FF" height="188.7461" style="stroke:#1E90FF;stroke-width:1.0;" width="10" x="24.5" y="133.2422"/><rect fill="#C2F0FF" height="156.4551" style="stroke:#1E90FF;stroke-width:1.0;" width="10" x="250.5" y="156.5332"/><rect fill="#C2F0FF" height="93.873" style="stroke:#1E90FF;stroke-width:1.0;" width="10" x="428.5" y="187.8242"/><rect fill="#C2F0FF" height="31.291" style="stroke:#1E90FF;stroke-width:1.0;" width="10" x="606.5" y="219.1152"/><polygon fill="#1E90FF" points="238.5,152.5332,248.5,156.5332,238.5,160.5332,242.5,156.5332" style="stroke:#1E90FF;stroke-width:1.0;"/><line style="stroke:#1E90FF;stroke-width:1.0;" x1="34.5" x2="244.5" y1="156.5332" y2="156.5332"/><text fill="#000000" font-family="sans-serif" font-size="13" font-weight="bold" lengthAdjust="spacing" textLength="7" x="73" y="151.2705">1</text><text fill="#000000" font-family="sans-serif" font-size="13" lengthAdjust="spacing" textLength="128" x="84" y="151.2705">Enters weapon details</text><polygon fill="#1E90FF" points="416.5,183.8242,426.5,187.8242,416.5,191.8242,420.5,187.8242" style="stroke:#1E90FF;stroke-width:1.0;"/><line style="stroke:#1E90FF;stroke-width:1.0;" x1="260.5" x2="422.5" y1="187.8242" y2="187.8242"/><text fill="#000000" font-family="sans-serif" font-size="13" font-weight="bold" lengthAdjust="spacing" textLength="7" x="278.5" y="182.5615">2</text><text fill="#000000" font-family="sans-serif" font-size="13" lengthAdjust="spacing" textLength="121" x="289.5" y="182.5615">addWeapon(weapon)</text><polygon fill="#1E90FF" points="594.5,215.1152,604.5,219.1152,594.5,223.1152,598.5,219.1152" style="stroke:#1E90FF;stroke-width:1.0;"/><line style="stroke:#1E90FF;stroke-width:1.0;" x1="438.5" x2="600.5" y1="219.1152" y2="219.1152"/><text fill="#000000" font-family="sans-serif" font-size="13" font-weight="bold" lengthAdjust="spacing" textLength="7" x="454" y="213.8525">3</text><text fill="#000000" font-family="sans-serif" font-size="13" lengthAdjust="spacing" textLength="126" x="465" y="213.8525">HTTP request (POST)</text><polygon fill="#1E90FF" points="449.5,246.4063,439.5,250.4063,449.5,254.4063,445.5,250.4063" style="stroke:#1E90FF;stroke-width:1.0;"/><line style="stroke:#1E90FF;stroke-width:1.0;stroke-dasharray:2.0,2.0;" x1="443.5" x2="610.5" y1="250.4063" y2="250.4063"/><text fill="#000000" font-family="sans-serif" font-size="13" font-weight="bold" lengthAdjust="spacing" textLength="7" x="453" y="245.1436">4</text><text fill="#000000" font-family="sans-serif" font-size="13" lengthAdjust="spacing" textLength="133" x="464" y="245.1436">confirmation of addition</text><polygon fill="#1E90FF" points="271.5,277.6973,261.5,281.6973,271.5,285.6973,267.5,281.6973" style="stroke:#1E90FF;stroke-width:1.0;"/><line style="stroke:#1E90FF;stroke-width:1.0;stroke-dasharray:2.0,2.0;" x1="265.5" x2="432.5" y1="281.6973" y2="281.6973"/><text fill="#000000" font-family="sans-serif" font-size="13" font-weight="bold" lengthAdjust="spacing" textLength="7" x="275" y="276.4346">5</text><text fill="#000000" font-family="sans-serif" font-size="13" lengthAdjust="spacing" textLength="133" x="286" y="276.4346">confirmation of addition</text><polygon fill="#1E90FF" points="45.5,308.9883,35.5,312.9883,45.5,316.9883,41.5,312.9883" style="stroke:#1E90FF;stroke-width:1.0;"/><line style="stroke:#1E90FF;stroke-width:1.0;" x1="39.5" x2="254.5" y1="312.9883" y2="312.9883"/><text fill="#000000" font-family="sans-serif" font-size="13" font-weight="bold" lengthAdjust="spacing" textLength="7" x="49" y="307.7256">6</text><text fill="#000000" font-family="sans-serif" font-size="13" lengthAdjust="spacing" textLength="181" x="60" y="307.7256">Displays confirmation message</text><!--SRC=[nPDHQzim4CVVzIcEvY7TWzaMnXXc5Ep4wGeXDh6B7ujgdOseBNcItAoCVVT9TY1givOzfNeGXllT_Uz_yis3t3or69pv44878yNGtQCYH3zmqLD5ErXXJOVM5FZBH2rlH8V2G6MlvrXCguT6oK6mfMobWbbDQrRNFc9lmolUKrlWDtcP49NvNNnzjqmtwOx4KZ5KNY3ThPBT8VZ7Bwhnvu2YGbjnmslSS85-yago1bNS3dWClnJEiitDCYfkqYqXKMMaUekOW7yhd7YQhST38gNa_WH_fKfs7DDhEjTMe_U3iq_V5b-_B0w1Dzgtivi71JVlyNyP9mktENnUG00HOx35FPH8Uod0I5XIGrlPk0x7AUkFtYZqMJR0oSB5z_khY7LSN03L417_ltKns_NKz5ggRcIsvVg4cf0SrIElSAJA_0HoJuM2ZU4u6PrhBIjE3PT2dtFtAyCVgK5hbqGGN3bB8IHkopNifoTYQ2XlzP5rjecz75_c8L369jUNKyQ78sgzap9tO9o4yACeCb1kSxM1oopD2m-rSuWJ2CQQ448bHSrLDqu4PEr4kFic3FsKiVhKztycsPOElKSXhBZkM_gadsTsg3LjqCyQFS-3TpdaBm00]--></g></svg>