<?xml version="1.0" encoding="us-ascii" standalone="no"?><svg xmlns="http://www.w3.org/2000/svg" xmlns:xlink="http://www.w3.org/1999/xlink" contentStyleType="text/css" height="1113px" preserveAspectRatio="none" style="width:979px;height:1113px;background:#FFFFFF;" version="1.1" viewBox="0 0 979 1113" width="979px" zoomAndPan="magnify"><defs/><g><!--cluster Licenses--><g id="cluster_Licenses"><path d="M529.5,600.91 L591.5,600.91 A3.75,3.75 0 0 1 594,603.41 L601,623.3983 L969.5,623.3983 A2.5,2.5 0 0 1 972,625.8983 L972,1087.91 A2.5,2.5 0 0 1 969.5,1090.41 L529.5,1090.41 A2.5,2.5 0 0 1 527,1087.91 L527,603.41 A2.5,2.5 0 0 1 529.5,600.91 " fill="none" style="stroke:#000000;stroke-width:1.5;"/><line style="stroke:#000000;stroke-width:1.5;" x1="527" x2="601" y1="623.3983" y2="623.3983"/><text fill="#000000" font-family="sans-serif" font-size="14" font-weight="bold" lengthAdjust="spacing" textLength="61" x="531" y="616.4452">Licenses</text></g><!--cluster Users--><g id="cluster_Users"><path d="M8.5,6 L49.5,6 A3.75,3.75 0 0 1 52,8.5 L59,28.4883 L692.5,28.4883 A2.5,2.5 0 0 1 695,30.9883 L695,549.41 A2.5,2.5 0 0 1 692.5,551.91 L8.5,551.91 A2.5,2.5 0 0 1 6,549.41 L6,8.5 A2.5,2.5 0 0 1 8.5,6 " fill="none" style="stroke:#000000;stroke-width:1.5;"/><line style="stroke:#000000;stroke-width:1.5;" x1="6" x2="59" y1="28.4883" y2="28.4883"/><text fill="#000000" font-family="sans-serif" font-size="14" font-weight="bold" lengthAdjust="spacing" textLength="40" x="10" y="21.5352">Users</text></g><!--cluster Weapons--><g id="cluster_Weapons"><path d="M247.5,893.91 L312.5,893.91 A3.75,3.75 0 0 1 315,896.41 L322,916.3983 L420.5,916.3983 A2.5,2.5 0 0 1 423,918.8983 L423,1104.41 A2.5,2.5 0 0 1 420.5,1106.91 L247.5,1106.91 A2.5,2.5 0 0 1 245,1104.41 L245,896.41 A2.5,2.5 0 0 1 247.5,893.91 " fill="none" style="stroke:#000000;stroke-width:1.5;"/><line style="stroke:#000000;stroke-width:1.5;" x1="245" x2="322" y1="916.3983" y2="916.3983"/><text fill="#000000" font-family="sans-serif" font-size="14" font-weight="bold" lengthAdjust="spacing" textLength="64" x="249" y="909.4452">Weapons</text></g><!--cluster Orders--><g id="cluster_Orders"><path d="M11.5,600.91 L61.5,600.91 A3.75,3.75 0 0 1 64,603.41 L71,623.3983 L218.5,623.3983 A2.5,2.5 0 0 1 221,625.8983 L221,1095.91 A2.5,2.5 0 0 1 218.5,1098.41 L11.5,1098.41 A2.5,2.5 0 0 1 9,1095.91 L9,603.41 A2.5,2.5 0 0 1 11.5,600.91 " fill="none" style="stroke:#000000;stroke-width:1.5;"/><line style="stroke:#000000;stroke-width:1.5;" x1="9" x2="71" y1="623.3983" y2="623.3983"/><text fill="#000000" font-family="sans-serif" font-size="14" font-weight="bold" lengthAdjust="spacing" textLength="49" x="13" y="616.4452">Orders</text></g><!--class License--><g id="elem_License"><rect codeLine="7" fill="#F1F1F1" height="155.418" id="License" rx="2.5" ry="2.5" style="stroke:#181818;stroke-width:0.5;" width="122" x="810" y="655.91"/><ellipse cx="843" cy="671.91" fill="#ADD1B2" rx="11" ry="11" style="stroke:#181818;stroke-width:1.0;"/><path d="M845.9731,677.5531 Q845.3921,677.8519 844.7529,678.0013 Q844.1138,678.1507 843.4082,678.1507 Q840.9014,678.1507 839.5815,676.4989 Q838.2617,674.847 838.2617,671.7259 Q838.2617,668.5965 839.5815,666.9447 Q840.9014,665.2928 843.4082,665.2928 Q844.1138,665.2928 844.7612,665.4422 Q845.4087,665.5916 845.9731,665.8905 L845.9731,668.6131 Q845.3423,668.0321 844.7488,667.7623 Q844.1553,667.4925 843.5244,667.4925 Q842.1797,667.4925 841.4949,668.5592 Q840.8101,669.6258 840.8101,671.7259 Q840.8101,673.8177 841.4949,674.8844 Q842.1797,675.951 843.5244,675.951 Q844.1553,675.951 844.7488,675.6812 Q845.3423,675.4115 845.9731,674.8304 Z " fill="#000000"/><text fill="#000000" font-family="sans-serif" font-size="14" lengthAdjust="spacing" textLength="50" x="861" y="677.201">License</text><line style="stroke:#181818;stroke-width:0.5;" x1="811" x2="931" y1="687.91" y2="687.91"/><text fill="#000000" font-family="sans-serif" font-size="14" lengthAdjust="spacing" textLength="69" x="816" y="705.4452">-licenseID</text><text fill="#000000" font-family="sans-serif" font-size="14" lengthAdjust="spacing" textLength="110" x="816" y="721.9334">-licenseNumber</text><text fill="#000000" font-family="sans-serif" font-size="14" lengthAdjust="spacing" textLength="46" x="816" y="738.4217">-name</text><text fill="#000000" font-family="sans-serif" font-size="14" lengthAdjust="spacing" textLength="45" x="816" y="754.91">-email</text><text fill="#000000" font-family="sans-serif" font-size="14" lengthAdjust="spacing" textLength="72" x="816" y="771.3983">-birthDate</text><text fill="#000000" font-family="sans-serif" font-size="14" lengthAdjust="spacing" textLength="62" x="816" y="787.8866">-address</text><text fill="#000000" font-family="sans-serif" font-size="14" lengthAdjust="spacing" textLength="82" x="816" y="804.3748">-expiryDate</text></g><!--class LicenseApplication--><g id="elem_LicenseApplication"><rect codeLine="16" fill="#F1F1F1" height="138.9297" id="LicenseApplication" rx="2.5" ry="2.5" style="stroke:#181818;stroke-width:0.5;" width="160" x="567" y="664.41"/><ellipse cx="582" cy="680.41" fill="#ADD1B2" rx="11" ry="11" style="stroke:#181818;stroke-width:1.0;"/><path d="M584.9731,686.0531 Q584.3921,686.3519 583.7529,686.5013 Q583.1138,686.6507 582.4082,686.6507 Q579.9014,686.6507 578.5815,684.9989 Q577.2617,683.347 577.2617,680.2259 Q577.2617,677.0965 578.5815,675.4447 Q579.9014,673.7928 582.4082,673.7928 Q583.1138,673.7928 583.7612,673.9422 Q584.4087,674.0916 584.9731,674.3905 L584.9731,677.1131 Q584.3423,676.5321 583.7488,676.2623 Q583.1553,675.9925 582.5244,675.9925 Q581.1797,675.9925 580.4949,677.0592 Q579.8101,678.1258 579.8101,680.2259 Q579.8101,682.3177 580.4949,683.3844 Q581.1797,684.451 582.5244,684.451 Q583.1553,684.451 583.7488,684.1812 Q584.3423,683.9115 584.9731,683.3304 Z " fill="#000000"/><text fill="#000000" font-family="sans-serif" font-size="14" lengthAdjust="spacing" textLength="128" x="596" y="685.701">LicenseApplication</text><line style="stroke:#181818;stroke-width:0.5;" x1="568" x2="726" y1="696.41" y2="696.41"/><text fill="#000000" font-family="sans-serif" font-size="14" lengthAdjust="spacing" textLength="46" x="573" y="713.9452">-name</text><text fill="#000000" font-family="sans-serif" font-size="14" lengthAdjust="spacing" textLength="45" x="573" y="730.4334">-email</text><text fill="#000000" font-family="sans-serif" font-size="14" lengthAdjust="spacing" textLength="72" x="573" y="746.9217">-birthDate</text><text fill="#000000" font-family="sans-serif" font-size="14" lengthAdjust="spacing" textLength="62" x="573" y="763.41">-address</text><text fill="#000000" font-family="sans-serif" font-size="14" lengthAdjust="spacing" textLength="131" x="573" y="779.8983">-medicalCertificate</text><text fill="#000000" font-family="sans-serif" font-size="14" lengthAdjust="spacing" textLength="91" x="573" y="796.3866">-documentID</text></g><!--class ApplicationStatus--><g id="elem_ApplicationStatus"><rect codeLine="24" fill="#F1F1F1" height="89.4648" id="ApplicationStatus" rx="2.5" ry="2.5" style="stroke:#181818;stroke-width:0.5;" width="152" x="571" y="965.41"/><ellipse cx="586" cy="981.41" fill="#EB937F" rx="11" ry="11" style="stroke:#181818;stroke-width:1.0;"/><path d="M590.1143,987.41 L582.3945,987.41 L582.3945,975.0169 L590.1143,975.0169 L590.1143,977.1751 L584.8433,977.1751 L584.8433,979.848 L589.6162,979.848 L589.6162,982.0062 L584.8433,982.0062 L584.8433,985.2518 L590.1143,985.2518 Z " fill="#000000"/><text fill="#000000" font-family="sans-serif" font-size="14" lengthAdjust="spacing" textLength="120" x="600" y="986.701">ApplicationStatus</text><line style="stroke:#181818;stroke-width:0.5;" x1="572" x2="722" y1="997.41" y2="997.41"/><text fill="#000000" font-family="sans-serif" font-size="14" lengthAdjust="spacing" textLength="65" x="577" y="1014.9452">-pending</text><text fill="#000000" font-family="sans-serif" font-size="14" lengthAdjust="spacing" textLength="73" x="577" y="1031.4334">-approved</text><text fill="#000000" font-family="sans-serif" font-size="14" lengthAdjust="spacing" textLength="55" x="577" y="1047.9217">-denied</text></g><!--class User--><g id="elem_User"><rect codeLine="32" fill="#F1F1F1" height="122.4414" id="User" rx="2.5" ry="2.5" style="stroke:#181818;stroke-width:0.5;" width="121" x="440.5" y="41"/><ellipse cx="481.6" cy="57" fill="#ADD1B2" rx="11" ry="11" style="stroke:#181818;stroke-width:1.0;"/><path d="M484.5731,62.6431 Q483.9921,62.9419 483.3529,63.0913 Q482.7138,63.2407 482.0082,63.2407 Q479.5014,63.2407 478.1815,61.5889 Q476.8617,59.937 476.8617,56.8159 Q476.8617,53.6865 478.1815,52.0347 Q479.5014,50.3828 482.0082,50.3828 Q482.7138,50.3828 483.3612,50.5322 Q484.0087,50.6816 484.5731,50.9805 L484.5731,53.7031 Q483.9423,53.1221 483.3488,52.8523 Q482.7553,52.5825 482.1244,52.5825 Q480.7797,52.5825 480.0949,53.6492 Q479.4101,54.7158 479.4101,56.8159 Q479.4101,58.9077 480.0949,59.9744 Q480.7797,61.041 482.1244,61.041 Q482.7553,61.041 483.3488,60.7712 Q483.9423,60.5015 484.5731,59.9204 Z " fill="#000000"/><text fill="#000000" font-family="sans-serif" font-size="14" lengthAdjust="spacing" textLength="31" x="501.4" y="62.291">User</text><line style="stroke:#181818;stroke-width:0.5;" x1="441.5" x2="560.5" y1="73" y2="73"/><text fill="#000000" font-family="sans-serif" font-size="14" lengthAdjust="spacing" textLength="52" x="446.5" y="90.5352">-userID</text><text fill="#000000" font-family="sans-serif" font-size="14" lengthAdjust="spacing" textLength="46" x="446.5" y="107.0234">-name</text><text fill="#000000" font-family="sans-serif" font-size="14" lengthAdjust="spacing" textLength="45" x="446.5" y="123.5117">-email</text><text fill="#000000" font-family="sans-serif" font-size="14" lengthAdjust="spacing" textLength="109" x="446.5" y="140">-recoveryCodes</text><text fill="#000000" font-family="sans-serif" font-size="14" lengthAdjust="spacing" textLength="90" x="446.5" y="156.4883">-2FAEnabled</text></g><!--class Password--><g id="elem_Password"><rect codeLine="40" fill="#F1F1F1" height="89.4648" id="Password" rx="2.5" ry="2.5" style="stroke:#181818;stroke-width:0.5;" width="97" x="46.5" y="260.45"/><ellipse cx="61.5" cy="276.45" fill="#ADD1B2" rx="11" ry="11" style="stroke:#181818;stroke-width:1.0;"/><path d="M64.4731,282.0931 Q63.8921,282.3919 63.2529,282.5413 Q62.6138,282.6907 61.9082,282.6907 Q59.4014,282.6907 58.0815,281.0389 Q56.7617,279.387 56.7617,276.2659 Q56.7617,273.1365 58.0815,271.4847 Q59.4014,269.8328 61.9082,269.8328 Q62.6138,269.8328 63.2612,269.9822 Q63.9087,270.1316 64.4731,270.4305 L64.4731,273.1531 Q63.8423,272.5721 63.2488,272.3023 Q62.6553,272.0325 62.0244,272.0325 Q60.6797,272.0325 59.9949,273.0992 Q59.3101,274.1658 59.3101,276.2659 Q59.3101,278.3577 59.9949,279.4244 Q60.6797,280.491 62.0244,280.491 Q62.6553,280.491 63.2488,280.2212 Q63.8423,279.9515 64.4731,279.3704 Z " fill="#000000"/><text fill="#000000" font-family="sans-serif" font-size="14" lengthAdjust="spacing" textLength="65" x="75.5" y="281.741">Password</text><line style="stroke:#181818;stroke-width:0.5;" x1="47.5" x2="142.5" y1="292.45" y2="292.45"/><text fill="#000000" font-family="sans-serif" font-size="14" lengthAdjust="spacing" textLength="74" x="52.5" y="309.9852">-password</text><text fill="#000000" font-family="sans-serif" font-size="14" lengthAdjust="spacing" textLength="74" x="52.5" y="326.4734">-createdAt</text><text fill="#000000" font-family="sans-serif" font-size="14" lengthAdjust="spacing" textLength="74" x="52.5" y="342.9617">-deletedAt</text></g><!--class PasswordResetToken--><g id="elem_PasswordResetToken"><rect codeLine="46" fill="#F1F1F1" height="72.9766" id="PasswordResetToken" rx="2.5" ry="2.5" style="stroke:#181818;stroke-width:0.5;" width="177" x="226.5" y="268.95"/><ellipse cx="241.5" cy="284.95" fill="#ADD1B2" rx="11" ry="11" style="stroke:#181818;stroke-width:1.0;"/><path d="M244.4731,290.5931 Q243.8921,290.8919 243.2529,291.0413 Q242.6138,291.1907 241.9082,291.1907 Q239.4014,291.1907 238.0815,289.5389 Q236.7617,287.887 236.7617,284.7659 Q236.7617,281.6365 238.0815,279.9847 Q239.4014,278.3328 241.9082,278.3328 Q242.6138,278.3328 243.2612,278.4822 Q243.9087,278.6316 244.4731,278.9305 L244.4731,281.6531 Q243.8423,281.0721 243.2488,280.8023 Q242.6553,280.5325 242.0244,280.5325 Q240.6797,280.5325 239.9949,281.5992 Q239.3101,282.6658 239.3101,284.7659 Q239.3101,286.8577 239.9949,287.9244 Q240.6797,288.991 242.0244,288.991 Q242.6553,288.991 243.2488,288.7212 Q243.8423,288.4515 244.4731,287.8704 Z " fill="#000000"/><text fill="#000000" font-family="sans-serif" font-size="14" lengthAdjust="spacing" textLength="145" x="255.5" y="290.241">PasswordResetToken</text><line style="stroke:#181818;stroke-width:0.5;" x1="227.5" x2="402.5" y1="300.95" y2="300.95"/><text fill="#000000" font-family="sans-serif" font-size="14" lengthAdjust="spacing" textLength="47" x="232.5" y="318.4852">-token</text><text fill="#000000" font-family="sans-serif" font-size="14" lengthAdjust="spacing" textLength="74" x="232.5" y="334.9734">-expiresAt</text></g><!--class Client--><g id="elem_Client"><rect codeLine="51" fill="#F1F1F1" height="89.4648" id="Client" rx="2.5" ry="2.5" style="stroke:#181818;stroke-width:0.5;" width="119" x="438.5" y="446.45"/><ellipse cx="474.65" cy="462.45" fill="#ADD1B2" rx="11" ry="11" style="stroke:#181818;stroke-width:1.0;"/><path d="M477.6231,468.0931 Q477.0421,468.3919 476.4029,468.5413 Q475.7638,468.6907 475.0582,468.6907 Q472.5514,468.6907 471.2315,467.0389 Q469.9117,465.387 469.9117,462.2659 Q469.9117,459.1365 471.2315,457.4847 Q472.5514,455.8328 475.0582,455.8328 Q475.7638,455.8328 476.4112,455.9822 Q477.0587,456.1316 477.6231,456.4305 L477.6231,459.1531 Q476.9923,458.5721 476.3988,458.3023 Q475.8053,458.0325 475.1744,458.0325 Q473.8297,458.0325 473.1449,459.0992 Q472.4601,460.1658 472.4601,462.2659 Q472.4601,464.3577 473.1449,465.4244 Q473.8297,466.491 475.1744,466.491 Q475.8053,466.491 476.3988,466.2212 Q476.9923,465.9515 477.6231,465.3704 Z " fill="#000000"/><text fill="#000000" font-family="sans-serif" font-size="14" lengthAdjust="spacing" textLength="40" x="493.35" y="467.741">Client</text><line style="stroke:#181818;stroke-width:0.5;" x1="439.5" x2="556.5" y1="478.45" y2="478.45"/><text fill="#000000" font-family="sans-serif" font-size="14" lengthAdjust="spacing" textLength="72" x="444.5" y="495.9852">-birthDate</text><text fill="#000000" font-family="sans-serif" font-size="14" lengthAdjust="spacing" textLength="107" x="444.5" y="512.4734">-phoneNumber</text><text fill="#000000" font-family="sans-serif" font-size="14" lengthAdjust="spacing" textLength="62" x="444.5" y="528.9617">-address</text></g><!--class Admin--><g id="elem_Admin"><rect codeLine="57" fill="#F1F1F1" height="40" id="Admin" rx="2.5" ry="2.5" style="stroke:#181818;stroke-width:0.5;" width="77" x="462.5" y="284.95"/><ellipse cx="477.5" cy="300.95" fill="#ADD1B2" rx="11" ry="11" style="stroke:#181818;stroke-width:1.0;"/><path d="M480.4731,306.5931 Q479.8921,306.8919 479.2529,307.0413 Q478.6138,307.1907 477.9082,307.1907 Q475.4014,307.1907 474.0815,305.5389 Q472.7617,303.887 472.7617,300.7659 Q472.7617,297.6365 474.0815,295.9847 Q475.4014,294.3328 477.9082,294.3328 Q478.6138,294.3328 479.2612,294.4822 Q479.9087,294.6316 480.4731,294.9305 L480.4731,297.6531 Q479.8423,297.0721 479.2488,296.8023 Q478.6553,296.5325 478.0244,296.5325 Q476.6797,296.5325 475.9949,297.5992 Q475.3101,298.6658 475.3101,300.7659 Q475.3101,302.8577 475.9949,303.9244 Q476.6797,304.991 478.0244,304.991 Q478.6553,304.991 479.2488,304.7212 Q479.8423,304.4515 480.4731,303.8704 Z " fill="#000000"/><text fill="#000000" font-family="sans-serif" font-size="14" lengthAdjust="spacing" textLength="45" x="491.5" y="306.241">Admin</text><line style="stroke:#181818;stroke-width:0.5;" x1="463.5" x2="538.5" y1="316.95" y2="316.95"/></g><!--class ERCA--><g id="elem_ERCA"><rect codeLine="60" fill="#F1F1F1" height="40" id="ERCA" rx="2.5" ry="2.5" style="stroke:#181818;stroke-width:0.5;" width="69" x="610.5" y="284.95"/><ellipse cx="625.5" cy="300.95" fill="#ADD1B2" rx="11" ry="11" style="stroke:#181818;stroke-width:1.0;"/><path d="M628.4731,306.5931 Q627.8921,306.8919 627.2529,307.0413 Q626.6138,307.1907 625.9082,307.1907 Q623.4014,307.1907 622.0815,305.5389 Q620.7617,303.887 620.7617,300.7659 Q620.7617,297.6365 622.0815,295.9847 Q623.4014,294.3328 625.9082,294.3328 Q626.6138,294.3328 627.2612,294.4822 Q627.9087,294.6316 628.4731,294.9305 L628.4731,297.6531 Q627.8423,297.0721 627.2488,296.8023 Q626.6553,296.5325 626.0244,296.5325 Q624.6797,296.5325 623.9949,297.5992 Q623.3101,298.6658 623.3101,300.7659 Q623.3101,302.8577 623.9949,303.9244 Q624.6797,304.991 626.0244,304.991 Q626.6553,304.991 627.2488,304.7212 Q627.8423,304.4515 628.4731,303.8704 Z " fill="#000000"/><text fill="#000000" font-family="sans-serif" font-size="14" lengthAdjust="spacing" textLength="37" x="639.5" y="306.241">ERCA</text><line style="stroke:#181818;stroke-width:0.5;" x1="611.5" x2="678.5" y1="316.95" y2="316.95"/></g><!--class Weapon--><g id="elem_Weapon"><rect codeLine="65" fill="#F1F1F1" height="122.4414" id="Weapon" rx="2.5" ry="2.5" style="stroke:#181818;stroke-width:0.5;" width="97" x="285.5" y="948.91"/><ellipse cx="305" cy="964.91" fill="#ADD1B2" rx="11" ry="11" style="stroke:#181818;stroke-width:1.0;"/><path d="M307.9731,970.5531 Q307.3921,970.8519 306.7529,971.0013 Q306.1138,971.1507 305.4082,971.1507 Q302.9014,971.1507 301.5815,969.4989 Q300.2617,967.847 300.2617,964.7259 Q300.2617,961.5965 301.5815,959.9447 Q302.9014,958.2928 305.4082,958.2928 Q306.1138,958.2928 306.7612,958.4422 Q307.4087,958.5916 307.9731,958.8905 L307.9731,961.6131 Q307.3423,961.0321 306.7488,960.7623 Q306.1553,960.4925 305.5244,960.4925 Q304.1797,960.4925 303.4949,961.5592 Q302.8101,962.6258 302.8101,964.7259 Q302.8101,966.8177 303.4949,967.8844 Q304.1797,968.951 305.5244,968.951 Q306.1553,968.951 306.7488,968.6812 Q307.3423,968.4115 307.9731,967.8304 Z " fill="#000000"/><text fill="#000000" font-family="sans-serif" font-size="14" lengthAdjust="spacing" textLength="55" x="320" y="970.201">Weapon</text><line style="stroke:#181818;stroke-width:0.5;" x1="286.5" x2="381.5" y1="980.91" y2="980.91"/><text fill="#000000" font-family="sans-serif" font-size="14" lengthAdjust="spacing" textLength="76" x="291.5" y="998.4452">-weaponID</text><text fill="#000000" font-family="sans-serif" font-size="14" lengthAdjust="spacing" textLength="46" x="291.5" y="1014.9334">-name</text><text fill="#000000" font-family="sans-serif" font-size="14" lengthAdjust="spacing" textLength="42" x="291.5" y="1031.4217">-price</text><text fill="#000000" font-family="sans-serif" font-size="14" lengthAdjust="spacing" textLength="85" x="291.5" y="1047.91">-description</text><text fill="#000000" font-family="sans-serif" font-size="14" lengthAdjust="spacing" textLength="50" x="291.5" y="1064.3983">-image</text></g><!--class Order--><g id="elem_Order"><rect codeLine="75" fill="#F1F1F1" height="155.418" id="Order" rx="2.5" ry="2.5" style="stroke:#181818;stroke-width:0.5;" width="132" x="49" y="655.91"/><ellipse cx="91" cy="671.91" fill="#ADD1B2" rx="11" ry="11" style="stroke:#181818;stroke-width:1.0;"/><path d="M93.9731,677.5531 Q93.3921,677.8519 92.7529,678.0013 Q92.1138,678.1507 91.4082,678.1507 Q88.9014,678.1507 87.5815,676.4989 Q86.2617,674.847 86.2617,671.7259 Q86.2617,668.5965 87.5815,666.9447 Q88.9014,665.2928 91.4082,665.2928 Q92.1138,665.2928 92.7612,665.4422 Q93.4087,665.5916 93.9731,665.8905 L93.9731,668.6131 Q93.3423,668.0321 92.7488,667.7623 Q92.1553,667.4925 91.5244,667.4925 Q90.1797,667.4925 89.4949,668.5592 Q88.8101,669.6258 88.8101,671.7259 Q88.8101,673.8177 89.4949,674.8844 Q90.1797,675.951 91.5244,675.951 Q92.1553,675.951 92.7488,675.6812 Q93.3423,675.4115 93.9731,674.8304 Z " fill="#000000"/><text fill="#000000" font-family="sans-serif" font-size="14" lengthAdjust="spacing" textLength="40" x="111" y="677.201">Order</text><line style="stroke:#181818;stroke-width:0.5;" x1="50" x2="180" y1="687.91" y2="687.91"/><text fill="#000000" font-family="sans-serif" font-size="14" lengthAdjust="spacing" textLength="60" x="55" y="705.4452">-orderID</text><text fill="#000000" font-family="sans-serif" font-size="14" lengthAdjust="spacing" textLength="38" x="55" y="721.9334">-date</text><text fill="#000000" font-family="sans-serif" font-size="14" lengthAdjust="spacing" textLength="101" x="55" y="738.4217">-orderNumber</text><text fill="#000000" font-family="sans-serif" font-size="14" lengthAdjust="spacing" textLength="119" x="55" y="754.91">-paymentMethod</text><text fill="#000000" font-family="sans-serif" font-size="14" lengthAdjust="spacing" textLength="72" x="55" y="771.3983">-totalPrice</text><text fill="#000000" font-family="sans-serif" font-size="14" lengthAdjust="spacing" textLength="120" x="55" y="787.8866">-shippingMethod</text><text fill="#000000" font-family="sans-serif" font-size="14" lengthAdjust="spacing" textLength="59" x="55" y="804.3748">-clientID</text></g><!--class OrderStatus--><g id="elem_OrderStatus"><rect codeLine="84" fill="#F1F1F1" height="105.9531" id="OrderStatus" rx="2.5" ry="2.5" style="stroke:#181818;stroke-width:0.5;" width="114" x="58" y="957.41"/><ellipse cx="73" cy="973.41" fill="#EB937F" rx="11" ry="11" style="stroke:#181818;stroke-width:1.0;"/><path d="M77.1143,979.41 L69.3945,979.41 L69.3945,967.0169 L77.1143,967.0169 L77.1143,969.1751 L71.8433,969.1751 L71.8433,971.848 L76.6162,971.848 L76.6162,974.0062 L71.8433,974.0062 L71.8433,977.2518 L77.1143,977.2518 Z " fill="#000000"/><text fill="#000000" font-family="sans-serif" font-size="14" lengthAdjust="spacing" textLength="82" x="87" y="978.701">OrderStatus</text><line style="stroke:#181818;stroke-width:0.5;" x1="59" x2="171" y1="989.41" y2="989.41"/><text fill="#000000" font-family="sans-serif" font-size="14" lengthAdjust="spacing" textLength="65" x="64" y="1006.9452">-pending</text><text fill="#000000" font-family="sans-serif" font-size="14" lengthAdjust="spacing" textLength="76" x="64" y="1023.4334">-delivering</text><text fill="#000000" font-family="sans-serif" font-size="14" lengthAdjust="spacing" textLength="71" x="64" y="1039.9217">-delivered</text><text fill="#000000" font-family="sans-serif" font-size="14" lengthAdjust="spacing" textLength="72" x="64" y="1056.41">-cancelled</text></g><!--reverse link User to Client--><g id="link_User_Client"><path codeLine="92" d="M543.1903,180.0789 C574.8303,244.5489 604.23,332.39 570,416.45 C565.61,427.22 558.81,437.27 551.11,446.28 " fill="none" id="User-backto-Client" style="stroke:#181818;stroke-width:1.0;"/><polygon fill="none" points="535.26,163.92,537.804,182.7223,548.5766,177.4355,535.26,163.92" style="stroke:#181818;stroke-width:1.0;"/></g><!--reverse link User to Admin--><g id="link_User_Admin"><path codeLine="93" d="M501,181.72 C501,223.04 501,257.14 501,284.73 " fill="none" id="User-backto-Admin" style="stroke:#181818;stroke-width:1.0;"/><polygon fill="none" points="501,163.72,495,181.72,507,181.72,501,163.72" style="stroke:#181818;stroke-width:1.0;"/></g><!--reverse link User to ERCA--><g id="link_User_ERCA"><path codeLine="94" d="M572.0021,177.2608 C580.3821,186.9108 576.79,183.43 584,193.45 C605.64,223.5 625.29,262.03 636.15,284.75 " fill="none" id="User-backto-ERCA" style="stroke:#181818;stroke-width:1.0;"/><polygon fill="none" points="560.2,163.67,567.4719,181.1948,576.5324,173.3267,560.2,163.67" style="stroke:#181818;stroke-width:1.0;"/></g><!--link User to Password--><g id="link_User_Password"><path codeLine="95" d="M440.14,125.37 C375.18,149.98 270.12,192.6 185,240.45 C171,248.32 161.3952,254.4047 148.2352,263.6747 " fill="none" id="User-to-Password" style="stroke:#181818;stroke-width:1.0;"/><polygon fill="#181818" points="143.33,267.13,152.9913,265.2172,147.4177,264.2506,148.3843,258.677,143.33,267.13" style="stroke:#181818;stroke-width:1.0;"/><polygon fill="#000000" points="269.4815,204.2461,278.9139,203.0292,276.3972,197.7174,269.4815,204.2461" style="stroke:#000000;stroke-width:1.0;"/><text fill="#000000" font-family="sans-serif" font-size="13" lengthAdjust="spacing" textLength="22" x="283" y="207.0184">has</text><text fill="#000000" font-family="sans-serif" font-size="13" lengthAdjust="spacing" textLength="8" x="424.6406" y="124.7658">1</text><text fill="#000000" font-family="sans-serif" font-size="13" lengthAdjust="spacing" textLength="6" x="151.7789" y="250.228">*</text></g><!--link User to PasswordResetToken--><g id="link_User_PasswordResetToken"><path codeLine="96" d="M444.94,163.72 C413.07,198.12 378.3586,235.5795 351.4986,264.5595 " fill="none" id="User-to-PasswordResetToken" style="stroke:#181818;stroke-width:1.0;"/><polygon fill="#181818" points="347.42,268.96,356.4716,265.0783,350.8189,265.2929,350.6042,259.6401,347.42,268.96" style="stroke:#181818;stroke-width:1.0;"/><polygon fill="#000000" points="414.6016,205.7728,422.9051,201.1358,418.5937,197.1406,414.6016,205.7728" style="stroke:#000000;stroke-width:1.0;"/><text fill="#000000" font-family="sans-serif" font-size="13" lengthAdjust="spacing" textLength="22" x="427" y="207.0184">has</text><text fill="#000000" font-family="sans-serif" font-size="13" lengthAdjust="spacing" textLength="8" x="430.3709" y="183.8521">1</text><text fill="#000000" font-family="sans-serif" font-size="13" lengthAdjust="spacing" textLength="6" x="347.0282" y="258.1746">*</text></g><!--link Client to Order--><g id="link_Client_Order"><path codeLine="97" d="M438.13,517.72 C408,531.36 371.32,549.17 340,567.91 C283.94,601.45 229.1757,641.6758 185.4457,675.6958 " fill="none" id="Client-to-Order" style="stroke:#181818;stroke-width:1.0;"/><polygon fill="#181818" points="180.71,679.38,190.2697,677.0109,184.6564,676.3099,185.3574,670.6966,180.71,679.38" style="stroke:#181818;stroke-width:1.0;"/><polygon fill="#000000" points="340.7604,579.2158,349.9879,576.9129,346.872,571.9289,340.7604,579.2158" style="stroke:#000000;stroke-width:1.0;"/><text fill="#000000" font-family="sans-serif" font-size="13" lengthAdjust="spacing" textLength="57" x="354" y="581.4784">performs</text><text fill="#000000" font-family="sans-serif" font-size="13" lengthAdjust="spacing" textLength="8" x="422.3458" y="517.6275">1</text><text fill="#000000" font-family="sans-serif" font-size="13" lengthAdjust="spacing" textLength="6" x="189.2117" y="662.7071">*</text></g><!--link Client to License--><g id="link_Client_License"><path codeLine="98" d="M557.84,535.82 C572.39,544.88 588.3,553.59 604,559.91 C673.37,587.86 705.97,552.65 769,592.91 C793.53,608.58 810.7223,627.4478 826.8323,650.9978 " fill="none" id="Client-to-License" style="stroke:#181818;stroke-width:1.0;"/><polygon fill="#181818" points="830.22,655.95,828.44,646.2633,827.397,651.8232,821.8371,650.7802,830.22,655.95" style="stroke:#181818;stroke-width:1.0;"/><polygon fill="#000000" points="763.5964,578.5334,756.4383,572.2714,754.1246,577.6747,763.5964,578.5334" style="stroke:#000000;stroke-width:1.0;"/><text fill="#000000" font-family="sans-serif" font-size="13" lengthAdjust="spacing" textLength="22" x="768" y="581.4784">has</text><text fill="#000000" font-family="sans-serif" font-size="13" lengthAdjust="spacing" textLength="8" x="558.3905" y="556.3957">1</text><text fill="#000000" font-family="sans-serif" font-size="13" lengthAdjust="spacing" textLength="8" x="817.812" y="645.1498">1</text></g><!--link Client to LicenseApplication--><g id="link_Client_LicenseApplication"><path codeLine="99" d="M486.08,536.37 C484.18,552.88 485.4,570.98 495,584.91 C500.67,593.13 507.7,587.35 516,592.91 C545.12,612.42 568.5174,635.0347 590.6374,660.1847 " fill="none" id="Client-to-LicenseApplication" style="stroke:#181818;stroke-width:1.0;"/><polygon fill="#181818" points="594.6,664.69,591.6597,655.2903,591.2979,660.9355,585.6526,660.5737,594.6,664.69" style="stroke:#181818;stroke-width:1.0;"/><polygon fill="#000000" points="503.226,580.3854,499.6355,571.5786,495.1447,575.3709,503.226,580.3854" style="stroke:#000000;stroke-width:1.0;"/><text fill="#000000" font-family="sans-serif" font-size="13" lengthAdjust="spacing" textLength="34" x="509" y="581.4784">apply</text><text fill="#000000" font-family="sans-serif" font-size="13" lengthAdjust="spacing" textLength="8" x="475.8413" y="556.3694">1</text><text fill="#000000" font-family="sans-serif" font-size="13" lengthAdjust="spacing" textLength="8" x="580.4313" y="653.8879">1</text></g><!--link Client to Weapon--><g id="link_Client_Weapon"><path codeLine="100" d="M468.83,536.37 C454.9,554.11 436.73,573.11 416,584.91 C399.49,594.31 386.8,578.87 374,592.91 C285.04,690.49 301.2037,853.7005 318.6437,943.3005 " fill="none" id="Client-to-Weapon" style="stroke:#181818;stroke-width:1.0;"/><polygon fill="#181818" points="319.79,949.19,321.9968,939.5916,318.8347,944.2821,314.1442,941.12,319.79,949.19" style="stroke:#181818;stroke-width:1.0;"/><polygon fill="#000000" points="377.2688,738.256,383.1577,730.788,377.6434,728.7528,377.2688,738.256" style="stroke:#000000;stroke-width:1.0;"/><text fill="#000000" font-family="sans-serif" font-size="13" lengthAdjust="spacing" textLength="138" x="388" y="738.4784">adds to shopping cart</text><text fill="#000000" font-family="sans-serif" font-size="13" lengthAdjust="spacing" textLength="8" x="456.1655" y="556.3694">1</text><text fill="#000000" font-family="sans-serif" font-size="13" lengthAdjust="spacing" textLength="6" x="311.585" y="938.0093">*</text></g><!--link ERCA to LicenseApplication--><g id="link_ERCA_LicenseApplication"><path codeLine="101" d="M645.09,325.38 C645.37,384.61 646.1817,558.9001 646.6517,658.5001 " fill="none" id="ERCA-to-LicenseApplication" style="stroke:#181818;stroke-width:1.0;"/><polygon fill="#181818" points="646.68,664.5,650.6375,655.4812,646.6564,659.5001,642.6376,655.519,646.68,664.5" style="stroke:#181818;stroke-width:1.0;"/><polygon fill="#000000" points="651.0234,496.3352,653.9199,487.2765,648.0421,487.304,651.0234,496.3352" style="stroke:#000000;stroke-width:1.0;"/><text fill="#000000" font-family="sans-serif" font-size="13" lengthAdjust="spacing" textLength="57" x="660" y="496.2484">approves</text><text fill="#000000" font-family="sans-serif" font-size="13" lengthAdjust="spacing" textLength="8" x="636.0392" y="345.4963">1</text><text fill="#000000" font-family="sans-serif" font-size="13" lengthAdjust="spacing" textLength="6" x="640.3169" y="653.6772">*</text></g><!--link LicenseApplication to ApplicationStatus--><g id="link_LicenseApplication_ApplicationStatus"><path codeLine="102" d="M647,802.26 C647,853.39 647,915.94 647,959.78 " fill="none" id="LicenseApplication-to-ApplicationStatus" style="stroke:#181818;stroke-width:1.0;"/><polygon fill="#181818" points="647,965.78,651,956.78,647,960.78,643,956.78,647,965.78" style="stroke:#181818;stroke-width:1.0;"/><polygon fill="#000000" points="652,874.5653,654.9389,865.5202,649.0611,865.5202,652,874.5653" style="stroke:#000000;stroke-width:1.0;"/><text fill="#000000" font-family="sans-serif" font-size="13" lengthAdjust="spacing" textLength="22" x="661" y="874.4784">has</text><text fill="#000000" font-family="sans-serif" font-size="13" lengthAdjust="spacing" textLength="8" x="637.425" y="823.863">1</text><text fill="#000000" font-family="sans-serif" font-size="13" lengthAdjust="spacing" textLength="8" x="638.3375" y="954.7844">1</text></g><!--link ERCA to License--><g id="link_ERCA_License"><path codeLine="103" d="M656.6,325.31 C672.64,352.23 702.28,402.62 726,446.45 C764.02,516.69 802.3201,592.6618 830.9701,650.5918 " fill="none" id="ERCA-to-License" style="stroke:#181818;stroke-width:1.0;"/><polygon fill="#181818" points="833.63,655.97,833.2257,646.1294,831.4134,651.4882,826.0547,649.6759,833.63,655.97" style="stroke:#181818;stroke-width:1.0;"/><polygon fill="#000000" points="792.3623,495.742,790.6791,486.3816,785.4986,489.1586,792.3623,495.742" style="stroke:#000000;stroke-width:1.0;"/><text fill="#000000" font-family="sans-serif" font-size="13" lengthAdjust="spacing" textLength="33" x="799" y="496.2484">gives</text><text fill="#000000" font-family="sans-serif" font-size="13" lengthAdjust="spacing" textLength="8" x="650.6425" y="345.4075">1</text><text fill="#000000" font-family="sans-serif" font-size="13" lengthAdjust="spacing" textLength="6" x="814.2574" y="645.3529">*</text></g><!--link Order to Weapon--><g id="link_Order_Weapon"><path codeLine="104" d="M143.97,810.83 C156.45,835.18 173.27,860.33 195,877.91 C204.4,885.52 210.78,879.46 221,885.91 C247.11,902.4 267.1798,921.8735 286.2398,944.3535 " fill="none" id="Order-to-Weapon" style="stroke:#181818;stroke-width:1.0;"/><polygon fill="#181818" points="290.12,948.93,287.3506,939.4785,286.8865,945.1163,281.2487,944.6521,290.12,948.93" style="stroke:#181818;stroke-width:1.0;"/><polygon fill="#000000" points="203.6458,872.987,199.0617,864.6541,195.0392,868.94,203.6458,872.987" style="stroke:#000000;stroke-width:1.0;"/><text fill="#000000" font-family="sans-serif" font-size="13" lengthAdjust="spacing" textLength="22" x="209" y="874.4784">has</text><text fill="#000000" font-family="sans-serif" font-size="13" lengthAdjust="spacing" textLength="8" x="144.2413" y="831.5416">1</text><text fill="#000000" font-family="sans-serif" font-size="13" lengthAdjust="spacing" textLength="6" x="278.4065" y="938.1444">*</text></g><!--link Order to OrderStatus--><g id="link_Order_OrderStatus"><path codeLine="105" d="M115,810.87 C115,857.67 115,910.29 115,951.56 " fill="none" id="Order-to-OrderStatus" style="stroke:#181818;stroke-width:1.0;"/><polygon fill="#181818" points="115,957.56,119,948.56,115,952.56,111,948.56,115,957.56" style="stroke:#181818;stroke-width:1.0;"/><polygon fill="#000000" points="120,874.5653,122.9389,865.5202,117.0611,865.5202,120,874.5653" style="stroke:#000000;stroke-width:1.0;"/><text fill="#000000" font-family="sans-serif" font-size="13" lengthAdjust="spacing" textLength="22" x="129" y="874.4784">has</text><text fill="#000000" font-family="sans-serif" font-size="13" lengthAdjust="spacing" textLength="8" x="105.675" y="831.5948">1</text><text fill="#000000" font-family="sans-serif" font-size="13" lengthAdjust="spacing" textLength="8" x="106.4375" y="946.6668">1</text></g><!--link Admin to Weapon--><g id="link_Admin_Weapon"><path codeLine="106" d="M484.21,325.23 C473.15,337.87 458.31,354.73 445,369.45 C364.33,458.66 304.92,455.93 261,567.91 C210.13,697.59 264.0726,856.7386 302.2926,943.5586 " fill="none" id="Admin-to-Weapon" style="stroke:#181818;stroke-width:1.0;"/><polygon fill="#181818" points="304.71,949.05,304.7448,939.2012,302.6955,944.4738,297.4229,942.4245,304.71,949.05" style="stroke:#181818;stroke-width:1.0;"/><polygon fill="#000000" points="264.5888,581.362,269.9611,573.5142,264.3223,571.8552,264.5888,581.362" style="stroke:#000000;stroke-width:1.0;"/><text fill="#000000" font-family="sans-serif" font-size="13" lengthAdjust="spacing" textLength="30" x="275" y="581.4784">adds</text><text fill="#000000" font-family="sans-serif" font-size="13" lengthAdjust="spacing" textLength="8" x="470.3628" y="345.6552">1</text><text fill="#000000" font-family="sans-serif" font-size="13" lengthAdjust="spacing" textLength="6" x="294.7747" y="938.279">*</text></g><!--link Admin to Client--><g id="link_Admin_Client"><path codeLine="107" d="M499.09,325.09 C497.1,347.12 494.35,384.37 495,416.45 C495.2,426.05 495.2968,430.3645 495.6768,440.1345 " fill="none" id="Admin-to-Client" style="stroke:#181818;stroke-width:1.0;"/><polygon fill="#181818" points="495.91,446.13,499.5572,436.9813,495.7157,441.1338,491.5632,437.2923,495.91,446.13" style="stroke:#181818;stroke-width:1.0;"/><polygon fill="#000000" points="499.8517,413.1031,503.0576,404.1491,497.1823,403.9748,499.8517,413.1031" style="stroke:#000000;stroke-width:1.0;"/><text fill="#000000" font-family="sans-serif" font-size="13" lengthAdjust="spacing" textLength="56" x="509" y="413.0184">manages</text><text fill="#000000" font-family="sans-serif" font-size="13" lengthAdjust="spacing" textLength="8" x="489.4278" y="345.4758">1</text><text fill="#000000" font-family="sans-serif" font-size="13" lengthAdjust="spacing" textLength="6" x="489.1306" y="435.675">*</text></g><!--SRC=[ZLFRYjim47tNLuYy50fgsZw6ic2oMrZePTbjwRCYpSOYkY79tQPf_hqZsLPiai1Yi6QaCsTcpaXlsfHyN2sNNdEREgFV2MUMGlCOcLHy6xWXhP903QJMoKZYJbdFSPiMK9DIK9ikmRrmzadz1VgU4EAvsF4jq2zAW8qG3wI0H_z0cEwj-zjgVklC1W9XbXiW30nNch2D2gczvGbtk9G1OiIZFrw5VTaypdaRxv6C9-NiuHL41YIYzHf2Kiyv3W-b4vq1cx2m8m7R6JeXVKeyTTWCys2biblayZwuto0n4Ap2zOXVRVzdX51xpmw6ThZahcVL1H384lPh9m4B-_YvkRDyemlV4Fw0lnSNPCu-c8I905YrR5BEhw4tpq8U8KBwuNQGLKbv7KI4E8MljSB63pEjVEjidSmeN8ref578MVsxntLpc4lm2xXtjehGkvZZfHWd8Np04UOkeWZAPx49KmOPvdJVWvn8MZmaStdDNB8KNTonQC_tUPvVo_NDxIUk7_faiLNUunZ7Cr44E4s-q9_F79LMEAofdI-0u5Q0rkCToEEcd_unDkWwsIYoJVmiM-ykFYmeOpUBjuiwFBgYBO_qvYhWDDqAxJDcy80jdU2nX_3iWZd78EtmXgwGd02Jzu1OV01wVobbF-cCa3BIv6XiNL6R2XuIHkIkf_rSey_lAzTpuNo8BklPCntxk987oRUgP-xLkL1wJr2FQwx9nHX1PQRJDFF-Bm06nLRKS8jNEsF-0m00]--></g></svg>