<?xml version="1.0" encoding="us-ascii" standalone="no"?><svg xmlns="http://www.w3.org/2000/svg" xmlns:xlink="http://www.w3.org/1999/xlink" contentStyleType="text/css" height="648px" preserveAspectRatio="none" style="width:340px;height:648px;background:#FFFFFF;" version="1.1" viewBox="0 0 340 648" width="340px" zoomAndPan="magnify"><defs/><g><!--cluster Users--><g id="cluster_Users"><path d="M116.5,6.0137 L158.5,6.0137 A3.75,3.75 0 0 1 161,8.5137 L168,30.6348 L221.5,30.6348 A2.5,2.5 0 0 1 224,33.1348 L224,170.5137 A2.5,2.5 0 0 1 221.5,173.0137 L116.5,173.0137 A2.5,2.5 0 0 1 114,170.5137 L114,8.5137 A2.5,2.5 0 0 1 116.5,6.0137 " fill="none" style="stroke:#000000;stroke-width:1.5;"/><line style="stroke:#000000;stroke-width:1.5;" x1="114" x2="168" y1="30.6348" y2="30.6348"/><text fill="#000000" font-family="sans-serif" font-size="14" font-weight="bold" lengthAdjust="spacing" textLength="41" x="118" y="23.1211">Users</text></g><!--cluster Licenses--><g id="cluster_Licenses"><path d="M8.5,224.0137 L72.5,224.0137 A3.75,3.75 0 0 1 75,226.5137 L82,248.6348 L330.5,248.6348 A2.5,2.5 0 0 1 333,251.1348 L333,638.5137 A2.5,2.5 0 0 1 330.5,641.0137 L8.5,641.0137 A2.5,2.5 0 0 1 6,638.5137 L6,226.5137 A2.5,2.5 0 0 1 8.5,224.0137 " fill="none" style="stroke:#000000;stroke-width:1.5;"/><line style="stroke:#000000;stroke-width:1.5;" x1="6" x2="82" y1="248.6348" y2="248.6348"/><text fill="#000000" font-family="sans-serif" font-size="14" font-weight="bold" lengthAdjust="spacing" textLength="63" x="10" y="241.1211">Licenses</text></g><!--class ERCA--><g id="elem_ERCA"><rect codeLine="9" fill="#F1F1F1" height="114.4844" id="ERCA" rx="2.5" ry="2.5" style="stroke:#181818;stroke-width:0.5;" width="77" x="130.5" y="43.0137"/><ellipse cx="148.65" cy="59.0137" fill="#ADD1B2" rx="11" ry="11" style="stroke:#181818;stroke-width:1.0;"/><path d="M151.4156,54.8887 Q151.5719,54.6699 151.7594,54.5605 Q151.9469,54.4512 152.1656,54.4512 Q152.5406,54.4512 152.775,54.7168 Q153.0094,54.9668 153.0094,55.5762 L153.0094,57.0293 Q153.0094,57.6387 152.775,57.9043 Q152.5406,58.1699 152.1656,58.1699 Q151.8219,58.1699 151.6188,57.9668 Q151.4156,57.7793 151.3063,57.2637 Q151.2594,56.9043 151.0719,56.7168 Q150.7438,56.3418 150.1344,56.123 Q149.525,55.9043 148.9,55.9043 Q148.1344,55.9043 147.4938,56.2324 Q146.8688,56.5605 146.3688,57.3105 Q145.8844,58.0605 145.8844,59.0918 L145.8844,60.1855 Q145.8844,61.4199 146.775,62.248 Q147.6656,63.0605 149.2594,63.0605 Q150.1969,63.0605 150.8531,62.8105 Q151.2438,62.6543 151.6656,62.2168 Q151.9313,61.9512 152.0719,61.873 Q152.2281,61.7949 152.4313,61.7949 Q152.7594,61.7949 153.0094,62.0605 Q153.275,62.3105 153.275,62.6543 Q153.275,62.998 152.9313,63.4043 Q152.4313,63.9824 151.6344,64.3105 Q150.5563,64.7637 149.2594,64.7637 Q147.7438,64.7637 146.5406,64.1387 Q145.5563,63.6387 144.8688,62.5762 Q144.1813,61.498 144.1813,60.2168 L144.1813,59.0605 Q144.1813,57.7324 144.7906,56.5918 Q145.4156,55.4355 146.5094,54.8262 Q147.6031,54.2012 148.8375,54.2012 Q149.5719,54.2012 150.2125,54.373 Q150.8688,54.5293 151.4156,54.8887 Z " fill="#000000"/><text fill="#000000" font-family="sans-serif" font-size="14" lengthAdjust="spacing" textLength="38" x="163.35" y="64.8105">ERCA</text><line style="stroke:#181818;stroke-width:0.5;" x1="131.5" x2="206.5" y1="75.0137" y2="75.0137"/><text fill="#000000" font-family="sans-serif" font-size="14" lengthAdjust="spacing" textLength="51" x="136.5" y="94.1211">-clientID</text><text fill="#000000" font-family="sans-serif" font-size="14" lengthAdjust="spacing" textLength="40" x="136.5" y="112.7422">-name</text><text fill="#000000" font-family="sans-serif" font-size="14" lengthAdjust="spacing" textLength="38" x="136.5" y="131.3633">-email</text><text fill="#000000" font-family="sans-serif" font-size="14" lengthAdjust="spacing" textLength="65" x="136.5" y="149.9844">-password</text></g><!--class License--><g id="elem_License"><rect codeLine="19" fill="#F1F1F1" height="188.9688" id="License" rx="2.5" ry="2.5" style="stroke:#181818;stroke-width:0.5;" width="110" x="22" y="261.0137"/><ellipse cx="50.05" cy="277.0137" fill="#ADD1B2" rx="11" ry="11" style="stroke:#181818;stroke-width:1.0;"/><path d="M52.8156,272.8887 Q52.9719,272.6699 53.1594,272.5605 Q53.3469,272.4512 53.5656,272.4512 Q53.9406,272.4512 54.175,272.7168 Q54.4094,272.9668 54.4094,273.5762 L54.4094,275.0293 Q54.4094,275.6387 54.175,275.9043 Q53.9406,276.1699 53.5656,276.1699 Q53.2219,276.1699 53.0188,275.9668 Q52.8156,275.7793 52.7063,275.2637 Q52.6594,274.9043 52.4719,274.7168 Q52.1438,274.3418 51.5344,274.123 Q50.925,273.9043 50.3,273.9043 Q49.5344,273.9043 48.8938,274.2324 Q48.2688,274.5605 47.7688,275.3105 Q47.2844,276.0605 47.2844,277.0918 L47.2844,278.1855 Q47.2844,279.4199 48.175,280.248 Q49.0656,281.0605 50.6594,281.0605 Q51.5969,281.0605 52.2531,280.8105 Q52.6438,280.6543 53.0656,280.2168 Q53.3313,279.9512 53.4719,279.873 Q53.6281,279.7949 53.8313,279.7949 Q54.1594,279.7949 54.4094,280.0605 Q54.675,280.3105 54.675,280.6543 Q54.675,280.998 54.3313,281.4043 Q53.8313,281.9824 53.0344,282.3105 Q51.9563,282.7637 50.6594,282.7637 Q49.1438,282.7637 47.9406,282.1387 Q46.9563,281.6387 46.2688,280.5762 Q45.5813,279.498 45.5813,278.2168 L45.5813,277.0605 Q45.5813,275.7324 46.1906,274.5918 Q46.8156,273.4355 47.9094,272.8262 Q49.0031,272.2012 50.2375,272.2012 Q50.9719,272.2012 51.6125,272.373 Q52.2688,272.5293 52.8156,272.8887 Z " fill="#000000"/><text fill="#000000" font-family="sans-serif" font-size="14" lengthAdjust="spacing" textLength="49" x="66.95" y="282.8105">License</text><line style="stroke:#181818;stroke-width:0.5;" x1="23" x2="131" y1="293.0137" y2="293.0137"/><text fill="#000000" font-family="sans-serif" font-size="14" lengthAdjust="spacing" textLength="62" x="28" y="312.1211">-licenseID</text><text fill="#000000" font-family="sans-serif" font-size="14" lengthAdjust="spacing" textLength="98" x="28" y="330.7422">-licenseNumber</text><text fill="#000000" font-family="sans-serif" font-size="14" lengthAdjust="spacing" textLength="40" x="28" y="349.3633">-name</text><text fill="#000000" font-family="sans-serif" font-size="14" lengthAdjust="spacing" textLength="38" x="28" y="367.9844">-email</text><text fill="#000000" font-family="sans-serif" font-size="14" lengthAdjust="spacing" textLength="63" x="28" y="386.6055">-birthDate</text><text fill="#000000" font-family="sans-serif" font-size="14" lengthAdjust="spacing" textLength="56" x="28" y="405.2266">-address</text><text fill="#000000" font-family="sans-serif" font-size="14" lengthAdjust="spacing" textLength="72" x="28" y="423.8477">-expiryDate</text><text fill="#000000" font-family="sans-serif" font-size="14" lengthAdjust="spacing" textLength="81" x="28" y="442.4688">-licenseType</text></g><!--class LicenseApplication--><g id="elem_LicenseApplication"><rect codeLine="29" fill="#F1F1F1" height="151.7266" id="LicenseApplication" rx="2.5" ry="2.5" style="stroke:#181818;stroke-width:0.5;" width="150" x="167" y="279.5137"/><ellipse cx="182" cy="295.5137" fill="#ADD1B2" rx="11" ry="11" style="stroke:#181818;stroke-width:1.0;"/><path d="M184.7656,291.3887 Q184.9219,291.1699 185.1094,291.0605 Q185.2969,290.9512 185.5156,290.9512 Q185.8906,290.9512 186.125,291.2168 Q186.3594,291.4668 186.3594,292.0762 L186.3594,293.5293 Q186.3594,294.1387 186.125,294.4043 Q185.8906,294.6699 185.5156,294.6699 Q185.1719,294.6699 184.9688,294.4668 Q184.7656,294.2793 184.6563,293.7637 Q184.6094,293.4043 184.4219,293.2168 Q184.0938,292.8418 183.4844,292.623 Q182.875,292.4043 182.25,292.4043 Q181.4844,292.4043 180.8438,292.7324 Q180.2188,293.0605 179.7188,293.8105 Q179.2344,294.5605 179.2344,295.5918 L179.2344,296.6855 Q179.2344,297.9199 180.125,298.748 Q181.0156,299.5605 182.6094,299.5605 Q183.5469,299.5605 184.2031,299.3105 Q184.5938,299.1543 185.0156,298.7168 Q185.2813,298.4512 185.4219,298.373 Q185.5781,298.2949 185.7813,298.2949 Q186.1094,298.2949 186.3594,298.5605 Q186.625,298.8105 186.625,299.1543 Q186.625,299.498 186.2813,299.9043 Q185.7813,300.4824 184.9844,300.8105 Q183.9063,301.2637 182.6094,301.2637 Q181.0938,301.2637 179.8906,300.6387 Q178.9063,300.1387 178.2188,299.0762 Q177.5313,297.998 177.5313,296.7168 L177.5313,295.5605 Q177.5313,294.2324 178.1406,293.0918 Q178.7656,291.9355 179.8594,291.3262 Q180.9531,290.7012 182.1875,290.7012 Q182.9219,290.7012 183.5625,290.873 Q184.2188,291.0293 184.7656,291.3887 Z " fill="#000000"/><text fill="#000000" font-family="sans-serif" font-size="14" lengthAdjust="spacing" textLength="118" x="196" y="301.3105">LicenseApplication</text><line style="stroke:#181818;stroke-width:0.5;" x1="168" x2="316" y1="311.5137" y2="311.5137"/><text fill="#000000" font-family="sans-serif" font-size="14" lengthAdjust="spacing" textLength="40" x="173" y="330.6211">-name</text><text fill="#000000" font-family="sans-serif" font-size="14" lengthAdjust="spacing" textLength="38" x="173" y="349.2422">-email</text><text fill="#000000" font-family="sans-serif" font-size="14" lengthAdjust="spacing" textLength="63" x="173" y="367.8633">-birthDate</text><text fill="#000000" font-family="sans-serif" font-size="14" lengthAdjust="spacing" textLength="56" x="173" y="386.4844">-address</text><text fill="#000000" font-family="sans-serif" font-size="14" lengthAdjust="spacing" textLength="117" x="173" y="405.1055">-medicalCertificate</text><text fill="#000000" font-family="sans-serif" font-size="14" lengthAdjust="spacing" textLength="80" x="173" y="423.7266">-documentID</text></g><!--class ApplicationStatus--><g id="elem_ApplicationStatus"><rect codeLine="37" fill="#F1F1F1" height="95.8633" id="ApplicationStatus" rx="2.5" ry="2.5" style="stroke:#181818;stroke-width:0.5;" width="141" x="171.5" y="529.0137"/><ellipse cx="186.5" cy="545.0137" fill="#EB937F" rx="11" ry="11" style="stroke:#181818;stroke-width:1.0;"/><path d="M185.3594,545.8105 L185.3594,548.3105 L189.6875,548.3105 L189.6875,547.3887 Q189.6875,546.7793 189.9219,546.5137 Q190.1719,546.248 190.5469,546.248 Q190.9219,546.248 191.1563,546.5137 Q191.3906,546.7793 191.3906,547.3887 L191.3906,550.0137 L183.3906,550.0137 Q182.7656,550.0137 182.5,549.7793 Q182.25,549.5449 182.25,549.1543 Q182.25,548.7793 182.5156,548.5449 Q182.7813,548.3105 183.3906,548.3105 L183.6563,548.3105 L183.6563,541.6543 L183.3906,541.6543 Q182.7656,541.6543 182.5,541.4199 Q182.25,541.1855 182.25,540.7949 Q182.25,540.4199 182.5,540.1855 Q182.7656,539.9512 183.3906,539.9512 L191.0156,539.9512 L191.0156,542.5449 Q191.0156,543.1543 190.7813,543.4199 Q190.5625,543.6699 190.1719,543.6699 Q189.7969,543.6699 189.5625,543.4199 Q189.3281,543.1543 189.3281,542.5449 L189.3281,541.6543 L185.3594,541.6543 L185.3594,544.1074 L186.8438,544.1074 Q186.8438,543.4512 186.9688,543.2637 Q187.2344,542.8574 187.7031,542.8574 Q188.0781,542.8574 188.3125,543.123 Q188.5469,543.373 188.5469,543.9824 L188.5469,545.9512 Q188.5469,546.498 188.4219,546.6855 Q188.1563,547.0762 187.7031,547.0762 Q187.2344,547.0762 186.9688,546.6699 Q186.8438,546.4824 186.8438,545.8105 L185.3594,545.8105 Z " fill="#000000"/><text fill="#000000" font-family="sans-serif" font-size="14" lengthAdjust="spacing" textLength="109" x="200.5" y="550.8105">ApplicationStatus</text><line style="stroke:#181818;stroke-width:0.5;" x1="172.5" x2="311.5" y1="561.0137" y2="561.0137"/><text fill="#000000" font-family="sans-serif" font-size="14" lengthAdjust="spacing" textLength="56" x="177.5" y="580.1211">-pending</text><text fill="#000000" font-family="sans-serif" font-size="14" lengthAdjust="spacing" textLength="65" x="177.5" y="598.7422">-approved</text><text fill="#000000" font-family="sans-serif" font-size="14" lengthAdjust="spacing" textLength="48" x="177.5" y="617.3633">-denied</text></g><!--link ERCA to License--><g id="link_ERCA_License"><path codeLine="45" d="M148.58,157.2737 C138.09,186.1937 124.99,222.2837 112.87,255.6637 " fill="none" id="ERCA-to-License" style="stroke:#181818;stroke-width:1.0;"/><polygon fill="#181818" points="111.09,260.5737,117.9127,253.4708,112.7907,255.8718,110.3897,250.7497,111.09,260.5737" style="stroke:#181818;stroke-width:1.0;"/><polygon fill="#000000" points="140.2942,203.3592,146.1427,195.8595,140.6175,193.8541,140.2942,203.3592" style="stroke:#000000;stroke-width:1.0;"/><text fill="#000000" font-family="sans-serif" font-size="13" lengthAdjust="spacing" textLength="29" x="151" y="204.042">gives</text><text fill="#000000" font-family="sans-serif" font-size="13" lengthAdjust="spacing" textLength="7" x="138.5153" y="179.7151">1</text><text fill="#000000" font-family="sans-serif" font-size="13" lengthAdjust="spacing" textLength="5" x="108.5086" y="249.6947">*</text></g><!--link ERCA to LicenseApplication--><g id="link_ERCA_LicenseApplication"><path codeLine="46" d="M185.2,157.2737 C195.09,191.6137 207.89,236.0737 218.84,274.0937 " fill="none" id="ERCA-to-LicenseApplication" style="stroke:#181818;stroke-width:1.0;"/><polygon fill="#181818" points="220.3,279.1737,221.6468,269.4173,218.9132,274.3698,213.9607,271.6362,220.3,279.1737" style="stroke:#181818;stroke-width:1.0;"/><polygon fill="#000000" points="204.3836,203.4639,204.7048,193.9588,199.0565,195.5853,204.3836,203.4639" style="stroke:#000000;stroke-width:1.0;"/><text fill="#000000" font-family="sans-serif" font-size="13" lengthAdjust="spacing" textLength="44" x="212" y="204.042">approve</text><text fill="#000000" font-family="sans-serif" font-size="13" lengthAdjust="spacing" textLength="7" x="179.8272" y="179.7151">1</text><text fill="#000000" font-family="sans-serif" font-size="13" lengthAdjust="spacing" textLength="5" x="212.9934" y="268.1426">*</text></g><!--link LicenseApplication to ApplicationStatus--><g id="link_LicenseApplication_ApplicationStatus"><path codeLine="47" d="M242,431.7437 C242,462.0037 242,496.1637 242,523.6437 " fill="none" id="LicenseApplication-to-ApplicationStatus" style="stroke:#181818;stroke-width:1.0;"/><polygon fill="#181818" points="242,528.6937,246,519.6937,242,523.6937,238,519.6937,242,528.6937" style="stroke:#181818;stroke-width:1.0;"/><polygon fill="#000000" points="247,494.6592,249.9389,485.6141,244.0611,485.6141,247,494.6592" style="stroke:#000000;stroke-width:1.0;"/><text fill="#000000" font-family="sans-serif" font-size="13" lengthAdjust="spacing" textLength="21" x="256" y="495.042">has</text><text fill="#000000" font-family="sans-serif" font-size="13" lengthAdjust="spacing" textLength="7" x="234.6883" y="453.3434">1</text><text fill="#000000" font-family="sans-serif" font-size="13" lengthAdjust="spacing" textLength="7" x="234.5078" y="517.7618">1</text></g><!--SRC=[ZP3BQa8n48RtUOfmDeL2Qhjr8OXs8PGkQli0Op8zPp0taXnRAxvx9teizWQ6G2Op__zDCbTTAJ6FHwDemPVUsHiTt4XRo5aPWZQ14nqPb0vB5qmMUKq-0gVbGJGj9T6gBxZGmI_f0-Mjg2k2NaEByYLZoZjnqChxfzbq9vIsXBuiva9vS2WKEY0hL6J9MqX6x4NT9y83QVGPlo33dJds65NG43xsReNf1tT5gNHpA9m1OnBcpANtI6bxJ0xUvsr4xlkjoJH6haAXu7SNK1qQLjiPfaAlrST54tJlZj_T2_IzasVGPO7IyyzKH6_8jyoACOKD6ZQY9wp3u5c8EZdPt3LAJPhhvlGyEPOjRJ3BoJ-2irQi7TYi_gFCNidcm_dhXMFPGUto2G00]--></g></svg>