<?xml version="1.0" encoding="us-ascii" standalone="no"?><svg xmlns="http://www.w3.org/2000/svg" xmlns:xlink="http://www.w3.org/1999/xlink" contentStyleType="text/css" height="414px" preserveAspectRatio="none" style="width:1149px;height:414px;background:#FAFDFF;" version="1.1" viewBox="0 0 1149 414" width="1149px" zoomAndPan="magnify"><defs/><g><rect fill="#FAFDFF" height="414" style="stroke:none;stroke-width:1.0;" width="1149" x="0" y="0"/><text fill="#000000" font-family="sans-serif" font-size="14" font-weight="bold" lengthAdjust="spacing" textLength="490" x="328.5" y="30.1074">US 11 - As a client, I want to be able to delete my account if necessary.</text><rect fill="#C2F0FF" height="188.7461" style="stroke:#1E90FF;stroke-width:1.0;" width="10" x="23.5" y="133.2422"/><rect fill="#C2F0FF" height="156.4551" style="stroke:#1E90FF;stroke-width:1.0;" width="10" x="640.5" y="156.5332"/><rect fill="#C2F0FF" height="93.873" style="stroke:#1E90FF;stroke-width:1.0;" width="10" x="870.5" y="187.8242"/><rect fill="#C2F0FF" height="31.291" style="stroke:#1E90FF;stroke-width:1.0;" width="10" x="1100.5" y="219.1152"/><line style="stroke:#1E90FF;stroke-width:0.5;stroke-dasharray:5.0,5.0;" x1="28" x2="28" y1="123.2422" y2="330.9883"/><line style="stroke:#1E90FF;stroke-width:0.5;stroke-dasharray:5.0,5.0;" x1="645" x2="645" y1="123.2422" y2="330.9883"/><line style="stroke:#1E90FF;stroke-width:0.5;stroke-dasharray:5.0,5.0;" x1="875.5" x2="875.5" y1="123.2422" y2="330.9883"/><line style="stroke:#1E90FF;stroke-width:0.5;stroke-dasharray:5.0,5.0;" x1="1105" x2="1105" y1="123.2422" y2="330.9883"/><text fill="#000000" font-family="sans-serif" font-size="14" font-weight="bold" lengthAdjust="spacing" textLength="41" x="5" y="119.7285">Client</text><ellipse cx="28.5" cy="53.1211" fill="#C2F0FF" rx="8" ry="8" style="stroke:#1E90FF;stroke-width:0.5;"/><path d="M28.5,61.1211 L28.5,88.1211 M15.5,69.1211 L41.5,69.1211 M28.5,88.1211 L15.5,103.1211 M28.5,88.1211 L41.5,103.1211 " fill="none" style="stroke:#1E90FF;stroke-width:0.5;"/><text fill="#000000" font-family="sans-serif" font-size="14" font-weight="bold" lengthAdjust="spacing" textLength="41" x="5" y="345.0957">Client</text><ellipse cx="28.5" cy="357.1094" fill="#C2F0FF" rx="8" ry="8" style="stroke:#1E90FF;stroke-width:0.5;"/><path d="M28.5,365.1094 L28.5,392.1094 M15.5,373.1094 L41.5,373.1094 M28.5,392.1094 L15.5,407.1094 M28.5,392.1094 L41.5,407.1094 " fill="none" style="stroke:#1E90FF;stroke-width:0.5;"/><rect fill="#FFFFFF" height="32.6211" rx="2.5" ry="2.5" style="stroke:#1E90FF;stroke-width:0.5;" width="125" x="583" y="89.6211"/><text fill="#000000" font-family="sans-serif" font-size="14" font-weight="bold" lengthAdjust="spacing" textLength="111" x="590" y="111.7285">DashboardPage</text><rect fill="#FFFFFF" height="32.6211" rx="2.5" ry="2.5" style="stroke:#1E90FF;stroke-width:0.5;" width="125" x="583" y="329.9883"/><text fill="#000000" font-family="sans-serif" font-size="14" font-weight="bold" lengthAdjust="spacing" textLength="111" x="590" y="352.0957">DashboardPage</text><rect fill="#FFFFFF" height="32.6211" rx="2.5" ry="2.5" style="stroke:#1E90FF;stroke-width:0.5;" width="144" x="803.5" y="89.6211"/><text fill="#000000" font-family="sans-serif" font-size="14" font-weight="bold" lengthAdjust="spacing" textLength="130" x="810.5" y="111.7285">DashboardService</text><rect fill="#FFFFFF" height="32.6211" rx="2.5" ry="2.5" style="stroke:#1E90FF;stroke-width:0.5;" width="144" x="803.5" y="329.9883"/><text fill="#000000" font-family="sans-serif" font-size="14" font-weight="bold" lengthAdjust="spacing" textLength="130" x="810.5" y="352.0957">DashboardService</text><rect fill="#FFFFFF" height="32.6211" rx="2.5" ry="2.5" style="stroke:#1E90FF;stroke-width:0.5;" width="75" x="1068" y="89.6211"/><text fill="#000000" font-family="sans-serif" font-size="14" font-weight="bold" lengthAdjust="spacing" textLength="61" x="1075" y="111.7285">BackEnd</text><rect fill="#FFFFFF" height="32.6211" rx="2.5" ry="2.5" style="stroke:#1E90FF;stroke-width:0.5;" width="75" x="1068" y="329.9883"/><text fill="#000000" font-family="sans-serif" font-size="14" font-weight="bold" lengthAdjust="spacing" textLength="61" x="1075" y="352.0957">BackEnd</text><rect fill="#C2F0FF" height="188.7461" style="stroke:#1E90FF;stroke-width:1.0;" width="10" x="23.5" y="133.2422"/><rect fill="#C2F0FF" height="156.4551" style="stroke:#1E90FF;stroke-width:1.0;" width="10" x="640.5" y="156.5332"/><rect fill="#C2F0FF" height="93.873" style="stroke:#1E90FF;stroke-width:1.0;" width="10" x="870.5" y="187.8242"/><rect fill="#C2F0FF" height="31.291" style="stroke:#1E90FF;stroke-width:1.0;" width="10" x="1100.5" y="219.1152"/><polygon fill="#1E90FF" points="628.5,152.5332,638.5,156.5332,628.5,160.5332,632.5,156.5332" style="stroke:#1E90FF;stroke-width:1.0;"/><line style="stroke:#1E90FF;stroke-width:1.0;" x1="33.5" x2="634.5" y1="156.5332" y2="156.5332"/><text fill="#000000" font-family="sans-serif" font-size="13" font-weight="bold" lengthAdjust="spacing" textLength="7" x="254" y="151.2705">1</text><text fill="#000000" font-family="sans-serif" font-size="13" lengthAdjust="spacing" textLength="155" x="265" y="151.2705">Asks to delete his account</text><polygon fill="#1E90FF" points="858.5,183.8242,868.5,187.8242,858.5,191.8242,862.5,187.8242" style="stroke:#1E90FF;stroke-width:1.0;"/><line style="stroke:#1E90FF;stroke-width:1.0;" x1="650.5" x2="864.5" y1="187.8242" y2="187.8242"/><text fill="#000000" font-family="sans-serif" font-size="13" font-weight="bold" lengthAdjust="spacing" textLength="7" x="709.5" y="182.5615">2</text><text fill="#000000" font-family="sans-serif" font-size="13" lengthAdjust="spacing" textLength="91" x="720.5" y="182.5615">deleteAccount()</text><polygon fill="#1E90FF" points="1088.5,215.1152,1098.5,219.1152,1088.5,223.1152,1092.5,219.1152" style="stroke:#1E90FF;stroke-width:1.0;"/><line style="stroke:#1E90FF;stroke-width:1.0;" x1="880.5" x2="1094.5" y1="219.1152" y2="219.1152"/><text fill="#000000" font-family="sans-serif" font-size="13" font-weight="bold" lengthAdjust="spacing" textLength="7" x="927" y="213.8525">3</text><text fill="#000000" font-family="sans-serif" font-size="13" lengthAdjust="spacing" textLength="116" x="938" y="213.8525">HTTP request (PUT)</text><polygon fill="#1E90FF" points="891.5,246.4063,881.5,250.4063,891.5,254.4063,887.5,250.4063" style="stroke:#1E90FF;stroke-width:1.0;"/><line style="stroke:#1E90FF;stroke-width:1.0;stroke-dasharray:2.0,2.0;" x1="885.5" x2="1104.5" y1="250.4063" y2="250.4063"/><text fill="#000000" font-family="sans-serif" font-size="13" font-weight="bold" lengthAdjust="spacing" textLength="7" x="895" y="245.1436">4</text><text fill="#000000" font-family="sans-serif" font-size="13" lengthAdjust="spacing" textLength="185" x="906" y="245.1436">confirmation of Account deletion</text><polygon fill="#1E90FF" points="661.5,277.6973,651.5,281.6973,661.5,285.6973,657.5,281.6973" style="stroke:#1E90FF;stroke-width:1.0;"/><line style="stroke:#1E90FF;stroke-width:1.0;stroke-dasharray:2.0,2.0;" x1="655.5" x2="874.5" y1="281.6973" y2="281.6973"/><text fill="#000000" font-family="sans-serif" font-size="13" font-weight="bold" lengthAdjust="spacing" textLength="7" x="665" y="276.4346">5</text><text fill="#000000" font-family="sans-serif" font-size="13" lengthAdjust="spacing" textLength="185" x="676" y="276.4346">confirmation of Account deletion</text><polygon fill="#1E90FF" points="44.5,308.9883,34.5,312.9883,44.5,316.9883,40.5,312.9883" style="stroke:#1E90FF;stroke-width:1.0;"/><line style="stroke:#1E90FF;stroke-width:1.0;" x1="38.5" x2="644.5" y1="312.9883" y2="312.9883"/><text fill="#000000" font-family="sans-serif" font-size="13" font-weight="bold" lengthAdjust="spacing" textLength="7" x="48" y="307.7256">6</text><text fill="#000000" font-family="sans-serif" font-size="13" lengthAdjust="spacing" textLength="572" x="59" y="307.7256">Shows a confirmation that the account was deleted and informs the user of the operation's success</text><!--SRC=[nPHTRzem58Rl_IkEoWMTr6nhDKqJcYebWNL8Q4GXrIuhuvo0HM8psob3rVxxR8SEqp6atL1VH15-piTxtaFwqSniQupEV0YXhP6YRUQe2D4hBjPKqGQ6MD6sDWN-D77D5w91OO3Pno6MKBPQADcACfMrLD2hQ5LMLOZOf-6ChwbDy4J0dfT1yVVPGtBta4udqxm3f2fH1PVJV3ZATy2lCBd67oqAXhlC4rxXX0iC4mnbkK2Lr2qU8Y-RoBB9E8sByVGRyM3CZ5Idg3rqlDfHhRql_dJ1IidDqIPFz9_jntcgxfsjkGw1tljFDny_t0IN9wJP6PD-L73p6WjfN5cudy7rDKGGQw30QcvNxmh6i75hP2JC4UZSOlQrn1eDGhC5ofZLOu1N892XrbHjtpebtYRzBfYTFeSIGbrTkFWylqszWWkW6c8I_YNSvP3gvLnILMPqWPv9ytz3CrIFdEsuz2_E-JeIfRzEHiGx6Mij6QU6Iw7F-MbXXZzIwqrCI0pHhPKri8QkT63Rakjdt_QybK_It4UaWnqPTz3bcm1BBPOwB1aDu6jHPA3S1q4RkCpkYu2qWqX64Fc4C00cHSLLumS2ie9TxgwI_OsK68QwAZRMTlH_eRQ_JaKyWDbIRlmgX_5cIUqsB_7FvcwiQPtS4gWeWOjAgaPxfjMeN4NtBjUeV8g-1jqoj-i7XNDh-giSyXi0]--></g></svg>