<?xml version="1.0" encoding="us-ascii" standalone="no"?><svg xmlns="http://www.w3.org/2000/svg" xmlns:xlink="http://www.w3.org/1999/xlink" contentStyleType="text/css" height="506px" preserveAspectRatio="none" style="width:1172px;height:506px;background:#FAFDFF;" version="1.1" viewBox="0 0 1172 506" width="1172px" zoomAndPan="magnify"><defs/><g><rect fill="#FAFDFF" height="506" style="stroke:none;stroke-width:1.0;" width="1172" x="0" y="0"/><text fill="#000000" font-family="sans-serif" font-size="14" font-weight="bold" lengthAdjust="spacing" textLength="490" x="340.25" y="30.1074">US 11 - As a client, I want to be able to delete my account if necessary.</text><rect fill="#C2F0FF" height="281.3281" style="stroke:#1E90FF;stroke-width:1.0;" width="10" x="23.5" y="133.2422"/><rect fill="#C2F0FF" height="249.0371" style="stroke:#1E90FF;stroke-width:1.0;" width="10" x="253.5" y="156.5332"/><rect fill="#C2F0FF" height="186.4551" style="stroke:#1E90FF;stroke-width:1.0;" width="10" x="483.5" y="187.8242"/><rect fill="#C2F0FF" height="123.873" style="stroke:#1E90FF;stroke-width:1.0;" width="10" x="808" y="219.1152"/><rect fill="#C2F0FF" height="61.291" style="stroke:#1E90FF;stroke-width:1.0;" width="10" x="970" y="250.4063"/><rect fill="#C2F0FF" height="30" style="stroke:#1E90FF;stroke-width:1.0;" width="10" x="1104.5" y="281.6973"/><line style="stroke:#1E90FF;stroke-width:0.5;stroke-dasharray:5.0,5.0;" x1="28" x2="28" y1="123.2422" y2="423.5703"/><line style="stroke:#1E90FF;stroke-width:0.5;stroke-dasharray:5.0,5.0;" x1="258.5" x2="258.5" y1="123.2422" y2="423.5703"/><line style="stroke:#1E90FF;stroke-width:0.5;stroke-dasharray:5.0,5.0;" x1="488" x2="488" y1="123.2422" y2="423.5703"/><line style="stroke:#1E90FF;stroke-width:0.5;stroke-dasharray:5.0,5.0;" x1="655" x2="655" y1="123.2422" y2="423.5703"/><line style="stroke:#1E90FF;stroke-width:0.5;stroke-dasharray:5.0,5.0;" x1="813" x2="813" y1="123.2422" y2="423.5703"/><line style="stroke:#1E90FF;stroke-width:0.5;stroke-dasharray:5.0,5.0;" x1="974.5" x2="974.5" y1="123.2422" y2="423.5703"/><line style="stroke:#1E90FF;stroke-width:0.5;stroke-dasharray:5.0,5.0;" x1="1109.5" x2="1109.5" y1="123.2422" y2="423.5703"/><text fill="#000000" font-family="sans-serif" font-size="14" font-weight="bold" lengthAdjust="spacing" textLength="41" x="5" y="119.7285">Client</text><ellipse cx="28.5" cy="53.1211" fill="#C2F0FF" rx="8" ry="8" style="stroke:#1E90FF;stroke-width:0.5;"/><path d="M28.5,61.1211 L28.5,88.1211 M15.5,69.1211 L41.5,69.1211 M28.5,88.1211 L15.5,103.1211 M28.5,88.1211 L41.5,103.1211 " fill="none" style="stroke:#1E90FF;stroke-width:0.5;"/><text fill="#000000" font-family="sans-serif" font-size="14" font-weight="bold" lengthAdjust="spacing" textLength="41" x="5" y="437.6777">Client</text><ellipse cx="28.5" cy="449.6914" fill="#C2F0FF" rx="8" ry="8" style="stroke:#1E90FF;stroke-width:0.5;"/><path d="M28.5,457.6914 L28.5,484.6914 M15.5,465.6914 L41.5,465.6914 M28.5,484.6914 L15.5,499.6914 M28.5,484.6914 L41.5,499.6914 " fill="none" style="stroke:#1E90FF;stroke-width:0.5;"/><rect fill="#FFFFFF" height="32.6211" rx="2.5" ry="2.5" style="stroke:#1E90FF;stroke-width:0.5;" width="136" x="190.5" y="89.6211"/><text fill="#000000" font-family="sans-serif" font-size="14" font-weight="bold" lengthAdjust="spacing" textLength="122" x="197.5" y="111.7285">:DashboardRoute</text><rect fill="#FFFFFF" height="32.6211" rx="2.5" ry="2.5" style="stroke:#1E90FF;stroke-width:0.5;" width="136" x="190.5" y="422.5703"/><text fill="#000000" font-family="sans-serif" font-size="14" font-weight="bold" lengthAdjust="spacing" textLength="122" x="197.5" y="444.6777">:DashboardRoute</text><rect fill="#FFFFFF" height="32.6211" rx="2.5" ry="2.5" style="stroke:#1E90FF;stroke-width:0.5;" width="165" x="406" y="89.6211"/><text fill="#000000" font-family="sans-serif" font-size="14" font-weight="bold" lengthAdjust="spacing" textLength="151" x="413" y="111.7285">:DashboardController</text><rect fill="#FFFFFF" height="32.6211" rx="2.5" ry="2.5" style="stroke:#1E90FF;stroke-width:0.5;" width="165" x="406" y="422.5703"/><text fill="#000000" font-family="sans-serif" font-size="14" font-weight="bold" lengthAdjust="spacing" textLength="151" x="413" y="444.6777">:DashboardController</text><rect fill="#FFFFFF" height="32.6211" rx="2.5" ry="2.5" style="stroke:#1E90FF;stroke-width:0.5;" width="148" x="581" y="89.6211"/><text fill="#000000" font-family="sans-serif" font-size="14" font-weight="bold" lengthAdjust="spacing" textLength="134" x="588" y="111.7285">:DashboardMapper</text><rect fill="#FFFFFF" height="32.6211" rx="2.5" ry="2.5" style="stroke:#1E90FF;stroke-width:0.5;" width="148" x="581" y="422.5703"/><text fill="#000000" font-family="sans-serif" font-size="14" font-weight="bold" lengthAdjust="spacing" textLength="134" x="588" y="444.6777">:DashboardMapper</text><rect fill="#FFFFFF" height="32.6211" rx="2.5" ry="2.5" style="stroke:#1E90FF;stroke-width:0.5;" width="148" x="739" y="89.6211"/><text fill="#000000" font-family="sans-serif" font-size="14" font-weight="bold" lengthAdjust="spacing" textLength="134" x="746" y="111.7285">:DashboardService</text><rect fill="#FFFFFF" height="32.6211" rx="2.5" ry="2.5" style="stroke:#1E90FF;stroke-width:0.5;" width="148" x="739" y="422.5703"/><text fill="#000000" font-family="sans-serif" font-size="14" font-weight="bold" lengthAdjust="spacing" textLength="134" x="746" y="444.6777">:DashboardService</text><rect fill="#FFFFFF" height="32.6211" rx="2.5" ry="2.5" style="stroke:#1E90FF;stroke-width:0.5;" width="135" x="907.5" y="89.6211"/><text fill="#000000" font-family="sans-serif" font-size="14" font-weight="bold" lengthAdjust="spacing" textLength="121" x="914.5" y="111.7285">:ClientRepository</text><rect fill="#FFFFFF" height="32.6211" rx="2.5" ry="2.5" style="stroke:#1E90FF;stroke-width:0.5;" width="135" x="907.5" y="422.5703"/><text fill="#000000" font-family="sans-serif" font-size="14" font-weight="bold" lengthAdjust="spacing" textLength="121" x="914.5" y="444.6777">:ClientRepository</text><rect fill="#FFFFFF" height="32.6211" rx="2.5" ry="2.5" style="stroke:#1E90FF;stroke-width:0.5;" width="114" x="1052.5" y="89.6211"/><text fill="#000000" font-family="sans-serif" font-size="14" font-weight="bold" lengthAdjust="spacing" textLength="100" x="1059.5" y="111.7285">:ClientSchema</text><rect fill="#FFFFFF" height="32.6211" rx="2.5" ry="2.5" style="stroke:#1E90FF;stroke-width:0.5;" width="114" x="1052.5" y="422.5703"/><text fill="#000000" font-family="sans-serif" font-size="14" font-weight="bold" lengthAdjust="spacing" textLength="100" x="1059.5" y="444.6777">:ClientSchema</text><rect fill="#C2F0FF" height="281.3281" style="stroke:#1E90FF;stroke-width:1.0;" width="10" x="23.5" y="133.2422"/><rect fill="#C2F0FF" height="249.0371" style="stroke:#1E90FF;stroke-width:1.0;" width="10" x="253.5" y="156.5332"/><rect fill="#C2F0FF" height="186.4551" style="stroke:#1E90FF;stroke-width:1.0;" width="10" x="483.5" y="187.8242"/><rect fill="#C2F0FF" height="123.873" style="stroke:#1E90FF;stroke-width:1.0;" width="10" x="808" y="219.1152"/><rect fill="#C2F0FF" height="61.291" style="stroke:#1E90FF;stroke-width:1.0;" width="10" x="970" y="250.4063"/><rect fill="#C2F0FF" height="30" style="stroke:#1E90FF;stroke-width:1.0;" width="10" x="1104.5" y="281.6973"/><polygon fill="#1E90FF" points="241.5,152.5332,251.5,156.5332,241.5,160.5332,245.5,156.5332" style="stroke:#1E90FF;stroke-width:1.0;"/><line style="stroke:#1E90FF;stroke-width:1.0;" x1="33.5" x2="247.5" y1="156.5332" y2="156.5332"/><text fill="#000000" font-family="sans-serif" font-size="13" font-weight="bold" lengthAdjust="spacing" textLength="7" x="80" y="151.2705">1</text><text fill="#000000" font-family="sans-serif" font-size="13" lengthAdjust="spacing" textLength="116" x="91" y="151.2705">HTTP request (PUT)</text><polygon fill="#1E90FF" points="471.5,183.8242,481.5,187.8242,471.5,191.8242,475.5,187.8242" style="stroke:#1E90FF;stroke-width:1.0;"/><line style="stroke:#1E90FF;stroke-width:1.0;" x1="263.5" x2="477.5" y1="187.8242" y2="187.8242"/><text fill="#000000" font-family="sans-serif" font-size="13" font-weight="bold" lengthAdjust="spacing" textLength="7" x="316.5" y="182.5615">2</text><text fill="#000000" font-family="sans-serif" font-size="13" lengthAdjust="spacing" textLength="103" x="327.5" y="182.5615">put(req, res, next)</text><polygon fill="#1E90FF" points="796,215.1152,806,219.1152,796,223.1152,800,219.1152" style="stroke:#1E90FF;stroke-width:1.0;"/><line style="stroke:#1E90FF;stroke-width:1.0;" x1="493.5" x2="802" y1="219.1152" y2="219.1152"/><text fill="#000000" font-family="sans-serif" font-size="13" font-weight="bold" lengthAdjust="spacing" textLength="7" x="584.25" y="213.8525">3</text><text fill="#000000" font-family="sans-serif" font-size="13" lengthAdjust="spacing" textLength="122" x="595.25" y="213.8525">deleteAccount(email)</text><polygon fill="#1E90FF" points="958,246.4063,968,250.4063,958,254.4063,962,250.4063" style="stroke:#1E90FF;stroke-width:1.0;"/><line style="stroke:#1E90FF;stroke-width:1.0;" x1="818" x2="964" y1="250.4063" y2="250.4063"/><text fill="#000000" font-family="sans-serif" font-size="13" font-weight="bold" lengthAdjust="spacing" textLength="7" x="827.5" y="245.1436">4</text><text fill="#000000" font-family="sans-serif" font-size="13" lengthAdjust="spacing" textLength="122" x="838.5" y="245.1436">deleteAccount(email)</text><polygon fill="#1E90FF" points="1092.5,277.6973,1102.5,281.6973,1092.5,285.6973,1096.5,281.6973" style="stroke:#1E90FF;stroke-width:1.0;"/><line style="stroke:#1E90FF;stroke-width:1.0;" x1="980" x2="1098.5" y1="281.6973" y2="281.6973"/><text fill="#000000" font-family="sans-serif" font-size="13" font-weight="bold" lengthAdjust="spacing" textLength="7" x="1019.75" y="276.4346">5</text><text fill="#000000" font-family="sans-serif" font-size="13" lengthAdjust="spacing" textLength="34" x="1030.75" y="276.4346">save()</text><polygon fill="#1E90FF" points="504.5,338.9883,494.5,342.9883,504.5,346.9883,500.5,342.9883" style="stroke:#1E90FF;stroke-width:1.0;"/><line style="stroke:#1E90FF;stroke-width:1.0;stroke-dasharray:2.0,2.0;" x1="498.5" x2="812" y1="342.9883" y2="342.9883"/><text fill="#000000" font-family="sans-serif" font-size="13" font-weight="bold" lengthAdjust="spacing" textLength="7" x="555.25" y="337.7256">6</text><text fill="#000000" font-family="sans-serif" font-size="13" lengthAdjust="spacing" textLength="185" x="566.25" y="337.7256">confirmation of Account deletion</text><polygon fill="#1E90FF" points="274.5,370.2793,264.5,374.2793,274.5,378.2793,270.5,374.2793" style="stroke:#1E90FF;stroke-width:1.0;"/><line style="stroke:#1E90FF;stroke-width:1.0;stroke-dasharray:2.0,2.0;" x1="268.5" x2="487.5" y1="374.2793" y2="374.2793"/><text fill="#000000" font-family="sans-serif" font-size="13" font-weight="bold" lengthAdjust="spacing" textLength="7" x="278" y="369.0166">7</text><text fill="#000000" font-family="sans-serif" font-size="13" lengthAdjust="spacing" textLength="185" x="289" y="369.0166">confirmation of Account deletion</text><polygon fill="#1E90FF" points="44.5,401.5703,34.5,405.5703,44.5,409.5703,40.5,405.5703" style="stroke:#1E90FF;stroke-width:1.0;"/><line style="stroke:#1E90FF;stroke-width:1.0;stroke-dasharray:2.0,2.0;" x1="38.5" x2="257.5" y1="405.5703" y2="405.5703"/><text fill="#000000" font-family="sans-serif" font-size="13" font-weight="bold" lengthAdjust="spacing" textLength="7" x="48" y="400.3076">8</text><text fill="#000000" font-family="sans-serif" font-size="13" lengthAdjust="spacing" textLength="185" x="59" y="400.3076">confirmation of Account deletion</text><!--SRC=[nPHHQzim4CVVzIcEvg4P9DjQnXXX51mbwmBfOkoKFHP5FgUYZkL9SjjGzjrtbZtYTAb7Nr8z6DlwtV_kVphxT1YxROR38o_6HEbqNcvMQ1YpToelX14Rc60goimjyT45cLhd6ymTIBhiOsCXxzP6btd2TQODz5AH9cdQHkZgb5I5884d1hIU1mK_uvlnvGrVp1TH3MYJe6bjBgB9D6g0tsrnYxzAp2KsodELubpbs1QOw6IDPfoLk8yyBo8CvpCUB6UB7yo3WNJQT54xw72sWrvxt_ogWutH3mUBxAW_tBMpA-ybvIpQGE_Zb_FFdyvRcntMgCUdmwLoRp6FhaeBrp6SdS4G0Wi2PAPeyWOmWuTgYfo65O9O4KQt2MRe43PR45AI7GSgXHmbMYlCzdtbn9-I_T1gdJtAbrMbXPElgmlk3Po0i12mzWTHROucmjwkj319f4k7dk9H1yPrxepECZGroplOAr4KVxch3Yv6Swzaapp-5wmTH5XegyZLjgbo6hw4nl8MDwBHuymVWxLQAk6KpkqnVt3IgNj18n8m5i3mWieUmVVbCWHJ_JsiWtvulNotuwZvZ4UUv2CeIjSdS42q7T1WFResIiuuzsWCesOMWteE- -HVPMquPaJv0gRX_-cgkPxqwfm2hBZ7_fuWPmc- -5W9-8pU2SLBdQVARFm9W4wXILqNGk_snRonfbslYkHr-oWqU6LaH5Fo9elz0G00]--></g></svg>