<?xml version="1.0" encoding="us-ascii" standalone="no"?><svg xmlns="http://www.w3.org/2000/svg" xmlns:xlink="http://www.w3.org/1999/xlink" contentStyleType="text/css" height="914px" preserveAspectRatio="none" style="width:2062px;height:914px;background:#FAFDFF;" version="1.1" viewBox="0 0 2062 914" width="2062px" zoomAndPan="magnify"><defs/><g><rect fill="#FAFDFF" height="914" style="stroke:none;stroke-width:1.0;" width="2062" x="0" y="0"/><text fill="#000000" font-family="sans-serif" font-size="14" font-weight="bold" lengthAdjust="spacing" textLength="185" x="937.75" y="30.1074">US 08 - Complete an Order</text><rect fill="#C2F0FF" height="689.4023" style="stroke:#1E90FF;stroke-width:1.0;" width="10" x="23.5" y="133.2422"/><rect fill="#C2F0FF" height="657.1113" style="stroke:#1E90FF;stroke-width:1.0;" width="10" x="183.5" y="156.5332"/><rect fill="#C2F0FF" height="594.5293" style="stroke:#1E90FF;stroke-width:1.0;" width="10" x="393.5" y="187.8242"/><rect fill="#C2F0FF" height="531.9473" style="stroke:#1E90FF;stroke-width:1.0;" width="10" x="672.5" y="219.1152"/><rect fill="#C2F0FF" height="31.291" style="stroke:#1E90FF;stroke-width:1.0;" width="10" x="783" y="344.2793"/><rect fill="#C2F0FF" height="93.873" style="stroke:#1E90FF;stroke-width:1.0;" width="10" x="1099.5" y="312.9883"/><rect fill="#C2F0FF" height="93.873" style="stroke:#1E90FF;stroke-width:1.0;" width="10" x="1233.5" y="438.1523"/><rect fill="#C2F0FF" height="31.291" style="stroke:#1E90FF;stroke-width:1.0;" width="10" x="1379.5" y="469.4434"/><rect fill="#C2F0FF" height="31.291" style="stroke:#1E90FF;stroke-width:1.0;" width="10" x="1528.5" y="250.4063"/><rect fill="#C2F0FF" height="93.873" style="stroke:#1E90FF;stroke-width:1.0;" width="10" x="1528.5" y="563.3164"/><rect fill="#C2F0FF" height="31.291" style="stroke:#1E90FF;stroke-width:1.0;" width="10" x="1837.5" y="594.6074"/><rect fill="#C2F0FF" height="31.291" style="stroke:#1E90FF;stroke-width:1.0;" width="10" x="1997" y="688.4805"/><line style="stroke:#1E90FF;stroke-width:0.5;stroke-dasharray:5.0,5.0;" x1="28" x2="28" y1="123.2422" y2="831.6445"/><line style="stroke:#1E90FF;stroke-width:0.5;stroke-dasharray:5.0,5.0;" x1="188" x2="188" y1="123.2422" y2="831.6445"/><line style="stroke:#1E90FF;stroke-width:0.5;stroke-dasharray:5.0,5.0;" x1="398.5" x2="398.5" y1="123.2422" y2="831.6445"/><line style="stroke:#1E90FF;stroke-width:0.5;stroke-dasharray:5.0,5.0;" x1="677" x2="677" y1="123.2422" y2="831.6445"/><line style="stroke:#1E90FF;stroke-width:0.5;stroke-dasharray:5.0,5.0;" x1="788" x2="788" y1="123.2422" y2="831.6445"/><line style="stroke:#1E90FF;stroke-width:0.5;stroke-dasharray:5.0,5.0;" x1="1104" x2="1104" y1="123.2422" y2="831.6445"/><line style="stroke:#1E90FF;stroke-width:0.5;stroke-dasharray:5.0,5.0;" x1="1238" x2="1238" y1="123.2422" y2="831.6445"/><line style="stroke:#1E90FF;stroke-width:0.5;stroke-dasharray:5.0,5.0;" x1="1384.5" x2="1384.5" y1="123.2422" y2="831.6445"/><line style="stroke:#1E90FF;stroke-width:0.5;stroke-dasharray:5.0,5.0;" x1="1533.5" x2="1533.5" y1="123.2422" y2="831.6445"/><line style="stroke:#1E90FF;stroke-width:0.5;stroke-dasharray:5.0,5.0;" x1="1842.5" x2="1842.5" y1="123.2422" y2="831.6445"/><line style="stroke:#1E90FF;stroke-width:0.5;stroke-dasharray:5.0,5.0;" x1="2001.5" x2="2001.5" y1="123.2422" y2="831.6445"/><text fill="#000000" font-family="sans-serif" font-size="14" font-weight="bold" lengthAdjust="spacing" textLength="41" x="5" y="119.7285">Client</text><ellipse cx="28.5" cy="53.1211" fill="#C2F0FF" rx="8" ry="8" style="stroke:#1E90FF;stroke-width:0.5;"/><path d="M28.5,61.1211 L28.5,88.1211 M15.5,69.1211 L41.5,69.1211 M28.5,88.1211 L15.5,103.1211 M28.5,88.1211 L41.5,103.1211 " fill="none" style="stroke:#1E90FF;stroke-width:0.5;"/><text fill="#000000" font-family="sans-serif" font-size="14" font-weight="bold" lengthAdjust="spacing" textLength="41" x="5" y="845.752">Client</text><ellipse cx="28.5" cy="857.7656" fill="#C2F0FF" rx="8" ry="8" style="stroke:#1E90FF;stroke-width:0.5;"/><path d="M28.5,865.7656 L28.5,892.7656 M15.5,873.7656 L41.5,873.7656 M28.5,892.7656 L15.5,907.7656 M28.5,892.7656 L41.5,907.7656 " fill="none" style="stroke:#1E90FF;stroke-width:0.5;"/><rect fill="#FFFFFF" height="32.6211" rx="2.5" ry="2.5" style="stroke:#1E90FF;stroke-width:0.5;" width="107" x="135" y="89.6211"/><text fill="#000000" font-family="sans-serif" font-size="14" font-weight="bold" lengthAdjust="spacing" textLength="93" x="142" y="111.7285">:OrderRouter</text><rect fill="#FFFFFF" height="32.6211" rx="2.5" ry="2.5" style="stroke:#1E90FF;stroke-width:0.5;" width="107" x="135" y="830.6445"/><text fill="#000000" font-family="sans-serif" font-size="14" font-weight="bold" lengthAdjust="spacing" textLength="93" x="142" y="852.752">:OrderRouter</text><rect fill="#FFFFFF" height="32.6211" rx="2.5" ry="2.5" style="stroke:#1E90FF;stroke-width:0.5;" width="130" x="333.5" y="89.6211"/><text fill="#000000" font-family="sans-serif" font-size="14" font-weight="bold" lengthAdjust="spacing" textLength="116" x="340.5" y="111.7285">:OrderController</text><rect fill="#FFFFFF" height="32.6211" rx="2.5" ry="2.5" style="stroke:#1E90FF;stroke-width:0.5;" width="130" x="333.5" y="830.6445"/><text fill="#000000" font-family="sans-serif" font-size="14" font-weight="bold" lengthAdjust="spacing" textLength="116" x="340.5" y="852.752">:OrderController</text><rect fill="#FFFFFF" height="32.6211" rx="2.5" ry="2.5" style="stroke:#1E90FF;stroke-width:0.5;" width="113" x="621" y="89.6211"/><text fill="#000000" font-family="sans-serif" font-size="14" font-weight="bold" lengthAdjust="spacing" textLength="99" x="628" y="111.7285">:OrderService</text><rect fill="#FFFFFF" height="32.6211" rx="2.5" ry="2.5" style="stroke:#1E90FF;stroke-width:0.5;" width="113" x="621" y="830.6445"/><text fill="#000000" font-family="sans-serif" font-size="14" font-weight="bold" lengthAdjust="spacing" textLength="99" x="628" y="852.752">:OrderService</text><rect fill="#FFFFFF" height="32.6211" rx="2.5" ry="2.5" style="stroke:#1E90FF;stroke-width:0.5;" width="88" x="744" y="89.6211"/><text fill="#000000" font-family="sans-serif" font-size="14" font-weight="bold" lengthAdjust="spacing" textLength="74" x="751" y="111.7285">:OrderDTO</text><rect fill="#FFFFFF" height="32.6211" rx="2.5" ry="2.5" style="stroke:#1E90FF;stroke-width:0.5;" width="88" x="744" y="830.6445"/><text fill="#000000" font-family="sans-serif" font-size="14" font-weight="bold" lengthAdjust="spacing" textLength="74" x="751" y="852.752">:OrderDTO</text><rect fill="#FFFFFF" height="32.6211" rx="2.5" ry="2.5" style="stroke:#1E90FF;stroke-width:0.5;" width="113" x="1048" y="89.6211"/><text fill="#000000" font-family="sans-serif" font-size="14" font-weight="bold" lengthAdjust="spacing" textLength="99" x="1055" y="111.7285">:OrderMapper</text><rect fill="#FFFFFF" height="32.6211" rx="2.5" ry="2.5" style="stroke:#1E90FF;stroke-width:0.5;" width="113" x="1048" y="830.6445"/><text fill="#000000" font-family="sans-serif" font-size="14" font-weight="bold" lengthAdjust="spacing" textLength="99" x="1055" y="852.752">:OrderMapper</text><rect fill="#FFFFFF" height="32.6211" rx="2.5" ry="2.5" style="stroke:#1E90FF;stroke-width:0.5;" width="135" x="1171" y="89.6211"/><text fill="#000000" font-family="sans-serif" font-size="14" font-weight="bold" lengthAdjust="spacing" textLength="121" x="1178" y="111.7285">:OrderRepository</text><rect fill="#FFFFFF" height="32.6211" rx="2.5" ry="2.5" style="stroke:#1E90FF;stroke-width:0.5;" width="135" x="1171" y="830.6445"/><text fill="#000000" font-family="sans-serif" font-size="14" font-weight="bold" lengthAdjust="spacing" textLength="121" x="1178" y="852.752">:OrderRepository</text><rect fill="#FFFFFF" height="32.6211" rx="2.5" ry="2.5" style="stroke:#1E90FF;stroke-width:0.5;" width="110" x="1329.5" y="89.6211"/><text fill="#000000" font-family="sans-serif" font-size="14" font-weight="bold" lengthAdjust="spacing" textLength="96" x="1336.5" y="111.7285">OrderSchema</text><rect fill="#FFFFFF" height="32.6211" rx="2.5" ry="2.5" style="stroke:#1E90FF;stroke-width:0.5;" width="110" x="1329.5" y="830.6445"/><text fill="#000000" font-family="sans-serif" font-size="14" font-weight="bold" lengthAdjust="spacing" textLength="96" x="1336.5" y="852.752">OrderSchema</text><rect fill="#FFFFFF" height="32.6211" rx="2.5" ry="2.5" style="stroke:#1E90FF;stroke-width:0.5;" width="168" x="1449.5" y="89.6211"/><text fill="#000000" font-family="sans-serif" font-size="14" font-weight="bold" lengthAdjust="spacing" textLength="154" x="1456.5" y="111.7285">:ShoppingCartService</text><rect fill="#FFFFFF" height="32.6211" rx="2.5" ry="2.5" style="stroke:#1E90FF;stroke-width:0.5;" width="168" x="1449.5" y="830.6445"/><text fill="#000000" font-family="sans-serif" font-size="14" font-weight="bold" lengthAdjust="spacing" textLength="154" x="1456.5" y="852.752">:ShoppingCartService</text><rect fill="#FFFFFF" height="32.6211" rx="2.5" ry="2.5" style="stroke:#1E90FF;stroke-width:0.5;" width="190" x="1747.5" y="89.6211"/><text fill="#000000" font-family="sans-serif" font-size="14" font-weight="bold" lengthAdjust="spacing" textLength="176" x="1754.5" y="111.7285">:ShoppingCartRepository</text><rect fill="#FFFFFF" height="32.6211" rx="2.5" ry="2.5" style="stroke:#1E90FF;stroke-width:0.5;" width="190" x="1747.5" y="830.6445"/><text fill="#000000" font-family="sans-serif" font-size="14" font-weight="bold" lengthAdjust="spacing" textLength="176" x="1754.5" y="852.752">:ShoppingCartRepository</text><rect fill="#FFFFFF" height="32.6211" rx="2.5" ry="2.5" style="stroke:#1E90FF;stroke-width:0.5;" width="109" x="1947.5" y="89.6211"/><text fill="#000000" font-family="sans-serif" font-size="14" font-weight="bold" lengthAdjust="spacing" textLength="95" x="1954.5" y="111.7285">:EmailService</text><rect fill="#FFFFFF" height="32.6211" rx="2.5" ry="2.5" style="stroke:#1E90FF;stroke-width:0.5;" width="109" x="1947.5" y="830.6445"/><text fill="#000000" font-family="sans-serif" font-size="14" font-weight="bold" lengthAdjust="spacing" textLength="95" x="1954.5" y="852.752">:EmailService</text><rect fill="#C2F0FF" height="689.4023" style="stroke:#1E90FF;stroke-width:1.0;" width="10" x="23.5" y="133.2422"/><rect fill="#C2F0FF" height="657.1113" style="stroke:#1E90FF;stroke-width:1.0;" width="10" x="183.5" y="156.5332"/><rect fill="#C2F0FF" height="594.5293" style="stroke:#1E90FF;stroke-width:1.0;" width="10" x="393.5" y="187.8242"/><rect fill="#C2F0FF" height="531.9473" style="stroke:#1E90FF;stroke-width:1.0;" width="10" x="672.5" y="219.1152"/><rect fill="#C2F0FF" height="31.291" style="stroke:#1E90FF;stroke-width:1.0;" width="10" x="783" y="344.2793"/><rect fill="#C2F0FF" height="93.873" style="stroke:#1E90FF;stroke-width:1.0;" width="10" x="1099.5" y="312.9883"/><rect fill="#C2F0FF" height="93.873" style="stroke:#1E90FF;stroke-width:1.0;" width="10" x="1233.5" y="438.1523"/><rect fill="#C2F0FF" height="31.291" style="stroke:#1E90FF;stroke-width:1.0;" width="10" x="1379.5" y="469.4434"/><rect fill="#C2F0FF" height="31.291" style="stroke:#1E90FF;stroke-width:1.0;" width="10" x="1528.5" y="250.4063"/><rect fill="#C2F0FF" height="93.873" style="stroke:#1E90FF;stroke-width:1.0;" width="10" x="1528.5" y="563.3164"/><rect fill="#C2F0FF" height="31.291" style="stroke:#1E90FF;stroke-width:1.0;" width="10" x="1837.5" y="594.6074"/><rect fill="#C2F0FF" height="31.291" style="stroke:#1E90FF;stroke-width:1.0;" width="10" x="1997" y="688.4805"/><polygon fill="#1E90FF" points="171.5,152.5332,181.5,156.5332,171.5,160.5332,175.5,156.5332" style="stroke:#1E90FF;stroke-width:1.0;"/><line style="stroke:#1E90FF;stroke-width:1.0;" x1="33.5" x2="177.5" y1="156.5332" y2="156.5332"/><text fill="#000000" font-family="sans-serif" font-size="13" font-weight="bold" lengthAdjust="spacing" textLength="7" x="45" y="151.2705">1</text><text fill="#000000" font-family="sans-serif" font-size="13" lengthAdjust="spacing" textLength="116" x="56" y="151.2705">HTTP request (post)</text><polygon fill="#1E90FF" points="381.5,183.8242,391.5,187.8242,381.5,191.8242,385.5,187.8242" style="stroke:#1E90FF;stroke-width:1.0;"/><line style="stroke:#1E90FF;stroke-width:1.0;" x1="193.5" x2="387.5" y1="187.8242" y2="187.8242"/><text fill="#000000" font-family="sans-serif" font-size="13" font-weight="bold" lengthAdjust="spacing" textLength="7" x="203" y="182.5615">2</text><text fill="#000000" font-family="sans-serif" font-size="13" lengthAdjust="spacing" textLength="170" x="214" y="182.5615">completeOrder(req, res, next)</text><polygon fill="#1E90FF" points="660.5,215.1152,670.5,219.1152,660.5,223.1152,664.5,219.1152" style="stroke:#1E90FF;stroke-width:1.0;"/><line style="stroke:#1E90FF;stroke-width:1.0;" x1="403.5" x2="666.5" y1="219.1152" y2="219.1152"/><text fill="#000000" font-family="sans-serif" font-size="13" font-weight="bold" lengthAdjust="spacing" textLength="7" x="413" y="213.8525">3</text><text fill="#000000" font-family="sans-serif" font-size="13" lengthAdjust="spacing" textLength="239" x="424" y="213.8525">completeOrder(shippingInfo, paymentInfo)</text><polygon fill="#1E90FF" points="1516.5,246.4063,1526.5,250.4063,1516.5,254.4063,1520.5,250.4063" style="stroke:#1E90FF;stroke-width:1.0;"/><line style="stroke:#1E90FF;stroke-width:1.0;" x1="682.5" x2="1522.5" y1="250.4063" y2="250.4063"/><text fill="#000000" font-family="sans-serif" font-size="13" font-weight="bold" lengthAdjust="spacing" textLength="7" x="1030.5" y="245.1436">4</text><text fill="#000000" font-family="sans-serif" font-size="13" lengthAdjust="spacing" textLength="139" x="1041.5" y="245.1436">getShoppingCart(userId)</text><polygon fill="#1E90FF" points="693.5,277.6973,683.5,281.6973,693.5,285.6973,689.5,281.6973" style="stroke:#1E90FF;stroke-width:1.0;"/><line style="stroke:#1E90FF;stroke-width:1.0;stroke-dasharray:2.0,2.0;" x1="687.5" x2="1532.5" y1="281.6973" y2="281.6973"/><text fill="#000000" font-family="sans-serif" font-size="13" font-weight="bold" lengthAdjust="spacing" textLength="7" x="1064.5" y="276.4346">5</text><text fill="#000000" font-family="sans-serif" font-size="13" lengthAdjust="spacing" textLength="76" x="1075.5" y="276.4346">shoppingCart</text><polygon fill="#1E90FF" points="1087.5,308.9883,1097.5,312.9883,1087.5,316.9883,1091.5,312.9883" style="stroke:#1E90FF;stroke-width:1.0;"/><line style="stroke:#1E90FF;stroke-width:1.0;" x1="682.5" x2="1093.5" y1="312.9883" y2="312.9883"/><text fill="#000000" font-family="sans-serif" font-size="13" font-weight="bold" lengthAdjust="spacing" textLength="7" x="692" y="307.7256">6</text><text fill="#000000" font-family="sans-serif" font-size="13" lengthAdjust="spacing" textLength="387" x="703" y="307.7256">mapShoppingCartToOrder(shoppingCart, shippingInfo, paymentInfo)</text><polygon fill="#1E90FF" points="804,340.2793,794,344.2793,804,348.2793,800,344.2793" style="stroke:#1E90FF;stroke-width:1.0;"/><line style="stroke:#1E90FF;stroke-width:1.0;" x1="798" x2="1098.5" y1="344.2793" y2="344.2793"/><text fill="#000000" font-family="sans-serif" font-size="13" font-weight="bold" lengthAdjust="spacing" textLength="7" x="918.75" y="339.0166">7</text><text fill="#000000" font-family="sans-serif" font-size="13" lengthAdjust="spacing" textLength="44" x="929.75" y="339.0166">create()</text><polygon fill="#1E90FF" points="1087.5,371.5703,1097.5,375.5703,1087.5,379.5703,1091.5,375.5703" style="stroke:#1E90FF;stroke-width:1.0;"/><line style="stroke:#1E90FF;stroke-width:1.0;stroke-dasharray:2.0,2.0;" x1="788" x2="1093.5" y1="375.5703" y2="375.5703"/><text fill="#000000" font-family="sans-serif" font-size="13" font-weight="bold" lengthAdjust="spacing" textLength="7" x="910.75" y="370.3076">8</text><text fill="#000000" font-family="sans-serif" font-size="13" lengthAdjust="spacing" textLength="55" x="921.75" y="370.3076">orderDTO</text><polygon fill="#1E90FF" points="693.5,402.8613,683.5,406.8613,693.5,410.8613,689.5,406.8613" style="stroke:#1E90FF;stroke-width:1.0;"/><line style="stroke:#1E90FF;stroke-width:1.0;stroke-dasharray:2.0,2.0;" x1="687.5" x2="1103.5" y1="406.8613" y2="406.8613"/><text fill="#000000" font-family="sans-serif" font-size="13" font-weight="bold" lengthAdjust="spacing" textLength="7" x="860.5" y="401.5986">9</text><text fill="#000000" font-family="sans-serif" font-size="13" lengthAdjust="spacing" textLength="55" x="871.5" y="401.5986">orderDTO</text><polygon fill="#1E90FF" points="1221.5,434.1523,1231.5,438.1523,1221.5,442.1523,1225.5,438.1523" style="stroke:#1E90FF;stroke-width:1.0;"/><line style="stroke:#1E90FF;stroke-width:1.0;" x1="682.5" x2="1227.5" y1="438.1523" y2="438.1523"/><text fill="#000000" font-family="sans-serif" font-size="13" font-weight="bold" lengthAdjust="spacing" textLength="14" x="888.5" y="432.8896">10</text><text fill="#000000" font-family="sans-serif" font-size="13" lengthAdjust="spacing" textLength="121" x="906.5" y="432.8896">saveOrder(orderDTO)</text><polygon fill="#1E90FF" points="1367.5,465.4434,1377.5,469.4434,1367.5,473.4434,1371.5,469.4434" style="stroke:#1E90FF;stroke-width:1.0;"/><line style="stroke:#1E90FF;stroke-width:1.0;" x1="1243.5" x2="1373.5" y1="469.4434" y2="469.4434"/><text fill="#000000" font-family="sans-serif" font-size="13" font-weight="bold" lengthAdjust="spacing" textLength="14" x="1253" y="464.1807">11</text><text fill="#000000" font-family="sans-serif" font-size="13" lengthAdjust="spacing" textLength="99" x="1271" y="464.1807">create(orderDTO)</text><polygon fill="#1E90FF" points="1254.5,496.7344,1244.5,500.7344,1254.5,504.7344,1250.5,500.7344" style="stroke:#1E90FF;stroke-width:1.0;"/><line style="stroke:#1E90FF;stroke-width:1.0;stroke-dasharray:2.0,2.0;" x1="1248.5" x2="1383.5" y1="500.7344" y2="500.7344"/><text fill="#000000" font-family="sans-serif" font-size="13" font-weight="bold" lengthAdjust="spacing" textLength="14" x="1290.5" y="495.4717">12</text><text fill="#000000" font-family="sans-serif" font-size="13" lengthAdjust="spacing" textLength="29" x="1308.5" y="495.4717">order</text><polygon fill="#1E90FF" points="693.5,528.0254,683.5,532.0254,693.5,536.0254,689.5,532.0254" style="stroke:#1E90FF;stroke-width:1.0;"/><line style="stroke:#1E90FF;stroke-width:1.0;stroke-dasharray:2.0,2.0;" x1="687.5" x2="1237.5" y1="532.0254" y2="532.0254"/><text fill="#000000" font-family="sans-serif" font-size="13" font-weight="bold" lengthAdjust="spacing" textLength="14" x="937" y="526.7627">13</text><text fill="#000000" font-family="sans-serif" font-size="13" lengthAdjust="spacing" textLength="29" x="955" y="526.7627">order</text><polygon fill="#1E90FF" points="1516.5,559.3164,1526.5,563.3164,1516.5,567.3164,1520.5,563.3164" style="stroke:#1E90FF;stroke-width:1.0;"/><line style="stroke:#1E90FF;stroke-width:1.0;" x1="682.5" x2="1522.5" y1="563.3164" y2="563.3164"/><text fill="#000000" font-family="sans-serif" font-size="13" font-weight="bold" lengthAdjust="spacing" textLength="14" x="1022" y="558.0537">14</text><text fill="#000000" font-family="sans-serif" font-size="13" lengthAdjust="spacing" textLength="149" x="1040" y="558.0537">clearShoppingCart(userId)</text><polygon fill="#1E90FF" points="1825.5,590.6074,1835.5,594.6074,1825.5,598.6074,1829.5,594.6074" style="stroke:#1E90FF;stroke-width:1.0;"/><line style="stroke:#1E90FF;stroke-width:1.0;" x1="1538.5" x2="1831.5" y1="594.6074" y2="594.6074"/><text fill="#000000" font-family="sans-serif" font-size="13" font-weight="bold" lengthAdjust="spacing" textLength="14" x="1548" y="589.3447">15</text><text fill="#000000" font-family="sans-serif" font-size="13" lengthAdjust="spacing" textLength="262" x="1566" y="589.3447">updateOne({userId: userId}, {$set: {items: []}})</text><polygon fill="#1E90FF" points="1549.5,621.8984,1539.5,625.8984,1549.5,629.8984,1545.5,625.8984" style="stroke:#1E90FF;stroke-width:1.0;"/><line style="stroke:#1E90FF;stroke-width:1.0;stroke-dasharray:2.0,2.0;" x1="1543.5" x2="1841.5" y1="625.8984" y2="625.8984"/><text fill="#000000" font-family="sans-serif" font-size="13" font-weight="bold" lengthAdjust="spacing" textLength="14" x="1619.5" y="620.6357">16</text><text fill="#000000" font-family="sans-serif" font-size="13" lengthAdjust="spacing" textLength="124" x="1637.5" y="620.6357">updatedShoppingCart</text><polygon fill="#1E90FF" points="693.5,653.1895,683.5,657.1895,693.5,661.1895,689.5,657.1895" style="stroke:#1E90FF;stroke-width:1.0;"/><line style="stroke:#1E90FF;stroke-width:1.0;stroke-dasharray:2.0,2.0;" x1="687.5" x2="1532.5" y1="657.1895" y2="657.1895"/><text fill="#000000" font-family="sans-serif" font-size="13" font-weight="bold" lengthAdjust="spacing" textLength="14" x="1037" y="651.9268">17</text><text fill="#000000" font-family="sans-serif" font-size="13" lengthAdjust="spacing" textLength="124" x="1055" y="651.9268">updatedShoppingCart</text><polygon fill="#1E90FF" points="1985,684.4805,1995,688.4805,1985,692.4805,1989,688.4805" style="stroke:#1E90FF;stroke-width:1.0;"/><line style="stroke:#1E90FF;stroke-width:1.0;" x1="682.5" x2="1991" y1="688.4805" y2="688.4805"/><text fill="#000000" font-family="sans-serif" font-size="13" font-weight="bold" lengthAdjust="spacing" textLength="14" x="1245.75" y="683.2178">18</text><text fill="#000000" font-family="sans-serif" font-size="13" lengthAdjust="spacing" textLength="170" x="1263.75" y="683.2178">sendConfirmationEmail(order)</text><polygon fill="#1E90FF" points="693.5,715.7715,683.5,719.7715,693.5,723.7715,689.5,719.7715" style="stroke:#1E90FF;stroke-width:1.0;"/><line style="stroke:#1E90FF;stroke-width:1.0;stroke-dasharray:2.0,2.0;" x1="687.5" x2="2001" y1="719.7715" y2="719.7715"/><text fill="#000000" font-family="sans-serif" font-size="13" font-weight="bold" lengthAdjust="spacing" textLength="14" x="1304.25" y="714.5088">19</text><text fill="#000000" font-family="sans-serif" font-size="13" lengthAdjust="spacing" textLength="58" x="1322.25" y="714.5088">emailSent</text><polygon fill="#1E90FF" points="414.5,747.0625,404.5,751.0625,414.5,755.0625,410.5,751.0625" style="stroke:#1E90FF;stroke-width:1.0;"/><line style="stroke:#1E90FF;stroke-width:1.0;stroke-dasharray:2.0,2.0;" x1="408.5" x2="676.5" y1="751.0625" y2="751.0625"/><text fill="#000000" font-family="sans-serif" font-size="13" font-weight="bold" lengthAdjust="spacing" textLength="14" x="517" y="745.7998">20</text><text fill="#000000" font-family="sans-serif" font-size="13" lengthAdjust="spacing" textLength="29" x="535" y="745.7998">order</text><polygon fill="#1E90FF" points="204.5,778.3535,194.5,782.3535,204.5,786.3535,200.5,782.3535" style="stroke:#1E90FF;stroke-width:1.0;"/><line style="stroke:#1E90FF;stroke-width:1.0;stroke-dasharray:2.0,2.0;" x1="198.5" x2="397.5" y1="782.3535" y2="782.3535"/><text fill="#000000" font-family="sans-serif" font-size="13" font-weight="bold" lengthAdjust="spacing" textLength="14" x="272.5" y="777.0908">21</text><text fill="#000000" font-family="sans-serif" font-size="13" lengthAdjust="spacing" textLength="29" x="290.5" y="777.0908">order</text><polygon fill="#1E90FF" points="44.5,809.6445,34.5,813.6445,44.5,817.6445,40.5,813.6445" style="stroke:#1E90FF;stroke-width:1.0;"/><line style="stroke:#1E90FF;stroke-width:1.0;stroke-dasharray:2.0,2.0;" x1="38.5" x2="187.5" y1="813.6445" y2="813.6445"/><text fill="#000000" font-family="sans-serif" font-size="13" font-weight="bold" lengthAdjust="spacing" textLength="14" x="48" y="808.3818">22</text><text fill="#000000" font-family="sans-serif" font-size="13" lengthAdjust="spacing" textLength="108" x="66" y="808.3818">Order Confirmation</text><!--SRC=[nPLHQzim4CVVzIb4EsW6CIjbZ696mNMoBf3CmSxOmnX5jULKr9OyIUuMGhxxJhBJoAcJzQdrGqAit_tlhzETSkObUbLGxvKVX4Yj1Q_BEoeHKW-CLqII4ezeJkf2B-XV7HHioKlADKxXeujTa_HXAKNDir0KGkBJdEHPdhi8V6gMieg0m1fXUFQ3WX_9xVNDRHXDexW1XCoeT1QZU3IEMs3ZYYlwkwOyfQtobELqoZXr1KOYMr9vNTIqY-oRcC-dap1OJA9lo891geKyHksW_cozUptzOfycM4hnfzVa4V_pNJcFvRs1d9KBd9vVNdpwUE4i7jaQrFZCMp3z5lseJLhyFS7dbzZ3eIYhWcgA2SUHsOrnPgkkFZYbKAyoAIOjFlbyTnKM34RX11E50-Gsk5dqhSzOr30h5e6cxMT2mRKKHR7bmWDSGkKZIsa39GUWqI9gWD41O4QgQfjfTiWrhOHYiCrLw_ovzSPHUazBqXhgiPtSYwfYV1d2Wki-2PFZy9w1fCU0Fou9ArpLSMAxGYcHCgAPuEerxyzKiqS27HeW563l2ehcuw-BnHnBSpafZGUm9Vr-1q8_e2YsQEZZjErmMzS1n0mXK0qnXwlN3GeXABH12TwFKlVCLd32Sp646tTbhclpmnM08a4e2C0XWCAIQhVmWrfHEScS07DM1lMsEPM3eunsm5OwcW5NaifLNeYjoTsx8NwHvHa2GICxCbkM55uEtFKHWXLlcrUqO-1wCyXijuLUPFRaFexDDibZMzOjtJcx61dC2eOxLtqe38PXl2Tb2tLI6yIeTVnrY3Zk7bjQK29VU71NPduWfguoU1znEbWtCBootviXNhzJLFjupJGjbOz__jfiN2b8dxG6c_oDLfOSwWKJu3RD__XTxunjZr7pVyHp9aixoNRMc-ewjc3WnquEsbm8lACyReNjcFKNtmvKEx7FbyDcIc4zy9l_7kmwwvwIkO3Uv47_0000]--></g></svg>