<?xml version="1.0" encoding="us-ascii" standalone="no"?><svg xmlns="http://www.w3.org/2000/svg" xmlns:xlink="http://www.w3.org/1999/xlink" contentStyleType="text/css" height="414px" preserveAspectRatio="none" style="width:776px;height:414px;background:#FAFDFF;" version="1.1" viewBox="0 0 776 414" width="776px" zoomAndPan="magnify"><defs/><g><rect fill="#FAFDFF" height="414" style="stroke:none;stroke-width:1.0;" width="776" x="0" y="0"/><text fill="#000000" font-family="sans-serif" font-size="14" font-weight="bold" lengthAdjust="spacing" textLength="185" x="294.5" y="30.1074">US 08 - Complete an Order</text><rect fill="#C2F0FF" height="188.7461" style="stroke:#1E90FF;stroke-width:1.0;" width="10" x="23.5" y="133.2422"/><rect fill="#C2F0FF" height="156.4551" style="stroke:#1E90FF;stroke-width:1.0;" width="10" x="299.5" y="156.5332"/><rect fill="#C2F0FF" height="93.873" style="stroke:#1E90FF;stroke-width:1.0;" width="10" x="561.5" y="187.8242"/><rect fill="#C2F0FF" height="31.291" style="stroke:#1E90FF;stroke-width:1.0;" width="10" x="727.5" y="219.1152"/><line style="stroke:#1E90FF;stroke-width:0.5;stroke-dasharray:5.0,5.0;" x1="28" x2="28" y1="123.2422" y2="330.9883"/><line style="stroke:#1E90FF;stroke-width:0.5;stroke-dasharray:5.0,5.0;" x1="304.5" x2="304.5" y1="123.2422" y2="330.9883"/><line style="stroke:#1E90FF;stroke-width:0.5;stroke-dasharray:5.0,5.0;" x1="566" x2="566" y1="123.2422" y2="330.9883"/><line style="stroke:#1E90FF;stroke-width:0.5;stroke-dasharray:5.0,5.0;" x1="732" x2="732" y1="123.2422" y2="330.9883"/><text fill="#000000" font-family="sans-serif" font-size="14" font-weight="bold" lengthAdjust="spacing" textLength="41" x="5" y="119.7285">Client</text><ellipse cx="28.5" cy="53.1211" fill="#C2F0FF" rx="8" ry="8" style="stroke:#1E90FF;stroke-width:0.5;"/><path d="M28.5,61.1211 L28.5,88.1211 M15.5,69.1211 L41.5,69.1211 M28.5,88.1211 L15.5,103.1211 M28.5,88.1211 L41.5,103.1211 " fill="none" style="stroke:#1E90FF;stroke-width:0.5;"/><text fill="#000000" font-family="sans-serif" font-size="14" font-weight="bold" lengthAdjust="spacing" textLength="41" x="5" y="345.0957">Client</text><ellipse cx="28.5" cy="357.1094" fill="#C2F0FF" rx="8" ry="8" style="stroke:#1E90FF;stroke-width:0.5;"/><path d="M28.5,365.1094 L28.5,392.1094 M15.5,373.1094 L41.5,373.1094 M28.5,392.1094 L15.5,407.1094 M28.5,392.1094 L41.5,407.1094 " fill="none" style="stroke:#1E90FF;stroke-width:0.5;"/><rect fill="#FFFFFF" height="32.6211" rx="2.5" ry="2.5" style="stroke:#1E90FF;stroke-width:0.5;" width="116" x="246.5" y="89.6211"/><text fill="#000000" font-family="sans-serif" font-size="14" font-weight="bold" lengthAdjust="spacing" textLength="102" x="253.5" y="111.7285">CheckoutPage</text><rect fill="#FFFFFF" height="32.6211" rx="2.5" ry="2.5" style="stroke:#1E90FF;stroke-width:0.5;" width="116" x="246.5" y="329.9883"/><text fill="#000000" font-family="sans-serif" font-size="14" font-weight="bold" lengthAdjust="spacing" textLength="102" x="253.5" y="352.0957">CheckoutPage</text><rect fill="#FFFFFF" height="32.6211" rx="2.5" ry="2.5" style="stroke:#1E90FF;stroke-width:0.5;" width="109" x="512" y="89.6211"/><text fill="#000000" font-family="sans-serif" font-size="14" font-weight="bold" lengthAdjust="spacing" textLength="95" x="519" y="111.7285">OrderService</text><rect fill="#FFFFFF" height="32.6211" rx="2.5" ry="2.5" style="stroke:#1E90FF;stroke-width:0.5;" width="109" x="512" y="329.9883"/><text fill="#000000" font-family="sans-serif" font-size="14" font-weight="bold" lengthAdjust="spacing" textLength="95" x="519" y="352.0957">OrderService</text><rect fill="#FFFFFF" height="32.6211" rx="2.5" ry="2.5" style="stroke:#1E90FF;stroke-width:0.5;" width="75" x="695" y="89.6211"/><text fill="#000000" font-family="sans-serif" font-size="14" font-weight="bold" lengthAdjust="spacing" textLength="61" x="702" y="111.7285">BackEnd</text><rect fill="#FFFFFF" height="32.6211" rx="2.5" ry="2.5" style="stroke:#1E90FF;stroke-width:0.5;" width="75" x="695" y="329.9883"/><text fill="#000000" font-family="sans-serif" font-size="14" font-weight="bold" lengthAdjust="spacing" textLength="61" x="702" y="352.0957">BackEnd</text><rect fill="#C2F0FF" height="188.7461" style="stroke:#1E90FF;stroke-width:1.0;" width="10" x="23.5" y="133.2422"/><rect fill="#C2F0FF" height="156.4551" style="stroke:#1E90FF;stroke-width:1.0;" width="10" x="299.5" y="156.5332"/><rect fill="#C2F0FF" height="93.873" style="stroke:#1E90FF;stroke-width:1.0;" width="10" x="561.5" y="187.8242"/><rect fill="#C2F0FF" height="31.291" style="stroke:#1E90FF;stroke-width:1.0;" width="10" x="727.5" y="219.1152"/><polygon fill="#1E90FF" points="287.5,152.5332,297.5,156.5332,287.5,160.5332,291.5,156.5332" style="stroke:#1E90FF;stroke-width:1.0;"/><line style="stroke:#1E90FF;stroke-width:1.0;" x1="33.5" x2="293.5" y1="156.5332" y2="156.5332"/><text fill="#000000" font-family="sans-serif" font-size="13" font-weight="bold" lengthAdjust="spacing" textLength="7" x="43" y="151.2705">1</text><text fill="#000000" font-family="sans-serif" font-size="13" lengthAdjust="spacing" textLength="236" x="54" y="151.2705">Enters shipping and payment information</text><polygon fill="#1E90FF" points="549.5,183.8242,559.5,187.8242,549.5,191.8242,553.5,187.8242" style="stroke:#1E90FF;stroke-width:1.0;"/><line style="stroke:#1E90FF;stroke-width:1.0;" x1="309.5" x2="555.5" y1="187.8242" y2="187.8242"/><text fill="#000000" font-family="sans-serif" font-size="13" font-weight="bold" lengthAdjust="spacing" textLength="7" x="319" y="182.5615">2</text><text fill="#000000" font-family="sans-serif" font-size="13" lengthAdjust="spacing" textLength="222" x="330" y="182.5615">createOrder(shippingInfo, paymentInfo)</text><polygon fill="#1E90FF" points="715.5,215.1152,725.5,219.1152,715.5,223.1152,719.5,219.1152" style="stroke:#1E90FF;stroke-width:1.0;"/><line style="stroke:#1E90FF;stroke-width:1.0;" x1="571.5" x2="721.5" y1="219.1152" y2="219.1152"/><text fill="#000000" font-family="sans-serif" font-size="13" font-weight="bold" lengthAdjust="spacing" textLength="7" x="581" y="213.8525">3</text><text fill="#000000" font-family="sans-serif" font-size="13" lengthAdjust="spacing" textLength="126" x="592" y="213.8525">HTTP request (POST)</text><polygon fill="#1E90FF" points="582.5,246.4063,572.5,250.4063,582.5,254.4063,578.5,250.4063" style="stroke:#1E90FF;stroke-width:1.0;"/><line style="stroke:#1E90FF;stroke-width:1.0;stroke-dasharray:2.0,2.0;" x1="576.5" x2="731.5" y1="250.4063" y2="250.4063"/><text fill="#000000" font-family="sans-serif" font-size="13" font-weight="bold" lengthAdjust="spacing" textLength="7" x="595" y="245.1436">4</text><text fill="#000000" font-family="sans-serif" font-size="13" lengthAdjust="spacing" textLength="103" x="606" y="245.1436">order confirmation</text><polygon fill="#1E90FF" points="320.5,277.6973,310.5,281.6973,320.5,285.6973,316.5,281.6973" style="stroke:#1E90FF;stroke-width:1.0;"/><line style="stroke:#1E90FF;stroke-width:1.0;stroke-dasharray:2.0,2.0;" x1="314.5" x2="565.5" y1="281.6973" y2="281.6973"/><text fill="#000000" font-family="sans-serif" font-size="13" font-weight="bold" lengthAdjust="spacing" textLength="7" x="381" y="276.4346">5</text><text fill="#000000" font-family="sans-serif" font-size="13" lengthAdjust="spacing" textLength="103" x="392" y="276.4346">order confirmation</text><polygon fill="#1E90FF" points="44.5,308.9883,34.5,312.9883,44.5,316.9883,40.5,312.9883" style="stroke:#1E90FF;stroke-width:1.0;"/><line style="stroke:#1E90FF;stroke-width:1.0;" x1="38.5" x2="303.5" y1="312.9883" y2="312.9883"/><text fill="#000000" font-family="sans-serif" font-size="13" font-weight="bold" lengthAdjust="spacing" textLength="7" x="85" y="307.7256">6</text><text fill="#000000" font-family="sans-serif" font-size="13" lengthAdjust="spacing" textLength="157" x="96" y="307.7256">Displays order confirmation</text><!--SRC=[nLDDQ-Cm4BthLmpD8LrOiwMKfPXIi1rlDn3M9dRfiQZos1Mn9QyajnkM_U-Lb8PuctxSKXq4zhmtC-zfPXeKPjrYSE1321sC54DtXueGlUAYfufsCCEQ3gqfyO-9Mjw83eK1Pg__OJ5bgqR9GLI9RAM2IKthggx747iRpdXFROA_v2KXkYbkuwlR95jaIn9BLQ4Q1RBbB5q-1_-DashyFQ1WQ3CkU8qBBd1CdicgGHMt0-x2Bmld-MAUHEKy-qL8n8nKxo4sWDShx6cQ_F27H4h9nptu6rdodKrlrRcoDVfnS79oVlhzxFGvy4xxrhjfK7Bp6VDbN5cuBk3a7098PDUtQ12eWCmfSPrvT_MtaGNw89FloiBHnTrbqd8xsaT0DKHaFB0-U8zi9GUJqmOz9CdtC5vAWUg1imqcA_Omxe5IKVbmd7hTMal6gU5Iw4DkF3FyWTetYEpaGt1f1OMGkjNMeEzvttFHsFUfxEgk_TvpKKlL-JvtPEi2IN97pueGc4BxqzjmlCqnjxIlsoJkuykERVqXMU7OSHh2pxBCGRcTrWQEywmeHr3hLPn2u0j127x-WKbHysrF5Ox1FgzNzI7QTh6H48KmuxflwLf_G76ofy6d7F84]--></g></svg>