<?xml version="1.0" encoding="us-ascii" standalone="no"?><svg xmlns="http://www.w3.org/2000/svg" xmlns:xlink="http://www.w3.org/1999/xlink" contentStyleType="text/css" height="745px" preserveAspectRatio="none" style="width:305px;height:745px;background:#FFFFFF;" version="1.1" viewBox="0 0 305 745" width="305px" zoomAndPan="magnify"><defs/><g><!--cluster Users--><g id="cluster_Users"><path d="M14.5,6.0137 L56.5,6.0137 A3.75,3.75 0 0 1 59,8.5137 L66,30.6348 L147.5,30.6348 A2.5,2.5 0 0 1 150,33.1348 L150,226.5137 A2.5,2.5 0 0 1 147.5,229.0137 L14.5,229.0137 A2.5,2.5 0 0 1 12,226.5137 L12,8.5137 A2.5,2.5 0 0 1 14.5,6.0137 " fill="none" style="stroke:#000000;stroke-width:1.5;"/><line style="stroke:#000000;stroke-width:1.5;" x1="12" x2="66" y1="30.6348" y2="30.6348"/><text fill="#000000" font-family="sans-serif" font-size="14" font-weight="bold" lengthAdjust="spacing" textLength="41" x="16" y="23.1211">Users</text></g><!--cluster Orders--><g id="cluster_Orders"><path d="M8.5,280.0137 L58.5,280.0137 A3.75,3.75 0 0 1 61,282.5137 L68,304.6348 L153.5,304.6348 A2.5,2.5 0 0 1 156,307.1348 L156,726.0137 A2.5,2.5 0 0 1 153.5,728.5137 L8.5,728.5137 A2.5,2.5 0 0 1 6,726.0137 L6,282.5137 A2.5,2.5 0 0 1 8.5,280.0137 " fill="none" style="stroke:#000000;stroke-width:1.5;"/><line style="stroke:#000000;stroke-width:1.5;" x1="6" x2="68" y1="304.6348" y2="304.6348"/><text fill="#000000" font-family="sans-serif" font-size="14" font-weight="bold" lengthAdjust="spacing" textLength="49" x="10" y="297.1211">Orders</text></g><!--cluster Weapons--><g id="cluster_Weapons"><path d="M182.5,552.0137 L248.5,552.0137 A3.75,3.75 0 0 1 251,554.5137 L258,576.6348 L295.5,576.6348 A2.5,2.5 0 0 1 298,579.1348 L298,735.5137 A2.5,2.5 0 0 1 295.5,738.0137 L182.5,738.0137 A2.5,2.5 0 0 1 180,735.5137 L180,554.5137 A2.5,2.5 0 0 1 182.5,552.0137 " fill="none" style="stroke:#000000;stroke-width:1.5;"/><line style="stroke:#000000;stroke-width:1.5;" x1="180" x2="258" y1="576.6348" y2="576.6348"/><text fill="#000000" font-family="sans-serif" font-size="14" font-weight="bold" lengthAdjust="spacing" textLength="65" x="184" y="569.1211">Weapons</text></g><!--class Client--><g id="elem_Client"><rect codeLine="6" fill="#F1F1F1" height="170.3477" id="Client" rx="2.5" ry="2.5" style="stroke:#181818;stroke-width:0.5;" width="106" x="28" y="43.0137"/><ellipse cx="60.1" cy="59.0137" fill="#ADD1B2" rx="11" ry="11" style="stroke:#181818;stroke-width:1.0;"/><path d="M62.8656,54.8887 Q63.0219,54.6699 63.2094,54.5605 Q63.3969,54.4512 63.6156,54.4512 Q63.9906,54.4512 64.225,54.7168 Q64.4594,54.9668 64.4594,55.5762 L64.4594,57.0293 Q64.4594,57.6387 64.225,57.9043 Q63.9906,58.1699 63.6156,58.1699 Q63.2719,58.1699 63.0688,57.9668 Q62.8656,57.7793 62.7563,57.2637 Q62.7094,56.9043 62.5219,56.7168 Q62.1938,56.3418 61.5844,56.123 Q60.975,55.9043 60.35,55.9043 Q59.5844,55.9043 58.9438,56.2324 Q58.3188,56.5605 57.8188,57.3105 Q57.3344,58.0605 57.3344,59.0918 L57.3344,60.1855 Q57.3344,61.4199 58.225,62.248 Q59.1156,63.0605 60.7094,63.0605 Q61.6469,63.0605 62.3031,62.8105 Q62.6938,62.6543 63.1156,62.2168 Q63.3813,61.9512 63.5219,61.873 Q63.6781,61.7949 63.8813,61.7949 Q64.2094,61.7949 64.4594,62.0605 Q64.725,62.3105 64.725,62.6543 Q64.725,62.998 64.3813,63.4043 Q63.8813,63.9824 63.0844,64.3105 Q62.0063,64.7637 60.7094,64.7637 Q59.1938,64.7637 57.9906,64.1387 Q57.0063,63.6387 56.3188,62.5762 Q55.6313,61.498 55.6313,60.2168 L55.6313,59.0605 Q55.6313,57.7324 56.2406,56.5918 Q56.8656,55.4355 57.9594,54.8262 Q59.0531,54.2012 60.2875,54.2012 Q61.0219,54.2012 61.6625,54.373 Q62.3188,54.5293 62.8656,54.8887 Z " fill="#000000"/><text fill="#000000" font-family="sans-serif" font-size="14" lengthAdjust="spacing" textLength="36" x="77.9" y="64.8105">Client</text><line style="stroke:#181818;stroke-width:0.5;" x1="29" x2="133" y1="75.0137" y2="75.0137"/><text fill="#000000" font-family="sans-serif" font-size="14" lengthAdjust="spacing" textLength="51" x="34" y="94.1211">-clientID</text><text fill="#000000" font-family="sans-serif" font-size="14" lengthAdjust="spacing" textLength="40" x="34" y="112.7422">-name</text><text fill="#000000" font-family="sans-serif" font-size="14" lengthAdjust="spacing" textLength="38" x="34" y="131.3633">-email</text><text fill="#000000" font-family="sans-serif" font-size="14" lengthAdjust="spacing" textLength="65" x="34" y="149.9844">-password</text><text fill="#000000" font-family="sans-serif" font-size="14" lengthAdjust="spacing" textLength="63" x="34" y="168.6055">-birthDate</text><text fill="#000000" font-family="sans-serif" font-size="14" lengthAdjust="spacing" textLength="94" x="34" y="187.2266">-phoneNumber</text><text fill="#000000" font-family="sans-serif" font-size="14" lengthAdjust="spacing" textLength="56" x="34" y="205.8477">-address</text></g><!--class Order--><g id="elem_Order"><rect codeLine="18" fill="#F1F1F1" height="170.3477" id="Order" rx="2.5" ry="2.5" style="stroke:#181818;stroke-width:0.5;" width="118" x="22" y="317.0137"/><ellipse cx="59.05" cy="333.0137" fill="#ADD1B2" rx="11" ry="11" style="stroke:#181818;stroke-width:1.0;"/><path d="M61.8156,328.8887 Q61.9719,328.6699 62.1594,328.5605 Q62.3469,328.4512 62.5656,328.4512 Q62.9406,328.4512 63.175,328.7168 Q63.4094,328.9668 63.4094,329.5762 L63.4094,331.0293 Q63.4094,331.6387 63.175,331.9043 Q62.9406,332.1699 62.5656,332.1699 Q62.2219,332.1699 62.0188,331.9668 Q61.8156,331.7793 61.7063,331.2637 Q61.6594,330.9043 61.4719,330.7168 Q61.1438,330.3418 60.5344,330.123 Q59.925,329.9043 59.3,329.9043 Q58.5344,329.9043 57.8938,330.2324 Q57.2688,330.5605 56.7688,331.3105 Q56.2844,332.0605 56.2844,333.0918 L56.2844,334.1855 Q56.2844,335.4199 57.175,336.248 Q58.0656,337.0605 59.6594,337.0605 Q60.5969,337.0605 61.2531,336.8105 Q61.6438,336.6543 62.0656,336.2168 Q62.3313,335.9512 62.4719,335.873 Q62.6281,335.7949 62.8313,335.7949 Q63.1594,335.7949 63.4094,336.0605 Q63.675,336.3105 63.675,336.6543 Q63.675,336.998 63.3313,337.4043 Q62.8313,337.9824 62.0344,338.3105 Q60.9563,338.7637 59.6594,338.7637 Q58.1438,338.7637 56.9406,338.1387 Q55.9563,337.6387 55.2688,336.5762 Q54.5813,335.498 54.5813,334.2168 L54.5813,333.0605 Q54.5813,331.7324 55.1906,330.5918 Q55.8156,329.4355 56.9094,328.8262 Q58.0031,328.2012 59.2375,328.2012 Q59.9719,328.2012 60.6125,328.373 Q61.2688,328.5293 61.8156,328.8887 Z " fill="#000000"/><text fill="#000000" font-family="sans-serif" font-size="14" lengthAdjust="spacing" textLength="37" x="77.95" y="338.8105">Order</text><line style="stroke:#181818;stroke-width:0.5;" x1="23" x2="139" y1="349.0137" y2="349.0137"/><text fill="#000000" font-family="sans-serif" font-size="14" lengthAdjust="spacing" textLength="52" x="28" y="368.1211">-orderID</text><text fill="#000000" font-family="sans-serif" font-size="14" lengthAdjust="spacing" textLength="33" x="28" y="386.7422">-date</text><text fill="#000000" font-family="sans-serif" font-size="14" lengthAdjust="spacing" textLength="88" x="28" y="405.3633">-orderNumber</text><text fill="#000000" font-family="sans-serif" font-size="14" lengthAdjust="spacing" textLength="106" x="28" y="423.9844">-paymentMethod</text><text fill="#000000" font-family="sans-serif" font-size="14" lengthAdjust="spacing" textLength="64" x="28" y="442.6055">-totalPrice</text><text fill="#000000" font-family="sans-serif" font-size="14" lengthAdjust="spacing" textLength="105" x="28" y="461.2266">-shippingMethod</text><text fill="#000000" font-family="sans-serif" font-size="14" lengthAdjust="spacing" textLength="51" x="28" y="479.8477">-clientID</text></g><!--class OrderStatus--><g id="elem_OrderStatus"><rect codeLine="27" fill="#F1F1F1" height="114.4844" id="OrderStatus" rx="2.5" ry="2.5" style="stroke:#181818;stroke-width:0.5;" width="109" x="26.5" y="598.5137"/><ellipse cx="41.5" cy="614.5137" fill="#EB937F" rx="11" ry="11" style="stroke:#181818;stroke-width:1.0;"/><path d="M40.3594,615.3105 L40.3594,617.8105 L44.6875,617.8105 L44.6875,616.8887 Q44.6875,616.2793 44.9219,616.0137 Q45.1719,615.748 45.5469,615.748 Q45.9219,615.748 46.1563,616.0137 Q46.3906,616.2793 46.3906,616.8887 L46.3906,619.5137 L38.3906,619.5137 Q37.7656,619.5137 37.5,619.2793 Q37.25,619.0449 37.25,618.6543 Q37.25,618.2793 37.5156,618.0449 Q37.7813,617.8105 38.3906,617.8105 L38.6563,617.8105 L38.6563,611.1543 L38.3906,611.1543 Q37.7656,611.1543 37.5,610.9199 Q37.25,610.6855 37.25,610.2949 Q37.25,609.9199 37.5,609.6855 Q37.7656,609.4512 38.3906,609.4512 L46.0156,609.4512 L46.0156,612.0449 Q46.0156,612.6543 45.7813,612.9199 Q45.5625,613.1699 45.1719,613.1699 Q44.7969,613.1699 44.5625,612.9199 Q44.3281,612.6543 44.3281,612.0449 L44.3281,611.1543 L40.3594,611.1543 L40.3594,613.6074 L41.8438,613.6074 Q41.8438,612.9512 41.9688,612.7637 Q42.2344,612.3574 42.7031,612.3574 Q43.0781,612.3574 43.3125,612.623 Q43.5469,612.873 43.5469,613.4824 L43.5469,615.4512 Q43.5469,615.998 43.4219,616.1855 Q43.1563,616.5762 42.7031,616.5762 Q42.2344,616.5762 41.9688,616.1699 Q41.8438,615.9824 41.8438,615.3105 L40.3594,615.3105 Z " fill="#000000"/><text fill="#000000" font-family="sans-serif" font-size="14" lengthAdjust="spacing" textLength="77" x="55.5" y="620.3105">OrderStatus</text><line style="stroke:#181818;stroke-width:0.5;" x1="27.5" x2="134.5" y1="630.5137" y2="630.5137"/><text fill="#000000" font-family="sans-serif" font-size="14" lengthAdjust="spacing" textLength="56" x="32.5" y="649.6211">-pending</text><text fill="#000000" font-family="sans-serif" font-size="14" lengthAdjust="spacing" textLength="66" x="32.5" y="668.2422">-delivering</text><text fill="#000000" font-family="sans-serif" font-size="14" lengthAdjust="spacing" textLength="63" x="32.5" y="686.8633">-delivered</text><text fill="#000000" font-family="sans-serif" font-size="14" lengthAdjust="spacing" textLength="65" x="32.5" y="705.4844">-cancelled</text></g><!--class Weapon--><g id="elem_Weapon"><rect codeLine="36" fill="#F1F1F1" height="133.1055" id="Weapon" rx="2.5" ry="2.5" style="stroke:#181818;stroke-width:0.5;" width="86" x="196" y="589.0137"/><ellipse cx="211.45" cy="605.0137" fill="#ADD1B2" rx="11" ry="11" style="stroke:#181818;stroke-width:1.0;"/><path d="M214.2156,600.8887 Q214.3719,600.6699 214.5594,600.5605 Q214.7469,600.4512 214.9656,600.4512 Q215.3406,600.4512 215.575,600.7168 Q215.8094,600.9668 215.8094,601.5762 L215.8094,603.0293 Q215.8094,603.6387 215.575,603.9043 Q215.3406,604.1699 214.9656,604.1699 Q214.6219,604.1699 214.4188,603.9668 Q214.2156,603.7793 214.1063,603.2637 Q214.0594,602.9043 213.8719,602.7168 Q213.5438,602.3418 212.9344,602.123 Q212.325,601.9043 211.7,601.9043 Q210.9344,601.9043 210.2938,602.2324 Q209.6688,602.5605 209.1688,603.3105 Q208.6844,604.0605 208.6844,605.0918 L208.6844,606.1855 Q208.6844,607.4199 209.575,608.248 Q210.4656,609.0605 212.0594,609.0605 Q212.9969,609.0605 213.6531,608.8105 Q214.0438,608.6543 214.4656,608.2168 Q214.7313,607.9512 214.8719,607.873 Q215.0281,607.7949 215.2313,607.7949 Q215.5594,607.7949 215.8094,608.0605 Q216.075,608.3105 216.075,608.6543 Q216.075,608.998 215.7313,609.4043 Q215.2313,609.9824 214.4344,610.3105 Q213.3563,610.7637 212.0594,610.7637 Q210.5438,610.7637 209.3406,610.1387 Q208.3563,609.6387 207.6688,608.5762 Q206.9813,607.498 206.9813,606.2168 L206.9813,605.0605 Q206.9813,603.7324 207.5906,602.5918 Q208.2156,601.4355 209.3094,600.8262 Q210.4031,600.2012 211.6375,600.2012 Q212.3719,600.2012 213.0125,600.373 Q213.6688,600.5293 214.2156,600.8887 Z " fill="#000000"/><text fill="#000000" font-family="sans-serif" font-size="14" lengthAdjust="spacing" textLength="53" x="225.55" y="610.8105">Weapon</text><line style="stroke:#181818;stroke-width:0.5;" x1="197" x2="281" y1="621.0137" y2="621.0137"/><text fill="#000000" font-family="sans-serif" font-size="14" lengthAdjust="spacing" textLength="67" x="202" y="640.1211">-weaponID</text><text fill="#000000" font-family="sans-serif" font-size="14" lengthAdjust="spacing" textLength="40" x="202" y="658.7422">-name</text><text fill="#000000" font-family="sans-serif" font-size="14" lengthAdjust="spacing" textLength="36" x="202" y="677.3633">-price</text><text fill="#000000" font-family="sans-serif" font-size="14" lengthAdjust="spacing" textLength="74" x="202" y="695.9844">-description</text><text fill="#000000" font-family="sans-serif" font-size="14" lengthAdjust="spacing" textLength="43" x="202" y="714.6055">-image</text></g><!--link Client to Order--><g id="link_Client_Order"><path codeLine="45" d="M81,213.2137 C81,246.1337 81,277.8137 81,310.7437 " fill="none" id="Client-to-Order" style="stroke:#181818;stroke-width:1.0;"/><polygon fill="#181818" points="81,316.7437,85,307.7437,81,311.7437,77,307.7437,81,316.7437" style="stroke:#181818;stroke-width:1.0;"/><text fill="#000000" font-family="sans-serif" font-size="13" lengthAdjust="spacing" textLength="50" x="82" y="260.042">performs</text><text fill="#000000" font-family="sans-serif" font-size="13" lengthAdjust="spacing" textLength="7" x="73.6992" y="235.2919">1</text><text fill="#000000" font-family="sans-serif" font-size="13" lengthAdjust="spacing" textLength="5" x="75.7852" y="305.7112">*</text></g><!--link Order to Weapon--><g id="link_Order_Weapon"><path codeLine="46" d="M133.83,487.1137 C154.64,520.2337 174.9984,552.6329 194.5284,583.7229 " fill="none" id="Order-to-Weapon" style="stroke:#181818;stroke-width:1.0;"/><polygon fill="#181818" points="197.72,588.8037,196.3198,579.0549,195.0603,584.5697,189.5455,583.3103,197.72,588.8037" style="stroke:#181818;stroke-width:1.0;"/><text fill="#000000" font-family="sans-serif" font-size="13" lengthAdjust="spacing" textLength="21" x="161" y="532.042">has</text><text fill="#000000" font-family="sans-serif" font-size="13" lengthAdjust="spacing" textLength="7" x="131.2235" y="509.4757">1</text><text fill="#000000" font-family="sans-serif" font-size="13" lengthAdjust="spacing" textLength="5" x="187.9316" y="577.616">*</text></g><!--link Order to OrderStatus--><g id="link_Order_OrderStatus"><path codeLine="47" d="M81,487.1137 C81,523.6637 81,559.5137 81,592.2337 " fill="none" id="Order-to-OrderStatus" style="stroke:#181818;stroke-width:1.0;"/><polygon fill="#181818" points="81,598.2337,85,589.2337,81,593.2337,77,589.2337,81,598.2337" style="stroke:#181818;stroke-width:1.0;"/><text fill="#000000" font-family="sans-serif" font-size="13" lengthAdjust="spacing" textLength="21" x="82" y="532.042">has</text><text fill="#000000" font-family="sans-serif" font-size="13" lengthAdjust="spacing" textLength="7" x="73.6883" y="509.4757">1</text><text fill="#000000" font-family="sans-serif" font-size="13" lengthAdjust="spacing" textLength="7" x="73.5734" y="587.2333">1</text></g><!--SRC=[LL3BJWCn3BpxAwAz8265mhK790IN7dX85UBi9gPhDIybNYf0_NUosJuMvP2nFPaPvweNIMMvM2I7GGRlRapq2-Em56qPjnazz6n9UP8-sW9bno5XRQj6UX39l1c4LYQ6DV-GkWL8Q7Qu9VLUA1Vr2usf7XrJa5fgqz3g2NH0Jw398plGgRBsCLlG6yxIFw7KMUfZe9V1RoY3HcipbGA7UiukhzdERLevkiGHZ2Qs2RNo99JmszS8psqfq185tLjcKtcbvvGuR4-pSzW3K1ZyfByMb67qr8c2hUpgGew_ACynZSyn67Akmd-XFmXJ39VKKpqAxXkwV4wQObag9dCIZW4q-wen2Hv_jRlhjBxlhhlZ_akLA7_6x0jCZGlXQBLKFSw6gaxRFTjlelm1]--></g></svg>