<?xml version="1.0" encoding="us-ascii" standalone="no"?><svg xmlns="http://www.w3.org/2000/svg" xmlns:xlink="http://www.w3.org/1999/xlink" contentStyleType="text/css" height="766px" preserveAspectRatio="none" style="width:163px;height:766px;background:#FFFFFF;" version="1.1" viewBox="0 0 163 766" width="163px" zoomAndPan="magnify"><defs/><g><!--cluster Users--><g id="cluster_Users"><path d="M14.5,6.0137 L56.5,6.0137 A3.75,3.75 0 0 1 59,8.5137 L66,30.6348 L147.5,30.6348 A2.5,2.5 0 0 1 150,33.1348 L150,226.5137 A2.5,2.5 0 0 1 147.5,229.0137 L14.5,229.0137 A2.5,2.5 0 0 1 12,226.5137 L12,8.5137 A2.5,2.5 0 0 1 14.5,6.0137 " fill="none" style="stroke:#000000;stroke-width:1.5;"/><line style="stroke:#000000;stroke-width:1.5;" x1="12" x2="66" y1="30.6348" y2="30.6348"/><text fill="#000000" font-family="sans-serif" font-size="14" font-weight="bold" lengthAdjust="spacing" textLength="41" x="16" y="23.1211">Users</text></g><!--cluster Weapons--><g id="cluster_Weapons"><path d="M24.5,573.0137 L90.5,573.0137 A3.75,3.75 0 0 1 93,575.5137 L100,597.6348 L137.5,597.6348 A2.5,2.5 0 0 1 140,600.1348 L140,756.5137 A2.5,2.5 0 0 1 137.5,759.0137 L24.5,759.0137 A2.5,2.5 0 0 1 22,756.5137 L22,575.5137 A2.5,2.5 0 0 1 24.5,573.0137 " fill="none" style="stroke:#000000;stroke-width:1.5;"/><line style="stroke:#000000;stroke-width:1.5;" x1="22" x2="100" y1="597.6348" y2="597.6348"/><text fill="#000000" font-family="sans-serif" font-size="14" font-weight="bold" lengthAdjust="spacing" textLength="65" x="26" y="590.1211">Weapons</text></g><!--cluster Orders--><g id="cluster_Orders"><path d="M8.5,280.0137 L58.5,280.0137 A3.75,3.75 0 0 1 61,282.5137 L68,304.6348 L153.5,304.6348 A2.5,2.5 0 0 1 156,307.1348 L156,519.5137 A2.5,2.5 0 0 1 153.5,522.0137 L8.5,522.0137 A2.5,2.5 0 0 1 6,519.5137 L6,282.5137 A2.5,2.5 0 0 1 8.5,280.0137 " fill="none" style="stroke:#000000;stroke-width:1.5;"/><line style="stroke:#000000;stroke-width:1.5;" x1="6" x2="68" y1="304.6348" y2="304.6348"/><text fill="#000000" font-family="sans-serif" font-size="14" font-weight="bold" lengthAdjust="spacing" textLength="49" x="10" y="297.1211">Orders</text></g><!--class Client--><g id="elem_Client"><rect codeLine="9" fill="#F1F1F1" height="170.3477" id="Client" rx="2.5" ry="2.5" style="stroke:#181818;stroke-width:0.5;" width="106" x="28" y="43.0137"/><ellipse cx="60.1" cy="59.0137" fill="#ADD1B2" rx="11" ry="11" style="stroke:#181818;stroke-width:1.0;"/><path d="M62.8656,54.8887 Q63.0219,54.6699 63.2094,54.5605 Q63.3969,54.4512 63.6156,54.4512 Q63.9906,54.4512 64.225,54.7168 Q64.4594,54.9668 64.4594,55.5762 L64.4594,57.0293 Q64.4594,57.6387 64.225,57.9043 Q63.9906,58.1699 63.6156,58.1699 Q63.2719,58.1699 63.0688,57.9668 Q62.8656,57.7793 62.7563,57.2637 Q62.7094,56.9043 62.5219,56.7168 Q62.1938,56.3418 61.5844,56.123 Q60.975,55.9043 60.35,55.9043 Q59.5844,55.9043 58.9438,56.2324 Q58.3188,56.5605 57.8188,57.3105 Q57.3344,58.0605 57.3344,59.0918 L57.3344,60.1855 Q57.3344,61.4199 58.225,62.248 Q59.1156,63.0605 60.7094,63.0605 Q61.6469,63.0605 62.3031,62.8105 Q62.6938,62.6543 63.1156,62.2168 Q63.3813,61.9512 63.5219,61.873 Q63.6781,61.7949 63.8813,61.7949 Q64.2094,61.7949 64.4594,62.0605 Q64.725,62.3105 64.725,62.6543 Q64.725,62.998 64.3813,63.4043 Q63.8813,63.9824 63.0844,64.3105 Q62.0063,64.7637 60.7094,64.7637 Q59.1938,64.7637 57.9906,64.1387 Q57.0063,63.6387 56.3188,62.5762 Q55.6313,61.498 55.6313,60.2168 L55.6313,59.0605 Q55.6313,57.7324 56.2406,56.5918 Q56.8656,55.4355 57.9594,54.8262 Q59.0531,54.2012 60.2875,54.2012 Q61.0219,54.2012 61.6625,54.373 Q62.3188,54.5293 62.8656,54.8887 Z " fill="#000000"/><text fill="#000000" font-family="sans-serif" font-size="14" lengthAdjust="spacing" textLength="36" x="77.9" y="64.8105">Client</text><line style="stroke:#181818;stroke-width:0.5;" x1="29" x2="133" y1="75.0137" y2="75.0137"/><text fill="#000000" font-family="sans-serif" font-size="14" lengthAdjust="spacing" textLength="51" x="34" y="94.1211">-clientID</text><text fill="#000000" font-family="sans-serif" font-size="14" lengthAdjust="spacing" textLength="40" x="34" y="112.7422">-name</text><text fill="#000000" font-family="sans-serif" font-size="14" lengthAdjust="spacing" textLength="38" x="34" y="131.3633">-email</text><text fill="#000000" font-family="sans-serif" font-size="14" lengthAdjust="spacing" textLength="65" x="34" y="149.9844">-password</text><text fill="#000000" font-family="sans-serif" font-size="14" lengthAdjust="spacing" textLength="63" x="34" y="168.6055">-birthDate</text><text fill="#000000" font-family="sans-serif" font-size="14" lengthAdjust="spacing" textLength="94" x="34" y="187.2266">-phoneNumber</text><text fill="#000000" font-family="sans-serif" font-size="14" lengthAdjust="spacing" textLength="56" x="34" y="205.8477">-address</text></g><!--class Weapon--><g id="elem_Weapon"><rect codeLine="22" fill="#F1F1F1" height="133.1055" id="Weapon" rx="2.5" ry="2.5" style="stroke:#181818;stroke-width:0.5;" width="86" x="38" y="610.0137"/><ellipse cx="53.45" cy="626.0137" fill="#ADD1B2" rx="11" ry="11" style="stroke:#181818;stroke-width:1.0;"/><path d="M56.2156,621.8887 Q56.3719,621.6699 56.5594,621.5605 Q56.7469,621.4512 56.9656,621.4512 Q57.3406,621.4512 57.575,621.7168 Q57.8094,621.9668 57.8094,622.5762 L57.8094,624.0293 Q57.8094,624.6387 57.575,624.9043 Q57.3406,625.1699 56.9656,625.1699 Q56.6219,625.1699 56.4188,624.9668 Q56.2156,624.7793 56.1063,624.2637 Q56.0594,623.9043 55.8719,623.7168 Q55.5438,623.3418 54.9344,623.123 Q54.325,622.9043 53.7,622.9043 Q52.9344,622.9043 52.2938,623.2324 Q51.6688,623.5605 51.1688,624.3105 Q50.6844,625.0605 50.6844,626.0918 L50.6844,627.1855 Q50.6844,628.4199 51.575,629.248 Q52.4656,630.0605 54.0594,630.0605 Q54.9969,630.0605 55.6531,629.8105 Q56.0438,629.6543 56.4656,629.2168 Q56.7313,628.9512 56.8719,628.873 Q57.0281,628.7949 57.2313,628.7949 Q57.5594,628.7949 57.8094,629.0605 Q58.075,629.3105 58.075,629.6543 Q58.075,629.998 57.7313,630.4043 Q57.2313,630.9824 56.4344,631.3105 Q55.3563,631.7637 54.0594,631.7637 Q52.5438,631.7637 51.3406,631.1387 Q50.3563,630.6387 49.6688,629.5762 Q48.9813,628.498 48.9813,627.2168 L48.9813,626.0605 Q48.9813,624.7324 49.5906,623.5918 Q50.2156,622.4355 51.3094,621.8262 Q52.4031,621.2012 53.6375,621.2012 Q54.3719,621.2012 55.0125,621.373 Q55.6688,621.5293 56.2156,621.8887 Z " fill="#000000"/><text fill="#000000" font-family="sans-serif" font-size="14" lengthAdjust="spacing" textLength="53" x="67.55" y="631.8105">Weapon</text><line style="stroke:#181818;stroke-width:0.5;" x1="39" x2="123" y1="642.0137" y2="642.0137"/><text fill="#000000" font-family="sans-serif" font-size="14" lengthAdjust="spacing" textLength="67" x="44" y="661.1211">-weaponID</text><text fill="#000000" font-family="sans-serif" font-size="14" lengthAdjust="spacing" textLength="40" x="44" y="679.7422">-name</text><text fill="#000000" font-family="sans-serif" font-size="14" lengthAdjust="spacing" textLength="36" x="44" y="698.3633">-price</text><text fill="#000000" font-family="sans-serif" font-size="14" lengthAdjust="spacing" textLength="74" x="44" y="716.9844">-description</text><text fill="#000000" font-family="sans-serif" font-size="14" lengthAdjust="spacing" textLength="43" x="44" y="735.6055">-image</text></g><!--class Order--><g id="elem_Order"><rect codeLine="32" fill="#F1F1F1" height="188.9688" id="Order" rx="2.5" ry="2.5" style="stroke:#181818;stroke-width:0.5;" width="118" x="22" y="317.0137"/><ellipse cx="59.05" cy="333.0137" fill="#ADD1B2" rx="11" ry="11" style="stroke:#181818;stroke-width:1.0;"/><path d="M61.8156,328.8887 Q61.9719,328.6699 62.1594,328.5605 Q62.3469,328.4512 62.5656,328.4512 Q62.9406,328.4512 63.175,328.7168 Q63.4094,328.9668 63.4094,329.5762 L63.4094,331.0293 Q63.4094,331.6387 63.175,331.9043 Q62.9406,332.1699 62.5656,332.1699 Q62.2219,332.1699 62.0188,331.9668 Q61.8156,331.7793 61.7063,331.2637 Q61.6594,330.9043 61.4719,330.7168 Q61.1438,330.3418 60.5344,330.123 Q59.925,329.9043 59.3,329.9043 Q58.5344,329.9043 57.8938,330.2324 Q57.2688,330.5605 56.7688,331.3105 Q56.2844,332.0605 56.2844,333.0918 L56.2844,334.1855 Q56.2844,335.4199 57.175,336.248 Q58.0656,337.0605 59.6594,337.0605 Q60.5969,337.0605 61.2531,336.8105 Q61.6438,336.6543 62.0656,336.2168 Q62.3313,335.9512 62.4719,335.873 Q62.6281,335.7949 62.8313,335.7949 Q63.1594,335.7949 63.4094,336.0605 Q63.675,336.3105 63.675,336.6543 Q63.675,336.998 63.3313,337.4043 Q62.8313,337.9824 62.0344,338.3105 Q60.9563,338.7637 59.6594,338.7637 Q58.1438,338.7637 56.9406,338.1387 Q55.9563,337.6387 55.2688,336.5762 Q54.5813,335.498 54.5813,334.2168 L54.5813,333.0605 Q54.5813,331.7324 55.1906,330.5918 Q55.8156,329.4355 56.9094,328.8262 Q58.0031,328.2012 59.2375,328.2012 Q59.9719,328.2012 60.6125,328.373 Q61.2688,328.5293 61.8156,328.8887 Z " fill="#000000"/><text fill="#000000" font-family="sans-serif" font-size="14" lengthAdjust="spacing" textLength="37" x="77.95" y="338.8105">Order</text><line style="stroke:#181818;stroke-width:0.5;" x1="23" x2="139" y1="349.0137" y2="349.0137"/><text fill="#000000" font-family="sans-serif" font-size="14" lengthAdjust="spacing" textLength="52" x="28" y="368.1211">-orderID</text><text fill="#000000" font-family="sans-serif" font-size="14" lengthAdjust="spacing" textLength="33" x="28" y="386.7422">-date</text><text fill="#000000" font-family="sans-serif" font-size="14" lengthAdjust="spacing" textLength="88" x="28" y="405.3633">-orderNumber</text><text fill="#000000" font-family="sans-serif" font-size="14" lengthAdjust="spacing" textLength="106" x="28" y="423.9844">-paymentMethod</text><text fill="#000000" font-family="sans-serif" font-size="14" lengthAdjust="spacing" textLength="64" x="28" y="442.6055">-totalPrice</text><text fill="#000000" font-family="sans-serif" font-size="14" lengthAdjust="spacing" textLength="105" x="28" y="461.2266">-shippingMethod</text><text fill="#000000" font-family="sans-serif" font-size="14" lengthAdjust="spacing" textLength="51" x="28" y="479.8477">-clientID</text><text fill="#000000" font-family="sans-serif" font-size="14" lengthAdjust="spacing" textLength="43" x="28" y="498.4688">-status</text></g><!--link Client to Order--><g id="link_Client_Order"><path codeLine="45" d="M81,213.0937 C81,245.6537 81,277.0737 81,310.5237 " fill="none" id="Client-to-Order" style="stroke:#181818;stroke-width:1.0;"/><polygon fill="#181818" points="81,316.5237,85,307.5237,81,311.5237,77,307.5237,81,316.5237" style="stroke:#181818;stroke-width:1.0;"/><polygon fill="#000000" points="86,259.6592,88.9389,250.6141,83.0611,250.6141,86,259.6592" style="stroke:#000000;stroke-width:1.0;"/><text fill="#000000" font-family="sans-serif" font-size="13" lengthAdjust="spacing" textLength="50" x="95" y="260.042">performs</text><text fill="#000000" font-family="sans-serif" font-size="13" lengthAdjust="spacing" textLength="7" x="73.6883" y="235.4539">1</text><text fill="#000000" font-family="sans-serif" font-size="13" lengthAdjust="spacing" textLength="5" x="75.8086" y="305.6409">*</text></g><!--link Order to Weapon--><g id="link_Order_Weapon"><path codeLine="46" d="M81,506.3537 C81,540.5737 81,572.5137 81,603.7737 " fill="none" id="Order-to-Weapon" style="stroke:#181818;stroke-width:1.0;"/><polygon fill="#181818" points="81,609.7737,85,600.7737,81,604.7737,77,600.7737,81,609.7737" style="stroke:#181818;stroke-width:1.0;"/><polygon fill="#000000" points="86,552.6592,88.9389,543.6141,83.0611,543.6141,86,552.6592" style="stroke:#000000;stroke-width:1.0;"/><text fill="#000000" font-family="sans-serif" font-size="13" lengthAdjust="spacing" textLength="21" x="95" y="553.042">has</text><text fill="#000000" font-family="sans-serif" font-size="13" lengthAdjust="spacing" textLength="7" x="73.743" y="527.9829">1</text><text fill="#000000" font-family="sans-serif" font-size="13" lengthAdjust="spacing" textLength="5" x="75.7266" y="598.5828">*</text></g><!--SRC=[JL3BQiCm4BplLmXV2WNLxJM7G6akEVG1fVIybhRH4kk1j2QqeVzUMSPDX61VmypEtZYHL3PzdqOCCldnpaJVcn5BqPRnaD63OqlAaxXe2vGZXuIrhHheKIJpC0djJGpl_4Fg7kQNq1pnGEgZK2vdQ5ZrD385EOCsBTdlG0Vq19eyyWWwLT0fPWjwu2nkXr9doSL0BvCVA8D6QpEL0hym_rNaap35y2-pb5Ncr9ABJCfiQh1KJEOa70DezfMXabtHlMPxjNIhAbcSuynbsrgjNDTA-EsheUTs8z0I1SUtHQmuJed3OPrTh1T1cLOhosbKzz1flUrkkqLMRLIY_1MpBseBI-i2MNnMZCDv_0S0]--></g></svg>