<?xml version="1.0" encoding="us-ascii" standalone="no"?><svg xmlns="http://www.w3.org/2000/svg" xmlns:xlink="http://www.w3.org/1999/xlink" contentStyleType="text/css" height="693px" preserveAspectRatio="none" style="width:1435px;height:693px;background:#FAFDFF;" version="1.1" viewBox="0 0 1435 693" width="1435px" zoomAndPan="magnify"><defs/><g><rect fill="#FAFDFF" height="693" style="stroke:none;stroke-width:1.0;" width="1435" x="0" y="0"/><text fill="#000000" font-family="sans-serif" font-size="14" font-weight="bold" lengthAdjust="spacing" textLength="355" x="541.75" y="30.1074">US 09 - View a history of all my previous purchases</text><rect fill="#C2F0FF" height="468.4922" style="stroke:#1E90FF;stroke-width:1.0;" width="10" x="23.5" y="133.2422"/><rect fill="#C2F0FF" height="436.2012" style="stroke:#1E90FF;stroke-width:1.0;" width="10" x="174.5" y="156.5332"/><rect fill="#C2F0FF" height="373.6191" style="stroke:#1E90FF;stroke-width:1.0;" width="10" x="335" y="187.8242"/><rect fill="#C2F0FF" height="61.291" style="stroke:#1E90FF;stroke-width:1.0;" width="10" x="501.5" y="369.2793"/><rect fill="#C2F0FF" height="311.0371" style="stroke:#1E90FF;stroke-width:1.0;" width="10" x="734.5" y="219.1152"/><rect fill="#C2F0FF" height="30" style="stroke:#1E90FF;stroke-width:1.0;" width="10" x="875" y="400.5703"/><rect fill="#C2F0FF" height="61.291" style="stroke:#1E90FF;stroke-width:1.0;" width="10" x="1021.5" y="250.4063"/><rect fill="#C2F0FF" height="30" style="stroke:#1E90FF;stroke-width:1.0;" width="10" x="1181" y="281.6973"/><rect fill="#C2F0FF" height="30" style="stroke:#1E90FF;stroke-width:1.0;" width="10" x="1337.5" y="461.8613"/><rect fill="none" height="173.1641" style="stroke:#082642;stroke-width:1.5;" width="1007" x="422.5" y="326.6973"/><line style="stroke:#1E90FF;stroke-width:0.5;stroke-dasharray:5.0,5.0;" x1="28" x2="28" y1="123.2422" y2="610.7344"/><line style="stroke:#1E90FF;stroke-width:0.5;stroke-dasharray:5.0,5.0;" x1="179.5" x2="179.5" y1="123.2422" y2="610.7344"/><line style="stroke:#1E90FF;stroke-width:0.5;stroke-dasharray:5.0,5.0;" x1="339.5" x2="339.5" y1="123.2422" y2="610.7344"/><line style="stroke:#1E90FF;stroke-width:0.5;stroke-dasharray:5.0,5.0;" x1="506.5" x2="506.5" y1="123.2422" y2="610.7344"/><line style="stroke:#1E90FF;stroke-width:0.5;stroke-dasharray:5.0,5.0;" x1="739.5" x2="739.5" y1="123.2422" y2="610.7344"/><line style="stroke:#1E90FF;stroke-width:0.5;stroke-dasharray:5.0,5.0;" x1="879.5" x2="879.5" y1="123.2422" y2="610.7344"/><line style="stroke:#1E90FF;stroke-width:0.5;stroke-dasharray:5.0,5.0;" x1="1026.5" x2="1026.5" y1="123.2422" y2="610.7344"/><line style="stroke:#1E90FF;stroke-width:0.5;stroke-dasharray:5.0,5.0;" x1="1185.5" x2="1185.5" y1="123.2422" y2="610.7344"/><line style="stroke:#1E90FF;stroke-width:0.5;stroke-dasharray:5.0,5.0;" x1="1342.5" x2="1342.5" y1="123.2422" y2="610.7344"/><text fill="#000000" font-family="sans-serif" font-size="14" font-weight="bold" lengthAdjust="spacing" textLength="41" x="5" y="119.7285">Client</text><ellipse cx="28.5" cy="53.1211" fill="#C2F0FF" rx="8" ry="8" style="stroke:#1E90FF;stroke-width:0.5;"/><path d="M28.5,61.1211 L28.5,88.1211 M15.5,69.1211 L41.5,69.1211 M28.5,88.1211 L15.5,103.1211 M28.5,88.1211 L41.5,103.1211 " fill="none" style="stroke:#1E90FF;stroke-width:0.5;"/><text fill="#000000" font-family="sans-serif" font-size="14" font-weight="bold" lengthAdjust="spacing" textLength="41" x="5" y="624.8418">Client</text><ellipse cx="28.5" cy="636.8555" fill="#C2F0FF" rx="8" ry="8" style="stroke:#1E90FF;stroke-width:0.5;"/><path d="M28.5,644.8555 L28.5,671.8555 M15.5,652.8555 L41.5,652.8555 M28.5,671.8555 L15.5,686.8555 M28.5,671.8555 L41.5,686.8555 " fill="none" style="stroke:#1E90FF;stroke-width:0.5;"/><rect fill="#FFFFFF" height="32.6211" rx="2.5" ry="2.5" style="stroke:#1E90FF;stroke-width:0.5;" width="136" x="111.5" y="89.6211"/><text fill="#000000" font-family="sans-serif" font-size="14" font-weight="bold" lengthAdjust="spacing" textLength="122" x="118.5" y="111.7285">:DashboardRoute</text><rect fill="#FFFFFF" height="32.6211" rx="2.5" ry="2.5" style="stroke:#1E90FF;stroke-width:0.5;" width="136" x="111.5" y="609.7344"/><text fill="#000000" font-family="sans-serif" font-size="14" font-weight="bold" lengthAdjust="spacing" textLength="122" x="118.5" y="631.8418">:DashboardRoute</text><rect fill="#FFFFFF" height="32.6211" rx="2.5" ry="2.5" style="stroke:#1E90FF;stroke-width:0.5;" width="165" x="257.5" y="89.6211"/><text fill="#000000" font-family="sans-serif" font-size="14" font-weight="bold" lengthAdjust="spacing" textLength="151" x="264.5" y="111.7285">:DashboardController</text><rect fill="#FFFFFF" height="32.6211" rx="2.5" ry="2.5" style="stroke:#1E90FF;stroke-width:0.5;" width="165" x="257.5" y="609.7344"/><text fill="#000000" font-family="sans-serif" font-size="14" font-weight="bold" lengthAdjust="spacing" textLength="151" x="264.5" y="631.8418">:DashboardController</text><rect fill="#FFFFFF" height="32.6211" rx="2.5" ry="2.5" style="stroke:#1E90FF;stroke-width:0.5;" width="148" x="432.5" y="89.6211"/><text fill="#000000" font-family="sans-serif" font-size="14" font-weight="bold" lengthAdjust="spacing" textLength="134" x="439.5" y="111.7285">:DashboardMapper</text><rect fill="#FFFFFF" height="32.6211" rx="2.5" ry="2.5" style="stroke:#1E90FF;stroke-width:0.5;" width="148" x="432.5" y="609.7344"/><text fill="#000000" font-family="sans-serif" font-size="14" font-weight="bold" lengthAdjust="spacing" textLength="134" x="439.5" y="631.8418">:DashboardMapper</text><rect fill="#FFFFFF" height="32.6211" rx="2.5" ry="2.5" style="stroke:#1E90FF;stroke-width:0.5;" width="148" x="665.5" y="89.6211"/><text fill="#000000" font-family="sans-serif" font-size="14" font-weight="bold" lengthAdjust="spacing" textLength="134" x="672.5" y="111.7285">:DashboardService</text><rect fill="#FFFFFF" height="32.6211" rx="2.5" ry="2.5" style="stroke:#1E90FF;stroke-width:0.5;" width="148" x="665.5" y="609.7344"/><text fill="#000000" font-family="sans-serif" font-size="14" font-weight="bold" lengthAdjust="spacing" textLength="134" x="672.5" y="631.8418">:DashboardService</text><rect fill="#FFFFFF" height="51.2422" rx="2.5" ry="2.5" style="stroke:#1E90FF;stroke-width:0.5;" width="113" x="823.5" y="71"/><text fill="#000000" font-family="sans-serif" font-size="14" font-weight="bold" lengthAdjust="spacing" textLength="95" x="832.5" y="93.1074">purchaseDTO</text><text fill="#000000" font-family="sans-serif" font-size="14" font-weight="bold" lengthAdjust="spacing" textLength="99" x="830.5" y="111.7285">:PurchaseDTO</text><rect fill="#FFFFFF" height="51.2422" rx="2.5" ry="2.5" style="stroke:#1E90FF;stroke-width:0.5;" width="113" x="823.5" y="609.7344"/><text fill="#000000" font-family="sans-serif" font-size="14" font-weight="bold" lengthAdjust="spacing" textLength="95" x="832.5" y="631.8418">purchaseDTO</text><text fill="#000000" font-family="sans-serif" font-size="14" font-weight="bold" lengthAdjust="spacing" textLength="99" x="830.5" y="650.4629">:PurchaseDTO</text><rect fill="#FFFFFF" height="32.6211" rx="2.5" ry="2.5" style="stroke:#1E90FF;stroke-width:0.5;" width="160" x="946.5" y="89.6211"/><text fill="#000000" font-family="sans-serif" font-size="14" font-weight="bold" lengthAdjust="spacing" textLength="146" x="953.5" y="111.7285">:PurchaseRepository</text><rect fill="#FFFFFF" height="32.6211" rx="2.5" ry="2.5" style="stroke:#1E90FF;stroke-width:0.5;" width="160" x="946.5" y="609.7344"/><text fill="#000000" font-family="sans-serif" font-size="14" font-weight="bold" lengthAdjust="spacing" textLength="146" x="953.5" y="631.8418">:PurchaseRepository</text><rect fill="#FFFFFF" height="32.6211" rx="2.5" ry="2.5" style="stroke:#1E90FF;stroke-width:0.5;" width="139" x="1116.5" y="89.6211"/><text fill="#000000" font-family="sans-serif" font-size="14" font-weight="bold" lengthAdjust="spacing" textLength="125" x="1123.5" y="111.7285">:PurchaseSchema</text><rect fill="#FFFFFF" height="32.6211" rx="2.5" ry="2.5" style="stroke:#1E90FF;stroke-width:0.5;" width="139" x="1116.5" y="609.7344"/><text fill="#000000" font-family="sans-serif" font-size="14" font-weight="bold" lengthAdjust="spacing" textLength="125" x="1123.5" y="631.8418">:PurchaseSchema</text><rect fill="#FFFFFF" height="51.2422" rx="2.5" ry="2.5" style="stroke:#1E90FF;stroke-width:0.5;" width="154" x="1265.5" y="71"/><text fill="#000000" font-family="sans-serif" font-size="14" font-weight="bold" lengthAdjust="spacing" textLength="116" x="1284.5" y="93.1074">listPurchaseDTO</text><text fill="#000000" font-family="sans-serif" font-size="14" font-weight="bold" lengthAdjust="spacing" textLength="140" x="1272.5" y="111.7285">:List&lt;PurchaseDTO&gt;</text><rect fill="#FFFFFF" height="51.2422" rx="2.5" ry="2.5" style="stroke:#1E90FF;stroke-width:0.5;" width="154" x="1265.5" y="609.7344"/><text fill="#000000" font-family="sans-serif" font-size="14" font-weight="bold" lengthAdjust="spacing" textLength="116" x="1284.5" y="631.8418">listPurchaseDTO</text><text fill="#000000" font-family="sans-serif" font-size="14" font-weight="bold" lengthAdjust="spacing" textLength="140" x="1272.5" y="650.4629">:List&lt;PurchaseDTO&gt;</text><rect fill="#C2F0FF" height="468.4922" style="stroke:#1E90FF;stroke-width:1.0;" width="10" x="23.5" y="133.2422"/><rect fill="#C2F0FF" height="436.2012" style="stroke:#1E90FF;stroke-width:1.0;" width="10" x="174.5" y="156.5332"/><rect fill="#C2F0FF" height="373.6191" style="stroke:#1E90FF;stroke-width:1.0;" width="10" x="335" y="187.8242"/><rect fill="#C2F0FF" height="61.291" style="stroke:#1E90FF;stroke-width:1.0;" width="10" x="501.5" y="369.2793"/><rect fill="#C2F0FF" height="311.0371" style="stroke:#1E90FF;stroke-width:1.0;" width="10" x="734.5" y="219.1152"/><rect fill="#C2F0FF" height="30" style="stroke:#1E90FF;stroke-width:1.0;" width="10" x="875" y="400.5703"/><rect fill="#C2F0FF" height="61.291" style="stroke:#1E90FF;stroke-width:1.0;" width="10" x="1021.5" y="250.4063"/><rect fill="#C2F0FF" height="30" style="stroke:#1E90FF;stroke-width:1.0;" width="10" x="1181" y="281.6973"/><rect fill="#C2F0FF" height="30" style="stroke:#1E90FF;stroke-width:1.0;" width="10" x="1337.5" y="461.8613"/><polygon fill="#1E90FF" points="162.5,152.5332,172.5,156.5332,162.5,160.5332,166.5,156.5332" style="stroke:#1E90FF;stroke-width:1.0;"/><line style="stroke:#1E90FF;stroke-width:1.0;" x1="33.5" x2="168.5" y1="156.5332" y2="156.5332"/><text fill="#000000" font-family="sans-serif" font-size="13" font-weight="bold" lengthAdjust="spacing" textLength="7" x="44" y="151.2705">1</text><text fill="#000000" font-family="sans-serif" font-size="13" lengthAdjust="spacing" textLength="109" x="55" y="151.2705">HTTP request (get)</text><polygon fill="#1E90FF" points="323,183.8242,333,187.8242,323,191.8242,327,187.8242" style="stroke:#1E90FF;stroke-width:1.0;"/><line style="stroke:#1E90FF;stroke-width:1.0;" x1="184.5" x2="329" y1="187.8242" y2="187.8242"/><text fill="#000000" font-family="sans-serif" font-size="13" font-weight="bold" lengthAdjust="spacing" textLength="7" x="202.75" y="182.5615">2</text><text fill="#000000" font-family="sans-serif" font-size="13" lengthAdjust="spacing" textLength="103" x="213.75" y="182.5615">get(req, res, next)</text><polygon fill="#1E90FF" points="722.5,215.1152,732.5,219.1152,722.5,223.1152,726.5,219.1152" style="stroke:#1E90FF;stroke-width:1.0;"/><line style="stroke:#1E90FF;stroke-width:1.0;" x1="345" x2="728.5" y1="219.1152" y2="219.1152"/><text fill="#000000" font-family="sans-serif" font-size="13" font-weight="bold" lengthAdjust="spacing" textLength="7" x="490.25" y="213.8525">3</text><text fill="#000000" font-family="sans-serif" font-size="13" lengthAdjust="spacing" textLength="88" x="501.25" y="213.8525">getPurchases()</text><polygon fill="#1E90FF" points="1009.5,246.4063,1019.5,250.4063,1009.5,254.4063,1013.5,250.4063" style="stroke:#1E90FF;stroke-width:1.0;"/><line style="stroke:#1E90FF;stroke-width:1.0;" x1="744.5" x2="1015.5" y1="250.4063" y2="250.4063"/><text fill="#000000" font-family="sans-serif" font-size="13" font-weight="bold" lengthAdjust="spacing" textLength="7" x="786" y="245.1436">4</text><text fill="#000000" font-family="sans-serif" font-size="13" lengthAdjust="spacing" textLength="183" x="797" y="245.1436">listPurchases = getPurchases()</text><polygon fill="#1E90FF" points="1169,277.6973,1179,281.6973,1169,285.6973,1173,281.6973" style="stroke:#1E90FF;stroke-width:1.0;"/><line style="stroke:#1E90FF;stroke-width:1.0;" x1="1031.5" x2="1175" y1="281.6973" y2="281.6973"/><text fill="#000000" font-family="sans-serif" font-size="13" font-weight="bold" lengthAdjust="spacing" textLength="7" x="1086.75" y="276.4346">5</text><text fill="#000000" font-family="sans-serif" font-size="13" lengthAdjust="spacing" textLength="28" x="1097.75" y="276.4346">find()</text><path d="M422.5,326.6973 L495.5,326.6973 L495.5,335.9883 L485.5,345.9883 L422.5,345.9883 L422.5,326.6973 " fill="#C2F0FF" style="stroke:#082642;stroke-width:1.5;"/><rect fill="none" height="173.1641" style="stroke:#082642;stroke-width:1.5;" width="1007" x="422.5" y="326.6973"/><text fill="#000000" font-family="sans-serif" font-size="13" font-weight="bold" lengthAdjust="spacing" textLength="28" x="437.5" y="341.7256">loop</text><a href="listPurchase" target="_top" title="listPurchase" xlink:actuate="onRequest" xlink:href="listPurchase" xlink:show="new" xlink:title="listPurchase" xlink:type="simple"><text fill="#0000FF" font-family="sans-serif" font-size="11" font-weight="bold" lengthAdjust="spacing" text-decoration="underline" textLength="69" x="510.5" y="340.5674">listPurchase</text></a><polygon fill="#1E90FF" points="522.5,365.2793,512.5,369.2793,522.5,373.2793,518.5,369.2793" style="stroke:#1E90FF;stroke-width:1.0;"/><line style="stroke:#1E90FF;stroke-width:1.0;" x1="516.5" x2="733.5" y1="369.2793" y2="369.2793"/><text fill="#000000" font-family="sans-serif" font-size="13" font-weight="bold" lengthAdjust="spacing" textLength="7" x="521" y="364.0166">6</text><text fill="#000000" font-family="sans-serif" font-size="13" lengthAdjust="spacing" textLength="193" x="532" y="364.0166">purchaseDTO = toDTO(purchase)</text><polygon fill="#1E90FF" points="863,396.5703,873,400.5703,863,404.5703,867,400.5703" style="stroke:#1E90FF;stroke-width:1.0;"/><line style="stroke:#1E90FF;stroke-width:1.0;" x1="511.5" x2="869" y1="400.5703" y2="400.5703"/><text fill="#000000" font-family="sans-serif" font-size="13" font-weight="bold" lengthAdjust="spacing" textLength="7" x="665.75" y="395.3076">7</text><text fill="#000000" font-family="sans-serif" font-size="13" lengthAdjust="spacing" textLength="44" x="676.75" y="395.3076">create()</text><polygon fill="#1E90FF" points="1325.5,457.8613,1335.5,461.8613,1325.5,465.8613,1329.5,461.8613" style="stroke:#1E90FF;stroke-width:1.0;"/><line style="stroke:#1E90FF;stroke-width:1.0;" x1="744.5" x2="1331.5" y1="461.8613" y2="461.8613"/><text fill="#000000" font-family="sans-serif" font-size="13" font-weight="bold" lengthAdjust="spacing" textLength="7" x="981.5" y="456.5986">8</text><text fill="#000000" font-family="sans-serif" font-size="13" lengthAdjust="spacing" textLength="108" x="992.5" y="456.5986">add(purchaseDTO)</text><polygon fill="#1E90FF" points="356,526.1523,346,530.1523,356,534.1523,352,530.1523" style="stroke:#1E90FF;stroke-width:1.0;"/><line style="stroke:#1E90FF;stroke-width:1.0;" x1="350" x2="738.5" y1="530.1523" y2="530.1523"/><text fill="#000000" font-family="sans-serif" font-size="13" font-weight="bold" lengthAdjust="spacing" textLength="7" x="487.75" y="524.8896">9</text><text fill="#000000" font-family="sans-serif" font-size="13" lengthAdjust="spacing" textLength="98" x="498.75" y="524.8896">listPurchaseDTO</text><polygon fill="#1E90FF" points="195.5,557.4434,185.5,561.4434,195.5,565.4434,191.5,561.4434" style="stroke:#1E90FF;stroke-width:1.0;"/><line style="stroke:#1E90FF;stroke-width:1.0;" x1="189.5" x2="339" y1="561.4434" y2="561.4434"/><text fill="#000000" font-family="sans-serif" font-size="13" font-weight="bold" lengthAdjust="spacing" textLength="14" x="204.25" y="556.1807">10</text><text fill="#000000" font-family="sans-serif" font-size="13" lengthAdjust="spacing" textLength="98" x="222.25" y="556.1807">listPurchaseDTO</text><polygon fill="#1E90FF" points="44.5,588.7344,34.5,592.7344,44.5,596.7344,40.5,592.7344" style="stroke:#1E90FF;stroke-width:1.0;"/><line style="stroke:#1E90FF;stroke-width:1.0;" x1="38.5" x2="178.5" y1="592.7344" y2="592.7344"/><text fill="#000000" font-family="sans-serif" font-size="13" font-weight="bold" lengthAdjust="spacing" textLength="14" x="48" y="587.4717">11</text><text fill="#000000" font-family="sans-serif" font-size="13" lengthAdjust="spacing" textLength="99" x="66" y="587.4717">List of purchases</text><!--SRC=[nPHTJzim58Rl_IkEu89EeXf2qxHL32auZ26bD4gwxMARa4bEMeiqpcm7XgRzzvsuZUeKo2Nu8b7ivptVyS4ujGybZbzuCIOQgwfcTOEQCNChgrfeiO8G2z6KTev_R53AHRN2oa96Zpvs9hBRXLPDbNDLAWtxXIZoel0HUbgPoLgGWRyCQEsAWk_fzTd5DPz5isGDA9sZzWvdINYUR81_ld63lnkiCjnOZcI1aQpGDn2gV87wh6omZ-m64SVH9G_cbxChvi0WiqeFKLleQMzFvhh_sQsrM6jr_sIG0_77st8E-RqWdxKFx1zzE7x_xjWx74YDQdmmdalx6lDeMxVmDOMZZp26RnBlGS1I6Yhq0wW2H5d2wW5gZNTIDGRgHcTBOT2qCRj-cBTUaSoB_4EjMzWxkJdbfQIVP0-4WO3vezyUJa9XbZTAw3nHZKL7yMG0uwgoMfKbwZNB1zYfgEkEcmvmAUexcMsSfu_0hfpXVFQpQeNnTcEj2HyRxvW4QsLaswbDRkVnyt2QBN4bDd4ypgoabiUxmKIqUUBjdZfvH36vxXkZCYciL9LvoHiqi_9EMAIEim36fvJt1BxCvp7ezdeo5aOBj6-s7FMSySIHV09qDYBma6Xp21NTk3xA2UKEJS6nNVPcv6CfetFd-ZmcpY-UWK_FwzeEEOtpm4bQo2hlc-OinsS_MmEiLAg67xxJNrqyKpBfpHJ5OXMzHzsUxsdA26z58OaoZRJPYoJiUUv_aJObQUIq8iz7dbFFHjINkSd1AcTTk7odUAJkPzzr8ndcUDVXO0BjqBOtr_QcwXMG1lTL5liF]--></g></svg>