<?xml version="1.0" encoding="us-ascii" standalone="no"?><svg xmlns="http://www.w3.org/2000/svg" xmlns:xlink="http://www.w3.org/1999/xlink" contentStyleType="text/css" height="722px" preserveAspectRatio="none" style="width:1658px;height:722px;background:#FAFDFF;" version="1.1" viewBox="0 0 1658 722" width="1658px" zoomAndPan="magnify"><defs/><g><rect fill="#FAFDFF" height="722" style="stroke:none;stroke-width:1.0;" width="1658" x="0" y="0"/><text fill="#000000" font-family="sans-serif" font-size="14" font-weight="bold" lengthAdjust="spacing" textLength="217" x="719.5" y="30.1074">US 04 - Approve/deny a license</text><rect fill="#C2F0FF" height="497.4434" style="stroke:#1E90FF;stroke-width:1.0;" width="10" x="23.5" y="133.2422"/><rect fill="#C2F0FF" height="465.1523" style="stroke:#1E90FF;stroke-width:1.0;" width="10" x="189.5" y="156.5332"/><rect fill="#C2F0FF" height="402.5703" style="stroke:#1E90FF;stroke-width:1.0;" width="10" x="350.5" y="187.8242"/><rect fill="#C2F0FF" height="61.291" style="stroke:#1E90FF;stroke-width:1.0;" width="10" x="496" y="466.5215"/><rect fill="#C2F0FF" height="339.9883" style="stroke:#1E90FF;stroke-width:1.0;" width="10" x="697" y="219.1152"/><rect fill="#C2F0FF" height="30" style="stroke:#1E90FF;stroke-width:1.0;" width="10" x="1077" y="497.8125"/><rect fill="#C2F0FF" height="61.291" style="stroke:#1E90FF;stroke-width:1.0;" width="10" x="1212.5" y="373.9395"/><rect fill="#C2F0FF" height="30" style="stroke:#1E90FF;stroke-width:1.0;" width="10" x="1361" y="405.2305"/><rect fill="#C2F0FF" height="30" style="stroke:#1E90FF;stroke-width:1.0;" width="10" x="1541" y="250.4063"/><line style="stroke:#1E90FF;stroke-width:0.5;stroke-dasharray:5.0,5.0;" x1="28" x2="28" y1="123.2422" y2="639.6855"/><line style="stroke:#1E90FF;stroke-width:0.5;stroke-dasharray:5.0,5.0;" x1="194" x2="194" y1="123.2422" y2="639.6855"/><line style="stroke:#1E90FF;stroke-width:0.5;stroke-dasharray:5.0,5.0;" x1="355.5" x2="355.5" y1="123.2422" y2="639.6855"/><line style="stroke:#1E90FF;stroke-width:0.5;stroke-dasharray:5.0,5.0;" x1="500.5" x2="500.5" y1="123.2422" y2="639.6855"/><line style="stroke:#1E90FF;stroke-width:0.5;stroke-dasharray:5.0,5.0;" x1="701.5" x2="701.5" y1="123.2422" y2="639.6855"/><line style="stroke:#1E90FF;stroke-width:0.5;stroke-dasharray:5.0,5.0;" x1="984" x2="984" y1="329.5273" y2="639.6855"/><line style="stroke:#1E90FF;stroke-width:0.5;stroke-dasharray:5.0,5.0;" x1="1082" x2="1082" y1="123.2422" y2="639.6855"/><line style="stroke:#1E90FF;stroke-width:0.5;stroke-dasharray:5.0,5.0;" x1="1217" x2="1217" y1="123.2422" y2="639.6855"/><line style="stroke:#1E90FF;stroke-width:0.5;stroke-dasharray:5.0,5.0;" x1="1366" x2="1366" y1="123.2422" y2="639.6855"/><line style="stroke:#1E90FF;stroke-width:0.5;stroke-dasharray:5.0,5.0;" x1="1546" x2="1546" y1="123.2422" y2="639.6855"/><text fill="#000000" font-family="sans-serif" font-size="14" font-weight="bold" lengthAdjust="spacing" textLength="41" x="5" y="119.7285">Client</text><ellipse cx="28.5" cy="53.1211" fill="#C2F0FF" rx="8" ry="8" style="stroke:#1E90FF;stroke-width:0.5;"/><path d="M28.5,61.1211 L28.5,88.1211 M15.5,69.1211 L41.5,69.1211 M28.5,88.1211 L15.5,103.1211 M28.5,88.1211 L41.5,103.1211 " fill="none" style="stroke:#1E90FF;stroke-width:0.5;"/><text fill="#000000" font-family="sans-serif" font-size="14" font-weight="bold" lengthAdjust="spacing" textLength="41" x="5" y="653.793">Client</text><ellipse cx="28.5" cy="665.8066" fill="#C2F0FF" rx="8" ry="8" style="stroke:#1E90FF;stroke-width:0.5;"/><path d="M28.5,673.8066 L28.5,700.8066 M15.5,681.8066 L41.5,681.8066 M28.5,700.8066 L15.5,715.8066 M28.5,700.8066 L41.5,715.8066 " fill="none" style="stroke:#1E90FF;stroke-width:0.5;"/><rect fill="#FFFFFF" height="32.6211" rx="2.5" ry="2.5" style="stroke:#1E90FF;stroke-width:0.5;" width="115" x="137" y="89.6211"/><text fill="#000000" font-family="sans-serif" font-size="14" font-weight="bold" lengthAdjust="spacing" textLength="101" x="144" y="111.7285">:LicenseRoute</text><rect fill="#FFFFFF" height="32.6211" rx="2.5" ry="2.5" style="stroke:#1E90FF;stroke-width:0.5;" width="115" x="137" y="638.6855"/><text fill="#000000" font-family="sans-serif" font-size="14" font-weight="bold" lengthAdjust="spacing" textLength="101" x="144" y="660.793">:LicenseRoute</text><rect fill="#FFFFFF" height="32.6211" rx="2.5" ry="2.5" style="stroke:#1E90FF;stroke-width:0.5;" width="144" x="283.5" y="89.6211"/><text fill="#000000" font-family="sans-serif" font-size="14" font-weight="bold" lengthAdjust="spacing" textLength="130" x="290.5" y="111.7285">:LicenseController</text><rect fill="#FFFFFF" height="32.6211" rx="2.5" ry="2.5" style="stroke:#1E90FF;stroke-width:0.5;" width="144" x="283.5" y="638.6855"/><text fill="#000000" font-family="sans-serif" font-size="14" font-weight="bold" lengthAdjust="spacing" textLength="130" x="290.5" y="660.793">:LicenseController</text><rect fill="#FFFFFF" height="32.6211" rx="2.5" ry="2.5" style="stroke:#1E90FF;stroke-width:0.5;" width="127" x="437.5" y="89.6211"/><text fill="#000000" font-family="sans-serif" font-size="14" font-weight="bold" lengthAdjust="spacing" textLength="113" x="444.5" y="111.7285">:LicenseMapper</text><rect fill="#FFFFFF" height="32.6211" rx="2.5" ry="2.5" style="stroke:#1E90FF;stroke-width:0.5;" width="127" x="437.5" y="638.6855"/><text fill="#000000" font-family="sans-serif" font-size="14" font-weight="bold" lengthAdjust="spacing" textLength="113" x="444.5" y="660.793">:LicenseMapper</text><rect fill="#FFFFFF" height="32.6211" rx="2.5" ry="2.5" style="stroke:#1E90FF;stroke-width:0.5;" width="127" x="638.5" y="89.6211"/><text fill="#000000" font-family="sans-serif" font-size="14" font-weight="bold" lengthAdjust="spacing" textLength="113" x="645.5" y="111.7285">:LicenseService</text><rect fill="#FFFFFF" height="32.6211" rx="2.5" ry="2.5" style="stroke:#1E90FF;stroke-width:0.5;" width="127" x="638.5" y="638.6855"/><text fill="#000000" font-family="sans-serif" font-size="14" font-weight="bold" lengthAdjust="spacing" textLength="113" x="645.5" y="660.793">:LicenseService</text><rect fill="#FFFFFF" height="51.2422" rx="2.5" ry="2.5" style="stroke:#1E90FF;stroke-width:0.5;" width="73" x="948" y="638.6855"/><text fill="#000000" font-family="sans-serif" font-size="14" font-weight="bold" lengthAdjust="spacing" textLength="51" x="959" y="660.793">license</text><text fill="#000000" font-family="sans-serif" font-size="14" font-weight="bold" lengthAdjust="spacing" textLength="59" x="955" y="679.4141">:License</text><rect fill="#FFFFFF" height="51.2422" rx="2.5" ry="2.5" style="stroke:#1E90FF;stroke-width:0.5;" width="102" x="1031" y="71"/><text fill="#000000" font-family="sans-serif" font-size="14" font-weight="bold" lengthAdjust="spacing" textLength="80" x="1042" y="93.1074">licenseDTO</text><text fill="#000000" font-family="sans-serif" font-size="14" font-weight="bold" lengthAdjust="spacing" textLength="88" x="1038" y="111.7285">:LicenseDTO</text><rect fill="#FFFFFF" height="51.2422" rx="2.5" ry="2.5" style="stroke:#1E90FF;stroke-width:0.5;" width="102" x="1031" y="638.6855"/><text fill="#000000" font-family="sans-serif" font-size="14" font-weight="bold" lengthAdjust="spacing" textLength="80" x="1042" y="660.793">licenseDTO</text><text fill="#000000" font-family="sans-serif" font-size="14" font-weight="bold" lengthAdjust="spacing" textLength="88" x="1038" y="679.4141">:LicenseDTO</text><rect fill="#FFFFFF" height="32.6211" rx="2.5" ry="2.5" style="stroke:#1E90FF;stroke-width:0.5;" width="149" x="1143" y="89.6211"/><text fill="#000000" font-family="sans-serif" font-size="14" font-weight="bold" lengthAdjust="spacing" textLength="135" x="1150" y="111.7285">:LicenseRepository</text><rect fill="#FFFFFF" height="32.6211" rx="2.5" ry="2.5" style="stroke:#1E90FF;stroke-width:0.5;" width="149" x="1143" y="638.6855"/><text fill="#000000" font-family="sans-serif" font-size="14" font-weight="bold" lengthAdjust="spacing" textLength="135" x="1150" y="660.793">:LicenseRepository</text><rect fill="#FFFFFF" height="32.6211" rx="2.5" ry="2.5" style="stroke:#1E90FF;stroke-width:0.5;" width="128" x="1302" y="89.6211"/><text fill="#000000" font-family="sans-serif" font-size="14" font-weight="bold" lengthAdjust="spacing" textLength="114" x="1309" y="111.7285">:LicenseSchema</text><rect fill="#FFFFFF" height="32.6211" rx="2.5" ry="2.5" style="stroke:#1E90FF;stroke-width:0.5;" width="128" x="1302" y="638.6855"/><text fill="#000000" font-family="sans-serif" font-size="14" font-weight="bold" lengthAdjust="spacing" textLength="114" x="1309" y="660.793">:LicenseSchema</text><rect fill="#FFFFFF" height="32.6211" rx="2.5" ry="2.5" style="stroke:#1E90FF;stroke-width:0.5;" width="212" x="1440" y="89.6211"/><text fill="#000000" font-family="sans-serif" font-size="14" font-weight="bold" lengthAdjust="spacing" textLength="198" x="1447" y="111.7285">:LicenseApprovalRepository</text><rect fill="#FFFFFF" height="32.6211" rx="2.5" ry="2.5" style="stroke:#1E90FF;stroke-width:0.5;" width="212" x="1440" y="638.6855"/><text fill="#000000" font-family="sans-serif" font-size="14" font-weight="bold" lengthAdjust="spacing" textLength="198" x="1447" y="660.793">:LicenseApprovalRepository</text><rect fill="#C2F0FF" height="497.4434" style="stroke:#1E90FF;stroke-width:1.0;" width="10" x="23.5" y="133.2422"/><rect fill="#C2F0FF" height="465.1523" style="stroke:#1E90FF;stroke-width:1.0;" width="10" x="189.5" y="156.5332"/><rect fill="#C2F0FF" height="402.5703" style="stroke:#1E90FF;stroke-width:1.0;" width="10" x="350.5" y="187.8242"/><rect fill="#C2F0FF" height="61.291" style="stroke:#1E90FF;stroke-width:1.0;" width="10" x="496" y="466.5215"/><rect fill="#C2F0FF" height="339.9883" style="stroke:#1E90FF;stroke-width:1.0;" width="10" x="697" y="219.1152"/><rect fill="#C2F0FF" height="30" style="stroke:#1E90FF;stroke-width:1.0;" width="10" x="1077" y="497.8125"/><rect fill="#C2F0FF" height="61.291" style="stroke:#1E90FF;stroke-width:1.0;" width="10" x="1212.5" y="373.9395"/><rect fill="#C2F0FF" height="30" style="stroke:#1E90FF;stroke-width:1.0;" width="10" x="1361" y="405.2305"/><rect fill="#C2F0FF" height="30" style="stroke:#1E90FF;stroke-width:1.0;" width="10" x="1541" y="250.4063"/><polygon fill="#1E90FF" points="177.5,152.5332,187.5,156.5332,177.5,160.5332,181.5,156.5332" style="stroke:#1E90FF;stroke-width:1.0;"/><line style="stroke:#1E90FF;stroke-width:1.0;" x1="33.5" x2="183.5" y1="156.5332" y2="156.5332"/><text fill="#000000" font-family="sans-serif" font-size="13" font-weight="bold" lengthAdjust="spacing" textLength="7" x="43" y="151.2705">1</text><text fill="#000000" font-family="sans-serif" font-size="13" lengthAdjust="spacing" textLength="126" x="54" y="151.2705">HTTP request (POST)</text><polygon fill="#1E90FF" points="338.5,183.8242,348.5,187.8242,338.5,191.8242,342.5,187.8242" style="stroke:#1E90FF;stroke-width:1.0;"/><line style="stroke:#1E90FF;stroke-width:1.0;" x1="199.5" x2="344.5" y1="187.8242" y2="187.8242"/><text fill="#000000" font-family="sans-serif" font-size="13" font-weight="bold" lengthAdjust="spacing" textLength="7" x="209" y="182.5615">2</text><text fill="#000000" font-family="sans-serif" font-size="13" lengthAdjust="spacing" textLength="121" x="220" y="182.5615">create(req, res, next)</text><polygon fill="#1E90FF" points="685,215.1152,695,219.1152,685,223.1152,689,219.1152" style="stroke:#1E90FF;stroke-width:1.0;"/><line style="stroke:#1E90FF;stroke-width:1.0;" x1="360.5" x2="691" y1="219.1152" y2="219.1152"/><text fill="#000000" font-family="sans-serif" font-size="13" font-weight="bold" lengthAdjust="spacing" textLength="7" x="400.75" y="213.8525">3</text><text fill="#000000" font-family="sans-serif" font-size="13" lengthAdjust="spacing" textLength="245" x="411.75" y="213.8525">approveLicense(approvalLicenseID, status)</text><polygon fill="#1E90FF" points="1529,246.4063,1539,250.4063,1529,254.4063,1533,250.4063" style="stroke:#1E90FF;stroke-width:1.0;"/><line style="stroke:#1E90FF;stroke-width:1.0;" x1="707" x2="1535" y1="250.4063" y2="250.4063"/><text fill="#000000" font-family="sans-serif" font-size="13" font-weight="bold" lengthAdjust="spacing" textLength="7" x="941.5" y="245.1436">4</text><text fill="#000000" font-family="sans-serif" font-size="13" lengthAdjust="spacing" textLength="354" x="952.5" y="245.1436">licenseApplication = updateStatus(approvalLicenseID, status)</text><polygon fill="#1E90FF" points="936,307.6973,946,311.6973,936,315.6973,940,311.6973" style="stroke:#1E90FF;stroke-width:1.0;"/><line style="stroke:#1E90FF;stroke-width:1.0;" x1="707" x2="942" y1="311.6973" y2="311.6973"/><text fill="#000000" font-family="sans-serif" font-size="13" font-weight="bold" lengthAdjust="spacing" textLength="7" x="719" y="306.4346">5</text><text fill="#000000" font-family="sans-serif" font-size="13" lengthAdjust="spacing" textLength="206" x="730" y="306.4346">license = create(licenseApplication)</text><rect fill="#FFFFFF" height="51.2422" rx="2.5" ry="2.5" style="stroke:#1E90FF;stroke-width:0.5;" width="73" x="948" y="288.4063"/><text fill="#000000" font-family="sans-serif" font-size="14" font-weight="bold" lengthAdjust="spacing" textLength="51" x="959" y="310.5137">license</text><text fill="#000000" font-family="sans-serif" font-size="14" font-weight="bold" lengthAdjust="spacing" textLength="59" x="955" y="329.1348">:License</text><polygon fill="#1E90FF" points="1200.5,369.9395,1210.5,373.9395,1200.5,377.9395,1204.5,373.9395" style="stroke:#1E90FF;stroke-width:1.0;"/><line style="stroke:#1E90FF;stroke-width:1.0;" x1="707" x2="1206.5" y1="373.9395" y2="373.9395"/><text fill="#000000" font-family="sans-serif" font-size="13" font-weight="bold" lengthAdjust="spacing" textLength="7" x="916.75" y="368.6768">6</text><text fill="#000000" font-family="sans-serif" font-size="13" lengthAdjust="spacing" textLength="75" x="927.75" y="368.6768">save(license)</text><polygon fill="#1E90FF" points="1349,401.2305,1359,405.2305,1349,409.2305,1353,405.2305" style="stroke:#1E90FF;stroke-width:1.0;"/><line style="stroke:#1E90FF;stroke-width:1.0;" x1="1222.5" x2="1355" y1="405.2305" y2="405.2305"/><text fill="#000000" font-family="sans-serif" font-size="13" font-weight="bold" lengthAdjust="spacing" textLength="7" x="1273.25" y="399.9678">7</text><text fill="#000000" font-family="sans-serif" font-size="13" lengthAdjust="spacing" textLength="26" x="1284.25" y="399.9678">save</text><polygon fill="#1E90FF" points="517,462.5215,507,466.5215,517,470.5215,513,466.5215" style="stroke:#1E90FF;stroke-width:1.0;"/><line style="stroke:#1E90FF;stroke-width:1.0;" x1="511" x2="696" y1="466.5215" y2="466.5215"/><text fill="#000000" font-family="sans-serif" font-size="13" font-weight="bold" lengthAdjust="spacing" textLength="7" x="515.5" y="461.2588">8</text><text fill="#000000" font-family="sans-serif" font-size="13" lengthAdjust="spacing" textLength="161" x="526.5" y="461.2588">licenseDTO=toDTO(license)</text><polygon fill="#1E90FF" points="1065,493.8125,1075,497.8125,1065,501.8125,1069,497.8125" style="stroke:#1E90FF;stroke-width:1.0;"/><line style="stroke:#1E90FF;stroke-width:1.0;" x1="506" x2="1071" y1="497.8125" y2="497.8125"/><text fill="#000000" font-family="sans-serif" font-size="13" font-weight="bold" lengthAdjust="spacing" textLength="7" x="726.5" y="492.5498">9</text><text fill="#000000" font-family="sans-serif" font-size="13" lengthAdjust="spacing" textLength="119" x="737.5" y="492.5498">licenseDTO=create()</text><polygon fill="#1E90FF" points="371.5,555.1035,361.5,559.1035,371.5,563.1035,367.5,559.1035" style="stroke:#1E90FF;stroke-width:1.0;"/><line style="stroke:#1E90FF;stroke-width:1.0;" x1="365.5" x2="701" y1="559.1035" y2="559.1035"/><text fill="#000000" font-family="sans-serif" font-size="13" font-weight="bold" lengthAdjust="spacing" textLength="14" x="488.75" y="553.8408">10</text><text fill="#000000" font-family="sans-serif" font-size="13" lengthAdjust="spacing" textLength="67" x="506.75" y="553.8408">licenceDTO</text><polygon fill="#1E90FF" points="210.5,586.3945,200.5,590.3945,210.5,594.3945,206.5,590.3945" style="stroke:#1E90FF;stroke-width:1.0;"/><line style="stroke:#1E90FF;stroke-width:1.0;" x1="204.5" x2="354.5" y1="590.3945" y2="590.3945"/><text fill="#000000" font-family="sans-serif" font-size="13" font-weight="bold" lengthAdjust="spacing" textLength="14" x="235" y="585.1318">11</text><text fill="#000000" font-family="sans-serif" font-size="13" lengthAdjust="spacing" textLength="67" x="253" y="585.1318">licenseDTO</text><polygon fill="#1E90FF" points="44.5,617.6855,34.5,621.6855,44.5,625.6855,40.5,621.6855" style="stroke:#1E90FF;stroke-width:1.0;"/><line style="stroke:#1E90FF;stroke-width:1.0;" x1="38.5" x2="193.5" y1="621.6855" y2="621.6855"/><text fill="#000000" font-family="sans-serif" font-size="13" font-weight="bold" lengthAdjust="spacing" textLength="14" x="71.5" y="616.4229">12</text><text fill="#000000" font-family="sans-serif" font-size="13" lengthAdjust="spacing" textLength="67" x="89.5" y="616.4229">licenseDTO</text><!--SRC=[nPHHRvim4CVV_Icivg5fbQXLLKrJj5OYfkigaH41qrucLIwOp2h1p3PPesdVVOTn6fE6Q4-f7n26t_tlxi-Pqt6irmKR7taXH6ijodhvn2H2wfcN5PLqYNsMqxhG2NlHNi4NvPAL6gTmwM9JcZulfAZBZ8X2I3p8QPxbkOl0LVEKLnG4_Y0CQpV8-nu_JkyVIHY4KGi8cJ7fl0mZ_owom5zNNB5VDIjJPfK3dhE0bymLy4MsO79QrAoBx1OndmSFn4iUmg_8W5wgXJn4RQ7zsVRsElXiLXiifVYzjyW3zS-tTXxAUmyvAnSON7wy-d1zvRmyq1fuV3fEk7wFUTHDMlmjnfVNU8ozgf9YnIuoLgunnGM76LIiASzOhouSFzHHZakJ5fzyUheb1OVpS8AfmXvofxnvEGdQIYDHQsOO4lL2H9HQYg9WiYL9BpcZLRMXPhrKpEGAxbeiVeDP4t-KJeXXWpxKJy8E3VjMtEzld5L2SV1gRRk_c_VNc_vaIshBxM- -dGLQx4W7NeJCG2WbKaur5wKwvlyprNn5DOCXG1uUtqAh4_mbIUPODZydfV5m7iR9sHQ4IK0aCYYPu5GoU3W4U0GHQeHB-EUwD06Q63h64qpR0s4j6LBhYTq_-2EiDDMrSXLYK8WR1R0A98fNE-7E-8LlS5rbmCOczhzK6ziprjdQ9EVdsoIWR1jyc_NC1ZIp0H6AhbwfZbimEGOn5f0MTBiZRXsxMnFTffbjou81lj42hliIpX2WJO3V3R2DkAZVoTNTpJPvoKOcRMIwnQ9cTP_OZnsvkJi8sOoFruj4S1xUPQ5_]--></g></svg>