<?xml version="1.0" encoding="us-ascii" standalone="no"?><svg xmlns="http://www.w3.org/2000/svg" xmlns:xlink="http://www.w3.org/1999/xlink" contentStyleType="text/css" height="414px" preserveAspectRatio="none" style="width:813px;height:414px;background:#FAFDFF;" version="1.1" viewBox="0 0 813 414" width="813px" zoomAndPan="magnify"><defs/><g><rect fill="#FAFDFF" height="414" style="stroke:none;stroke-width:1.0;" width="813" x="0" y="0"/><text fill="#000000" font-family="sans-serif" font-size="14" font-weight="bold" lengthAdjust="spacing" textLength="355" x="228.25" y="30.1074">US 09 - View a history of all my previous purchases</text><rect fill="#C2F0FF" height="188.7461" style="stroke:#1E90FF;stroke-width:1.0;" width="10" x="23.5" y="133.2422"/><rect fill="#C2F0FF" height="156.4551" style="stroke:#1E90FF;stroke-width:1.0;" width="10" x="463.5" y="156.5332"/><rect fill="#C2F0FF" height="93.873" style="stroke:#1E90FF;stroke-width:1.0;" width="10" x="608" y="187.8242"/><rect fill="#C2F0FF" height="31.291" style="stroke:#1E90FF;stroke-width:1.0;" width="10" x="765" y="219.1152"/><line style="stroke:#1E90FF;stroke-width:0.5;stroke-dasharray:5.0,5.0;" x1="28" x2="28" y1="123.2422" y2="330.9883"/><line style="stroke:#1E90FF;stroke-width:0.5;stroke-dasharray:5.0,5.0;" x1="468" x2="468" y1="123.2422" y2="330.9883"/><line style="stroke:#1E90FF;stroke-width:0.5;stroke-dasharray:5.0,5.0;" x1="613" x2="613" y1="123.2422" y2="330.9883"/><line style="stroke:#1E90FF;stroke-width:0.5;stroke-dasharray:5.0,5.0;" x1="769.5" x2="769.5" y1="123.2422" y2="330.9883"/><text fill="#000000" font-family="sans-serif" font-size="14" font-weight="bold" lengthAdjust="spacing" textLength="41" x="5" y="119.7285">Client</text><ellipse cx="28.5" cy="53.1211" fill="#C2F0FF" rx="8" ry="8" style="stroke:#1E90FF;stroke-width:0.5;"/><path d="M28.5,61.1211 L28.5,88.1211 M15.5,69.1211 L41.5,69.1211 M28.5,88.1211 L15.5,103.1211 M28.5,88.1211 L41.5,103.1211 " fill="none" style="stroke:#1E90FF;stroke-width:0.5;"/><text fill="#000000" font-family="sans-serif" font-size="14" font-weight="bold" lengthAdjust="spacing" textLength="41" x="5" y="345.0957">Client</text><ellipse cx="28.5" cy="357.1094" fill="#C2F0FF" rx="8" ry="8" style="stroke:#1E90FF;stroke-width:0.5;"/><path d="M28.5,365.1094 L28.5,392.1094 M15.5,373.1094 L41.5,373.1094 M28.5,392.1094 L15.5,407.1094 M28.5,392.1094 L41.5,407.1094 " fill="none" style="stroke:#1E90FF;stroke-width:0.5;"/><rect fill="#FFFFFF" height="32.6211" rx="2.5" ry="2.5" style="stroke:#1E90FF;stroke-width:0.5;" width="125" x="406" y="89.6211"/><text fill="#000000" font-family="sans-serif" font-size="14" font-weight="bold" lengthAdjust="spacing" textLength="111" x="413" y="111.7285">DashboardPage</text><rect fill="#FFFFFF" height="32.6211" rx="2.5" ry="2.5" style="stroke:#1E90FF;stroke-width:0.5;" width="125" x="406" y="329.9883"/><text fill="#000000" font-family="sans-serif" font-size="14" font-weight="bold" lengthAdjust="spacing" textLength="111" x="413" y="352.0957">DashboardPage</text><rect fill="#FFFFFF" height="32.6211" rx="2.5" ry="2.5" style="stroke:#1E90FF;stroke-width:0.5;" width="144" x="541" y="89.6211"/><text fill="#000000" font-family="sans-serif" font-size="14" font-weight="bold" lengthAdjust="spacing" textLength="130" x="548" y="111.7285">DashboardService</text><rect fill="#FFFFFF" height="32.6211" rx="2.5" ry="2.5" style="stroke:#1E90FF;stroke-width:0.5;" width="144" x="541" y="329.9883"/><text fill="#000000" font-family="sans-serif" font-size="14" font-weight="bold" lengthAdjust="spacing" textLength="130" x="548" y="352.0957">DashboardService</text><rect fill="#FFFFFF" height="32.6211" rx="2.5" ry="2.5" style="stroke:#1E90FF;stroke-width:0.5;" width="75" x="732.5" y="89.6211"/><text fill="#000000" font-family="sans-serif" font-size="14" font-weight="bold" lengthAdjust="spacing" textLength="61" x="739.5" y="111.7285">BackEnd</text><rect fill="#FFFFFF" height="32.6211" rx="2.5" ry="2.5" style="stroke:#1E90FF;stroke-width:0.5;" width="75" x="732.5" y="329.9883"/><text fill="#000000" font-family="sans-serif" font-size="14" font-weight="bold" lengthAdjust="spacing" textLength="61" x="739.5" y="352.0957">BackEnd</text><rect fill="#C2F0FF" height="188.7461" style="stroke:#1E90FF;stroke-width:1.0;" width="10" x="23.5" y="133.2422"/><rect fill="#C2F0FF" height="156.4551" style="stroke:#1E90FF;stroke-width:1.0;" width="10" x="463.5" y="156.5332"/><rect fill="#C2F0FF" height="93.873" style="stroke:#1E90FF;stroke-width:1.0;" width="10" x="608" y="187.8242"/><rect fill="#C2F0FF" height="31.291" style="stroke:#1E90FF;stroke-width:1.0;" width="10" x="765" y="219.1152"/><polygon fill="#1E90FF" points="451.5,152.5332,461.5,156.5332,451.5,160.5332,455.5,156.5332" style="stroke:#1E90FF;stroke-width:1.0;"/><line style="stroke:#1E90FF;stroke-width:1.0;" x1="33.5" x2="457.5" y1="156.5332" y2="156.5332"/><text fill="#000000" font-family="sans-serif" font-size="13" font-weight="bold" lengthAdjust="spacing" textLength="7" x="147" y="151.2705">1</text><text fill="#000000" font-family="sans-serif" font-size="13" lengthAdjust="spacing" textLength="192" x="158" y="151.2705">Asks to see the purchase history</text><polygon fill="#1E90FF" points="596,183.8242,606,187.8242,596,191.8242,600,187.8242" style="stroke:#1E90FF;stroke-width:1.0;"/><line style="stroke:#1E90FF;stroke-width:1.0;" x1="473.5" x2="602" y1="187.8242" y2="187.8242"/><text fill="#000000" font-family="sans-serif" font-size="13" font-weight="bold" lengthAdjust="spacing" textLength="7" x="501.75" y="182.5615">2</text><text fill="#000000" font-family="sans-serif" font-size="13" lengthAdjust="spacing" textLength="67" x="512.75" y="182.5615">getHistory()</text><polygon fill="#1E90FF" points="753,215.1152,763,219.1152,753,223.1152,757,219.1152" style="stroke:#1E90FF;stroke-width:1.0;"/><line style="stroke:#1E90FF;stroke-width:1.0;" x1="618" x2="759" y1="219.1152" y2="219.1152"/><text fill="#000000" font-family="sans-serif" font-size="13" font-weight="bold" lengthAdjust="spacing" textLength="7" x="627.5" y="213.8525">3</text><text fill="#000000" font-family="sans-serif" font-size="13" lengthAdjust="spacing" textLength="117" x="638.5" y="213.8525">HTTP request (GET)</text><polygon fill="#1E90FF" points="629,246.4063,619,250.4063,629,254.4063,625,250.4063" style="stroke:#1E90FF;stroke-width:1.0;"/><line style="stroke:#1E90FF;stroke-width:1.0;stroke-dasharray:2.0,2.0;" x1="623" x2="769" y1="250.4063" y2="250.4063"/><text fill="#000000" font-family="sans-serif" font-size="13" font-weight="bold" lengthAdjust="spacing" textLength="7" x="641" y="245.1436">4</text><text fill="#000000" font-family="sans-serif" font-size="13" lengthAdjust="spacing" textLength="95" x="652" y="245.1436">list of purchases</text><polygon fill="#1E90FF" points="484.5,277.6973,474.5,281.6973,484.5,285.6973,480.5,281.6973" style="stroke:#1E90FF;stroke-width:1.0;"/><line style="stroke:#1E90FF;stroke-width:1.0;stroke-dasharray:2.0,2.0;" x1="478.5" x2="612" y1="281.6973" y2="281.6973"/><text fill="#000000" font-family="sans-serif" font-size="13" font-weight="bold" lengthAdjust="spacing" textLength="7" x="490.25" y="276.4346">5</text><text fill="#000000" font-family="sans-serif" font-size="13" lengthAdjust="spacing" textLength="95" x="501.25" y="276.4346">list of purchases</text><polygon fill="#1E90FF" points="44.5,308.9883,34.5,312.9883,44.5,316.9883,40.5,312.9883" style="stroke:#1E90FF;stroke-width:1.0;"/><line style="stroke:#1E90FF;stroke-width:1.0;" x1="38.5" x2="467.5" y1="312.9883" y2="312.9883"/><text fill="#000000" font-family="sans-serif" font-size="13" font-weight="bold" lengthAdjust="spacing" textLength="7" x="48" y="307.7256">6</text><text fill="#000000" font-family="sans-serif" font-size="13" lengthAdjust="spacing" textLength="395" x="59" y="307.7256">Shows the purchase and informs the user of the operation's success</text><!--SRC=[nPJFRzem5CVl_YkUoe7k4AsgfccBgag9oMWbD538jcDbd1Um27PcEp0qxN-V7LWn7MCt-WvMfFVnz_rq-j7KRckCBco4iDOgsQvcg0anIo4RfjaA1bYnjhO5_h19BUPoXT82TySnbZA-d6lLofAgMcdeLQmggof4t6a55mrp0Zy9E7jvAVasVKg7JtGy6kSxGEaITU0SvuCitmE_Gd63trkK7FVA8r7XI4WC1GQgdADEwnQFaPT9J2QZHveKZ-FFf0CJRfK-HnsWqz5ErjhxrDdkijPgSpB9C_bF3kqy5tVeOZOXqBlvSFl-tMtWF5EQwp7fHuMmhx6GreU5BrEu-GWHV1Mu0GOBOLodjw0gO7KDgoqq6jT2jGQQLlC5CsXypjr0pDkWI-OIEHFcuyBLtUoUri8zaojW1X8IBhzt3fXPp1JJvOJDiMDe_czeYdej-9wZVt5-WfaiEtUQaMvcYJ6A2sQ5akQIFn5knPfPT2MJ1A9xLrOCYLaQiCezKWIxmET1_HdcuPPhWZEQTpTf37Eq3plc-ar0KSTGpwHP30z5CG7jtx-nS3tCYe1qtKWpY3erYA5sMdvp3fjIOiZwsDJHBe7_m2w5NPP93DE5sfZZmfWiGSXAwTNEqHhKNij_gmPrDvU-0TDoZkPOENVJUnKZlm40]--></g></svg>