<?xml version="1.0" encoding="us-ascii" standalone="no"?><svg xmlns="http://www.w3.org/2000/svg" xmlns:xlink="http://www.w3.org/1999/xlink" contentStyleType="text/css" height="601px" preserveAspectRatio="none" style="width:1209px;height:601px;background:#FAFDFF;" version="1.1" viewBox="0 0 1209 601" width="1209px" zoomAndPan="magnify"><defs/><g><rect fill="#FAFDFF" height="601" style="stroke:none;stroke-width:1.0;" width="1209" x="0" y="0"/><text fill="#000000" font-family="sans-serif" font-size="14" font-weight="bold" lengthAdjust="spacing" textLength="249" x="479.25" y="30.1074">US 12 - Add New Weapon to Catalog</text><rect fill="#C2F0FF" height="376.4922" style="stroke:#1E90FF;stroke-width:1.0;" width="10" x="24.5" y="133.2422"/><rect fill="#C2F0FF" height="344.2012" style="stroke:#1E90FF;stroke-width:1.0;" width="10" x="194.5" y="156.5332"/><rect fill="#C2F0FF" height="281.6191" style="stroke:#1E90FF;stroke-width:1.0;" width="10" x="388.5" y="187.8242"/><rect fill="#C2F0FF" height="156.4551" style="stroke:#1E90FF;stroke-width:1.0;" width="10" x="590.5" y="281.6973"/><rect fill="#C2F0FF" height="31.291" style="stroke:#1E90FF;stroke-width:1.0;" width="10" x="713" y="219.1152"/><rect fill="#C2F0FF" height="93.873" style="stroke:#1E90FF;stroke-width:1.0;" width="10" x="981.5" y="312.9883"/><rect fill="#C2F0FF" height="31.291" style="stroke:#1E90FF;stroke-width:1.0;" width="10" x="1135.5" y="344.2793"/><line style="stroke:#1E90FF;stroke-width:0.5;stroke-dasharray:5.0,5.0;" x1="29" x2="29" y1="123.2422" y2="518.7344"/><line style="stroke:#1E90FF;stroke-width:0.5;stroke-dasharray:5.0,5.0;" x1="199" x2="199" y1="123.2422" y2="518.7344"/><line style="stroke:#1E90FF;stroke-width:0.5;stroke-dasharray:5.0,5.0;" x1="393.5" x2="393.5" y1="123.2422" y2="518.7344"/><line style="stroke:#1E90FF;stroke-width:0.5;stroke-dasharray:5.0,5.0;" x1="595" x2="595" y1="123.2422" y2="518.7344"/><line style="stroke:#1E90FF;stroke-width:0.5;stroke-dasharray:5.0,5.0;" x1="718" x2="718" y1="123.2422" y2="518.7344"/><line style="stroke:#1E90FF;stroke-width:0.5;stroke-dasharray:5.0,5.0;" x1="840" x2="840" y1="123.2422" y2="518.7344"/><line style="stroke:#1E90FF;stroke-width:0.5;stroke-dasharray:5.0,5.0;" x1="986" x2="986" y1="123.2422" y2="518.7344"/><line style="stroke:#1E90FF;stroke-width:0.5;stroke-dasharray:5.0,5.0;" x1="1140.5" x2="1140.5" y1="123.2422" y2="518.7344"/><text fill="#000000" font-family="sans-serif" font-size="14" font-weight="bold" lengthAdjust="spacing" textLength="43" x="5" y="119.7285">Admin</text><ellipse cx="29.5" cy="53.1211" fill="#C2F0FF" rx="8" ry="8" style="stroke:#1E90FF;stroke-width:0.5;"/><path d="M29.5,61.1211 L29.5,88.1211 M16.5,69.1211 L42.5,69.1211 M29.5,88.1211 L16.5,103.1211 M29.5,88.1211 L42.5,103.1211 " fill="none" style="stroke:#1E90FF;stroke-width:0.5;"/><text fill="#000000" font-family="sans-serif" font-size="14" font-weight="bold" lengthAdjust="spacing" textLength="43" x="5" y="532.8418">Admin</text><ellipse cx="29.5" cy="544.8555" fill="#C2F0FF" rx="8" ry="8" style="stroke:#1E90FF;stroke-width:0.5;"/><path d="M29.5,552.8555 L29.5,579.8555 M16.5,560.8555 L42.5,560.8555 M29.5,579.8555 L16.5,594.8555 M29.5,579.8555 L42.5,594.8555 " fill="none" style="stroke:#1E90FF;stroke-width:0.5;"/><rect fill="#FFFFFF" height="32.6211" rx="2.5" ry="2.5" style="stroke:#1E90FF;stroke-width:0.5;" width="139" x="130" y="89.6211"/><text fill="#000000" font-family="sans-serif" font-size="14" font-weight="bold" lengthAdjust="spacing" textLength="125" x="137" y="111.7285">WeaponResource</text><rect fill="#FFFFFF" height="32.6211" rx="2.5" ry="2.5" style="stroke:#1E90FF;stroke-width:0.5;" width="139" x="130" y="517.7344"/><text fill="#000000" font-family="sans-serif" font-size="14" font-weight="bold" lengthAdjust="spacing" textLength="125" x="137" y="539.8418">WeaponResource</text><rect fill="#FFFFFF" height="32.6211" rx="2.5" ry="2.5" style="stroke:#1E90FF;stroke-width:0.5;" width="142" x="322.5" y="89.6211"/><text fill="#000000" font-family="sans-serif" font-size="14" font-weight="bold" lengthAdjust="spacing" textLength="128" x="329.5" y="111.7285">WeaponController</text><rect fill="#FFFFFF" height="32.6211" rx="2.5" ry="2.5" style="stroke:#1E90FF;stroke-width:0.5;" width="142" x="322.5" y="517.7344"/><text fill="#000000" font-family="sans-serif" font-size="14" font-weight="bold" lengthAdjust="spacing" textLength="128" x="329.5" y="539.8418">WeaponController</text><rect fill="#FFFFFF" height="32.6211" rx="2.5" ry="2.5" style="stroke:#1E90FF;stroke-width:0.5;" width="125" x="533" y="89.6211"/><text fill="#000000" font-family="sans-serif" font-size="14" font-weight="bold" lengthAdjust="spacing" textLength="111" x="540" y="111.7285">WeaponService</text><rect fill="#FFFFFF" height="32.6211" rx="2.5" ry="2.5" style="stroke:#1E90FF;stroke-width:0.5;" width="125" x="533" y="517.7344"/><text fill="#000000" font-family="sans-serif" font-size="14" font-weight="bold" lengthAdjust="spacing" textLength="111" x="540" y="539.8418">WeaponService</text><rect fill="#FFFFFF" height="32.6211" rx="2.5" ry="2.5" style="stroke:#1E90FF;stroke-width:0.5;" width="100" x="668" y="89.6211"/><text fill="#000000" font-family="sans-serif" font-size="14" font-weight="bold" lengthAdjust="spacing" textLength="86" x="675" y="111.7285">WeaponDTO</text><rect fill="#FFFFFF" height="32.6211" rx="2.5" ry="2.5" style="stroke:#1E90FF;stroke-width:0.5;" width="100" x="668" y="517.7344"/><text fill="#000000" font-family="sans-serif" font-size="14" font-weight="bold" lengthAdjust="spacing" textLength="86" x="675" y="539.8418">WeaponDTO</text><rect fill="#FFFFFF" height="32.6211" rx="2.5" ry="2.5" style="stroke:#1E90FF;stroke-width:0.5;" width="125" x="778" y="89.6211"/><text fill="#000000" font-family="sans-serif" font-size="14" font-weight="bold" lengthAdjust="spacing" textLength="111" x="785" y="111.7285">WeaponMapper</text><rect fill="#FFFFFF" height="32.6211" rx="2.5" ry="2.5" style="stroke:#1E90FF;stroke-width:0.5;" width="125" x="778" y="517.7344"/><text fill="#000000" font-family="sans-serif" font-size="14" font-weight="bold" lengthAdjust="spacing" textLength="111" x="785" y="539.8418">WeaponMapper</text><rect fill="#FFFFFF" height="32.6211" rx="2.5" ry="2.5" style="stroke:#1E90FF;stroke-width:0.5;" width="147" x="913" y="89.6211"/><text fill="#000000" font-family="sans-serif" font-size="14" font-weight="bold" lengthAdjust="spacing" textLength="133" x="920" y="111.7285">WeaponRepository</text><rect fill="#FFFFFF" height="32.6211" rx="2.5" ry="2.5" style="stroke:#1E90FF;stroke-width:0.5;" width="147" x="913" y="517.7344"/><text fill="#000000" font-family="sans-serif" font-size="14" font-weight="bold" lengthAdjust="spacing" textLength="133" x="920" y="539.8418">WeaponRepository</text><rect fill="#FFFFFF" height="32.6211" rx="2.5" ry="2.5" style="stroke:#1E90FF;stroke-width:0.5;" width="126" x="1077.5" y="89.6211"/><text fill="#000000" font-family="sans-serif" font-size="14" font-weight="bold" lengthAdjust="spacing" textLength="112" x="1084.5" y="111.7285">WeaponSchema</text><rect fill="#FFFFFF" height="32.6211" rx="2.5" ry="2.5" style="stroke:#1E90FF;stroke-width:0.5;" width="126" x="1077.5" y="517.7344"/><text fill="#000000" font-family="sans-serif" font-size="14" font-weight="bold" lengthAdjust="spacing" textLength="112" x="1084.5" y="539.8418">WeaponSchema</text><rect fill="#C2F0FF" height="376.4922" style="stroke:#1E90FF;stroke-width:1.0;" width="10" x="24.5" y="133.2422"/><rect fill="#C2F0FF" height="344.2012" style="stroke:#1E90FF;stroke-width:1.0;" width="10" x="194.5" y="156.5332"/><rect fill="#C2F0FF" height="281.6191" style="stroke:#1E90FF;stroke-width:1.0;" width="10" x="388.5" y="187.8242"/><rect fill="#C2F0FF" height="156.4551" style="stroke:#1E90FF;stroke-width:1.0;" width="10" x="590.5" y="281.6973"/><rect fill="#C2F0FF" height="31.291" style="stroke:#1E90FF;stroke-width:1.0;" width="10" x="713" y="219.1152"/><rect fill="#C2F0FF" height="93.873" style="stroke:#1E90FF;stroke-width:1.0;" width="10" x="981.5" y="312.9883"/><rect fill="#C2F0FF" height="31.291" style="stroke:#1E90FF;stroke-width:1.0;" width="10" x="1135.5" y="344.2793"/><polygon fill="#1E90FF" points="182.5,152.5332,192.5,156.5332,182.5,160.5332,186.5,156.5332" style="stroke:#1E90FF;stroke-width:1.0;"/><line style="stroke:#1E90FF;stroke-width:1.0;" x1="34.5" x2="188.5" y1="156.5332" y2="156.5332"/><text fill="#000000" font-family="sans-serif" font-size="13" font-weight="bold" lengthAdjust="spacing" textLength="7" x="51" y="151.2705">1</text><text fill="#000000" font-family="sans-serif" font-size="13" lengthAdjust="spacing" textLength="116" x="62" y="151.2705">HTTP request (post)</text><polygon fill="#1E90FF" points="376.5,183.8242,386.5,187.8242,376.5,191.8242,380.5,187.8242" style="stroke:#1E90FF;stroke-width:1.0;"/><line style="stroke:#1E90FF;stroke-width:1.0;" x1="204.5" x2="382.5" y1="187.8242" y2="187.8242"/><text fill="#000000" font-family="sans-serif" font-size="13" font-weight="bold" lengthAdjust="spacing" textLength="7" x="214" y="182.5615">2</text><text fill="#000000" font-family="sans-serif" font-size="13" lengthAdjust="spacing" textLength="154" x="225" y="182.5615">addWeapon(req, res, next)</text><polygon fill="#1E90FF" points="701,215.1152,711,219.1152,701,223.1152,705,219.1152" style="stroke:#1E90FF;stroke-width:1.0;"/><line style="stroke:#1E90FF;stroke-width:1.0;" x1="398.5" x2="707" y1="219.1152" y2="219.1152"/><text fill="#000000" font-family="sans-serif" font-size="13" font-weight="bold" lengthAdjust="spacing" textLength="7" x="528.25" y="213.8525">3</text><text fill="#000000" font-family="sans-serif" font-size="13" lengthAdjust="spacing" textLength="44" x="539.25" y="213.8525">create()</text><polygon fill="#1E90FF" points="409.5,246.4063,399.5,250.4063,409.5,254.4063,405.5,250.4063" style="stroke:#1E90FF;stroke-width:1.0;"/><line style="stroke:#1E90FF;stroke-width:1.0;stroke-dasharray:2.0,2.0;" x1="403.5" x2="717" y1="250.4063" y2="250.4063"/><text fill="#000000" font-family="sans-serif" font-size="13" font-weight="bold" lengthAdjust="spacing" textLength="7" x="517.75" y="245.1436">4</text><text fill="#000000" font-family="sans-serif" font-size="13" lengthAdjust="spacing" textLength="70" x="528.75" y="245.1436">weaponDTO</text><polygon fill="#1E90FF" points="578.5,277.6973,588.5,281.6973,578.5,285.6973,582.5,281.6973" style="stroke:#1E90FF;stroke-width:1.0;"/><line style="stroke:#1E90FF;stroke-width:1.0;" x1="398.5" x2="584.5" y1="281.6973" y2="281.6973"/><text fill="#000000" font-family="sans-serif" font-size="13" font-weight="bold" lengthAdjust="spacing" textLength="7" x="408" y="276.4346">5</text><text fill="#000000" font-family="sans-serif" font-size="13" lengthAdjust="spacing" textLength="162" x="419" y="276.4346">createWeapon(weaponDTO)</text><polygon fill="#1E90FF" points="969.5,308.9883,979.5,312.9883,969.5,316.9883,973.5,312.9883" style="stroke:#1E90FF;stroke-width:1.0;"/><line style="stroke:#1E90FF;stroke-width:1.0;" x1="600.5" x2="975.5" y1="312.9883" y2="312.9883"/><text fill="#000000" font-family="sans-serif" font-size="13" font-weight="bold" lengthAdjust="spacing" textLength="7" x="709.5" y="307.7256">6</text><text fill="#000000" font-family="sans-serif" font-size="13" lengthAdjust="spacing" textLength="152" x="720.5" y="307.7256">saveWeapon(weaponDTO)</text><polygon fill="#1E90FF" points="1123.5,340.2793,1133.5,344.2793,1123.5,348.2793,1127.5,344.2793" style="stroke:#1E90FF;stroke-width:1.0;"/><line style="stroke:#1E90FF;stroke-width:1.0;" x1="991.5" x2="1129.5" y1="344.2793" y2="344.2793"/><text fill="#000000" font-family="sans-serif" font-size="13" font-weight="bold" lengthAdjust="spacing" textLength="7" x="1001" y="339.0166">7</text><text fill="#000000" font-family="sans-serif" font-size="13" lengthAdjust="spacing" textLength="114" x="1012" y="339.0166">create(weaponDTO)</text><polygon fill="#1E90FF" points="1002.5,371.5703,992.5,375.5703,1002.5,379.5703,998.5,375.5703" style="stroke:#1E90FF;stroke-width:1.0;"/><line style="stroke:#1E90FF;stroke-width:1.0;stroke-dasharray:2.0,2.0;" x1="996.5" x2="1139.5" y1="375.5703" y2="375.5703"/><text fill="#000000" font-family="sans-serif" font-size="13" font-weight="bold" lengthAdjust="spacing" textLength="7" x="1025" y="370.3076">8</text><text fill="#000000" font-family="sans-serif" font-size="13" lengthAdjust="spacing" textLength="71" x="1036" y="370.3076">newWeapon</text><polygon fill="#1E90FF" points="611.5,402.8613,601.5,406.8613,611.5,410.8613,607.5,406.8613" style="stroke:#1E90FF;stroke-width:1.0;"/><line style="stroke:#1E90FF;stroke-width:1.0;stroke-dasharray:2.0,2.0;" x1="605.5" x2="985.5" y1="406.8613" y2="406.8613"/><text fill="#000000" font-family="sans-serif" font-size="13" font-weight="bold" lengthAdjust="spacing" textLength="7" x="752.5" y="401.5986">9</text><text fill="#000000" font-family="sans-serif" font-size="13" lengthAdjust="spacing" textLength="71" x="763.5" y="401.5986">newWeapon</text><polygon fill="#1E90FF" points="409.5,434.1523,399.5,438.1523,409.5,442.1523,405.5,438.1523" style="stroke:#1E90FF;stroke-width:1.0;"/><line style="stroke:#1E90FF;stroke-width:1.0;stroke-dasharray:2.0,2.0;" x1="403.5" x2="594.5" y1="438.1523" y2="438.1523"/><text fill="#000000" font-family="sans-serif" font-size="13" font-weight="bold" lengthAdjust="spacing" textLength="14" x="452.5" y="432.8896">10</text><text fill="#000000" font-family="sans-serif" font-size="13" lengthAdjust="spacing" textLength="71" x="470.5" y="432.8896">newWeapon</text><polygon fill="#1E90FF" points="215.5,465.4434,205.5,469.4434,215.5,473.4434,211.5,469.4434" style="stroke:#1E90FF;stroke-width:1.0;"/><line style="stroke:#1E90FF;stroke-width:1.0;" x1="209.5" x2="392.5" y1="469.4434" y2="469.4434"/><text fill="#000000" font-family="sans-serif" font-size="13" font-weight="bold" lengthAdjust="spacing" textLength="14" x="254.5" y="464.1807">11</text><text fill="#000000" font-family="sans-serif" font-size="13" lengthAdjust="spacing" textLength="71" x="272.5" y="464.1807">newWeapon</text><polygon fill="#1E90FF" points="45.5,496.7344,35.5,500.7344,45.5,504.7344,41.5,500.7344" style="stroke:#1E90FF;stroke-width:1.0;"/><line style="stroke:#1E90FF;stroke-width:1.0;" x1="39.5" x2="198.5" y1="500.7344" y2="500.7344"/><text fill="#000000" font-family="sans-serif" font-size="13" font-weight="bold" lengthAdjust="spacing" textLength="14" x="49" y="495.4717">12</text><text fill="#000000" font-family="sans-serif" font-size="13" lengthAdjust="spacing" textLength="118" x="67" y="495.4717">New Weapon Added</text><!--SRC=[nPHHQzim4CVVzIcEvg4Pr7GBOumm2ewyTOMq2RP77ejgdLDHH_8aELaP- -wJxJXHIfp7L0zwyFtkV__JoReC4ljQO73cHGYhh9BLwWar8UP5o99fje88SrOLDiK_DYp4KgvGMiZSTeXDMFQorAgIdAf2QHZaBETvxYDkjo8J9NC2VmcuzJOfN2IFazj7EflEuXPGcgFsWhCu-XvlWN- -kC7V5SeCjyfJaUDKIFG58iMNg2T5XOV8MnFp-VIEXkdTx84qO9XPfKzHU-XujQEz3duqgqtMMcsEcZpXVxu_pbDrRrtDqWS67x-EldmUUS4JhRaplWnIOT_ZFjgwBFnAuDC80WWvXmVSm09PgIHO1PHPLgXbxR0vVNFj7OavonzJbuMBRqyt8Ly9UG7CG4ZyUrx7MiSn6bNf31je4VTGL4chLL6WRZdQmoMerw8JItgWA9srGDG3tBEox2hTz_ekbH6kpzUjypxhIVQCAxPrH9kf6AComQnGqfpp7SkiM3EBRXGaXE36UHx3ppITWwuV2MDXw5go7_QW6mTPn0rAny0uRpiQElxA9PahaExvynDSVmlQ94GmXaoZ-phqWOYuID0eEc3JpODmz9cTIh9JsPRUPVYYYUEJjgFO9HYsFecxKTLWeq_tDezBKr93mKvSugRLFh1SOxLav_au5SUjqQxz7gsk-RYFeDrOmh7_xxkd0FbXmVgwlSiY_m40]--></g></svg>