<?xml version="1.0" encoding="us-ascii" standalone="no"?><svg xmlns="http://www.w3.org/2000/svg" xmlns:xlink="http://www.w3.org/1999/xlink" contentStyleType="text/css" height="789px" preserveAspectRatio="none" style="width:1606px;height:789px;background:#FAFDFF;" version="1.1" viewBox="0 0 1606 789" width="1606px" zoomAndPan="magnify"><defs/><g><rect fill="#FAFDFF" height="789" style="stroke:none;stroke-width:1.0;" width="1606" x="0" y="0"/><text fill="#000000" font-family="sans-serif" font-size="14" font-weight="bold" lengthAdjust="spacing" textLength="183" x="710.5" y="30.1074">US 07 - Use Shopping Cart</text><rect fill="#C2F0FF" height="564.2383" style="stroke:#1E90FF;stroke-width:1.0;" width="10" x="23.5" y="133.2422"/><rect fill="#C2F0FF" height="531.9473" style="stroke:#1E90FF;stroke-width:1.0;" width="10" x="209.5" y="156.5332"/><rect fill="#C2F0FF" height="469.3652" style="stroke:#1E90FF;stroke-width:1.0;" width="10" x="393.5" y="187.8242"/><rect fill="#C2F0FF" height="93.873" style="stroke:#1E90FF;stroke-width:1.0;" width="10" x="660.5" y="219.1152"/><rect fill="#C2F0FF" height="281.6191" style="stroke:#1E90FF;stroke-width:1.0;" width="10" x="838.5" y="344.2793"/><rect fill="#C2F0FF" height="31.291" style="stroke:#1E90FF;stroke-width:1.0;" width="10" x="1004" y="250.4063"/><rect fill="#C2F0FF" height="93.873" style="stroke:#1E90FF;stroke-width:1.0;" width="10" x="1180.5" y="375.5703"/><rect fill="#C2F0FF" height="93.873" style="stroke:#1E90FF;stroke-width:1.0;" width="10" x="1180.5" y="500.7344"/><rect fill="#C2F0FF" height="31.291" style="stroke:#1E90FF;stroke-width:1.0;" width="10" x="1512.5" y="406.8613"/><rect fill="#C2F0FF" height="31.291" style="stroke:#1E90FF;stroke-width:1.0;" width="10" x="1512.5" y="532.0254"/><line style="stroke:#1E90FF;stroke-width:0.5;stroke-dasharray:5.0,5.0;" x1="28" x2="28" y1="123.2422" y2="706.4805"/><line style="stroke:#1E90FF;stroke-width:0.5;stroke-dasharray:5.0,5.0;" x1="214.5" x2="214.5" y1="123.2422" y2="706.4805"/><line style="stroke:#1E90FF;stroke-width:0.5;stroke-dasharray:5.0,5.0;" x1="398" x2="398" y1="123.2422" y2="706.4805"/><line style="stroke:#1E90FF;stroke-width:0.5;stroke-dasharray:5.0,5.0;" x1="665.5" x2="665.5" y1="123.2422" y2="706.4805"/><line style="stroke:#1E90FF;stroke-width:0.5;stroke-dasharray:5.0,5.0;" x1="843.5" x2="843.5" y1="123.2422" y2="706.4805"/><line style="stroke:#1E90FF;stroke-width:0.5;stroke-dasharray:5.0,5.0;" x1="1008.5" x2="1008.5" y1="123.2422" y2="706.4805"/><line style="stroke:#1E90FF;stroke-width:0.5;stroke-dasharray:5.0,5.0;" x1="1185.5" x2="1185.5" y1="123.2422" y2="706.4805"/><line style="stroke:#1E90FF;stroke-width:0.5;stroke-dasharray:5.0,5.0;" x1="1517" x2="1517" y1="123.2422" y2="706.4805"/><text fill="#000000" font-family="sans-serif" font-size="14" font-weight="bold" lengthAdjust="spacing" textLength="41" x="5" y="119.7285">Client</text><ellipse cx="28.5" cy="53.1211" fill="#C2F0FF" rx="8" ry="8" style="stroke:#1E90FF;stroke-width:0.5;"/><path d="M28.5,61.1211 L28.5,88.1211 M15.5,69.1211 L41.5,69.1211 M28.5,88.1211 L15.5,103.1211 M28.5,88.1211 L41.5,103.1211 " fill="none" style="stroke:#1E90FF;stroke-width:0.5;"/><text fill="#000000" font-family="sans-serif" font-size="14" font-weight="bold" lengthAdjust="spacing" textLength="41" x="5" y="720.5879">Client</text><ellipse cx="28.5" cy="732.6016" fill="#C2F0FF" rx="8" ry="8" style="stroke:#1E90FF;stroke-width:0.5;"/><path d="M28.5,740.6016 L28.5,767.6016 M15.5,748.6016 L41.5,748.6016 M28.5,767.6016 L15.5,782.6016 M28.5,767.6016 L41.5,782.6016 " fill="none" style="stroke:#1E90FF;stroke-width:0.5;"/><rect fill="#FFFFFF" height="32.6211" rx="2.5" ry="2.5" style="stroke:#1E90FF;stroke-width:0.5;" width="156" x="136.5" y="89.6211"/><text fill="#000000" font-family="sans-serif" font-size="14" font-weight="bold" lengthAdjust="spacing" textLength="142" x="143.5" y="111.7285">:ShoppingCartRoute</text><rect fill="#FFFFFF" height="32.6211" rx="2.5" ry="2.5" style="stroke:#1E90FF;stroke-width:0.5;" width="156" x="136.5" y="705.4805"/><text fill="#000000" font-family="sans-serif" font-size="14" font-weight="bold" lengthAdjust="spacing" textLength="142" x="143.5" y="727.5879">:ShoppingCartRoute</text><rect fill="#FFFFFF" height="32.6211" rx="2.5" ry="2.5" style="stroke:#1E90FF;stroke-width:0.5;" width="185" x="306" y="89.6211"/><text fill="#000000" font-family="sans-serif" font-size="14" font-weight="bold" lengthAdjust="spacing" textLength="171" x="313" y="111.7285">:ShoppingCartController</text><rect fill="#FFFFFF" height="32.6211" rx="2.5" ry="2.5" style="stroke:#1E90FF;stroke-width:0.5;" width="185" x="306" y="705.4805"/><text fill="#000000" font-family="sans-serif" font-size="14" font-weight="bold" lengthAdjust="spacing" textLength="171" x="313" y="727.5879">:ShoppingCartController</text><rect fill="#FFFFFF" height="32.6211" rx="2.5" ry="2.5" style="stroke:#1E90FF;stroke-width:0.5;" width="168" x="581.5" y="89.6211"/><text fill="#000000" font-family="sans-serif" font-size="14" font-weight="bold" lengthAdjust="spacing" textLength="154" x="588.5" y="111.7285">:ShoppingCartMapper</text><rect fill="#FFFFFF" height="32.6211" rx="2.5" ry="2.5" style="stroke:#1E90FF;stroke-width:0.5;" width="168" x="581.5" y="705.4805"/><text fill="#000000" font-family="sans-serif" font-size="14" font-weight="bold" lengthAdjust="spacing" textLength="154" x="588.5" y="727.5879">:ShoppingCartMapper</text><rect fill="#FFFFFF" height="32.6211" rx="2.5" ry="2.5" style="stroke:#1E90FF;stroke-width:0.5;" width="168" x="759.5" y="89.6211"/><text fill="#000000" font-family="sans-serif" font-size="14" font-weight="bold" lengthAdjust="spacing" textLength="154" x="766.5" y="111.7285">:ShoppingCartService</text><rect fill="#FFFFFF" height="32.6211" rx="2.5" ry="2.5" style="stroke:#1E90FF;stroke-width:0.5;" width="168" x="759.5" y="705.4805"/><text fill="#000000" font-family="sans-serif" font-size="14" font-weight="bold" lengthAdjust="spacing" textLength="154" x="766.5" y="727.5879">:ShoppingCartService</text><rect fill="#FFFFFF" height="51.2422" rx="2.5" ry="2.5" style="stroke:#1E90FF;stroke-width:0.5;" width="143" x="937.5" y="71"/><text fill="#000000" font-family="sans-serif" font-size="14" font-weight="bold" lengthAdjust="spacing" textLength="124" x="947" y="93.1074">shoppingCartDTO</text><text fill="#000000" font-family="sans-serif" font-size="14" font-weight="bold" lengthAdjust="spacing" textLength="129" x="944.5" y="111.7285">:ShoppingCartDTO</text><rect fill="#FFFFFF" height="51.2422" rx="2.5" ry="2.5" style="stroke:#1E90FF;stroke-width:0.5;" width="143" x="937.5" y="705.4805"/><text fill="#000000" font-family="sans-serif" font-size="14" font-weight="bold" lengthAdjust="spacing" textLength="124" x="947" y="727.5879">shoppingCartDTO</text><text fill="#000000" font-family="sans-serif" font-size="14" font-weight="bold" lengthAdjust="spacing" textLength="129" x="944.5" y="746.209">:ShoppingCartDTO</text><rect fill="#FFFFFF" height="32.6211" rx="2.5" ry="2.5" style="stroke:#1E90FF;stroke-width:0.5;" width="190" x="1090.5" y="89.6211"/><text fill="#000000" font-family="sans-serif" font-size="14" font-weight="bold" lengthAdjust="spacing" textLength="176" x="1097.5" y="111.7285">:ShoppingCartRepository</text><rect fill="#FFFFFF" height="32.6211" rx="2.5" ry="2.5" style="stroke:#1E90FF;stroke-width:0.5;" width="190" x="1090.5" y="705.4805"/><text fill="#000000" font-family="sans-serif" font-size="14" font-weight="bold" lengthAdjust="spacing" textLength="176" x="1097.5" y="727.5879">:ShoppingCartRepository</text><rect fill="#FFFFFF" height="32.6211" rx="2.5" ry="2.5" style="stroke:#1E90FF;stroke-width:0.5;" width="165" x="1435" y="89.6211"/><text fill="#000000" font-family="sans-serif" font-size="14" font-weight="bold" lengthAdjust="spacing" textLength="151" x="1442" y="111.7285">ShoppingCartSchema</text><rect fill="#FFFFFF" height="32.6211" rx="2.5" ry="2.5" style="stroke:#1E90FF;stroke-width:0.5;" width="165" x="1435" y="705.4805"/><text fill="#000000" font-family="sans-serif" font-size="14" font-weight="bold" lengthAdjust="spacing" textLength="151" x="1442" y="727.5879">ShoppingCartSchema</text><rect fill="#C2F0FF" height="564.2383" style="stroke:#1E90FF;stroke-width:1.0;" width="10" x="23.5" y="133.2422"/><rect fill="#C2F0FF" height="531.9473" style="stroke:#1E90FF;stroke-width:1.0;" width="10" x="209.5" y="156.5332"/><rect fill="#C2F0FF" height="469.3652" style="stroke:#1E90FF;stroke-width:1.0;" width="10" x="393.5" y="187.8242"/><rect fill="#C2F0FF" height="93.873" style="stroke:#1E90FF;stroke-width:1.0;" width="10" x="660.5" y="219.1152"/><rect fill="#C2F0FF" height="281.6191" style="stroke:#1E90FF;stroke-width:1.0;" width="10" x="838.5" y="344.2793"/><rect fill="#C2F0FF" height="31.291" style="stroke:#1E90FF;stroke-width:1.0;" width="10" x="1004" y="250.4063"/><rect fill="#C2F0FF" height="93.873" style="stroke:#1E90FF;stroke-width:1.0;" width="10" x="1180.5" y="375.5703"/><rect fill="#C2F0FF" height="93.873" style="stroke:#1E90FF;stroke-width:1.0;" width="10" x="1180.5" y="500.7344"/><rect fill="#C2F0FF" height="31.291" style="stroke:#1E90FF;stroke-width:1.0;" width="10" x="1512.5" y="406.8613"/><rect fill="#C2F0FF" height="31.291" style="stroke:#1E90FF;stroke-width:1.0;" width="10" x="1512.5" y="532.0254"/><polygon fill="#1E90FF" points="197.5,152.5332,207.5,156.5332,197.5,160.5332,201.5,156.5332" style="stroke:#1E90FF;stroke-width:1.0;"/><line style="stroke:#1E90FF;stroke-width:1.0;" x1="33.5" x2="203.5" y1="156.5332" y2="156.5332"/><text fill="#000000" font-family="sans-serif" font-size="13" font-weight="bold" lengthAdjust="spacing" textLength="7" x="58" y="151.2705">1</text><text fill="#000000" font-family="sans-serif" font-size="13" lengthAdjust="spacing" textLength="116" x="69" y="151.2705">HTTP request (post)</text><polygon fill="#1E90FF" points="381.5,183.8242,391.5,187.8242,381.5,191.8242,385.5,187.8242" style="stroke:#1E90FF;stroke-width:1.0;"/><line style="stroke:#1E90FF;stroke-width:1.0;" x1="219.5" x2="387.5" y1="187.8242" y2="187.8242"/><text fill="#000000" font-family="sans-serif" font-size="13" font-weight="bold" lengthAdjust="spacing" textLength="7" x="229" y="182.5615">2</text><text fill="#000000" font-family="sans-serif" font-size="13" lengthAdjust="spacing" textLength="144" x="240" y="182.5615">addToCart(req, res, next)</text><polygon fill="#1E90FF" points="648.5,215.1152,658.5,219.1152,648.5,223.1152,652.5,219.1152" style="stroke:#1E90FF;stroke-width:1.0;"/><line style="stroke:#1E90FF;stroke-width:1.0;" x1="403.5" x2="654.5" y1="219.1152" y2="219.1152"/><text fill="#000000" font-family="sans-serif" font-size="13" font-weight="bold" lengthAdjust="spacing" textLength="7" x="413" y="213.8525">3</text><text fill="#000000" font-family="sans-serif" font-size="13" lengthAdjust="spacing" textLength="227" x="424" y="213.8525">mapWeaponToShoppingCart(weaponId)</text><polygon fill="#1E90FF" points="992,246.4063,1002,250.4063,992,254.4063,996,250.4063" style="stroke:#1E90FF;stroke-width:1.0;"/><line style="stroke:#1E90FF;stroke-width:1.0;" x1="670.5" x2="998" y1="250.4063" y2="250.4063"/><text fill="#000000" font-family="sans-serif" font-size="13" font-weight="bold" lengthAdjust="spacing" textLength="7" x="809.75" y="245.1436">4</text><text fill="#000000" font-family="sans-serif" font-size="13" lengthAdjust="spacing" textLength="44" x="820.75" y="245.1436">create()</text><polygon fill="#1E90FF" points="681.5,277.6973,671.5,281.6973,681.5,285.6973,677.5,281.6973" style="stroke:#1E90FF;stroke-width:1.0;"/><line style="stroke:#1E90FF;stroke-width:1.0;stroke-dasharray:2.0,2.0;" x1="675.5" x2="1008" y1="281.6973" y2="281.6973"/><text fill="#000000" font-family="sans-serif" font-size="13" font-weight="bold" lengthAdjust="spacing" textLength="7" x="783.25" y="276.4346">5</text><text fill="#000000" font-family="sans-serif" font-size="13" lengthAdjust="spacing" textLength="102" x="794.25" y="276.4346">shoppingCartDTO</text><polygon fill="#1E90FF" points="414.5,308.9883,404.5,312.9883,414.5,316.9883,410.5,312.9883" style="stroke:#1E90FF;stroke-width:1.0;"/><line style="stroke:#1E90FF;stroke-width:1.0;stroke-dasharray:2.0,2.0;" x1="408.5" x2="664.5" y1="312.9883" y2="312.9883"/><text fill="#000000" font-family="sans-serif" font-size="13" font-weight="bold" lengthAdjust="spacing" textLength="7" x="478" y="307.7256">6</text><text fill="#000000" font-family="sans-serif" font-size="13" lengthAdjust="spacing" textLength="102" x="489" y="307.7256">shoppingCartDTO</text><polygon fill="#1E90FF" points="826.5,340.2793,836.5,344.2793,826.5,348.2793,830.5,344.2793" style="stroke:#1E90FF;stroke-width:1.0;"/><line style="stroke:#1E90FF;stroke-width:1.0;" x1="403.5" x2="832.5" y1="344.2793" y2="344.2793"/><text fill="#000000" font-family="sans-serif" font-size="13" font-weight="bold" lengthAdjust="spacing" textLength="7" x="531" y="339.0166">7</text><text fill="#000000" font-family="sans-serif" font-size="13" lengthAdjust="spacing" textLength="169" x="542" y="339.0166">addToCart(shoppingCartDTO)</text><polygon fill="#1E90FF" points="1168.5,371.5703,1178.5,375.5703,1168.5,379.5703,1172.5,375.5703" style="stroke:#1E90FF;stroke-width:1.0;"/><line style="stroke:#1E90FF;stroke-width:1.0;" x1="848.5" x2="1174.5" y1="375.5703" y2="375.5703"/><text fill="#000000" font-family="sans-serif" font-size="13" font-weight="bold" lengthAdjust="spacing" textLength="7" x="939.5" y="370.3076">8</text><text fill="#000000" font-family="sans-serif" font-size="13" lengthAdjust="spacing" textLength="139" x="950.5" y="370.3076">getShoppingCart(userId)</text><polygon fill="#1E90FF" points="1500.5,402.8613,1510.5,406.8613,1500.5,410.8613,1504.5,406.8613" style="stroke:#1E90FF;stroke-width:1.0;"/><line style="stroke:#1E90FF;stroke-width:1.0;" x1="1190.5" x2="1506.5" y1="406.8613" y2="406.8613"/><text fill="#000000" font-family="sans-serif" font-size="13" font-weight="bold" lengthAdjust="spacing" textLength="7" x="1277" y="401.5986">9</text><text fill="#000000" font-family="sans-serif" font-size="13" lengthAdjust="spacing" textLength="138" x="1288" y="401.5986">findOne({userId: userId})</text><polygon fill="#1E90FF" points="1201.5,434.1523,1191.5,438.1523,1201.5,442.1523,1197.5,438.1523" style="stroke:#1E90FF;stroke-width:1.0;"/><line style="stroke:#1E90FF;stroke-width:1.0;stroke-dasharray:2.0,2.0;" x1="1195.5" x2="1516.5" y1="438.1523" y2="438.1523"/><text fill="#000000" font-family="sans-serif" font-size="13" font-weight="bold" lengthAdjust="spacing" textLength="14" x="1307" y="432.8896">10</text><text fill="#000000" font-family="sans-serif" font-size="13" lengthAdjust="spacing" textLength="76" x="1325" y="432.8896">shoppingCart</text><polygon fill="#1E90FF" points="859.5,465.4434,849.5,469.4434,859.5,473.4434,855.5,469.4434" style="stroke:#1E90FF;stroke-width:1.0;"/><line style="stroke:#1E90FF;stroke-width:1.0;stroke-dasharray:2.0,2.0;" x1="853.5" x2="1184.5" y1="469.4434" y2="469.4434"/><text fill="#000000" font-family="sans-serif" font-size="13" font-weight="bold" lengthAdjust="spacing" textLength="14" x="970" y="464.1807">11</text><text fill="#000000" font-family="sans-serif" font-size="13" lengthAdjust="spacing" textLength="76" x="988" y="464.1807">shoppingCart</text><polygon fill="#1E90FF" points="1168.5,496.7344,1178.5,500.7344,1168.5,504.7344,1172.5,500.7344" style="stroke:#1E90FF;stroke-width:1.0;"/><line style="stroke:#1E90FF;stroke-width:1.0;" x1="848.5" x2="1174.5" y1="500.7344" y2="500.7344"/><text fill="#000000" font-family="sans-serif" font-size="13" font-weight="bold" lengthAdjust="spacing" textLength="14" x="911.5" y="495.4717">12</text><text fill="#000000" font-family="sans-serif" font-size="13" lengthAdjust="spacing" textLength="188" x="929.5" y="495.4717">saveShoppingCart(shoppingCart)</text><polygon fill="#1E90FF" points="1500.5,528.0254,1510.5,532.0254,1500.5,536.0254,1504.5,532.0254" style="stroke:#1E90FF;stroke-width:1.0;"/><line style="stroke:#1E90FF;stroke-width:1.0;" x1="1190.5" x2="1506.5" y1="532.0254" y2="532.0254"/><text fill="#000000" font-family="sans-serif" font-size="13" font-weight="bold" lengthAdjust="spacing" textLength="14" x="1200" y="526.7627">13</text><text fill="#000000" font-family="sans-serif" font-size="13" lengthAdjust="spacing" textLength="285" x="1218" y="526.7627">updateOne({_id: shoppingCart._id}, shoppingCart)</text><polygon fill="#1E90FF" points="1201.5,559.3164,1191.5,563.3164,1201.5,567.3164,1197.5,563.3164" style="stroke:#1E90FF;stroke-width:1.0;"/><line style="stroke:#1E90FF;stroke-width:1.0;stroke-dasharray:2.0,2.0;" x1="1195.5" x2="1516.5" y1="563.3164" y2="563.3164"/><text fill="#000000" font-family="sans-serif" font-size="13" font-weight="bold" lengthAdjust="spacing" textLength="14" x="1283" y="558.0537">14</text><text fill="#000000" font-family="sans-serif" font-size="13" lengthAdjust="spacing" textLength="124" x="1301" y="558.0537">updatedShoppingCart</text><polygon fill="#1E90FF" points="859.5,590.6074,849.5,594.6074,859.5,598.6074,855.5,594.6074" style="stroke:#1E90FF;stroke-width:1.0;"/><line style="stroke:#1E90FF;stroke-width:1.0;stroke-dasharray:2.0,2.0;" x1="853.5" x2="1184.5" y1="594.6074" y2="594.6074"/><text fill="#000000" font-family="sans-serif" font-size="13" font-weight="bold" lengthAdjust="spacing" textLength="14" x="946" y="589.3447">15</text><text fill="#000000" font-family="sans-serif" font-size="13" lengthAdjust="spacing" textLength="124" x="964" y="589.3447">updatedShoppingCart</text><polygon fill="#1E90FF" points="414.5,621.8984,404.5,625.8984,414.5,629.8984,410.5,625.8984" style="stroke:#1E90FF;stroke-width:1.0;"/><line style="stroke:#1E90FF;stroke-width:1.0;stroke-dasharray:2.0,2.0;" x1="408.5" x2="842.5" y1="625.8984" y2="625.8984"/><text fill="#000000" font-family="sans-serif" font-size="13" font-weight="bold" lengthAdjust="spacing" textLength="14" x="552.5" y="620.6357">16</text><text fill="#000000" font-family="sans-serif" font-size="13" lengthAdjust="spacing" textLength="124" x="570.5" y="620.6357">updatedShoppingCart</text><polygon fill="#1E90FF" points="230.5,653.1895,220.5,657.1895,230.5,661.1895,226.5,657.1895" style="stroke:#1E90FF;stroke-width:1.0;"/><line style="stroke:#1E90FF;stroke-width:1.0;stroke-dasharray:2.0,2.0;" x1="224.5" x2="397.5" y1="657.1895" y2="657.1895"/><text fill="#000000" font-family="sans-serif" font-size="13" font-weight="bold" lengthAdjust="spacing" textLength="14" x="238" y="651.9268">17</text><text fill="#000000" font-family="sans-serif" font-size="13" lengthAdjust="spacing" textLength="124" x="256" y="651.9268">updatedShoppingCart</text><polygon fill="#1E90FF" points="44.5,684.4805,34.5,688.4805,44.5,692.4805,40.5,688.4805" style="stroke:#1E90FF;stroke-width:1.0;"/><line style="stroke:#1E90FF;stroke-width:1.0;stroke-dasharray:2.0,2.0;" x1="38.5" x2="213.5" y1="688.4805" y2="688.4805"/><text fill="#000000" font-family="sans-serif" font-size="13" font-weight="bold" lengthAdjust="spacing" textLength="14" x="48" y="683.2178">18</text><text fill="#000000" font-family="sans-serif" font-size="13" lengthAdjust="spacing" textLength="134" x="66" y="683.2178">Updated Shopping Cart</text><!--SRC=[nPHHJzim58NV_IiiUA2Jo8RGj4tLX1ISZI6rQvK4yJ89cUIcMAHsPZi5XFhVTvsqu1H8zrJyq4hsT-uznuvz42JseOHWnuCGNbibw_arQ4BChP0LrtnE8oXuNTeKxcrOYfcSWxGqmvykTigpsvbMjSoPAfMc-mKlygBm4Vor8XCLnmAFXEBO58MNoTNfsHMRZ2Pn2oYTW_OM9t7q8ru1Ix-uWRyro0nMbKUYW96Gu1U8L3u3VLhMq4KsJKodetCMfkUJtwG1mymgtKSzGwztUpNh_izcj6AjrTsh9dlyJv-tiw_l6VQiV63_wDlnby_7tc9FDDpZWo0LzZs-H-lQqek47dsb0RqmG9CRLLL2pYZ3xCvPi-lcaxSLPYStnRMbUz-lJrWfy2hiKMveIFmFt2qErtwTtLZL5XemYVj9fgJLgYn1jpZhnyUygjRek1zDG2z4jdAHl62DXqRfv8_SrEDagussP8LA6O5xzB0A_39nnrPs0tE-SiMQSpL6PO9ReQJPvGkOMR7W5l0iIKY34tG-fB_IT4grUrwCfGCCPZyyWtYM98aRb0qfp_DKkKG3v0zHP0wfn8VJ5s2-X3M2CHtIEQykWLTAfihVaS5TCtcU-yenGOaJHYZCDE3am5-F2Au4wyeRXqbow93ZbcHRoF6JsuJw-JOqles48DliNOoI6TXEiDg0xiR2ZyEXJGzdfn0odqWOFBReaBR_oquFHXmSFBNn_NG2ED9LNqTu4upTINh63Lz0nxclxFDVLpdEDmckHDxj-15dbeVqhL8lOhMrykH_qstZro7NHx-rFdcoinrcxLL0EXpIYnRUUB8xNjn5VvT1_W40]--></g></svg>