<?xml version="1.0" encoding="us-ascii" standalone="no"?><svg xmlns="http://www.w3.org/2000/svg" xmlns:xlink="http://www.w3.org/1999/xlink" contentStyleType="text/css" height="601px" preserveAspectRatio="none" style="width:753px;height:601px;background:#FAFDFF;" version="1.1" viewBox="0 0 753 601" width="753px" zoomAndPan="magnify"><defs/><g><rect fill="#FAFDFF" height="601" style="stroke:none;stroke-width:1.0;" width="753" x="0" y="0"/><text fill="#000000" font-family="sans-serif" font-size="14" font-weight="bold" lengthAdjust="spacing" textLength="183" x="284" y="30.1074">US 07 - Use Shopping Cart</text><rect fill="#C2F0FF" height="376.4922" style="stroke:#1E90FF;stroke-width:1.0;" width="10" x="23.5" y="133.2422"/><rect fill="#C2F0FF" height="156.4551" style="stroke:#1E90FF;stroke-width:1.0;" width="10" x="333.5" y="156.5332"/><rect fill="#C2F0FF" height="156.4551" style="stroke:#1E90FF;stroke-width:1.0;" width="10" x="333.5" y="344.2793"/><rect fill="#C2F0FF" height="93.873" style="stroke:#1E90FF;stroke-width:1.0;" width="10" x="520.5" y="187.8242"/><rect fill="#C2F0FF" height="93.873" style="stroke:#1E90FF;stroke-width:1.0;" width="10" x="520.5" y="375.5703"/><rect fill="#C2F0FF" height="31.291" style="stroke:#1E90FF;stroke-width:1.0;" width="10" x="704.5" y="219.1152"/><rect fill="#C2F0FF" height="31.291" style="stroke:#1E90FF;stroke-width:1.0;" width="10" x="704.5" y="406.8613"/><line style="stroke:#1E90FF;stroke-width:0.5;stroke-dasharray:5.0,5.0;" x1="28" x2="28" y1="123.2422" y2="518.7344"/><line style="stroke:#1E90FF;stroke-width:0.5;stroke-dasharray:5.0,5.0;" x1="338.5" x2="338.5" y1="123.2422" y2="518.7344"/><line style="stroke:#1E90FF;stroke-width:0.5;stroke-dasharray:5.0,5.0;" x1="525.5" x2="525.5" y1="123.2422" y2="518.7344"/><line style="stroke:#1E90FF;stroke-width:0.5;stroke-dasharray:5.0,5.0;" x1="709" x2="709" y1="123.2422" y2="518.7344"/><text fill="#000000" font-family="sans-serif" font-size="14" font-weight="bold" lengthAdjust="spacing" textLength="41" x="5" y="119.7285">Client</text><ellipse cx="28.5" cy="53.1211" fill="#C2F0FF" rx="8" ry="8" style="stroke:#1E90FF;stroke-width:0.5;"/><path d="M28.5,61.1211 L28.5,88.1211 M15.5,69.1211 L41.5,69.1211 M28.5,88.1211 L15.5,103.1211 M28.5,88.1211 L41.5,103.1211 " fill="none" style="stroke:#1E90FF;stroke-width:0.5;"/><text fill="#000000" font-family="sans-serif" font-size="14" font-weight="bold" lengthAdjust="spacing" textLength="41" x="5" y="532.8418">Client</text><ellipse cx="28.5" cy="544.8555" fill="#C2F0FF" rx="8" ry="8" style="stroke:#1E90FF;stroke-width:0.5;"/><path d="M28.5,552.8555 L28.5,579.8555 M15.5,560.8555 L41.5,560.8555 M28.5,579.8555 L15.5,594.8555 M28.5,579.8555 L41.5,594.8555 " fill="none" style="stroke:#1E90FF;stroke-width:0.5;"/><rect fill="#FFFFFF" height="32.6211" rx="2.5" ry="2.5" style="stroke:#1E90FF;stroke-width:0.5;" width="114" x="281.5" y="89.6211"/><text fill="#000000" font-family="sans-serif" font-size="14" font-weight="bold" lengthAdjust="spacing" textLength="100" x="288.5" y="111.7285">WeaponsPage</text><rect fill="#FFFFFF" height="32.6211" rx="2.5" ry="2.5" style="stroke:#1E90FF;stroke-width:0.5;" width="114" x="281.5" y="517.7344"/><text fill="#000000" font-family="sans-serif" font-size="14" font-weight="bold" lengthAdjust="spacing" textLength="100" x="288.5" y="539.8418">WeaponsPage</text><rect fill="#FFFFFF" height="32.6211" rx="2.5" ry="2.5" style="stroke:#1E90FF;stroke-width:0.5;" width="164" x="443.5" y="89.6211"/><text fill="#000000" font-family="sans-serif" font-size="14" font-weight="bold" lengthAdjust="spacing" textLength="150" x="450.5" y="111.7285">ShoppingCartService</text><rect fill="#FFFFFF" height="32.6211" rx="2.5" ry="2.5" style="stroke:#1E90FF;stroke-width:0.5;" width="164" x="443.5" y="517.7344"/><text fill="#000000" font-family="sans-serif" font-size="14" font-weight="bold" lengthAdjust="spacing" textLength="150" x="450.5" y="539.8418">ShoppingCartService</text><rect fill="#FFFFFF" height="32.6211" rx="2.5" ry="2.5" style="stroke:#1E90FF;stroke-width:0.5;" width="75" x="672" y="89.6211"/><text fill="#000000" font-family="sans-serif" font-size="14" font-weight="bold" lengthAdjust="spacing" textLength="61" x="679" y="111.7285">BackEnd</text><rect fill="#FFFFFF" height="32.6211" rx="2.5" ry="2.5" style="stroke:#1E90FF;stroke-width:0.5;" width="75" x="672" y="517.7344"/><text fill="#000000" font-family="sans-serif" font-size="14" font-weight="bold" lengthAdjust="spacing" textLength="61" x="679" y="539.8418">BackEnd</text><rect fill="#C2F0FF" height="376.4922" style="stroke:#1E90FF;stroke-width:1.0;" width="10" x="23.5" y="133.2422"/><rect fill="#C2F0FF" height="156.4551" style="stroke:#1E90FF;stroke-width:1.0;" width="10" x="333.5" y="156.5332"/><rect fill="#C2F0FF" height="156.4551" style="stroke:#1E90FF;stroke-width:1.0;" width="10" x="333.5" y="344.2793"/><rect fill="#C2F0FF" height="93.873" style="stroke:#1E90FF;stroke-width:1.0;" width="10" x="520.5" y="187.8242"/><rect fill="#C2F0FF" height="93.873" style="stroke:#1E90FF;stroke-width:1.0;" width="10" x="520.5" y="375.5703"/><rect fill="#C2F0FF" height="31.291" style="stroke:#1E90FF;stroke-width:1.0;" width="10" x="704.5" y="219.1152"/><rect fill="#C2F0FF" height="31.291" style="stroke:#1E90FF;stroke-width:1.0;" width="10" x="704.5" y="406.8613"/><polygon fill="#1E90FF" points="321.5,152.5332,331.5,156.5332,321.5,160.5332,325.5,156.5332" style="stroke:#1E90FF;stroke-width:1.0;"/><line style="stroke:#1E90FF;stroke-width:1.0;" x1="33.5" x2="327.5" y1="156.5332" y2="156.5332"/><text fill="#000000" font-family="sans-serif" font-size="13" font-weight="bold" lengthAdjust="spacing" textLength="7" x="43" y="151.2705">1</text><text fill="#000000" font-family="sans-serif" font-size="13" lengthAdjust="spacing" textLength="270" x="54" y="151.2705">Selects a Weapon to add to the Shopping Cart</text><polygon fill="#1E90FF" points="508.5,183.8242,518.5,187.8242,508.5,191.8242,512.5,187.8242" style="stroke:#1E90FF;stroke-width:1.0;"/><line style="stroke:#1E90FF;stroke-width:1.0;" x1="343.5" x2="514.5" y1="187.8242" y2="187.8242"/><text fill="#000000" font-family="sans-serif" font-size="13" font-weight="bold" lengthAdjust="spacing" textLength="7" x="371" y="182.5615">2</text><text fill="#000000" font-family="sans-serif" font-size="13" lengthAdjust="spacing" textLength="111" x="382" y="182.5615">addToCart(weapon)</text><polygon fill="#1E90FF" points="692.5,215.1152,702.5,219.1152,692.5,223.1152,696.5,219.1152" style="stroke:#1E90FF;stroke-width:1.0;"/><line style="stroke:#1E90FF;stroke-width:1.0;" x1="530.5" x2="698.5" y1="219.1152" y2="219.1152"/><text fill="#000000" font-family="sans-serif" font-size="13" font-weight="bold" lengthAdjust="spacing" textLength="7" x="549" y="213.8525">3</text><text fill="#000000" font-family="sans-serif" font-size="13" lengthAdjust="spacing" textLength="126" x="560" y="213.8525">HTTP request (POST)</text><polygon fill="#1E90FF" points="541.5,246.4063,531.5,250.4063,541.5,254.4063,537.5,250.4063" style="stroke:#1E90FF;stroke-width:1.0;"/><line style="stroke:#1E90FF;stroke-width:1.0;stroke-dasharray:2.0,2.0;" x1="535.5" x2="708.5" y1="250.4063" y2="250.4063"/><text fill="#000000" font-family="sans-serif" font-size="13" font-weight="bold" lengthAdjust="spacing" textLength="7" x="548" y="245.1436">4</text><text fill="#000000" font-family="sans-serif" font-size="13" lengthAdjust="spacing" textLength="133" x="559" y="245.1436">confirmation of addition</text><polygon fill="#1E90FF" points="354.5,277.6973,344.5,281.6973,354.5,285.6973,350.5,281.6973" style="stroke:#1E90FF;stroke-width:1.0;"/><line style="stroke:#1E90FF;stroke-width:1.0;stroke-dasharray:2.0,2.0;" x1="348.5" x2="524.5" y1="281.6973" y2="281.6973"/><text fill="#000000" font-family="sans-serif" font-size="13" font-weight="bold" lengthAdjust="spacing" textLength="7" x="362.5" y="276.4346">5</text><text fill="#000000" font-family="sans-serif" font-size="13" lengthAdjust="spacing" textLength="133" x="373.5" y="276.4346">confirmation of addition</text><polygon fill="#1E90FF" points="44.5,308.9883,34.5,312.9883,44.5,316.9883,40.5,312.9883" style="stroke:#1E90FF;stroke-width:1.0;"/><line style="stroke:#1E90FF;stroke-width:1.0;" x1="38.5" x2="337.5" y1="312.9883" y2="312.9883"/><text fill="#000000" font-family="sans-serif" font-size="13" font-weight="bold" lengthAdjust="spacing" textLength="7" x="76.5" y="307.7256">6</text><text fill="#000000" font-family="sans-serif" font-size="13" lengthAdjust="spacing" textLength="208" x="87.5" y="307.7256">Displays the updated Shopping Cart</text><polygon fill="#1E90FF" points="321.5,340.2793,331.5,344.2793,321.5,348.2793,325.5,344.2793" style="stroke:#1E90FF;stroke-width:1.0;"/><line style="stroke:#1E90FF;stroke-width:1.0;" x1="33.5" x2="327.5" y1="344.2793" y2="344.2793"/><text fill="#000000" font-family="sans-serif" font-size="13" font-weight="bold" lengthAdjust="spacing" textLength="7" x="51.5" y="339.0166">7</text><text fill="#000000" font-family="sans-serif" font-size="13" lengthAdjust="spacing" textLength="253" x="62.5" y="339.0166">Removes a Weapon from the Shopping Cart</text><polygon fill="#1E90FF" points="508.5,371.5703,518.5,375.5703,508.5,379.5703,512.5,375.5703" style="stroke:#1E90FF;stroke-width:1.0;"/><line style="stroke:#1E90FF;stroke-width:1.0;" x1="343.5" x2="514.5" y1="375.5703" y2="375.5703"/><text fill="#000000" font-family="sans-serif" font-size="13" font-weight="bold" lengthAdjust="spacing" textLength="7" x="353" y="370.3076">8</text><text fill="#000000" font-family="sans-serif" font-size="13" lengthAdjust="spacing" textLength="147" x="364" y="370.3076">removeFromCart(weapon)</text><polygon fill="#1E90FF" points="692.5,402.8613,702.5,406.8613,692.5,410.8613,696.5,406.8613" style="stroke:#1E90FF;stroke-width:1.0;"/><line style="stroke:#1E90FF;stroke-width:1.0;" x1="530.5" x2="698.5" y1="406.8613" y2="406.8613"/><text fill="#000000" font-family="sans-serif" font-size="13" font-weight="bold" lengthAdjust="spacing" textLength="7" x="541.5" y="401.5986">9</text><text fill="#000000" font-family="sans-serif" font-size="13" lengthAdjust="spacing" textLength="141" x="552.5" y="401.5986">HTTP request (DELETE)</text><polygon fill="#1E90FF" points="541.5,434.1523,531.5,438.1523,541.5,442.1523,537.5,438.1523" style="stroke:#1E90FF;stroke-width:1.0;"/><line style="stroke:#1E90FF;stroke-width:1.0;stroke-dasharray:2.0,2.0;" x1="535.5" x2="708.5" y1="438.1523" y2="438.1523"/><text fill="#000000" font-family="sans-serif" font-size="13" font-weight="bold" lengthAdjust="spacing" textLength="14" x="545" y="432.8896">10</text><text fill="#000000" font-family="sans-serif" font-size="13" lengthAdjust="spacing" textLength="132" x="563" y="432.8896">confirmation of removal</text><polygon fill="#1E90FF" points="354.5,465.4434,344.5,469.4434,354.5,473.4434,350.5,469.4434" style="stroke:#1E90FF;stroke-width:1.0;"/><line style="stroke:#1E90FF;stroke-width:1.0;stroke-dasharray:2.0,2.0;" x1="348.5" x2="524.5" y1="469.4434" y2="469.4434"/><text fill="#000000" font-family="sans-serif" font-size="13" font-weight="bold" lengthAdjust="spacing" textLength="14" x="359.5" y="464.1807">11</text><text fill="#000000" font-family="sans-serif" font-size="13" lengthAdjust="spacing" textLength="132" x="377.5" y="464.1807">confirmation of removal</text><polygon fill="#1E90FF" points="44.5,496.7344,34.5,500.7344,44.5,504.7344,40.5,500.7344" style="stroke:#1E90FF;stroke-width:1.0;"/><line style="stroke:#1E90FF;stroke-width:1.0;" x1="38.5" x2="337.5" y1="500.7344" y2="500.7344"/><text fill="#000000" font-family="sans-serif" font-size="13" font-weight="bold" lengthAdjust="spacing" textLength="14" x="73" y="495.4717">12</text><text fill="#000000" font-family="sans-serif" font-size="13" lengthAdjust="spacing" textLength="208" x="91" y="495.4717">Displays the updated Shopping Cart</text><!--SRC=[nLFHJjim57ttLrpHXxA728IcROecf2GD3AbQeoIeZyWaDyKYiJFRAKFJ_XtRPTIqW8ec5JyuaUwvvznpR8-3Gj-t6Env4K87BVZGNQCaHDqotbD9EvXWGuTMb_XRHorRy0wvXifips4nhMuNKWoyJaGh98mQsjHDuqFChbd5Uce8_f3DXcXUNCNdLybiEij9B6IDqYlCyacQFnR_-gGAVmt8ApICKzRWb77qcoUYNg2Csm7NvKtXB9jU955vCVj9I5Hf8Tz2h00lAsnv6fsvHI8fnTqM_1MMR1tJQphdHgFtYwFZRoTVFfyy5juOtsGt3agcF-9-QIiBbmKSVuK0BXL2SIFwdl459CQpdSobguwy2DHURhwLXOFlrwT9oypLFW2g82B-XRN5ET9US9NH1Jh4FD-2_7Da3HKebwnQGOja2sgFAUMrAyUfSw-Kg1ZLp8ZiyzrNcYsfHkEOH12S6byX5DXYfHLGMBa6BO3MjVtecysJUs8mYP1vRZcA9BJuKbZ0uPtZ-BG6cZn8aLXWd8RmeompaFObAms7sQmeFQZ99auXS9mGGYLumsJdKWBHM15c_qcDVejZTrvsx34JhIQFGfWmrRVqNZchGr-RUhrXsUkqffzoox4JI_HoQwJeTezCklOpq_F-t2RfD2tJtPDpMhHzJt0ljFnVRkFWGnPv0000]--></g></svg>