<?xml version="1.0" encoding="us-ascii" standalone="no"?><svg xmlns="http://www.w3.org/2000/svg" xmlns:xlink="http://www.w3.org/1999/xlink" contentStyleType="text/css" height="747px" preserveAspectRatio="none" style="width:329px;height:747px;background:#FFFFFF;" version="1.1" viewBox="0 0 329 747" width="329px" zoomAndPan="magnify"><defs/><g><!--cluster Users--><g id="cluster_Users"><path d="M46.3,6.0137 L88.3,6.0137 A3.75,3.75 0 0 1 90.8,8.5137 L97.8,30.6348 L179.3,30.6348 A2.5,2.5 0 0 1 181.8,33.1348 L181.8,226.5137 A2.5,2.5 0 0 1 179.3,229.0137 L46.3,229.0137 A2.5,2.5 0 0 1 43.8,226.5137 L43.8,8.5137 A2.5,2.5 0 0 1 46.3,6.0137 " fill="none" style="stroke:#000000;stroke-width:1.5;"/><line style="stroke:#000000;stroke-width:1.5;" x1="43.8" x2="97.8" y1="30.6348" y2="30.6348"/><text fill="#000000" font-family="sans-serif" font-size="14" font-weight="bold" lengthAdjust="spacing" textLength="41" x="47.8" y="23.1211">Users</text></g><!--cluster Weapons--><g id="cluster_Weapons"><path d="M26.3,554.0137 L92.3,554.0137 A3.75,3.75 0 0 1 94.8,556.5137 L101.8,578.6348 L139.3,578.6348 A2.5,2.5 0 0 1 141.8,581.1348 L141.8,737.5137 A2.5,2.5 0 0 1 139.3,740.0137 L26.3,740.0137 A2.5,2.5 0 0 1 23.8,737.5137 L23.8,556.5137 A2.5,2.5 0 0 1 26.3,554.0137 " fill="none" style="stroke:#000000;stroke-width:1.5;"/><line style="stroke:#000000;stroke-width:1.5;" x1="23.8" x2="101.8" y1="578.6348" y2="578.6348"/><text fill="#000000" font-family="sans-serif" font-size="14" font-weight="bold" lengthAdjust="spacing" textLength="65" x="27.8" y="571.1211">Weapons</text></g><!--cluster Orders--><g id="cluster_Orders"><path d="M175.3,280.0137 L225.3,280.0137 A3.75,3.75 0 0 1 227.8,282.5137 L234.8,304.6348 L320.3,304.6348 A2.5,2.5 0 0 1 322.8,307.1348 L322.8,500.5137 A2.5,2.5 0 0 1 320.3,503.0137 L175.3,503.0137 A2.5,2.5 0 0 1 172.8,500.5137 L172.8,282.5137 A2.5,2.5 0 0 1 175.3,280.0137 " fill="none" style="stroke:#000000;stroke-width:1.5;"/><line style="stroke:#000000;stroke-width:1.5;" x1="172.8" x2="234.8" y1="304.6348" y2="304.6348"/><text fill="#000000" font-family="sans-serif" font-size="14" font-weight="bold" lengthAdjust="spacing" textLength="49" x="176.8" y="297.1211">Orders</text></g><!--class Client--><g id="elem_Client"><rect codeLine="6" fill="#F1F1F1" height="170.3477" id="Client" rx="2.5" ry="2.5" style="stroke:#181818;stroke-width:0.5;" width="106" x="59.8" y="43.0137"/><ellipse cx="91.9" cy="59.0137" fill="#ADD1B2" rx="11" ry="11" style="stroke:#181818;stroke-width:1.0;"/><path d="M94.6656,54.8887 Q94.8219,54.6699 95.0094,54.5605 Q95.1969,54.4512 95.4156,54.4512 Q95.7906,54.4512 96.025,54.7168 Q96.2594,54.9668 96.2594,55.5762 L96.2594,57.0293 Q96.2594,57.6387 96.025,57.9043 Q95.7906,58.1699 95.4156,58.1699 Q95.0719,58.1699 94.8688,57.9668 Q94.6656,57.7793 94.5563,57.2637 Q94.5094,56.9043 94.3219,56.7168 Q93.9938,56.3418 93.3844,56.123 Q92.775,55.9043 92.15,55.9043 Q91.3844,55.9043 90.7438,56.2324 Q90.1188,56.5605 89.6188,57.3105 Q89.1344,58.0605 89.1344,59.0918 L89.1344,60.1855 Q89.1344,61.4199 90.025,62.248 Q90.9156,63.0605 92.5094,63.0605 Q93.4469,63.0605 94.1031,62.8105 Q94.4938,62.6543 94.9156,62.2168 Q95.1813,61.9512 95.3219,61.873 Q95.4781,61.7949 95.6813,61.7949 Q96.0094,61.7949 96.2594,62.0605 Q96.525,62.3105 96.525,62.6543 Q96.525,62.998 96.1813,63.4043 Q95.6813,63.9824 94.8844,64.3105 Q93.8063,64.7637 92.5094,64.7637 Q90.9938,64.7637 89.7906,64.1387 Q88.8063,63.6387 88.1188,62.5762 Q87.4313,61.498 87.4313,60.2168 L87.4313,59.0605 Q87.4313,57.7324 88.0406,56.5918 Q88.6656,55.4355 89.7594,54.8262 Q90.8531,54.2012 92.0875,54.2012 Q92.8219,54.2012 93.4625,54.373 Q94.1188,54.5293 94.6656,54.8887 Z " fill="#000000"/><text fill="#000000" font-family="sans-serif" font-size="14" lengthAdjust="spacing" textLength="36" x="109.7" y="64.8105">Client</text><line style="stroke:#181818;stroke-width:0.5;" x1="60.8" x2="164.8" y1="75.0137" y2="75.0137"/><text fill="#000000" font-family="sans-serif" font-size="14" lengthAdjust="spacing" textLength="51" x="65.8" y="94.1211">-clientID</text><text fill="#000000" font-family="sans-serif" font-size="14" lengthAdjust="spacing" textLength="40" x="65.8" y="112.7422">-name</text><text fill="#000000" font-family="sans-serif" font-size="14" lengthAdjust="spacing" textLength="38" x="65.8" y="131.3633">-email</text><text fill="#000000" font-family="sans-serif" font-size="14" lengthAdjust="spacing" textLength="65" x="65.8" y="149.9844">-password</text><text fill="#000000" font-family="sans-serif" font-size="14" lengthAdjust="spacing" textLength="63" x="65.8" y="168.6055">-birthDate</text><text fill="#000000" font-family="sans-serif" font-size="14" lengthAdjust="spacing" textLength="94" x="65.8" y="187.2266">-phoneNumber</text><text fill="#000000" font-family="sans-serif" font-size="14" lengthAdjust="spacing" textLength="56" x="65.8" y="205.8477">-address</text></g><!--class Weapon--><g id="elem_Weapon"><rect codeLine="18" fill="#F1F1F1" height="133.1055" id="Weapon" rx="2.5" ry="2.5" style="stroke:#181818;stroke-width:0.5;" width="86" x="39.8" y="591.0137"/><ellipse cx="55.25" cy="607.0137" fill="#ADD1B2" rx="11" ry="11" style="stroke:#181818;stroke-width:1.0;"/><path d="M58.0156,602.8887 Q58.1719,602.6699 58.3594,602.5605 Q58.5469,602.4512 58.7656,602.4512 Q59.1406,602.4512 59.375,602.7168 Q59.6094,602.9668 59.6094,603.5762 L59.6094,605.0293 Q59.6094,605.6387 59.375,605.9043 Q59.1406,606.1699 58.7656,606.1699 Q58.4219,606.1699 58.2188,605.9668 Q58.0156,605.7793 57.9063,605.2637 Q57.8594,604.9043 57.6719,604.7168 Q57.3438,604.3418 56.7344,604.123 Q56.125,603.9043 55.5,603.9043 Q54.7344,603.9043 54.0938,604.2324 Q53.4688,604.5605 52.9688,605.3105 Q52.4844,606.0605 52.4844,607.0918 L52.4844,608.1855 Q52.4844,609.4199 53.375,610.248 Q54.2656,611.0605 55.8594,611.0605 Q56.7969,611.0605 57.4531,610.8105 Q57.8438,610.6543 58.2656,610.2168 Q58.5313,609.9512 58.6719,609.873 Q58.8281,609.7949 59.0313,609.7949 Q59.3594,609.7949 59.6094,610.0605 Q59.875,610.3105 59.875,610.6543 Q59.875,610.998 59.5313,611.4043 Q59.0313,611.9824 58.2344,612.3105 Q57.1563,612.7637 55.8594,612.7637 Q54.3438,612.7637 53.1406,612.1387 Q52.1563,611.6387 51.4688,610.5762 Q50.7813,609.498 50.7813,608.2168 L50.7813,607.0605 Q50.7813,605.7324 51.3906,604.5918 Q52.0156,603.4355 53.1094,602.8262 Q54.2031,602.2012 55.4375,602.2012 Q56.1719,602.2012 56.8125,602.373 Q57.4688,602.5293 58.0156,602.8887 Z " fill="#000000"/><text fill="#000000" font-family="sans-serif" font-size="14" lengthAdjust="spacing" textLength="53" x="69.35" y="612.8105">Weapon</text><line style="stroke:#181818;stroke-width:0.5;" x1="40.8" x2="124.8" y1="623.0137" y2="623.0137"/><text fill="#000000" font-family="sans-serif" font-size="14" lengthAdjust="spacing" textLength="67" x="45.8" y="642.1211">-weaponID</text><text fill="#000000" font-family="sans-serif" font-size="14" lengthAdjust="spacing" textLength="40" x="45.8" y="660.7422">-name</text><text fill="#000000" font-family="sans-serif" font-size="14" lengthAdjust="spacing" textLength="36" x="45.8" y="679.3633">-price</text><text fill="#000000" font-family="sans-serif" font-size="14" lengthAdjust="spacing" textLength="74" x="45.8" y="697.9844">-description</text><text fill="#000000" font-family="sans-serif" font-size="14" lengthAdjust="spacing" textLength="43" x="45.8" y="716.6055">-image</text></g><!--class Order--><g id="elem_Order"><rect codeLine="28" fill="#F1F1F1" height="170.3477" id="Order" rx="2.5" ry="2.5" style="stroke:#181818;stroke-width:0.5;" width="118" x="188.8" y="317.0137"/><ellipse cx="225.85" cy="333.0137" fill="#ADD1B2" rx="11" ry="11" style="stroke:#181818;stroke-width:1.0;"/><path d="M228.6156,328.8887 Q228.7719,328.6699 228.9594,328.5605 Q229.1469,328.4512 229.3656,328.4512 Q229.7406,328.4512 229.975,328.7168 Q230.2094,328.9668 230.2094,329.5762 L230.2094,331.0293 Q230.2094,331.6387 229.975,331.9043 Q229.7406,332.1699 229.3656,332.1699 Q229.0219,332.1699 228.8188,331.9668 Q228.6156,331.7793 228.5063,331.2637 Q228.4594,330.9043 228.2719,330.7168 Q227.9438,330.3418 227.3344,330.123 Q226.725,329.9043 226.1,329.9043 Q225.3344,329.9043 224.6938,330.2324 Q224.0688,330.5605 223.5688,331.3105 Q223.0844,332.0605 223.0844,333.0918 L223.0844,334.1855 Q223.0844,335.4199 223.975,336.248 Q224.8656,337.0605 226.4594,337.0605 Q227.3969,337.0605 228.0531,336.8105 Q228.4438,336.6543 228.8656,336.2168 Q229.1313,335.9512 229.2719,335.873 Q229.4281,335.7949 229.6313,335.7949 Q229.9594,335.7949 230.2094,336.0605 Q230.475,336.3105 230.475,336.6543 Q230.475,336.998 230.1313,337.4043 Q229.6313,337.9824 228.8344,338.3105 Q227.7563,338.7637 226.4594,338.7637 Q224.9438,338.7637 223.7406,338.1387 Q222.7563,337.6387 222.0688,336.5762 Q221.3813,335.498 221.3813,334.2168 L221.3813,333.0605 Q221.3813,331.7324 221.9906,330.5918 Q222.6156,329.4355 223.7094,328.8262 Q224.8031,328.2012 226.0375,328.2012 Q226.7719,328.2012 227.4125,328.373 Q228.0688,328.5293 228.6156,328.8887 Z " fill="#000000"/><text fill="#000000" font-family="sans-serif" font-size="14" lengthAdjust="spacing" textLength="37" x="244.75" y="338.8105">Order</text><line style="stroke:#181818;stroke-width:0.5;" x1="189.8" x2="305.8" y1="349.0137" y2="349.0137"/><text fill="#000000" font-family="sans-serif" font-size="14" lengthAdjust="spacing" textLength="52" x="194.8" y="368.1211">-orderID</text><text fill="#000000" font-family="sans-serif" font-size="14" lengthAdjust="spacing" textLength="33" x="194.8" y="386.7422">-date</text><text fill="#000000" font-family="sans-serif" font-size="14" lengthAdjust="spacing" textLength="88" x="194.8" y="405.3633">-orderNumber</text><text fill="#000000" font-family="sans-serif" font-size="14" lengthAdjust="spacing" textLength="106" x="194.8" y="423.9844">-paymentMethod</text><text fill="#000000" font-family="sans-serif" font-size="14" lengthAdjust="spacing" textLength="64" x="194.8" y="442.6055">-totalPrice</text><text fill="#000000" font-family="sans-serif" font-size="14" lengthAdjust="spacing" textLength="105" x="194.8" y="461.2266">-shippingMethod</text><text fill="#000000" font-family="sans-serif" font-size="14" lengthAdjust="spacing" textLength="51" x="194.8" y="479.8477">-clientID</text></g><!--link Client to Weapon--><g id="link_Client_Weapon"><path codeLine="39" d="M59.7,207.2437 C48.63,227.4937 38.58,249.8537 32.8,272.0137 C6,374.8037 15.3,406.2437 32.8,511.0137 C37.27,537.7537 43.9889,560.5288 52.9689,585.0788 " fill="none" id="Client-to-Weapon" style="stroke:#181818;stroke-width:1.0;"/><polygon fill="#181818" points="55.03,590.7137,55.6949,580.8873,53.3124,586.018,48.1817,583.6355,55.03,590.7137" style="stroke:#181818;stroke-width:1.0;"/><polygon fill="#000000" points="37.7109,407.1584,40.8105,398.1671,34.9336,398.0624,37.7109,407.1584" style="stroke:#000000;stroke-width:1.0;"/><text fill="#000000" font-family="sans-serif" font-size="13" lengthAdjust="spacing" textLength="125" x="46.8" y="407.542">adds to shopping cart</text><text fill="#000000" font-family="sans-serif" font-size="13" lengthAdjust="spacing" textLength="7" x="44.7406" y="214.2144">1</text><text fill="#000000" font-family="sans-serif" font-size="13" lengthAdjust="spacing" textLength="5" x="46.7192" y="579.5162">*</text></g><!--link Client to Order--><g id="link_Client_Order"><path codeLine="40" d="M154.59,213.2137 C170.93,246.1337 186.9631,278.439 203.3031,311.369 " fill="none" id="Client-to-Order" style="stroke:#181818;stroke-width:1.0;"/><polygon fill="#181818" points="205.97,316.7437,205.5527,306.9037,203.7475,312.2648,198.3864,310.4596,205.97,316.7437" style="stroke:#181818;stroke-width:1.0;"/><polygon fill="#000000" points="183.0227,259.138,181.6343,249.7293,176.3692,252.3423,183.0227,259.138" style="stroke:#000000;stroke-width:1.0;"/><text fill="#000000" font-family="sans-serif" font-size="13" lengthAdjust="spacing" textLength="50" x="189.8" y="260.042">performs</text><text fill="#000000" font-family="sans-serif" font-size="13" lengthAdjust="spacing" textLength="7" x="150.8805" y="235.2919">1</text><text fill="#000000" font-family="sans-serif" font-size="13" lengthAdjust="spacing" textLength="7" x="195.0745" y="305.7112">1</text></g><!--link Order to Weapon--><g id="link_Order_Weapon"><path codeLine="41" d="M193.09,487.0737 C171.14,520.7937 149.4833,554.0652 128.8933,585.6952 " fill="none" id="Order-to-Weapon" style="stroke:#181818;stroke-width:1.0;"/><polygon fill="#181818" points="125.62,590.7237,133.8823,585.3632,128.3478,586.5333,127.1777,580.9988,125.62,590.7237" style="stroke:#181818;stroke-width:1.0;"/><polygon fill="#000000" points="172.0723,532.8496,179.4698,526.8724,174.5437,523.6658,172.0723,532.8496" style="stroke:#000000;stroke-width:1.0;"/><text fill="#000000" font-family="sans-serif" font-size="13" lengthAdjust="spacing" textLength="21" x="183.8" y="534.042">has</text><text fill="#000000" font-family="sans-serif" font-size="13" lengthAdjust="spacing" textLength="7" x="180.9057" y="509.4322">1</text><text fill="#000000" font-family="sans-serif" font-size="13" lengthAdjust="spacing" textLength="5" x="125.03" y="579.5273">*</text></g><!--SRC=[RL2xJaCn3Dtz5T5Ta912wTgX4eAb0my98MOtCOtLcuTYLnLK_3jfBfI7K0R7zl4vnpuBgaKMiraPCUakZXSknvaRKSHwnat5284zcKWQiXUGBQU2hMmww4grydgdj78vFV8RcKk0WcwB6p9FGbKEq87cUcHAUW3h-cTr0pPX9B0KaKUmfO7skNgmQwuQRb1RhuISw6uNrrJ1elULHE2zlPF6Cs79wQGofKrbtp_VAgMoQy6JkCf5EIUm71l3RxhxwdzuxbaZoyTuvFBTLK-_N1LyZMsVstuVi9eLnuT9J0ANmcdprJjjtYMdWvXXFbYx7Cw7J-zcOTgYOZGR2RdF6uTLpVBFn7oO_BM1GlKbroWDCvN-8GruR7y0]--></g></svg>