<?xml version="1.0" encoding="us-ascii" standalone="no"?><svg xmlns="http://www.w3.org/2000/svg" xmlns:xlink="http://www.w3.org/1999/xlink" contentStyleType="text/css" height="558px" preserveAspectRatio="none" style="width:703px;height:558px;background:#FFFFFF;" version="1.1" viewBox="0 0 703 558" width="703px" zoomAndPan="magnify"><defs/><g><!--cluster Users--><g id="cluster_Users"><path d="M8.5,6 L49.5,6 A3.75,3.75 0 0 1 52,8.5 L59,28.4883 L693.5,28.4883 A2.5,2.5 0 0 1 696,30.9883 L696,549.41 A2.5,2.5 0 0 1 693.5,551.91 L8.5,551.91 A2.5,2.5 0 0 1 6,549.41 L6,8.5 A2.5,2.5 0 0 1 8.5,6 " fill="none" style="stroke:#000000;stroke-width:1.5;"/><line style="stroke:#000000;stroke-width:1.5;" x1="6" x2="59" y1="28.4883" y2="28.4883"/><text fill="#000000" font-family="sans-serif" font-size="14" font-weight="bold" lengthAdjust="spacing" textLength="40" x="10" y="21.5352">Users</text></g><!--class User--><g id="elem_User"><rect codeLine="7" fill="#F1F1F1" height="122.4414" id="User" rx="2.5" ry="2.5" style="stroke:#181818;stroke-width:0.5;" width="121" x="403.5" y="41"/><ellipse cx="444.6" cy="57" fill="#ADD1B2" rx="11" ry="11" style="stroke:#181818;stroke-width:1.0;"/><path d="M447.5731,62.6431 Q446.9921,62.9419 446.3529,63.0913 Q445.7138,63.2407 445.0082,63.2407 Q442.5014,63.2407 441.1815,61.5889 Q439.8617,59.937 439.8617,56.8159 Q439.8617,53.6865 441.1815,52.0347 Q442.5014,50.3828 445.0082,50.3828 Q445.7138,50.3828 446.3612,50.5322 Q447.0087,50.6816 447.5731,50.9805 L447.5731,53.7031 Q446.9423,53.1221 446.3488,52.8523 Q445.7553,52.5825 445.1244,52.5825 Q443.7797,52.5825 443.0949,53.6492 Q442.4101,54.7158 442.4101,56.8159 Q442.4101,58.9077 443.0949,59.9744 Q443.7797,61.041 445.1244,61.041 Q445.7553,61.041 446.3488,60.7712 Q446.9423,60.5015 447.5731,59.9204 Z " fill="#000000"/><text fill="#000000" font-family="sans-serif" font-size="14" lengthAdjust="spacing" textLength="31" x="464.4" y="62.291">User</text><line style="stroke:#181818;stroke-width:0.5;" x1="404.5" x2="523.5" y1="73" y2="73"/><text fill="#000000" font-family="sans-serif" font-size="14" lengthAdjust="spacing" textLength="52" x="409.5" y="90.5352">-userID</text><text fill="#000000" font-family="sans-serif" font-size="14" lengthAdjust="spacing" textLength="46" x="409.5" y="107.0234">-name</text><text fill="#000000" font-family="sans-serif" font-size="14" lengthAdjust="spacing" textLength="45" x="409.5" y="123.5117">-email</text><text fill="#000000" font-family="sans-serif" font-size="14" lengthAdjust="spacing" textLength="109" x="409.5" y="140">-recoveryCodes</text><text fill="#000000" font-family="sans-serif" font-size="14" lengthAdjust="spacing" textLength="90" x="409.5" y="156.4883">-2FAEnabled</text></g><!--class Password--><g id="elem_Password"><rect codeLine="15" fill="#F1F1F1" height="89.4648" id="Password" rx="2.5" ry="2.5" style="stroke:#181818;stroke-width:0.5;" width="97" x="46.5" y="260.45"/><ellipse cx="61.5" cy="276.45" fill="#ADD1B2" rx="11" ry="11" style="stroke:#181818;stroke-width:1.0;"/><path d="M64.4731,282.0931 Q63.8921,282.3919 63.2529,282.5413 Q62.6138,282.6907 61.9082,282.6907 Q59.4014,282.6907 58.0815,281.0389 Q56.7617,279.387 56.7617,276.2659 Q56.7617,273.1365 58.0815,271.4847 Q59.4014,269.8328 61.9082,269.8328 Q62.6138,269.8328 63.2612,269.9822 Q63.9087,270.1316 64.4731,270.4305 L64.4731,273.1531 Q63.8423,272.5721 63.2488,272.3023 Q62.6553,272.0325 62.0244,272.0325 Q60.6797,272.0325 59.9949,273.0992 Q59.3101,274.1658 59.3101,276.2659 Q59.3101,278.3577 59.9949,279.4244 Q60.6797,280.491 62.0244,280.491 Q62.6553,280.491 63.2488,280.2212 Q63.8423,279.9515 64.4731,279.3704 Z " fill="#000000"/><text fill="#000000" font-family="sans-serif" font-size="14" lengthAdjust="spacing" textLength="65" x="75.5" y="281.741">Password</text><line style="stroke:#181818;stroke-width:0.5;" x1="47.5" x2="142.5" y1="292.45" y2="292.45"/><text fill="#000000" font-family="sans-serif" font-size="14" lengthAdjust="spacing" textLength="74" x="52.5" y="309.9852">-password</text><text fill="#000000" font-family="sans-serif" font-size="14" lengthAdjust="spacing" textLength="74" x="52.5" y="326.4734">-createdAt</text><text fill="#000000" font-family="sans-serif" font-size="14" lengthAdjust="spacing" textLength="74" x="52.5" y="342.9617">-deletedAt</text></g><!--class PasswordResetToken--><g id="elem_PasswordResetToken"><rect codeLine="21" fill="#F1F1F1" height="72.9766" id="PasswordResetToken" rx="2.5" ry="2.5" style="stroke:#181818;stroke-width:0.5;" width="177" x="226.5" y="268.95"/><ellipse cx="241.5" cy="284.95" fill="#ADD1B2" rx="11" ry="11" style="stroke:#181818;stroke-width:1.0;"/><path d="M244.4731,290.5931 Q243.8921,290.8919 243.2529,291.0413 Q242.6138,291.1907 241.9082,291.1907 Q239.4014,291.1907 238.0815,289.5389 Q236.7617,287.887 236.7617,284.7659 Q236.7617,281.6365 238.0815,279.9847 Q239.4014,278.3328 241.9082,278.3328 Q242.6138,278.3328 243.2612,278.4822 Q243.9087,278.6316 244.4731,278.9305 L244.4731,281.6531 Q243.8423,281.0721 243.2488,280.8023 Q242.6553,280.5325 242.0244,280.5325 Q240.6797,280.5325 239.9949,281.5992 Q239.3101,282.6658 239.3101,284.7659 Q239.3101,286.8577 239.9949,287.9244 Q240.6797,288.991 242.0244,288.991 Q242.6553,288.991 243.2488,288.7212 Q243.8423,288.4515 244.4731,287.8704 Z " fill="#000000"/><text fill="#000000" font-family="sans-serif" font-size="14" lengthAdjust="spacing" textLength="145" x="255.5" y="290.241">PasswordResetToken</text><line style="stroke:#181818;stroke-width:0.5;" x1="227.5" x2="402.5" y1="300.95" y2="300.95"/><text fill="#000000" font-family="sans-serif" font-size="14" lengthAdjust="spacing" textLength="47" x="232.5" y="318.4852">-token</text><text fill="#000000" font-family="sans-serif" font-size="14" lengthAdjust="spacing" textLength="74" x="232.5" y="334.9734">-expiresAt</text></g><!--class Client--><g id="elem_Client"><rect codeLine="26" fill="#F1F1F1" height="89.4648" id="Client" rx="2.5" ry="2.5" style="stroke:#181818;stroke-width:0.5;" width="119" x="433.5" y="446.45"/><ellipse cx="469.65" cy="462.45" fill="#ADD1B2" rx="11" ry="11" style="stroke:#181818;stroke-width:1.0;"/><path d="M472.6231,468.0931 Q472.0421,468.3919 471.4029,468.5413 Q470.7638,468.6907 470.0582,468.6907 Q467.5514,468.6907 466.2315,467.0389 Q464.9117,465.387 464.9117,462.2659 Q464.9117,459.1365 466.2315,457.4847 Q467.5514,455.8328 470.0582,455.8328 Q470.7638,455.8328 471.4112,455.9822 Q472.0587,456.1316 472.6231,456.4305 L472.6231,459.1531 Q471.9923,458.5721 471.3988,458.3023 Q470.8053,458.0325 470.1744,458.0325 Q468.8297,458.0325 468.1449,459.0992 Q467.4601,460.1658 467.4601,462.2659 Q467.4601,464.3577 468.1449,465.4244 Q468.8297,466.491 470.1744,466.491 Q470.8053,466.491 471.3988,466.2212 Q471.9923,465.9515 472.6231,465.3704 Z " fill="#000000"/><text fill="#000000" font-family="sans-serif" font-size="14" lengthAdjust="spacing" textLength="40" x="488.35" y="467.741">Client</text><line style="stroke:#181818;stroke-width:0.5;" x1="434.5" x2="551.5" y1="478.45" y2="478.45"/><text fill="#000000" font-family="sans-serif" font-size="14" lengthAdjust="spacing" textLength="72" x="439.5" y="495.9852">-birthDate</text><text fill="#000000" font-family="sans-serif" font-size="14" lengthAdjust="spacing" textLength="107" x="439.5" y="512.4734">-phoneNumber</text><text fill="#000000" font-family="sans-serif" font-size="14" lengthAdjust="spacing" textLength="62" x="439.5" y="528.9617">-address</text></g><!--class Admin--><g id="elem_Admin"><rect codeLine="32" fill="#F1F1F1" height="40" id="Admin" rx="2.5" ry="2.5" style="stroke:#181818;stroke-width:0.5;" width="77" x="499.5" y="284.95"/><ellipse cx="514.5" cy="300.95" fill="#ADD1B2" rx="11" ry="11" style="stroke:#181818;stroke-width:1.0;"/><path d="M517.4731,306.5931 Q516.8921,306.8919 516.2529,307.0413 Q515.6138,307.1907 514.9082,307.1907 Q512.4014,307.1907 511.0815,305.5389 Q509.7617,303.887 509.7617,300.7659 Q509.7617,297.6365 511.0815,295.9847 Q512.4014,294.3328 514.9082,294.3328 Q515.6138,294.3328 516.2612,294.4822 Q516.9087,294.6316 517.4731,294.9305 L517.4731,297.6531 Q516.8423,297.0721 516.2488,296.8023 Q515.6553,296.5325 515.0244,296.5325 Q513.6797,296.5325 512.9949,297.5992 Q512.3101,298.6658 512.3101,300.7659 Q512.3101,302.8577 512.9949,303.9244 Q513.6797,304.991 515.0244,304.991 Q515.6553,304.991 516.2488,304.7212 Q516.8423,304.4515 517.4731,303.8704 Z " fill="#000000"/><text fill="#000000" font-family="sans-serif" font-size="14" lengthAdjust="spacing" textLength="45" x="528.5" y="306.241">Admin</text><line style="stroke:#181818;stroke-width:0.5;" x1="500.5" x2="575.5" y1="316.95" y2="316.95"/></g><!--class ERCA--><g id="elem_ERCA"><rect codeLine="36" fill="#F1F1F1" height="40" id="ERCA" rx="2.5" ry="2.5" style="stroke:#181818;stroke-width:0.5;" width="69" x="611.5" y="284.95"/><ellipse cx="626.5" cy="300.95" fill="#ADD1B2" rx="11" ry="11" style="stroke:#181818;stroke-width:1.0;"/><path d="M629.4731,306.5931 Q628.8921,306.8919 628.2529,307.0413 Q627.6138,307.1907 626.9082,307.1907 Q624.4014,307.1907 623.0815,305.5389 Q621.7617,303.887 621.7617,300.7659 Q621.7617,297.6365 623.0815,295.9847 Q624.4014,294.3328 626.9082,294.3328 Q627.6138,294.3328 628.2612,294.4822 Q628.9087,294.6316 629.4731,294.9305 L629.4731,297.6531 Q628.8423,297.0721 628.2488,296.8023 Q627.6553,296.5325 627.0244,296.5325 Q625.6797,296.5325 624.9949,297.5992 Q624.3101,298.6658 624.3101,300.7659 Q624.3101,302.8577 624.9949,303.9244 Q625.6797,304.991 627.0244,304.991 Q627.6553,304.991 628.2488,304.7212 Q628.8423,304.4515 629.4731,303.8704 Z " fill="#000000"/><text fill="#000000" font-family="sans-serif" font-size="14" lengthAdjust="spacing" textLength="37" x="640.5" y="306.241">ERCA</text><line style="stroke:#181818;stroke-width:0.5;" x1="612.5" x2="679.5" y1="316.95" y2="316.95"/></g><!--reverse link User to Client--><g id="link_User_Client"><path codeLine="41" d="M468.8184,181.7546 C472.2084,235.7246 476.4,298.91 482,369.45 C484.01,394.83 486.58,423.19 488.73,446.04 " fill="none" id="User-backto-Client" style="stroke:#181818;stroke-width:1.0;"/><polygon fill="none" points="467.69,163.79,462.8302,182.1307,474.8066,181.3785,467.69,163.79" style="stroke:#181818;stroke-width:1.0;"/></g><!--reverse link User to Admin--><g id="link_User_Admin"><path codeLine="42" d="M492.5288,180.6079 C507.7688,221.9279 520.74,257.14 530.92,284.73 " fill="none" id="User-backto-Admin" style="stroke:#181818;stroke-width:1.0;"/><polygon fill="none" points="486.3,163.72,486.8994,182.6842,498.1581,178.5317,486.3,163.72" style="stroke:#181818;stroke-width:1.0;"/></g><!--reverse link User to ERCA--><g id="link_User_ERCA"><path codeLine="43" d="M535.6434,176.8262 C558.1934,200.3962 571.44,214.84 594,240.45 C606.72,254.88 620.48,271.75 630.65,284.47 " fill="none" id="User-backto-ERCA" style="stroke:#181818;stroke-width:1.0;"/><polygon fill="none" points="523.2,163.82,531.308,180.974,539.9788,172.6784,523.2,163.82" style="stroke:#181818;stroke-width:1.0;"/></g><!--link User to Password--><g id="link_User_Password"><path codeLine="45" d="M403.24,129.75 C345.73,155.64 257.64,197.32 185,240.45 C171.02,248.74 161.3132,255.0719 148.0132,264.4519 " fill="none" id="User-to-Password" style="stroke:#181818;stroke-width:1.0;"/><polygon fill="#181818" points="143.11,267.91,152.7702,265.9917,147.196,265.0283,148.1595,259.4541,143.11,267.91" style="stroke:#181818;stroke-width:1.0;"/><polygon fill="#000000" points="267.5781,204.4391,276.9492,202.8164,274.2057,197.6181,267.5781,204.4391" style="stroke:#000000;stroke-width:1.0;"/><text fill="#000000" font-family="sans-serif" font-size="13" lengthAdjust="spacing" textLength="22" x="281" y="207.0184">has</text><text fill="#000000" font-family="sans-serif" font-size="13" lengthAdjust="spacing" textLength="8" x="387.3474" y="129.7784">1</text><text fill="#000000" font-family="sans-serif" font-size="13" lengthAdjust="spacing" textLength="6" x="151.4888" y="251.2566">*</text></g><!--link User to PasswordResetToken--><g id="link_User_PasswordResetToken"><path codeLine="46" d="M419.09,163.72 C393.56,198.12 366.056,235.1621 344.546,264.1421 " fill="none" id="User-to-PasswordResetToken" style="stroke:#181818;stroke-width:1.0;"/><polygon fill="#181818" points="340.97,268.96,349.546,264.1172,343.95,264.9451,343.1221,259.3491,340.97,268.96" style="stroke:#181818;stroke-width:1.0;"/><polygon fill="#000000" points="395.0198,206.1201,402.7709,200.609,398.0512,197.1055,395.0198,206.1201" style="stroke:#000000;stroke-width:1.0;"/><text fill="#000000" font-family="sans-serif" font-size="13" lengthAdjust="spacing" textLength="22" x="407" y="207.0184">has</text><text fill="#000000" font-family="sans-serif" font-size="13" lengthAdjust="spacing" textLength="8" x="405.7405" y="183.8521">1</text><text fill="#000000" font-family="sans-serif" font-size="13" lengthAdjust="spacing" textLength="6" x="339.3487" y="258.1746">*</text></g><!--link Admin to Client--><g id="link_Admin_Client"><path codeLine="48" d="M533.27,325.31 C526.32,353.77 514.5845,401.8216 505.1945,440.2416 " fill="none" id="Admin-to-Client" style="stroke:#181818;stroke-width:1.0;"/><polygon fill="#181818" points="503.77,446.07,509.7924,438.277,504.9571,441.213,502.0211,436.3777,503.77,446.07" style="stroke:#181818;stroke-width:1.0;"/><polygon fill="#000000" points="517.8135,412.9625,522.8149,404.8731,517.1049,403.4783,517.8135,412.9625" style="stroke:#000000;stroke-width:1.0;"/><text fill="#000000" font-family="sans-serif" font-size="13" lengthAdjust="spacing" textLength="56" x="528" y="413.0184">manages</text><text fill="#000000" font-family="sans-serif" font-size="13" lengthAdjust="spacing" textLength="8" x="522.9238" y="345.4075">1</text><text fill="#000000" font-family="sans-serif" font-size="13" lengthAdjust="spacing" textLength="6" x="498.9598" y="435.6059">*</text></g><!--SRC=[TPBBQiCm44Nt-WhXJQ7Wfkqob81nKiYcbBJzWB4rn29w66dSLzf_hwmQIwM95ePxTEVEUEoBZgZtoyMYLs1eqEggjNhHAl2-51Bs3ZJhf42kaJehFFC7QNe8c4TJHUHaCn1kMskUv2VoQyPwQ0-mH_xYqVaZOpoSw8xa6FLuoY78xJff0ngJGWrI9UcmjQ_eFcehq2TyUrzj33GAHMJVURl7y7YpJcGj-mabqZe4Gb5HGW8L9dGoSeSUwTaUq6JXDEhi1TvxwT2VYgcLH4DPQICTTUimI3PgPmq-3Bf1bo084IBz_yHAQ6ccPV-vsEpgQkRXPlm6_EwhBASXCX0pCZsMJWN5JS7BSbLS5lCA-99tuFdgh27jQBQos28t_muH31fC-6b6qmy0]--></g></svg>