<?xml version="1.0" encoding="us-ascii" standalone="no"?><svg xmlns="http://www.w3.org/2000/svg" xmlns:xlink="http://www.w3.org/1999/xlink" contentStyleType="text/css" height="761px" preserveAspectRatio="none" style="width:1563px;height:761px;background:#FAFDFF;" version="1.1" viewBox="0 0 1563 761" width="1563px" zoomAndPan="magnify"><defs/><g><rect fill="#FAFDFF" height="761" style="stroke:none;stroke-width:1.0;" width="1563" x="0" y="0"/><text fill="#000000" font-family="sans-serif" font-size="14" font-weight="bold" lengthAdjust="spacing" textLength="174" x="693.5" y="28.5352">US 01 - Reset password</text><rect fill="#C2F0FF" height="542.9004" style="stroke:#1E90FF;stroke-width:1.0;" width="10" x="24.5" y="128.9766"/><rect fill="#C2F0FF" height="29.3105" style="stroke:#1E90FF;stroke-width:1.0;" width="10" x="310.5" y="150.2871"/><rect fill="#C2F0FF" height="146.5527" style="stroke:#1E90FF;stroke-width:1.0;" width="10" x="310.5" y="208.9082"/><rect fill="#C2F0FF" height="29.3105" style="stroke:#1E90FF;stroke-width:1.0;" width="10" x="509.5" y="442.3926"/><rect fill="#C2F0FF" height="146.5527" style="stroke:#1E90FF;stroke-width:1.0;" width="10" x="509.5" y="516.3242"/><rect fill="#C2F0FF" height="87.9316" style="stroke:#1E90FF;stroke-width:1.0;" width="10" x="727.5" y="238.2188"/><rect fill="#C2F0FF" height="87.9316" style="stroke:#1E90FF;stroke-width:1.0;" width="10" x="727.5" y="545.6348"/><rect fill="#C2F0FF" height="29.3105" style="stroke:#1E90FF;stroke-width:1.0;" width="10" x="1515.5" y="267.5293"/><rect fill="#C2F0FF" height="29.3105" style="stroke:#1E90FF;stroke-width:1.0;" width="10" x="1515.5" y="574.9453"/><line style="stroke:#1E90FF;stroke-width:0.5;stroke-dasharray:5.0,5.0;" x1="29" x2="29" y1="118.9766" y2="680.877"/><line style="stroke:#1E90FF;stroke-width:0.5;stroke-dasharray:5.0,5.0;" x1="315.5" x2="315.5" y1="118.9766" y2="680.877"/><line style="stroke:#1E90FF;stroke-width:0.5;stroke-dasharray:5.0,5.0;" x1="514" x2="514" y1="118.9766" y2="680.877"/><line style="stroke:#1E90FF;stroke-width:0.5;stroke-dasharray:5.0,5.0;" x1="732" x2="732" y1="118.9766" y2="680.877"/><line style="stroke:#1E90FF;stroke-width:0.5;stroke-dasharray:5.0,5.0;" x1="1520" x2="1520" y1="118.9766" y2="680.877"/><text fill="#000000" font-family="sans-serif" font-size="14" font-weight="bold" lengthAdjust="spacing" textLength="43" x="5" y="116.0234">Client</text><ellipse cx="29.5" cy="50.9883" fill="#C2F0FF" rx="8" ry="8" style="stroke:#1E90FF;stroke-width:0.5;"/><path d="M29.5,58.9883 L29.5,85.9883 M16.5,66.9883 L42.5,66.9883 M29.5,85.9883 L16.5,100.9883 M29.5,85.9883 L42.5,100.9883 " fill="none" style="stroke:#1E90FF;stroke-width:0.5;"/><text fill="#000000" font-family="sans-serif" font-size="14" font-weight="bold" lengthAdjust="spacing" textLength="43" x="5" y="693.4121">Client</text><ellipse cx="29.5" cy="704.8652" fill="#C2F0FF" rx="8" ry="8" style="stroke:#1E90FF;stroke-width:0.5;"/><path d="M29.5,712.8652 L29.5,739.8652 M16.5,720.8652 L42.5,720.8652 M29.5,739.8652 L16.5,754.8652 M29.5,739.8652 L42.5,754.8652 " fill="none" style="stroke:#1E90FF;stroke-width:0.5;"/><rect fill="#FFFFFF" height="30.4883" rx="2.5" ry="2.5" style="stroke:#1E90FF;stroke-width:0.5;" width="88" x="271.5" y="87.4883"/><text fill="#000000" font-family="sans-serif" font-size="14" font-weight="bold" lengthAdjust="spacing" textLength="74" x="278.5" y="108.0234">LoginPage</text><rect fill="#FFFFFF" height="30.4883" rx="2.5" ry="2.5" style="stroke:#1E90FF;stroke-width:0.5;" width="88" x="271.5" y="679.877"/><text fill="#000000" font-family="sans-serif" font-size="14" font-weight="bold" lengthAdjust="spacing" textLength="74" x="278.5" y="700.4121">LoginPage</text><rect fill="#FFFFFF" height="30.4883" rx="2.5" ry="2.5" style="stroke:#1E90FF;stroke-width:0.5;" width="157" x="436" y="87.4883"/><text fill="#000000" font-family="sans-serif" font-size="14" font-weight="bold" lengthAdjust="spacing" textLength="143" x="443" y="108.0234">ResetPasswordPage</text><rect fill="#FFFFFF" height="30.4883" rx="2.5" ry="2.5" style="stroke:#1E90FF;stroke-width:0.5;" width="157" x="436" y="679.877"/><text fill="#000000" font-family="sans-serif" font-size="14" font-weight="bold" lengthAdjust="spacing" textLength="143" x="443" y="700.4121">ResetPasswordPage</text><rect fill="#FFFFFF" height="30.4883" rx="2.5" ry="2.5" style="stroke:#1E90FF;stroke-width:0.5;" width="173" x="646" y="87.4883"/><text fill="#000000" font-family="sans-serif" font-size="14" font-weight="bold" lengthAdjust="spacing" textLength="159" x="653" y="108.0234">ResetPasswordService</text><rect fill="#FFFFFF" height="30.4883" rx="2.5" ry="2.5" style="stroke:#1E90FF;stroke-width:0.5;" width="173" x="646" y="679.877"/><text fill="#000000" font-family="sans-serif" font-size="14" font-weight="bold" lengthAdjust="spacing" textLength="159" x="653" y="700.4121">ResetPasswordService</text><rect fill="#FFFFFF" height="30.4883" rx="2.5" ry="2.5" style="stroke:#1E90FF;stroke-width:0.5;" width="73" x="1484" y="87.4883"/><text fill="#000000" font-family="sans-serif" font-size="14" font-weight="bold" lengthAdjust="spacing" textLength="59" x="1491" y="108.0234">BackEnd</text><rect fill="#FFFFFF" height="30.4883" rx="2.5" ry="2.5" style="stroke:#1E90FF;stroke-width:0.5;" width="73" x="1484" y="679.877"/><text fill="#000000" font-family="sans-serif" font-size="14" font-weight="bold" lengthAdjust="spacing" textLength="59" x="1491" y="700.4121">BackEnd</text><rect fill="#C2F0FF" height="542.9004" style="stroke:#1E90FF;stroke-width:1.0;" width="10" x="24.5" y="128.9766"/><rect fill="#C2F0FF" height="29.3105" style="stroke:#1E90FF;stroke-width:1.0;" width="10" x="310.5" y="150.2871"/><rect fill="#C2F0FF" height="146.5527" style="stroke:#1E90FF;stroke-width:1.0;" width="10" x="310.5" y="208.9082"/><rect fill="#C2F0FF" height="29.3105" style="stroke:#1E90FF;stroke-width:1.0;" width="10" x="509.5" y="442.3926"/><rect fill="#C2F0FF" height="146.5527" style="stroke:#1E90FF;stroke-width:1.0;" width="10" x="509.5" y="516.3242"/><rect fill="#C2F0FF" height="87.9316" style="stroke:#1E90FF;stroke-width:1.0;" width="10" x="727.5" y="238.2188"/><rect fill="#C2F0FF" height="87.9316" style="stroke:#1E90FF;stroke-width:1.0;" width="10" x="727.5" y="545.6348"/><rect fill="#C2F0FF" height="29.3105" style="stroke:#1E90FF;stroke-width:1.0;" width="10" x="1515.5" y="267.5293"/><rect fill="#C2F0FF" height="29.3105" style="stroke:#1E90FF;stroke-width:1.0;" width="10" x="1515.5" y="574.9453"/><polygon fill="#1E90FF" points="298.5,146.2871,308.5,150.2871,298.5,154.2871,302.5,150.2871" style="stroke:#1E90FF;stroke-width:1.0;"/><line style="stroke:#1E90FF;stroke-width:1.0;" x1="34.5" x2="304.5" y1="150.2871" y2="150.2871"/><text fill="#000000" font-family="sans-serif" font-size="13" font-weight="bold" lengthAdjust="spacing" textLength="9" x="47" y="145.5449">1</text><text fill="#000000" font-family="sans-serif" font-size="13" lengthAdjust="spacing" textLength="238" x="60" y="145.5449">Press the "Rest Password" button/link</text><polygon fill="#1E90FF" points="45.5,175.5977,35.5,179.5977,45.5,183.5977,41.5,179.5977" style="stroke:#1E90FF;stroke-width:1.0;"/><line style="stroke:#1E90FF;stroke-width:1.0;" x1="39.5" x2="314.5" y1="179.5977" y2="179.5977"/><text fill="#000000" font-family="sans-serif" font-size="13" font-weight="bold" lengthAdjust="spacing" textLength="9" x="49.5" y="174.8555">2</text><text fill="#000000" font-family="sans-serif" font-size="13" lengthAdjust="spacing" textLength="238" x="62.5" y="174.8555">Display the form to indicate the email</text><polygon fill="#1E90FF" points="298.5,204.9082,308.5,208.9082,298.5,212.9082,302.5,208.9082" style="stroke:#1E90FF;stroke-width:1.0;"/><line style="stroke:#1E90FF;stroke-width:1.0;" x1="34.5" x2="304.5" y1="208.9082" y2="208.9082"/><text fill="#000000" font-family="sans-serif" font-size="13" font-weight="bold" lengthAdjust="spacing" textLength="9" x="44" y="204.166">3</text><text fill="#000000" font-family="sans-serif" font-size="13" lengthAdjust="spacing" textLength="244" x="57" y="204.166">Fills in the email and submits the form</text><polygon fill="#1E90FF" points="715.5,234.2188,725.5,238.2188,715.5,242.2188,719.5,238.2188" style="stroke:#1E90FF;stroke-width:1.0;"/><line style="stroke:#1E90FF;stroke-width:1.0;" x1="320.5" x2="721.5" y1="238.2188" y2="238.2188"/><text fill="#000000" font-family="sans-serif" font-size="13" font-weight="bold" lengthAdjust="spacing" textLength="9" x="399" y="233.4766">4</text><text fill="#000000" font-family="sans-serif" font-size="13" lengthAdjust="spacing" textLength="237" x="412" y="233.4766">startResetPasswordProcess(formData)</text><polygon fill="#1E90FF" points="1503.5,263.5293,1513.5,267.5293,1503.5,271.5293,1507.5,267.5293" style="stroke:#1E90FF;stroke-width:1.0;"/><line style="stroke:#1E90FF;stroke-width:1.0;stroke-dasharray:2.0,2.0;" x1="737.5" x2="1509.5" y1="267.5293" y2="267.5293"/><text fill="#000000" font-family="sans-serif" font-size="13" font-weight="bold" lengthAdjust="spacing" textLength="9" x="979.5" y="262.7871">5</text><text fill="#000000" font-family="sans-serif" font-size="13" lengthAdjust="spacing" textLength="281" x="992.5" y="262.7871">HTTP POST: "/reset-password-email" (email)</text><polygon fill="#1E90FF" points="748.5,292.8398,738.5,296.8398,748.5,300.8398,744.5,296.8398" style="stroke:#1E90FF;stroke-width:1.0;"/><line style="stroke:#1E90FF;stroke-width:1.0;stroke-dasharray:2.0,2.0;" x1="742.5" x2="1519.5" y1="296.8398" y2="296.8398"/><text fill="#000000" font-family="sans-serif" font-size="13" font-weight="bold" lengthAdjust="spacing" textLength="9" x="1036" y="292.0977">6</text><text fill="#000000" font-family="sans-serif" font-size="13" lengthAdjust="spacing" textLength="173" x="1049" y="292.0977">confirmation of the request</text><polygon fill="#1E90FF" points="331.5,322.1504,321.5,326.1504,331.5,330.1504,327.5,326.1504" style="stroke:#1E90FF;stroke-width:1.0;"/><line style="stroke:#1E90FF;stroke-width:1.0;stroke-dasharray:2.0,2.0;" x1="325.5" x2="731.5" y1="326.1504" y2="326.1504"/><text fill="#000000" font-family="sans-serif" font-size="13" font-weight="bold" lengthAdjust="spacing" textLength="9" x="439" y="321.4082">7</text><text fill="#000000" font-family="sans-serif" font-size="13" lengthAdjust="spacing" textLength="162" x="452" y="321.4082">confirmation of operation</text><polygon fill="#1E90FF" points="45.5,351.4609,35.5,355.4609,45.5,359.4609,41.5,355.4609" style="stroke:#1E90FF;stroke-width:1.0;"/><line style="stroke:#1E90FF;stroke-width:1.0;" x1="39.5" x2="314.5" y1="355.4609" y2="355.4609"/><text fill="#000000" font-family="sans-serif" font-size="13" font-weight="bold" lengthAdjust="spacing" textLength="9" x="79.5" y="350.7188">8</text><text fill="#000000" font-family="sans-serif" font-size="13" lengthAdjust="spacing" textLength="178" x="92.5" y="350.7188">Displays a success message</text><line style="stroke:#1E90FF;stroke-width:1.0;" x1="34.5" x2="76.5" y1="400.082" y2="400.082"/><line style="stroke:#1E90FF;stroke-width:1.0;" x1="76.5" x2="76.5" y1="400.082" y2="413.082"/><line style="stroke:#1E90FF;stroke-width:1.0;" x1="35.5" x2="76.5" y1="413.082" y2="413.082"/><polygon fill="#1E90FF" points="45.5,409.082,35.5,413.082,45.5,417.082,41.5,413.082" style="stroke:#1E90FF;stroke-width:1.0;"/><text fill="#000000" font-family="sans-serif" font-size="13" font-weight="bold" lengthAdjust="spacing" textLength="9" x="41.5" y="387.6846">9</text><text fill="#000000" font-family="sans-serif" font-size="13" lengthAdjust="spacing" textLength="200" x="60.5" y="380.0293">Check the reset password email</text><text fill="#000000" font-family="sans-serif" font-size="13" lengthAdjust="spacing" textLength="212" x="58.5" y="395.3398">and press the reset password link</text><polygon fill="#1E90FF" points="497.5,438.3926,507.5,442.3926,497.5,446.3926,501.5,442.3926" style="stroke:#1E90FF;stroke-width:1.0;"/><line style="stroke:#1E90FF;stroke-width:1.0;" x1="34.5" x2="503.5" y1="442.3926" y2="442.3926"/><text fill="#000000" font-family="sans-serif" font-size="13" font-weight="bold" lengthAdjust="spacing" textLength="18" x="160.5" y="437.6504">10</text><text fill="#000000" font-family="sans-serif" font-size="13" lengthAdjust="spacing" textLength="201" x="182.5" y="437.6504">Access the reset password page</text><polygon fill="#1E90FF" points="45.5,467.7031,35.5,471.7031,45.5,475.7031,41.5,471.7031" style="stroke:#1E90FF;stroke-width:1.0;"/><line style="stroke:#1E90FF;stroke-width:1.0;" x1="39.5" x2="513.5" y1="471.7031" y2="471.7031"/><text fill="#000000" font-family="sans-serif" font-size="13" font-weight="bold" lengthAdjust="spacing" textLength="18" x="141" y="466.9609">11</text><text fill="#000000" font-family="sans-serif" font-size="13" lengthAdjust="spacing" textLength="245" x="163" y="466.9609">Display the form to reset the password</text><polygon fill="#1E90FF" points="497.5,512.3242,507.5,516.3242,497.5,520.3242,501.5,516.3242" style="stroke:#1E90FF;stroke-width:1.0;"/><line style="stroke:#1E90FF;stroke-width:1.0;" x1="34.5" x2="503.5" y1="516.3242" y2="516.3242"/><text fill="#000000" font-family="sans-serif" font-size="13" font-weight="bold" lengthAdjust="spacing" textLength="18" x="44" y="503.9268">12</text><text fill="#000000" font-family="sans-serif" font-size="13" lengthAdjust="spacing" textLength="430" x="66" y="496.2715">Fills in the form (email, new_password, new_password_confirmation</text><text fill="#000000" font-family="sans-serif" font-size="13" lengthAdjust="spacing" textLength="244" x="163" y="511.582">authentication_app_code) and submits</text><polygon fill="#1E90FF" points="715.5,541.6348,725.5,545.6348,715.5,549.6348,719.5,545.6348" style="stroke:#1E90FF;stroke-width:1.0;"/><line style="stroke:#1E90FF;stroke-width:1.0;" x1="519.5" x2="721.5" y1="545.6348" y2="545.6348"/><text fill="#000000" font-family="sans-serif" font-size="13" font-weight="bold" lengthAdjust="spacing" textLength="18" x="534" y="540.8926">13</text><text fill="#000000" font-family="sans-serif" font-size="13" lengthAdjust="spacing" textLength="157" x="556" y="540.8926">resetPassword(formData)</text><polygon fill="#1E90FF" points="1503.5,570.9453,1513.5,574.9453,1503.5,578.9453,1507.5,574.9453" style="stroke:#1E90FF;stroke-width:1.0;"/><line style="stroke:#1E90FF;stroke-width:1.0;" x1="737.5" x2="1509.5" y1="574.9453" y2="574.9453"/><text fill="#000000" font-family="sans-serif" font-size="13" font-weight="bold" lengthAdjust="spacing" textLength="18" x="747" y="570.2031">14</text><text fill="#000000" font-family="sans-serif" font-size="13" lengthAdjust="spacing" textLength="737" x="769" y="570.2031">HTTP POST: "/reset-password" (token, email, new_password, new_password_confirmation, authentication_app_code)</text><polygon fill="#1E90FF" points="748.5,600.2559,738.5,604.2559,748.5,608.2559,744.5,604.2559" style="stroke:#1E90FF;stroke-width:1.0;"/><line style="stroke:#1E90FF;stroke-width:1.0;stroke-dasharray:2.0,2.0;" x1="742.5" x2="1519.5" y1="604.2559" y2="604.2559"/><text fill="#000000" font-family="sans-serif" font-size="13" font-weight="bold" lengthAdjust="spacing" textLength="18" x="1031.5" y="599.5137">15</text><text fill="#000000" font-family="sans-serif" font-size="13" lengthAdjust="spacing" textLength="173" x="1053.5" y="599.5137">confirmation of the request</text><polygon fill="#1E90FF" points="530.5,629.5664,520.5,633.5664,530.5,637.5664,526.5,633.5664" style="stroke:#1E90FF;stroke-width:1.0;"/><line style="stroke:#1E90FF;stroke-width:1.0;stroke-dasharray:2.0,2.0;" x1="524.5" x2="731.5" y1="633.5664" y2="633.5664"/><text fill="#000000" font-family="sans-serif" font-size="13" font-weight="bold" lengthAdjust="spacing" textLength="18" x="534" y="628.8242">16</text><text fill="#000000" font-family="sans-serif" font-size="13" lengthAdjust="spacing" textLength="162" x="556" y="628.8242">confirmation of operation</text><polygon fill="#1E90FF" points="45.5,658.877,35.5,662.877,45.5,666.877,41.5,662.877" style="stroke:#1E90FF;stroke-width:1.0;"/><line style="stroke:#1E90FF;stroke-width:1.0;" x1="39.5" x2="513.5" y1="662.877" y2="662.877"/><text fill="#000000" font-family="sans-serif" font-size="13" font-weight="bold" lengthAdjust="spacing" textLength="18" x="174.5" y="658.1348">17</text><text fill="#000000" font-family="sans-serif" font-size="13" lengthAdjust="spacing" textLength="178" x="196.5" y="658.1348">Displays a success message</text><!--SRC=[nLHhQzim5FskNt59FxI5c7PbZ156mNcqAvZ591dxCWYABQSYjkH9Shiozjzt9USXrqbAORI6EDZttCSvzrYdmTGyvInuuuiGMXafgcB1525wnKL95IrWo39QvMR6VfimvqjHC64WmLiJrgV9Qgba9TA1pAM2auncQPRv4BmRdl2IOe4_v7b2-6Cwxz_E1-DeF25zgLAclC1uCXnDri6_Vb7DVbLC90mhHZnZ4HVCJnxATCbKFw_OBloySHn7TuDmTZV-HaYO6AcE8Mh0_WujJYStxYAXKlAn1JzG9Tx9TAZFBVOe_U39vUUhJn-lre4ZuwDsfy6Cc_Vmbx5juViKBZz001EccK5FQFs8HEnOJbfzuV7NRs9xsnOwNnRNWvoZhpj0DOI4-7QrqKWkkOZfaZb05BS0Zb6y9hG5Jk8Na5Ec7dYo0KzROBlEaKXTl3zoGcaj4quDbqA_vVcG6Fv03RFYX11SemOzY1NJ6imzWmwoCh1XrO55PV0ykSYvMErIKJOInJOvxC6GwpAdJouxawe08u6Bb2SMQL-oWlASfAoHlcrzm_DSOy8E2bIaeAj5mOtULjtN77NkWJQeT7DfIYP8vyoc3QcXvnvfknhyGO3f_H7quEji5aCydivwqBbGjaomSNFWfkd0cVltg-02CJceHy0YYHGPLuNR9SZC3QtiaQQDpzlkVTCS6RJpPCcKU_2pxCWjjJLGb2YnFA706_fqhyAOCRXdoMezal-nhiN-APpUvTO1pr1kytKn_0Xw4DPDzo1BEuGlTOniZxcaphTljWT8WtVizstun5Mezz85mHxdcmBDftb3OCkqmcnXh3VnpPoM9K9ITkvRRZy5vpNbs-oWl-eTMtyTjHSQoyWL4rru7O_kGHR_rw6M-6iisjhr2nvr-yLpy5qkyWy0]--></g></svg>