<?xml version="1.0" encoding="us-ascii" standalone="no"?><svg xmlns="http://www.w3.org/2000/svg" xmlns:xlink="http://www.w3.org/1999/xlink" contentStyleType="text/css" height="469px" preserveAspectRatio="none" style="width:477px;height:469px;background:#FAFDFF;" version="1.1" viewBox="0 0 477 469" width="477px" zoomAndPan="magnify"><defs/><g><rect fill="#FAFDFF" height="469" style="stroke:none;stroke-width:1.0;" width="477" x="0" y="0"/><text fill="#000000" font-family="sans-serif" font-size="14" font-weight="bold" lengthAdjust="spacing" textLength="174" x="150.75" y="28.5352">US 01 - Reset password</text><rect fill="#C2F0FF" height="250.7949" style="stroke:#1E90FF;stroke-width:1.0;" width="10" x="24.5" y="128.9766"/><rect fill="#C2F0FF" height="29.3105" style="stroke:#1E90FF;stroke-width:1.0;" width="10" x="433.5" y="150.2871"/><rect fill="#C2F0FF" height="29.3105" style="stroke:#1E90FF;stroke-width:1.0;" width="10" x="433.5" y="208.9082"/><rect fill="#C2F0FF" height="29.3105" style="stroke:#1E90FF;stroke-width:1.0;" width="10" x="433.5" y="267.5293"/><rect fill="#C2F0FF" height="29.3105" style="stroke:#1E90FF;stroke-width:1.0;" width="10" x="433.5" y="341.4609"/><line style="stroke:#1E90FF;stroke-width:0.5;stroke-dasharray:5.0,5.0;" x1="29" x2="29" y1="118.9766" y2="388.7715"/><line style="stroke:#1E90FF;stroke-width:0.5;stroke-dasharray:5.0,5.0;" x1="438.5" x2="438.5" y1="118.9766" y2="388.7715"/><text fill="#000000" font-family="sans-serif" font-size="14" font-weight="bold" lengthAdjust="spacing" textLength="43" x="5" y="116.0234">Client</text><ellipse cx="29.5" cy="50.9883" fill="#C2F0FF" rx="8" ry="8" style="stroke:#1E90FF;stroke-width:0.5;"/><path d="M29.5,58.9883 L29.5,85.9883 M16.5,66.9883 L42.5,66.9883 M29.5,85.9883 L16.5,100.9883 M29.5,85.9883 L42.5,100.9883 " fill="none" style="stroke:#1E90FF;stroke-width:0.5;"/><text fill="#000000" font-family="sans-serif" font-size="14" font-weight="bold" lengthAdjust="spacing" textLength="43" x="5" y="401.3066">Client</text><ellipse cx="29.5" cy="412.7598" fill="#C2F0FF" rx="8" ry="8" style="stroke:#1E90FF;stroke-width:0.5;"/><path d="M29.5,420.7598 L29.5,447.7598 M16.5,428.7598 L42.5,428.7598 M29.5,447.7598 L16.5,462.7598 M29.5,447.7598 L42.5,462.7598 " fill="none" style="stroke:#1E90FF;stroke-width:0.5;"/><rect fill="#FFFFFF" height="30.4883" rx="2.5" ry="2.5" style="stroke:#1E90FF;stroke-width:0.5;" width="66" x="405.5" y="87.4883"/><text fill="#000000" font-family="sans-serif" font-size="14" font-weight="bold" lengthAdjust="spacing" textLength="52" x="412.5" y="108.0234">System</text><rect fill="#FFFFFF" height="30.4883" rx="2.5" ry="2.5" style="stroke:#1E90FF;stroke-width:0.5;" width="66" x="405.5" y="387.7715"/><text fill="#000000" font-family="sans-serif" font-size="14" font-weight="bold" lengthAdjust="spacing" textLength="52" x="412.5" y="408.3066">System</text><rect fill="#C2F0FF" height="250.7949" style="stroke:#1E90FF;stroke-width:1.0;" width="10" x="24.5" y="128.9766"/><rect fill="#C2F0FF" height="29.3105" style="stroke:#1E90FF;stroke-width:1.0;" width="10" x="433.5" y="150.2871"/><rect fill="#C2F0FF" height="29.3105" style="stroke:#1E90FF;stroke-width:1.0;" width="10" x="433.5" y="208.9082"/><rect fill="#C2F0FF" height="29.3105" style="stroke:#1E90FF;stroke-width:1.0;" width="10" x="433.5" y="267.5293"/><rect fill="#C2F0FF" height="29.3105" style="stroke:#1E90FF;stroke-width:1.0;" width="10" x="433.5" y="341.4609"/><polygon fill="#1E90FF" points="421.5,146.2871,431.5,150.2871,421.5,154.2871,425.5,150.2871" style="stroke:#1E90FF;stroke-width:1.0;"/><line style="stroke:#1E90FF;stroke-width:1.0;" x1="34.5" x2="427.5" y1="150.2871" y2="150.2871"/><text fill="#000000" font-family="sans-serif" font-size="13" font-weight="bold" lengthAdjust="spacing" textLength="9" x="141" y="145.5449">1</text><text fill="#000000" font-family="sans-serif" font-size="13" lengthAdjust="spacing" textLength="173" x="154" y="145.5449">Requests to reset password</text><polygon fill="#1E90FF" points="45.5,175.5977,35.5,179.5977,45.5,183.5977,41.5,179.5977" style="stroke:#1E90FF;stroke-width:1.0;"/><line style="stroke:#1E90FF;stroke-width:1.0;" x1="39.5" x2="437.5" y1="179.5977" y2="179.5977"/><text fill="#000000" font-family="sans-serif" font-size="13" font-weight="bold" lengthAdjust="spacing" textLength="9" x="107.5" y="174.8555">2</text><text fill="#000000" font-family="sans-serif" font-size="13" lengthAdjust="spacing" textLength="245" x="120.5" y="174.8555">Displays the form to indicate the email</text><polygon fill="#1E90FF" points="421.5,204.9082,431.5,208.9082,421.5,212.9082,425.5,208.9082" style="stroke:#1E90FF;stroke-width:1.0;"/><line style="stroke:#1E90FF;stroke-width:1.0;" x1="34.5" x2="427.5" y1="208.9082" y2="208.9082"/><text fill="#000000" font-family="sans-serif" font-size="13" font-weight="bold" lengthAdjust="spacing" textLength="9" x="134.5" y="204.166">3</text><text fill="#000000" font-family="sans-serif" font-size="13" lengthAdjust="spacing" textLength="186" x="147.5" y="204.166">Fills in the email and submits</text><polygon fill="#1E90FF" points="45.5,234.2188,35.5,238.2188,45.5,242.2188,41.5,238.2188" style="stroke:#1E90FF;stroke-width:1.0;"/><line style="stroke:#1E90FF;stroke-width:1.0;" x1="39.5" x2="437.5" y1="238.2188" y2="238.2188"/><text fill="#000000" font-family="sans-serif" font-size="13" font-weight="bold" lengthAdjust="spacing" textLength="9" x="78" y="233.4766">4</text><text fill="#000000" font-family="sans-serif" font-size="13" lengthAdjust="spacing" textLength="304" x="91" y="233.4766">Sends an email with a link to reset the password</text><polygon fill="#1E90FF" points="421.5,263.5293,431.5,267.5293,421.5,271.5293,425.5,267.5293" style="stroke:#1E90FF;stroke-width:1.0;"/><line style="stroke:#1E90FF;stroke-width:1.0;" x1="34.5" x2="427.5" y1="267.5293" y2="267.5293"/><text fill="#000000" font-family="sans-serif" font-size="13" font-weight="bold" lengthAdjust="spacing" textLength="9" x="172.5" y="262.7871">5</text><text fill="#000000" font-family="sans-serif" font-size="13" lengthAdjust="spacing" textLength="110" x="185.5" y="262.7871">Accesses the link</text><polygon fill="#1E90FF" points="45.5,292.8398,35.5,296.8398,45.5,300.8398,41.5,296.8398" style="stroke:#1E90FF;stroke-width:1.0;"/><line style="stroke:#1E90FF;stroke-width:1.0;" x1="39.5" x2="437.5" y1="296.8398" y2="296.8398"/><text fill="#000000" font-family="sans-serif" font-size="13" font-weight="bold" lengthAdjust="spacing" textLength="9" x="124.5" y="292.0977">6</text><text fill="#000000" font-family="sans-serif" font-size="13" lengthAdjust="spacing" textLength="211" x="137.5" y="292.0977">Displays the reset password form</text><polygon fill="#1E90FF" points="421.5,337.4609,431.5,341.4609,421.5,345.4609,425.5,341.4609" style="stroke:#1E90FF;stroke-width:1.0;"/><line style="stroke:#1E90FF;stroke-width:1.0;" x1="34.5" x2="427.5" y1="341.4609" y2="341.4609"/><text fill="#000000" font-family="sans-serif" font-size="13" font-weight="bold" lengthAdjust="spacing" textLength="9" x="44" y="329.0635">7</text><text fill="#000000" font-family="sans-serif" font-size="13" lengthAdjust="spacing" textLength="297" x="90" y="321.4082">Fills the reset password form (email, password,</text><text fill="#000000" font-family="sans-serif" font-size="13" lengthAdjust="spacing" textLength="363" x="61" y="336.7188">password_confirmation, authenticator_code) and submits</text><polygon fill="#1E90FF" points="45.5,366.7715,35.5,370.7715,45.5,374.7715,41.5,370.7715" style="stroke:#1E90FF;stroke-width:1.0;"/><line style="stroke:#1E90FF;stroke-width:1.0;" x1="39.5" x2="437.5" y1="370.7715" y2="370.7715"/><text fill="#000000" font-family="sans-serif" font-size="13" font-weight="bold" lengthAdjust="spacing" textLength="9" x="142" y="366.0293">8</text><text fill="#000000" font-family="sans-serif" font-size="13" lengthAdjust="spacing" textLength="176" x="155" y="366.0293">Password reset successfully</text><!--SRC=[nLJHQjim57tNLroQXsmGiwwCCKefECvQ2c49TiPU2a6HhnCHMSfqvMLXxDydELdYf7FNfrGF1kkUSy-vXsjteynj54PdFepnoXbTbJEqZD5IwXMtl8G15hnIRe8_NQpaN9Ue7GZ_E8RrkLZEhQbqdXXbB7GANkH5qOJufvD2hhXly8kT4k9lsRH_Fqr6mr7A-iRcQ1k5KJhudEwAlvjD2RzNg0NwZaDPu51gR9879f-ZxQiA3-LJuV5u-934auVH5yPYuOnz3h45_5lXoKoTk_gms5gpVW9lwJ8-nDIcS-yrLirYv_BJrSSFLxl2C_PzTjre8jrhx9SBil0rWylt446AXCxl1D7Q3n9irT7IkyRyT9Qr3x9mSJExJPJqUtq1d21cpMqDnMn33ikwcAIrNI8Z97VIQ3hdLogS_C4TUeiiXkZMkxdsOVglW1o1Cs2FWztZW-ia3Opu6WQILeflF661K1XR1gRKkHG16Ywnv5An78_uUy4xgHHvmW4ANET0rQoKZbf4CzGvUToEi9Pk0HoKrCk3xz1lxxrDFHO2YN3hFl1VCkLnBlNG_nclXGLlQl-z_MqF7lN-PIgCBgGjwyNeWV-fBlnIXLoDzRKStxuWgV5VlQqyLVN0HQNKvjHpDtgLm_u0]--></g></svg>