<?xml version="1.0" encoding="us-ascii" standalone="no"?><svg xmlns="http://www.w3.org/2000/svg" xmlns:xlink="http://www.w3.org/1999/xlink" contentStyleType="text/css" height="529px" preserveAspectRatio="none" style="width:340px;height:529px;background:#FFFFFF;" version="1.1" viewBox="0 0 340 529" width="340px" zoomAndPan="magnify"><defs/><g><!--cluster Users--><g id="cluster_Users"><path d="M103.5,6.0137 L145.5,6.0137 A3.75,3.75 0 0 1 148,8.5137 L155,30.6348 L236.5,30.6348 A2.5,2.5 0 0 1 239,33.1348 L239,226.5137 A2.5,2.5 0 0 1 236.5,229.0137 L103.5,229.0137 A2.5,2.5 0 0 1 101,226.5137 L101,8.5137 A2.5,2.5 0 0 1 103.5,6.0137 " fill="none" style="stroke:#000000;stroke-width:1.5;"/><line style="stroke:#000000;stroke-width:1.5;" x1="101" x2="155" y1="30.6348" y2="30.6348"/><text fill="#000000" font-family="sans-serif" font-size="14" font-weight="bold" lengthAdjust="spacing" textLength="41" x="105" y="23.1211">Users</text></g><!--cluster Licenses--><g id="cluster_Licenses"><path d="M8.5,280.0137 L72.5,280.0137 A3.75,3.75 0 0 1 75,282.5137 L82,304.6348 L330.5,304.6348 A2.5,2.5 0 0 1 333,307.1348 L333,519.5137 A2.5,2.5 0 0 1 330.5,522.0137 L8.5,522.0137 A2.5,2.5 0 0 1 6,519.5137 L6,282.5137 A2.5,2.5 0 0 1 8.5,280.0137 " fill="none" style="stroke:#000000;stroke-width:1.5;"/><line style="stroke:#000000;stroke-width:1.5;" x1="6" x2="82" y1="304.6348" y2="304.6348"/><text fill="#000000" font-family="sans-serif" font-size="14" font-weight="bold" lengthAdjust="spacing" textLength="63" x="10" y="297.1211">Licenses</text></g><!--class Client--><g id="elem_Client"><rect codeLine="9" fill="#F1F1F1" height="170.3477" id="Client" rx="2.5" ry="2.5" style="stroke:#181818;stroke-width:0.5;" width="106" x="117" y="43.0137"/><ellipse cx="149.1" cy="59.0137" fill="#ADD1B2" rx="11" ry="11" style="stroke:#181818;stroke-width:1.0;"/><path d="M151.8656,54.8887 Q152.0219,54.6699 152.2094,54.5605 Q152.3969,54.4512 152.6156,54.4512 Q152.9906,54.4512 153.225,54.7168 Q153.4594,54.9668 153.4594,55.5762 L153.4594,57.0293 Q153.4594,57.6387 153.225,57.9043 Q152.9906,58.1699 152.6156,58.1699 Q152.2719,58.1699 152.0688,57.9668 Q151.8656,57.7793 151.7563,57.2637 Q151.7094,56.9043 151.5219,56.7168 Q151.1938,56.3418 150.5844,56.123 Q149.975,55.9043 149.35,55.9043 Q148.5844,55.9043 147.9438,56.2324 Q147.3188,56.5605 146.8188,57.3105 Q146.3344,58.0605 146.3344,59.0918 L146.3344,60.1855 Q146.3344,61.4199 147.225,62.248 Q148.1156,63.0605 149.7094,63.0605 Q150.6469,63.0605 151.3031,62.8105 Q151.6938,62.6543 152.1156,62.2168 Q152.3813,61.9512 152.5219,61.873 Q152.6781,61.7949 152.8813,61.7949 Q153.2094,61.7949 153.4594,62.0605 Q153.725,62.3105 153.725,62.6543 Q153.725,62.998 153.3813,63.4043 Q152.8813,63.9824 152.0844,64.3105 Q151.0063,64.7637 149.7094,64.7637 Q148.1938,64.7637 146.9906,64.1387 Q146.0063,63.6387 145.3188,62.5762 Q144.6313,61.498 144.6313,60.2168 L144.6313,59.0605 Q144.6313,57.7324 145.2406,56.5918 Q145.8656,55.4355 146.9594,54.8262 Q148.0531,54.2012 149.2875,54.2012 Q150.0219,54.2012 150.6625,54.373 Q151.3188,54.5293 151.8656,54.8887 Z " fill="#000000"/><text fill="#000000" font-family="sans-serif" font-size="14" lengthAdjust="spacing" textLength="36" x="166.9" y="64.8105">Client</text><line style="stroke:#181818;stroke-width:0.5;" x1="118" x2="222" y1="75.0137" y2="75.0137"/><text fill="#000000" font-family="sans-serif" font-size="14" lengthAdjust="spacing" textLength="51" x="123" y="94.1211">-clientID</text><text fill="#000000" font-family="sans-serif" font-size="14" lengthAdjust="spacing" textLength="40" x="123" y="112.7422">-name</text><text fill="#000000" font-family="sans-serif" font-size="14" lengthAdjust="spacing" textLength="38" x="123" y="131.3633">-email</text><text fill="#000000" font-family="sans-serif" font-size="14" lengthAdjust="spacing" textLength="65" x="123" y="149.9844">-password</text><text fill="#000000" font-family="sans-serif" font-size="14" lengthAdjust="spacing" textLength="63" x="123" y="168.6055">-birthDate</text><text fill="#000000" font-family="sans-serif" font-size="14" lengthAdjust="spacing" textLength="94" x="123" y="187.2266">-phoneNumber</text><text fill="#000000" font-family="sans-serif" font-size="14" lengthAdjust="spacing" textLength="56" x="123" y="205.8477">-address</text></g><!--class License--><g id="elem_License"><rect codeLine="22" fill="#F1F1F1" height="188.9688" id="License" rx="2.5" ry="2.5" style="stroke:#181818;stroke-width:0.5;" width="110" x="22" y="317.0137"/><ellipse cx="50.05" cy="333.0137" fill="#ADD1B2" rx="11" ry="11" style="stroke:#181818;stroke-width:1.0;"/><path d="M52.8156,328.8887 Q52.9719,328.6699 53.1594,328.5605 Q53.3469,328.4512 53.5656,328.4512 Q53.9406,328.4512 54.175,328.7168 Q54.4094,328.9668 54.4094,329.5762 L54.4094,331.0293 Q54.4094,331.6387 54.175,331.9043 Q53.9406,332.1699 53.5656,332.1699 Q53.2219,332.1699 53.0188,331.9668 Q52.8156,331.7793 52.7063,331.2637 Q52.6594,330.9043 52.4719,330.7168 Q52.1438,330.3418 51.5344,330.123 Q50.925,329.9043 50.3,329.9043 Q49.5344,329.9043 48.8938,330.2324 Q48.2688,330.5605 47.7688,331.3105 Q47.2844,332.0605 47.2844,333.0918 L47.2844,334.1855 Q47.2844,335.4199 48.175,336.248 Q49.0656,337.0605 50.6594,337.0605 Q51.5969,337.0605 52.2531,336.8105 Q52.6438,336.6543 53.0656,336.2168 Q53.3313,335.9512 53.4719,335.873 Q53.6281,335.7949 53.8313,335.7949 Q54.1594,335.7949 54.4094,336.0605 Q54.675,336.3105 54.675,336.6543 Q54.675,336.998 54.3313,337.4043 Q53.8313,337.9824 53.0344,338.3105 Q51.9563,338.7637 50.6594,338.7637 Q49.1438,338.7637 47.9406,338.1387 Q46.9563,337.6387 46.2688,336.5762 Q45.5813,335.498 45.5813,334.2168 L45.5813,333.0605 Q45.5813,331.7324 46.1906,330.5918 Q46.8156,329.4355 47.9094,328.8262 Q49.0031,328.2012 50.2375,328.2012 Q50.9719,328.2012 51.6125,328.373 Q52.2688,328.5293 52.8156,328.8887 Z " fill="#000000"/><text fill="#000000" font-family="sans-serif" font-size="14" lengthAdjust="spacing" textLength="49" x="66.95" y="338.8105">License</text><line style="stroke:#181818;stroke-width:0.5;" x1="23" x2="131" y1="349.0137" y2="349.0137"/><text fill="#000000" font-family="sans-serif" font-size="14" lengthAdjust="spacing" textLength="62" x="28" y="368.1211">-licenseID</text><text fill="#000000" font-family="sans-serif" font-size="14" lengthAdjust="spacing" textLength="98" x="28" y="386.7422">-licenseNumber</text><text fill="#000000" font-family="sans-serif" font-size="14" lengthAdjust="spacing" textLength="40" x="28" y="405.3633">-name</text><text fill="#000000" font-family="sans-serif" font-size="14" lengthAdjust="spacing" textLength="38" x="28" y="423.9844">-email</text><text fill="#000000" font-family="sans-serif" font-size="14" lengthAdjust="spacing" textLength="63" x="28" y="442.6055">-birthDate</text><text fill="#000000" font-family="sans-serif" font-size="14" lengthAdjust="spacing" textLength="56" x="28" y="461.2266">-address</text><text fill="#000000" font-family="sans-serif" font-size="14" lengthAdjust="spacing" textLength="72" x="28" y="479.8477">-expiryDate</text><text fill="#000000" font-family="sans-serif" font-size="14" lengthAdjust="spacing" textLength="81" x="28" y="498.4688">-licenseType</text></g><!--class LicenseApplication--><g id="elem_LicenseApplication"><rect codeLine="32" fill="#F1F1F1" height="151.7266" id="LicenseApplication" rx="2.5" ry="2.5" style="stroke:#181818;stroke-width:0.5;" width="150" x="167" y="335.5137"/><ellipse cx="182" cy="351.5137" fill="#ADD1B2" rx="11" ry="11" style="stroke:#181818;stroke-width:1.0;"/><path d="M184.7656,347.3887 Q184.9219,347.1699 185.1094,347.0605 Q185.2969,346.9512 185.5156,346.9512 Q185.8906,346.9512 186.125,347.2168 Q186.3594,347.4668 186.3594,348.0762 L186.3594,349.5293 Q186.3594,350.1387 186.125,350.4043 Q185.8906,350.6699 185.5156,350.6699 Q185.1719,350.6699 184.9688,350.4668 Q184.7656,350.2793 184.6563,349.7637 Q184.6094,349.4043 184.4219,349.2168 Q184.0938,348.8418 183.4844,348.623 Q182.875,348.4043 182.25,348.4043 Q181.4844,348.4043 180.8438,348.7324 Q180.2188,349.0605 179.7188,349.8105 Q179.2344,350.5605 179.2344,351.5918 L179.2344,352.6855 Q179.2344,353.9199 180.125,354.748 Q181.0156,355.5605 182.6094,355.5605 Q183.5469,355.5605 184.2031,355.3105 Q184.5938,355.1543 185.0156,354.7168 Q185.2813,354.4512 185.4219,354.373 Q185.5781,354.2949 185.7813,354.2949 Q186.1094,354.2949 186.3594,354.5605 Q186.625,354.8105 186.625,355.1543 Q186.625,355.498 186.2813,355.9043 Q185.7813,356.4824 184.9844,356.8105 Q183.9063,357.2637 182.6094,357.2637 Q181.0938,357.2637 179.8906,356.6387 Q178.9063,356.1387 178.2188,355.0762 Q177.5313,353.998 177.5313,352.7168 L177.5313,351.5605 Q177.5313,350.2324 178.1406,349.0918 Q178.7656,347.9355 179.8594,347.3262 Q180.9531,346.7012 182.1875,346.7012 Q182.9219,346.7012 183.5625,346.873 Q184.2188,347.0293 184.7656,347.3887 Z " fill="#000000"/><text fill="#000000" font-family="sans-serif" font-size="14" lengthAdjust="spacing" textLength="118" x="196" y="357.3105">LicenseApplication</text><line style="stroke:#181818;stroke-width:0.5;" x1="168" x2="316" y1="367.5137" y2="367.5137"/><text fill="#000000" font-family="sans-serif" font-size="14" lengthAdjust="spacing" textLength="40" x="173" y="386.6211">-name</text><text fill="#000000" font-family="sans-serif" font-size="14" lengthAdjust="spacing" textLength="38" x="173" y="405.2422">-email</text><text fill="#000000" font-family="sans-serif" font-size="14" lengthAdjust="spacing" textLength="63" x="173" y="423.8633">-birthDate</text><text fill="#000000" font-family="sans-serif" font-size="14" lengthAdjust="spacing" textLength="56" x="173" y="442.4844">-address</text><text fill="#000000" font-family="sans-serif" font-size="14" lengthAdjust="spacing" textLength="117" x="173" y="461.1055">-medicalCertificate</text><text fill="#000000" font-family="sans-serif" font-size="14" lengthAdjust="spacing" textLength="80" x="173" y="479.7266">-documentID</text></g><!--link Client to License--><g id="link_Client_License"><path codeLine="43" d="M142.22,213.0937 C131.46,245.6537 120.982,277.3765 109.932,310.8265 " fill="none" id="Client-to-License" style="stroke:#181818;stroke-width:1.0;"/><polygon fill="#181818" points="108.05,316.5237,114.6712,309.2326,109.6184,311.776,107.0749,306.7232,108.05,316.5237" style="stroke:#181818;stroke-width:1.0;"/><polygon fill="#000000" points="133.4315,259.4068,139.0595,251.7402,133.4783,249.8964,133.4315,259.4068" style="stroke:#000000;stroke-width:1.0;"/><text fill="#000000" font-family="sans-serif" font-size="13" lengthAdjust="spacing" textLength="21" x="144" y="260.042">has</text><text fill="#000000" font-family="sans-serif" font-size="13" lengthAdjust="spacing" textLength="7" x="132.4341" y="235.4539">1</text><text fill="#000000" font-family="sans-serif" font-size="13" lengthAdjust="spacing" textLength="5" x="105.2359" y="305.6409">*</text></g><!--link Client to LicenseApplication--><g id="link_Client_LicenseApplication"><path codeLine="44" d="M191.5,213.0937 C201.45,251.9737 211.6836,291.9707 221.3236,329.6707 " fill="none" id="Client-to-LicenseApplication" style="stroke:#181818;stroke-width:1.0;"/><polygon fill="#181818" points="222.81,335.4837,224.4557,325.7733,221.5713,330.6395,216.7051,327.7551,222.81,335.4837" style="stroke:#181818;stroke-width:1.0;"/><polygon fill="#000000" points="209.2392,259.5032,209.8447,250.0119,204.1502,251.4687,209.2392,259.5032" style="stroke:#000000;stroke-width:1.0;"/><text fill="#000000" font-family="sans-serif" font-size="13" lengthAdjust="spacing" textLength="31" x="217" y="260.042">apply</text><text fill="#000000" font-family="sans-serif" font-size="13" lengthAdjust="spacing" textLength="7" x="186.1031" y="235.4539">1</text><text fill="#000000" font-family="sans-serif" font-size="13" lengthAdjust="spacing" textLength="5" x="215.6749" y="324.2189">*</text></g><!--SRC=[ZP3BQWCn34Nt-WepcqB1dNQRHI0acq3ffkq7Q6mrO-8NjePsEkJVwtcLP56eyKBIlTAnTTSonxofwsZHS-ViWmgkLXPpbjhWAQ63rcWIZhWDEaC-6n-nbCLasZ4dqtHCHnNyg_acyGZZYQZEU2BndYdb0IQls5j3dWUGQWgE1v0U7O4aXyQ2ZCNq6P86sPZ4xG6vQB4Ddbuwrr02YLedoXakCDuLycmK-Ko_d2Kl83j78sa9rqatu2lSIf3q5Ktgv-BI-zP7AjmRo2x6eYARu8T_J7MaYzlkAR7v6FkAg8FgtBoFo_WjcFSaggTAocrrNwqiiH4jPh7zqt3rcEB5alN5_GC0]--></g></svg>