<?xml version="1.0" encoding="us-ascii" standalone="no"?><svg xmlns="http://www.w3.org/2000/svg" xmlns:xlink="http://www.w3.org/1999/xlink" contentStyleType="text/css" height="476px" preserveAspectRatio="none" style="width:1101px;height:476px;background:#FAFDFF;" version="1.1" viewBox="0 0 1101 476" width="1101px" zoomAndPan="magnify"><defs/><g><rect fill="#FAFDFF" height="476" style="stroke:none;stroke-width:1.0;" width="1101" x="0" y="0"/><text fill="#000000" font-family="sans-serif" font-size="14" font-weight="bold" lengthAdjust="spacing" textLength="175" x="462" y="30.1074">US 02 - Apply to a license</text><rect fill="#C2F0FF" height="251.3281" style="stroke:#1E90FF;stroke-width:1.0;" width="10" x="23.5" y="133.2422"/><rect fill="#C2F0FF" height="219.0371" style="stroke:#1E90FF;stroke-width:1.0;" width="10" x="325.5" y="156.5332"/><rect fill="#C2F0FF" height="93.873" style="stroke:#1E90FF;stroke-width:1.0;" width="10" x="818.5" y="250.4063"/><rect fill="#C2F0FF" height="31.291" style="stroke:#1E90FF;stroke-width:1.0;" width="10" x="1052.5" y="281.6973"/><line style="stroke:#1E90FF;stroke-width:0.5;stroke-dasharray:5.0,5.0;" x1="28" x2="28" y1="123.2422" y2="393.5703"/><line style="stroke:#1E90FF;stroke-width:0.5;stroke-dasharray:5.0,5.0;" x1="330.5" x2="330.5" y1="123.2422" y2="393.5703"/><line style="stroke:#1E90FF;stroke-width:0.5;stroke-dasharray:5.0,5.0;" x1="823" x2="823" y1="123.2422" y2="393.5703"/><line style="stroke:#1E90FF;stroke-width:0.5;stroke-dasharray:5.0,5.0;" x1="1057" x2="1057" y1="123.2422" y2="393.5703"/><text fill="#000000" font-family="sans-serif" font-size="14" font-weight="bold" lengthAdjust="spacing" textLength="41" x="5" y="119.7285">Client</text><ellipse cx="28.5" cy="53.1211" fill="#C2F0FF" rx="8" ry="8" style="stroke:#1E90FF;stroke-width:0.5;"/><path d="M28.5,61.1211 L28.5,88.1211 M15.5,69.1211 L41.5,69.1211 M28.5,88.1211 L15.5,103.1211 M28.5,88.1211 L41.5,103.1211 " fill="none" style="stroke:#1E90FF;stroke-width:0.5;"/><text fill="#000000" font-family="sans-serif" font-size="14" font-weight="bold" lengthAdjust="spacing" textLength="41" x="5" y="407.6777">Client</text><ellipse cx="28.5" cy="419.6914" fill="#C2F0FF" rx="8" ry="8" style="stroke:#1E90FF;stroke-width:0.5;"/><path d="M28.5,427.6914 L28.5,454.6914 M15.5,435.6914 L41.5,435.6914 M28.5,454.6914 L15.5,469.6914 M28.5,454.6914 L41.5,469.6914 " fill="none" style="stroke:#1E90FF;stroke-width:0.5;"/><rect fill="#FFFFFF" height="32.6211" rx="2.5" ry="2.5" style="stroke:#1E90FF;stroke-width:0.5;" width="182" x="239.5" y="89.6211"/><text fill="#000000" font-family="sans-serif" font-size="14" font-weight="bold" lengthAdjust="spacing" textLength="168" x="246.5" y="111.7285">LicenseApplicationPage</text><rect fill="#FFFFFF" height="32.6211" rx="2.5" ry="2.5" style="stroke:#1E90FF;stroke-width:0.5;" width="182" x="239.5" y="392.5703"/><text fill="#000000" font-family="sans-serif" font-size="14" font-weight="bold" lengthAdjust="spacing" textLength="168" x="246.5" y="414.6777">LicenseApplicationPage</text><rect fill="#FFFFFF" height="32.6211" rx="2.5" ry="2.5" style="stroke:#1E90FF;stroke-width:0.5;" width="201" x="723" y="89.6211"/><text fill="#000000" font-family="sans-serif" font-size="14" font-weight="bold" lengthAdjust="spacing" textLength="187" x="730" y="111.7285">LicenseApplicationService</text><rect fill="#FFFFFF" height="32.6211" rx="2.5" ry="2.5" style="stroke:#1E90FF;stroke-width:0.5;" width="201" x="723" y="392.5703"/><text fill="#000000" font-family="sans-serif" font-size="14" font-weight="bold" lengthAdjust="spacing" textLength="187" x="730" y="414.6777">LicenseApplicationService</text><rect fill="#FFFFFF" height="32.6211" rx="2.5" ry="2.5" style="stroke:#1E90FF;stroke-width:0.5;" width="75" x="1020" y="89.6211"/><text fill="#000000" font-family="sans-serif" font-size="14" font-weight="bold" lengthAdjust="spacing" textLength="61" x="1027" y="111.7285">BackEnd</text><rect fill="#FFFFFF" height="32.6211" rx="2.5" ry="2.5" style="stroke:#1E90FF;stroke-width:0.5;" width="75" x="1020" y="392.5703"/><text fill="#000000" font-family="sans-serif" font-size="14" font-weight="bold" lengthAdjust="spacing" textLength="61" x="1027" y="414.6777">BackEnd</text><rect fill="#C2F0FF" height="251.3281" style="stroke:#1E90FF;stroke-width:1.0;" width="10" x="23.5" y="133.2422"/><rect fill="#C2F0FF" height="219.0371" style="stroke:#1E90FF;stroke-width:1.0;" width="10" x="325.5" y="156.5332"/><rect fill="#C2F0FF" height="93.873" style="stroke:#1E90FF;stroke-width:1.0;" width="10" x="818.5" y="250.4063"/><rect fill="#C2F0FF" height="31.291" style="stroke:#1E90FF;stroke-width:1.0;" width="10" x="1052.5" y="281.6973"/><polygon fill="#1E90FF" points="313.5,152.5332,323.5,156.5332,313.5,160.5332,317.5,156.5332" style="stroke:#1E90FF;stroke-width:1.0;"/><line style="stroke:#1E90FF;stroke-width:1.0;" x1="33.5" x2="319.5" y1="156.5332" y2="156.5332"/><text fill="#000000" font-family="sans-serif" font-size="13" font-weight="bold" lengthAdjust="spacing" textLength="7" x="97" y="151.2705">1</text><text fill="#000000" font-family="sans-serif" font-size="13" lengthAdjust="spacing" textLength="154" x="108" y="151.2705">Asks to apply for a license</text><polygon fill="#1E90FF" points="44.5,183.8242,34.5,187.8242,44.5,191.8242,40.5,187.8242" style="stroke:#1E90FF;stroke-width:1.0;"/><line style="stroke:#1E90FF;stroke-width:1.0;" x1="38.5" x2="324.5" y1="187.8242" y2="187.8242"/><text fill="#000000" font-family="sans-serif" font-size="13" font-weight="bold" lengthAdjust="spacing" textLength="7" x="64" y="182.5615">2</text><text fill="#000000" font-family="sans-serif" font-size="13" lengthAdjust="spacing" textLength="220" x="75" y="182.5615">Requests the documentation and data</text><polygon fill="#1E90FF" points="313.5,215.1152,323.5,219.1152,313.5,223.1152,317.5,219.1152" style="stroke:#1E90FF;stroke-width:1.0;"/><line style="stroke:#1E90FF;stroke-width:1.0;" x1="33.5" x2="319.5" y1="219.1152" y2="219.1152"/><text fill="#000000" font-family="sans-serif" font-size="13" font-weight="bold" lengthAdjust="spacing" textLength="7" x="75" y="213.8525">3</text><text fill="#000000" font-family="sans-serif" font-size="13" lengthAdjust="spacing" textLength="198" x="86" y="213.8525">Upload documents and insert data</text><polygon fill="#1E90FF" points="806.5,246.4063,816.5,250.4063,806.5,254.4063,810.5,250.4063" style="stroke:#1E90FF;stroke-width:1.0;"/><line style="stroke:#1E90FF;stroke-width:1.0;" x1="335.5" x2="812.5" y1="250.4063" y2="250.4063"/><text fill="#000000" font-family="sans-serif" font-size="13" font-weight="bold" lengthAdjust="spacing" textLength="7" x="345" y="245.1436">4</text><text fill="#000000" font-family="sans-serif" font-size="13" lengthAdjust="spacing" textLength="453" x="356" y="245.1436">licenseApply(name, birthdate, address, email, medicalCertificate, documentID)</text><polygon fill="#1E90FF" points="1040.5,277.6973,1050.5,281.6973,1040.5,285.6973,1044.5,281.6973" style="stroke:#1E90FF;stroke-width:1.0;"/><line style="stroke:#1E90FF;stroke-width:1.0;" x1="828.5" x2="1046.5" y1="281.6973" y2="281.6973"/><text fill="#000000" font-family="sans-serif" font-size="13" font-weight="bold" lengthAdjust="spacing" textLength="7" x="872" y="276.4346">5</text><text fill="#000000" font-family="sans-serif" font-size="13" lengthAdjust="spacing" textLength="126" x="883" y="276.4346">HTTP request (POST)</text><polygon fill="#1E90FF" points="839.5,308.9883,829.5,312.9883,839.5,316.9883,835.5,312.9883" style="stroke:#1E90FF;stroke-width:1.0;"/><line style="stroke:#1E90FF;stroke-width:1.0;stroke-dasharray:2.0,2.0;" x1="833.5" x2="1056.5" y1="312.9883" y2="312.9883"/><text fill="#000000" font-family="sans-serif" font-size="13" font-weight="bold" lengthAdjust="spacing" textLength="7" x="843" y="307.7256">6</text><text fill="#000000" font-family="sans-serif" font-size="13" lengthAdjust="spacing" textLength="189" x="854" y="307.7256">success/failure of the application</text><polygon fill="#1E90FF" points="346.5,340.2793,336.5,344.2793,346.5,348.2793,342.5,344.2793" style="stroke:#1E90FF;stroke-width:1.0;"/><line style="stroke:#1E90FF;stroke-width:1.0;stroke-dasharray:2.0,2.0;" x1="340.5" x2="822.5" y1="344.2793" y2="344.2793"/><text fill="#000000" font-family="sans-serif" font-size="13" font-weight="bold" lengthAdjust="spacing" textLength="7" x="479.5" y="339.0166">7</text><text fill="#000000" font-family="sans-serif" font-size="13" lengthAdjust="spacing" textLength="189" x="490.5" y="339.0166">success/failure of the application</text><polygon fill="#1E90FF" points="44.5,371.5703,34.5,375.5703,44.5,379.5703,40.5,375.5703" style="stroke:#1E90FF;stroke-width:1.0;"/><line style="stroke:#1E90FF;stroke-width:1.0;" x1="38.5" x2="329.5" y1="375.5703" y2="375.5703"/><text fill="#000000" font-family="sans-serif" font-size="13" font-weight="bold" lengthAdjust="spacing" textLength="7" x="48" y="370.3076">8</text><text fill="#000000" font-family="sans-serif" font-size="13" lengthAdjust="spacing" textLength="257" x="59" y="370.3076">Informs the success/failure of the application</text><!--SRC=[nLJHQjim57tNLroQXtOGqnB6664KR2Nh0c4nZiiUYsB9gOWjUPBShOpzUw_aD76x4DQNL0ycHEVSS-uzrpwFbkwn4j693o6iTLgrzKeOGkn6geOPLiD4bAojN2v-kxYIQrKBvQ30nqjOmehDskXMSQehRM1GifANPH-2JoSBsJ0iy8S0djUa-CVoBhcveulv8ki0sd1XUfUBR3BDje2__U9M_6o5AiIsyboMOYwLw1UOQBuM9gbQyHBosaIQpcSqpcUBxoG0uy9fSmor1nrMEzZhu6iu7TaO_UkWoIF-q_quZ-dUe6RJ1mokFey-VHprBe-qXZCcvr4ktNiifFEoSBk4gn5443TDzGXE0uDAuW9QuQs5kTlBtZ3iAQmHvdNXxClgcbOItuOpO1PYqjznVpdld7hlic1EQfMojGXWclq7UYdC0_xP4UW_11_TLF5mdKn922ksLXSoiEqflnw5am_C2Hm2YI6wnlx64DkD3P65x4gSs3wy7G47GJFFYCUG-TVOEYJT2-2wQFtd9lG2J77WpB5zzTkcqeplO3P09DOshaDkwr8wVbODItIXM2s6i9B6tICEVpBEZR1s2A9ciXf2BJW6K56i94iV1MAUPMQJ3ptlr0-TKY-JJCVmBSzJC5qJS94kbdaFZ0abKuY28nY3ROi2HIzBb6oD05s6hja-VS95dnoKa8vTlPMDFdSpdYaCekv6_COg6UxNknpo1000]--></g></svg>