<?xml version="1.0" encoding="us-ascii" standalone="no"?><svg xmlns="http://www.w3.org/2000/svg" xmlns:xlink="http://www.w3.org/1999/xlink" contentStyleType="text/css" height="550px" preserveAspectRatio="none" style="width:1432px;height:550px;background:#FAFDFF;" version="1.1" viewBox="0 0 1432 550" width="1432px" zoomAndPan="magnify"><defs/><g><rect fill="#FAFDFF" height="550" style="stroke:none;stroke-width:1.0;" width="1432" x="0" y="0"/><text fill="#000000" font-family="sans-serif" font-size="14" font-weight="bold" lengthAdjust="spacing" textLength="700" x="365" y="30.1074">US 10 - As a client, I want to edit my profile information such as delivery address and contact details.</text><rect fill="#C2F0FF" height="325.6191" style="stroke:#1E90FF;stroke-width:1.0;" width="10" x="23.5" y="133.2422"/><rect fill="#C2F0FF" height="293.3281" style="stroke:#1E90FF;stroke-width:1.0;" width="10" x="559.5" y="156.5332"/><rect fill="#C2F0FF" height="168.1641" style="stroke:#1E90FF;stroke-width:1.0;" width="10" x="989.5" y="250.4063"/><rect fill="#C2F0FF" height="28" style="stroke:#1E90FF;stroke-width:1.0;" width="10" x="994.5" y="289.6973"/><rect fill="#C2F0FF" height="31.291" style="stroke:#1E90FF;stroke-width:1.0;" width="10" x="1383.5" y="355.9883"/><line style="stroke:#1E90FF;stroke-width:0.5;stroke-dasharray:5.0,5.0;" x1="28" x2="28" y1="123.2422" y2="467.8613"/><line style="stroke:#1E90FF;stroke-width:0.5;stroke-dasharray:5.0,5.0;" x1="564" x2="564" y1="123.2422" y2="467.8613"/><line style="stroke:#1E90FF;stroke-width:0.5;stroke-dasharray:5.0,5.0;" x1="994.5" x2="994.5" y1="123.2422" y2="467.8613"/><line style="stroke:#1E90FF;stroke-width:0.5;stroke-dasharray:5.0,5.0;" x1="1388" x2="1388" y1="123.2422" y2="467.8613"/><text fill="#000000" font-family="sans-serif" font-size="14" font-weight="bold" lengthAdjust="spacing" textLength="41" x="5" y="119.7285">Client</text><ellipse cx="28.5" cy="53.1211" fill="#C2F0FF" rx="8" ry="8" style="stroke:#1E90FF;stroke-width:0.5;"/><path d="M28.5,61.1211 L28.5,88.1211 M15.5,69.1211 L41.5,69.1211 M28.5,88.1211 L15.5,103.1211 M28.5,88.1211 L41.5,103.1211 " fill="none" style="stroke:#1E90FF;stroke-width:0.5;"/><text fill="#000000" font-family="sans-serif" font-size="14" font-weight="bold" lengthAdjust="spacing" textLength="41" x="5" y="481.9688">Client</text><ellipse cx="28.5" cy="493.9824" fill="#C2F0FF" rx="8" ry="8" style="stroke:#1E90FF;stroke-width:0.5;"/><path d="M28.5,501.9824 L28.5,528.9824 M15.5,509.9824 L41.5,509.9824 M28.5,528.9824 L15.5,543.9824 M28.5,528.9824 L41.5,543.9824 " fill="none" style="stroke:#1E90FF;stroke-width:0.5;"/><rect fill="#FFFFFF" height="32.6211" rx="2.5" ry="2.5" style="stroke:#1E90FF;stroke-width:0.5;" width="125" x="502" y="89.6211"/><text fill="#000000" font-family="sans-serif" font-size="14" font-weight="bold" lengthAdjust="spacing" textLength="111" x="509" y="111.7285">DashboardPage</text><rect fill="#FFFFFF" height="32.6211" rx="2.5" ry="2.5" style="stroke:#1E90FF;stroke-width:0.5;" width="125" x="502" y="466.8613"/><text fill="#000000" font-family="sans-serif" font-size="14" font-weight="bold" lengthAdjust="spacing" textLength="111" x="509" y="488.9688">DashboardPage</text><rect fill="#FFFFFF" height="32.6211" rx="2.5" ry="2.5" style="stroke:#1E90FF;stroke-width:0.5;" width="144" x="922.5" y="89.6211"/><text fill="#000000" font-family="sans-serif" font-size="14" font-weight="bold" lengthAdjust="spacing" textLength="130" x="929.5" y="111.7285">DashboardService</text><rect fill="#FFFFFF" height="32.6211" rx="2.5" ry="2.5" style="stroke:#1E90FF;stroke-width:0.5;" width="144" x="922.5" y="466.8613"/><text fill="#000000" font-family="sans-serif" font-size="14" font-weight="bold" lengthAdjust="spacing" textLength="130" x="929.5" y="488.9688">DashboardService</text><rect fill="#FFFFFF" height="32.6211" rx="2.5" ry="2.5" style="stroke:#1E90FF;stroke-width:0.5;" width="75" x="1351" y="89.6211"/><text fill="#000000" font-family="sans-serif" font-size="14" font-weight="bold" lengthAdjust="spacing" textLength="61" x="1358" y="111.7285">BackEnd</text><rect fill="#FFFFFF" height="32.6211" rx="2.5" ry="2.5" style="stroke:#1E90FF;stroke-width:0.5;" width="75" x="1351" y="466.8613"/><text fill="#000000" font-family="sans-serif" font-size="14" font-weight="bold" lengthAdjust="spacing" textLength="61" x="1358" y="488.9688">BackEnd</text><rect fill="#C2F0FF" height="325.6191" style="stroke:#1E90FF;stroke-width:1.0;" width="10" x="23.5" y="133.2422"/><rect fill="#C2F0FF" height="293.3281" style="stroke:#1E90FF;stroke-width:1.0;" width="10" x="559.5" y="156.5332"/><rect fill="#C2F0FF" height="168.1641" style="stroke:#1E90FF;stroke-width:1.0;" width="10" x="989.5" y="250.4063"/><rect fill="#C2F0FF" height="28" style="stroke:#1E90FF;stroke-width:1.0;" width="10" x="994.5" y="289.6973"/><rect fill="#C2F0FF" height="31.291" style="stroke:#1E90FF;stroke-width:1.0;" width="10" x="1383.5" y="355.9883"/><polygon fill="#1E90FF" points="547.5,152.5332,557.5,156.5332,547.5,160.5332,551.5,156.5332" style="stroke:#1E90FF;stroke-width:1.0;"/><line style="stroke:#1E90FF;stroke-width:1.0;" x1="33.5" x2="553.5" y1="156.5332" y2="156.5332"/><text fill="#000000" font-family="sans-serif" font-size="13" font-weight="bold" lengthAdjust="spacing" textLength="7" x="184" y="151.2705">1</text><text fill="#000000" font-family="sans-serif" font-size="13" lengthAdjust="spacing" textLength="214" x="195" y="151.2705">Asks to update his profile information</text><polygon fill="#1E90FF" points="44.5,183.8242,34.5,187.8242,44.5,191.8242,40.5,187.8242" style="stroke:#1E90FF;stroke-width:1.0;"/><line style="stroke:#1E90FF;stroke-width:1.0;stroke-dasharray:2.0,2.0;" x1="38.5" x2="558.5" y1="187.8242" y2="187.8242"/><text fill="#000000" font-family="sans-serif" font-size="13" font-weight="bold" lengthAdjust="spacing" textLength="7" x="91" y="182.5615">2</text><text fill="#000000" font-family="sans-serif" font-size="13" lengthAdjust="spacing" textLength="400" x="102" y="182.5615">RequestInformation(name,password,birthDate,phoneNumber,address)</text><polygon fill="#1E90FF" points="547.5,215.1152,557.5,219.1152,547.5,223.1152,551.5,219.1152" style="stroke:#1E90FF;stroke-width:1.0;"/><line style="stroke:#1E90FF;stroke-width:1.0;" x1="33.5" x2="553.5" y1="219.1152" y2="219.1152"/><text fill="#000000" font-family="sans-serif" font-size="13" font-weight="bold" lengthAdjust="spacing" textLength="7" x="202.5" y="213.8525">3</text><text fill="#000000" font-family="sans-serif" font-size="13" lengthAdjust="spacing" textLength="177" x="213.5" y="213.8525">Fills in the updated information</text><polygon fill="#1E90FF" points="977.5,246.4063,987.5,250.4063,977.5,254.4063,981.5,250.4063" style="stroke:#1E90FF;stroke-width:1.0;"/><line style="stroke:#1E90FF;stroke-width:1.0;" x1="569.5" x2="983.5" y1="250.4063" y2="250.4063"/><text fill="#000000" font-family="sans-serif" font-size="13" font-weight="bold" lengthAdjust="spacing" textLength="7" x="579" y="245.1436">4</text><text fill="#000000" font-family="sans-serif" font-size="13" lengthAdjust="spacing" textLength="390" x="590" y="245.1436">updateUser(name,email,password,birthDate,phoneNumber,address)</text><line style="stroke:#1E90FF;stroke-width:1.0;" x1="1004.5" x2="1046.5" y1="281.6973" y2="281.6973"/><line style="stroke:#1E90FF;stroke-width:1.0;" x1="1046.5" x2="1046.5" y1="281.6973" y2="294.6973"/><line style="stroke:#1E90FF;stroke-width:1.0;" x1="1005.5" x2="1046.5" y1="294.6973" y2="294.6973"/><polygon fill="#1E90FF" points="1015.5,290.6973,1005.5,294.6973,1015.5,298.6973,1011.5,294.6973" style="stroke:#1E90FF;stroke-width:1.0;"/><text fill="#000000" font-family="sans-serif" font-size="13" font-weight="bold" lengthAdjust="spacing" textLength="7" x="1011.5" y="276.4346">5</text><text fill="#000000" font-family="sans-serif" font-size="13" lengthAdjust="spacing" textLength="359" x="1022.5" y="276.4346">verifyFormat(name,password,birthDate,phoneNumber,address)</text><polygon fill="#1E90FF" points="1371.5,351.9883,1381.5,355.9883,1371.5,359.9883,1375.5,355.9883" style="stroke:#1E90FF;stroke-width:1.0;"/><line style="stroke:#1E90FF;stroke-width:1.0;" x1="999.5" x2="1377.5" y1="355.9883" y2="355.9883"/><text fill="#000000" font-family="sans-serif" font-size="13" font-weight="bold" lengthAdjust="spacing" textLength="7" x="1128" y="350.7256">6</text><text fill="#000000" font-family="sans-serif" font-size="13" lengthAdjust="spacing" textLength="116" x="1139" y="350.7256">HTTP request (PUT)</text><polygon fill="#1E90FF" points="1010.5,383.2793,1000.5,387.2793,1010.5,391.2793,1006.5,387.2793" style="stroke:#1E90FF;stroke-width:1.0;"/><line style="stroke:#1E90FF;stroke-width:1.0;stroke-dasharray:2.0,2.0;" x1="1004.5" x2="1387.5" y1="387.2793" y2="387.2793"/><text fill="#000000" font-family="sans-serif" font-size="13" font-weight="bold" lengthAdjust="spacing" textLength="7" x="1149" y="382.0166">7</text><text fill="#000000" font-family="sans-serif" font-size="13" lengthAdjust="spacing" textLength="79" x="1160" y="382.0166">updatedClient</text><polygon fill="#1E90FF" points="580.5,414.5703,570.5,418.5703,580.5,422.5703,576.5,418.5703" style="stroke:#1E90FF;stroke-width:1.0;"/><line style="stroke:#1E90FF;stroke-width:1.0;stroke-dasharray:2.0,2.0;" x1="574.5" x2="993.5" y1="418.5703" y2="418.5703"/><text fill="#000000" font-family="sans-serif" font-size="13" font-weight="bold" lengthAdjust="spacing" textLength="7" x="737" y="413.3076">8</text><text fill="#000000" font-family="sans-serif" font-size="13" lengthAdjust="spacing" textLength="79" x="748" y="413.3076">updatedClient</text><polygon fill="#1E90FF" points="44.5,445.8613,34.5,449.8613,44.5,453.8613,40.5,449.8613" style="stroke:#1E90FF;stroke-width:1.0;"/><line style="stroke:#1E90FF;stroke-width:1.0;" x1="38.5" x2="563.5" y1="449.8613" y2="449.8613"/><text fill="#000000" font-family="sans-serif" font-size="13" font-weight="bold" lengthAdjust="spacing" textLength="7" x="48" y="444.5986">9</text><text fill="#000000" font-family="sans-serif" font-size="13" lengthAdjust="spacing" textLength="491" x="59" y="444.5986">Shows the users updated information and informs the user of the operation's success</text><!--SRC=[nLHHQzim47xNhpZMXtQGR5qPOuHHS9Iq2uGcE2bxB8frZaLjoPFaPc7il-yi6-nqMTXUMZqOc_lkllk-E_bykFBx78SlV1WJbJUwAZPe6NEFIfV2YW8cc8egzslyuQDSRNM1saD2ZqFOM2IFMsigBRd9ZOMpLAGoJViGUdgLg59GWPyCw3nFYhwj7iQt3tmnNyGDm5Y9jXTSn9Dft09-zOix_5wXJh2jF5SfpfN6Ve69aLkquxp2GyZp9fRB-On7wzdYZWLWb7XZJw4wq76serhFRi9fagqrkwDDdkX_sTbvYlUMECi-uEpoyzMdZrUzu0bfv34x7wwLVus5z3KjtA_WmoKC8N8W8CaLhTu0Ph2hryWRGAay57iehKaLmPLEZIs4LqQ3gv8CX0E9kNf2kmSXfKL7XRI4n6Wl4az1BrJktjL2mnJT-vwrxYM4Cb7pmfilcsiU1BwfkuvO_yRKmObmsSO8AvTYYm73ux-3LcYVLDBY-1-uUknJBKDuF6LXq95p9b71FFUIVvx4goVXaIH7CBmcLICQzwEhvrkLievaoXqRSPTAJl0OXfGTZI2k_mREpphWXHO53ahXt8xkmc2ZhCycb3SeCwFnBlps1krwl6LT6pSgpnqnWi-mxKKUD11O2Sj7RVZUeMtOiA35-dVEJWfdd3T5OGIqk2hTtmJ2_rFHBoYn_zNM7qz7y7MzNe9j_8ABvVswbqThCPu6JqCdhVncHViLc_NXd93anWbWhIpOHJDQPMRd6bl9CNVCt71Fc-yE2IODxwP46r3dhhxe2Ka-e8ffdr_biDy0]--></g></svg>